<?xml version="1.0" standalone="no"?>
<!DOCTYPE svg PUBLIC "-//W3C//DTD SVG 1.1//EN" "http://www.w3.org/Graphics/SVG/1.1/DTD/svg11.dtd" >
<svg>
<metadata>
Created by FontForge 20120731 at Fri May 12 05:06:10 2017
 By www
</metadata>
<defs>
<font id="NewcastleW00-BasicClean" horiz-adv-x="780" >
  <font-face 
    font-family="NewcastleW00-BasicClean"
    font-weight="400"
    font-stretch="ultra-condensed"
    units-per-em="1000"
    panose-1="1 0 0 0 0 0 0 0 0 0"
    ascent="800"
    descent="-200"
    x-height="689"
    cap-height="693"
    bbox="-206 -437 1762 1089"
    underline-thickness="50"
    underline-position="-125"
    unicode-range="U+0020-261B"
  />
<missing-glyph horiz-adv-x="893" 
d="M807 364q0 -79 -28 -147t-77 -118t-117 -78.5t-147 -28.5q-69 0 -133.5 27.5t-114 76.5t-79.5 116t-30 146q0 77 30 143t81.5 114t119.5 75.5t144 27.5q47 0 87.5 -12.5t83.5 -31.5q4 -7 11.5 -12t16 -9.5t16.5 -9t13 -10.5q30 -31 53 -60t38.5 -61t23.5 -68t8 -80z
M401 665q-12 0 -16 -2.5t-7 -11.5l-29 -92q-1 -2 -1.5 -7.5t-0.5 -7.5q0 -3 9 -8t20.5 -12t20.5 -16.5t9 -22.5q-2 -12 -8.5 -30.5t-14 -40t-13.5 -43t-6 -39.5q0 -56 30.5 -84.5t84.5 -28.5q19 0 24 2.5t5 17.5q0 25 -0.5 42t-2.5 42q-8 8 -11 12.5t-3 13.5q0 22 11.5 45
t19.5 43q8 24 13.5 49.5t5.5 38.5q0 31 -10.5 56.5t-29 44t-44.5 29t-56 10.5zM380 189v-106q0 -5 4 -11q16 -1 27 -1.5t21 -0.5h21.5h27.5q10 0 18.5 1.5t8.5 8.5v97q0 3 -1.5 9.5t-3.5 8.5l-19 3h-96z" />
    <glyph glyph-name=".notdef" horiz-adv-x="893" 
d="M807 364q0 -79 -28 -147t-77 -118t-117 -78.5t-147 -28.5q-69 0 -133.5 27.5t-114 76.5t-79.5 116t-30 146q0 77 30 143t81.5 114t119.5 75.5t144 27.5q47 0 87.5 -12.5t83.5 -31.5q4 -7 11.5 -12t16 -9.5t16.5 -9t13 -10.5q30 -31 53 -60t38.5 -61t23.5 -68t8 -80z
M401 665q-12 0 -16 -2.5t-7 -11.5l-29 -92q-1 -2 -1.5 -7.5t-0.5 -7.5q0 -3 9 -8t20.5 -12t20.5 -16.5t9 -22.5q-2 -12 -8.5 -30.5t-14 -40t-13.5 -43t-6 -39.5q0 -56 30.5 -84.5t84.5 -28.5q19 0 24 2.5t5 17.5q0 25 -0.5 42t-2.5 42q-8 8 -11 12.5t-3 13.5q0 22 11.5 45
t19.5 43q8 24 13.5 49.5t5.5 38.5q0 31 -10.5 56.5t-29 44t-44.5 29t-56 10.5zM380 189v-106q0 -5 4 -11q16 -1 27 -1.5t21 -0.5h21.5h27.5q10 0 18.5 1.5t8.5 8.5v97q0 3 -1.5 9.5t-3.5 8.5l-19 3h-96z" />
    <glyph glyph-name=".null" horiz-adv-x="0" 
 />
    <glyph glyph-name="nonmarkingreturn" horiz-adv-x="333" 
 />
    <glyph glyph-name="space" unicode=" " horiz-adv-x="370" 
 />
    <glyph glyph-name="exclam" unicode="!" horiz-adv-x="408" 
d="M163 184q-9 0 -13.5 12.5t-6.5 28t-2.5 30.5t-0.5 20l-13 140q0 11 -4 44t-9.5 75t-9.5 87.5t-4 82.5l6 6q8 1 32 1.5t72 0.5h18t24 -0.5t25.5 -1t23.5 -0.5l7 -3v-17q-5 -42 -9 -71.5t-4 -58.5v-11t1 -11l-19 -182v-4q0 -9 -1.5 -36t-5 -56.5t-9 -52.5t-13.5 -23h-85z
M268 155q2 0 5.5 -5t3.5 -7v-127q0 -10 -8 -12t-16 -2q-32 0 -59.5 1t-55.5 1q-2 1 -6.5 4.5t-4.5 7.5v118q0 8 2.5 14.5t10.5 6.5h128z" />
    <glyph glyph-name="quotedbl" unicode="&#x22;" horiz-adv-x="431" 
d="M88 501q-5 0 -6.5 5t-1.5 13q0 6 0.5 12t0.5 11v128q0 26 2.5 36t7.5 10l45 2l47 -1q2 0 4 -2.5t4 -17.5l1 -19v-19q0 -4 -1.5 -12t-1.5 -10v-124q0 -8 -6 -8l-62 -3zM239 503q-1 0 -2.5 0.5t-2.5 6t-2 17t-1 33.5q0 1 0.5 4.5t0.5 11t0.5 20.5t0.5 35q0 15 -0.5 33.5
t-0.5 43.5q0 2 4.5 5t6.5 3h91q8 0 8 -15v-5q-1 -29 -1 -61.5v-85.5q0 -50 -9 -50q-17 0 -36.5 1t-56.5 3z" />
    <glyph glyph-name="numbersign" unicode="#" horiz-adv-x="768" 
d="M503 592q3 0 4.5 -0.5t4.5 -0.5h79q2 0 2.5 -2t2.5 -3v-4l-16 -114h64q23 0 33.5 -1t10.5 -6l-12 -89l-4 -6l-17 -2h-47h-43l-17 -125q5 0 11.5 -1t7.5 -1q8 0 14.5 1.5t14.5 1.5q10 0 20 -4q4 0 6 4h16q4 -5 7.5 -7.5t3.5 -8.5q0 -14 -3 -36q-4 -24 -7.5 -39t-7.5 -15
q-3 0 -11.5 0.5t-21.5 0.5t-27.5 0.5t-29.5 0.5h-11l-8 -56l-2 -42q-4 -10 -7.5 -23.5t-7.5 -14.5q-5 -1 -10 -1h-24h-13h-21t-20.5 0.5t-10.5 1.5q-3 1 -4 4v7q2 6 4.5 12.5t4.5 13.5l14 98l-138 -7q-5 -19 -6 -35l-5 -25t-6.5 -30t-9 -26t-12.5 -12h-81q-5 0 -5 2v3
q3 18 5 32.5t4 28t4 28t4 31.5h-37h-32.5t-19 1.5t-8.5 4.5t-2 9l11 85q4 4 4 6l18 2q17 -1 33 -1h33h16l18 125q-8 0 -13 0.5t-9.5 1t-10 0.5h-14.5h-18.5t-18.5 -2q-4 5 -7.5 7.5t-3.5 7.5q0 6 1 15.5t3 20.5q1 4 2.5 13t3.5 18t4 16t4 7h11.5t21.5 0.5t28 0.5h30h7
q1 8 1.5 13t1.5 9.5t1.5 9.5t2.5 13l4 41q2 10 6 23.5t7 14.5q5 1 18.5 1h17.5q8 0 16.5 -1t17.5 -1h13.5t13.5 1q2 0 5 -1q2 0 2 -4q0 -1 0.5 -1.5t0.5 -1.5t-0.5 -1.5t-0.5 -1.5q-2 -7 -3.5 -13.5t-3.5 -13.5l-12 -86h130q1 4 1 5v1l0.5 0.5t0.5 3.5q2 9 6 27.5t7.5 38
t6.5 34.5t4 17q1 1 4 1zM459 362q-20 0 -35 -0.5t-30 -1.5t-32 -1.5t-39 -0.5l-21 -124q28 1 47.5 2t35 1.5t28.5 1t28 0.5l11 82z" />
    <glyph glyph-name="dollar" unicode="$" horiz-adv-x="582" 
d="M335 674q4 -11 4 -16v-20.5t2 -20.5q32 -3 78 -18q3 -2 11 -6t17 -9t16 -9.5t7 -6.5q0 -3 -7 -17t-16.5 -31t-19 -32t-13.5 -19q-1 -3 -5 -3q-5 0 -15.5 4.5t-24 10t-28 10t-27.5 4.5q-17 0 -34 -10.5t-17 -30.5q0 -13 5.5 -22.5t17 -19t29 -21t41.5 -27.5
q28 -19 53.5 -35.5t44.5 -36t30 -44.5t11 -62q0 -36 -13 -67t-35 -54.5t-52 -39t-63 -22.5q0 -18 0.5 -36t0.5 -38q0 -5 -2 -9t-10 -4h-75q-4 2 -7 2l-4 3q2 5 2 13q0 17 1 34t1 34q-67 10 -128 44q-12 8 -22.5 14.5t-10.5 11.5q1 5 7.5 17.5t15.5 28.5t19.5 33t19.5 31
q14 -2 25.5 -11t22.5 -14q23 -13 50 -18.5t53 -5.5q20 0 36 8.5t16 30.5q0 19 -10.5 35.5t-25.5 27.5q-33 20 -68.5 40t-65 44.5t-48.5 56.5t-19 76q0 69 38 107.5t100 51.5q0 13 -1 25t-1 26q0 5 2.5 9t9.5 4h74z" />
    <glyph glyph-name="percent" unicode="%" horiz-adv-x="871" 
d="M563 605q11 0 23 -1t26 -1h8t8 1q9 0 9 -5q0 -10 -5 -18t-9 -16q-59 -110 -117.5 -225t-115.5 -226q-6 -9 -14 -24t-17 -31t-18 -31t-15 -24q-3 -2 -11 -4t-10 -2l-74 1q-2 2 -4 2.5t-2 4.5q63 128 132 259t133 259q5 11 8.5 19t10.5 22q6 10 15.5 24t16.5 15q6 1 11.5 1
h10.5zM325 543q16 -29 24.5 -59.5t8.5 -62.5q0 -24 -4 -50.5t-15 -58.5q-19 -37 -47.5 -61t-75.5 -24q-34 0 -61 13t-46 37t-29 57.5t-10 73.5q0 31 7 65t23.5 62.5t43 47t65.5 18.5q33 0 56 -7.5t47 -34.5q5 -5 8.5 -9t4.5 -7zM215 314q15 0 24 12t13.5 28t6 33t1.5 27
q0 15 -2 32t-7.5 31.5t-15 23.5t-24.5 9q-14 0 -22 -11.5t-12.5 -26.5t-6 -30.5t-1.5 -23.5q0 -14 1 -31.5t5.5 -34t14 -27.5t25.5 -11zM557 39q-5 3 -7 10t-4 7q-17 28 -25.5 59t-8.5 61q0 26 4.5 52.5t13.5 58.5q20 36 48.5 59.5t74.5 23.5q37 0 65 -15t46.5 -40
t27.5 -57.5t9 -67.5q0 -30 -7 -64t-23.5 -62.5t-43.5 -47.5t-67 -19q-25 0 -41.5 4t-28 10t-19 13.5zM657 87q15 0 24 12t13.5 28t6 33t1.5 27q0 15 -2 32t-7.5 31.5t-15 23.5t-24.5 9q-14 0 -22 -11.5t-12.5 -26.5t-6 -30.5t-1.5 -23.5q0 -14 1 -31.5t5.5 -34t14 -27.5
t25.5 -11z" />
    <glyph glyph-name="ampersand" unicode="&#x26;" horiz-adv-x="676" 
d="M391 718q5 0 6 -5t1 -11v-6.5t-0.5 -14.5t-0.5 -26.5v-42.5q25 -2 47.5 -7t40 -12t27.5 -13.5t10 -11.5l-10 -29q-5 -11 -13.5 -28.5t-19.5 -43.5q-2 -3 -4.5 -6t-7.5 -3q-23 11 -45.5 18t-45.5 7q-37 0 -62.5 -14.5t-25.5 -53.5q0 -18 11.5 -29.5t28 -18.5t34 -11
t30.5 -5l5 -5q1 0 1 -6.5v-11.5l1 -35q0 -3 -1.5 -7t-3.5 -6q-4 -6 -22 -8.5t-38.5 -8.5t-36.5 -18.5t-16 -39.5q0 -19 7 -32t19 -20.5t28 -11t34 -3.5q32 0 60 10t55 25q7 0 11 -1t6 -8q4 -15 13.5 -27.5t19 -25.5t17 -27.5t7.5 -33.5q-5 -8 -21 -16.5t-38.5 -16
t-49.5 -13.5t-52 -9v-54q0 -25 -1.5 -33.5t-6.5 -8.5l-42 -2l-44 2q-5 0 -6 9.5t-1 24.5q0 14 0.5 31.5t0.5 34.5q-34 6 -64.5 19t-57.5 35q-15 12 -23 21.5t-13.5 18.5t-9.5 19.5t-10 25.5q-8 32 -8 62q0 24 5.5 41.5t15 32t22 28t26.5 30.5q4 2 4 14q-27 22 -40 46t-13 58
q0 39 13.5 67.5t36 49t53 32t63.5 16.5v93q0 7 6 7z" />
    <glyph glyph-name="quotesingle" unicode="'" horiz-adv-x="272" 
d="M183 718q5 0 7 -5t2 -12q0 -3 -0.5 -8t-0.5 -20t-0.5 -44t-0.5 -80q0 -26 -2 -36t-7 -10l-45 -2q-9 0 -23 0.5t-25 0.5q-1 0 -2.5 1t-2.5 6.5t-2 17t-1 33.5q0 4 1.5 12t1.5 10v124q0 9 5 9z" />
    <glyph glyph-name="parenleft" unicode="(" horiz-adv-x="411" 
d="M238 782q4 0 12.5 -10t17.5 -23t16.5 -26t10.5 -18q7 -14 15.5 -27t16.5 -27v-10l-40 -48q-14 -17 -17 -43t-3 -44v-322q0 -24 3 -50t14 -48q3 -6 10.5 -13.5l15.5 -15.5t14.5 -15t6.5 -10q0 -6 -6.5 -18.5t-14.5 -25.5t-15.5 -24t-10.5 -14q-18 -24 -28.5 -39t-13.5 -15
q-2 0 -6.5 1.5t-6.5 2.5q-57 33 -91.5 82t-34.5 117v462q0 12 1.5 28.5t4.5 33t8 32t12 24.5l38 51q7 6 15.5 14.5l17 17t18 14.5t20.5 6z" />
    <glyph glyph-name="parenright" unicode=")" horiz-adv-x="408" 
d="M167 778q12 0 28 -9.5t26 -19.5q29 -23 46 -50.5t26 -58.5t12 -64.5t3 -67.5q0 -57 -2 -110t-2 -106q0 -35 1.5 -68.5t1.5 -68.5q0 -39 -4 -70.5t-14.5 -59.5t-29 -53t-46.5 -51q-7 -5 -21.5 -16t-23.5 -11q-6 0 -9.5 3.5t-7.5 8.5l-75 116v5q0 2 0.5 5.5t3.5 5.5
q31 29 45.5 60t14.5 74v304q0 14 4 27.5t4 27.5q0 22 -11.5 40.5t-25 32.5t-24.5 24t-11 15q0 9 4 12l75 118q2 4 4.5 4.5t7.5 0.5z" />
    <glyph glyph-name="asterisk" unicode="*" horiz-adv-x="457" 
d="M267 757q1 0 2 -0.5t2 -4.5t1.5 -12.5t0.5 -23.5q0 -3 -1 -9t-1 -8v-44l62 21q20 7 28 7q3 0 6 -3q9 -26 14.5 -42.5l7.5 -22.5q0 -2 -7 -6t-33 -12q-2 -1 -8 -1.5t-7 -1.5l-37 -13l38 -52q16 -22 16 -27q-3 -14 -22.5 -26t-36.5 -19q-2 0 -8 7t-18 24q-2 3 -4.5 8.5
t-3.5 5.5l-31 40l-41 -58q-9 -13 -14 -18t-8 -5q-1 0 -2 0.5l-4 2t-9.5 5t-17.5 10.5q-19 16 -23 19t-4 5q0 4 4.5 11t16.5 23q2 3 6.5 7.5t4.5 5.5l23 32l-36 12q-1 1 -7 1.5t-8 1.5q-28 10 -34 13.5t-6 5.5q13 41 19.5 54t8.5 13q8 0 29 -7l68 -23v71q0 19 1 26t6 7l32 2z
" />
    <glyph glyph-name="plus" unicode="+" horiz-adv-x="454" 
d="M303 419q1 0 2.5 -1.5t3 -9t2 -24t0.5 -46.5q1 -3 3.5 -6t4.5 -3h43q2 0 2.5 -6t0.5 -7v-111l-4 -3l-51 1l1 -75q0 -3 -3.5 -6.5t-5.5 -3.5l-136 -4q-11 0 -11 25q0 8 1 16.5t1 16.5q0 19 -7 24.5t-17 5.5q-4 0 -8 -0.5t-9 -0.5q-10 0 -19.5 1.5t-9.5 6.5l-1 112
q0 2 2.5 5t7.5 3h49q9 0 11 10.5t2 15.5q0 37 2 50.5t9 13.5l65 2z" />
    <glyph glyph-name="comma" unicode="," horiz-adv-x="372" 
d="M100 -99q-8 0 -9 7t-1 12q0 27 2.5 59.5t5.5 64.5t6 60t5 46l10 11h158q3 0 3 -3q0 -8 -2 -14l-53 -128l-2 -9l-46 -89q0 -2 -4.5 -9.5t-6.5 -7.5h-66z" />
    <glyph glyph-name="hyphen" unicode="-" horiz-adv-x="314" 
d="M42 266q-2 0 -4 0.5t-2 2.5q-3 17 -3.5 27t-0.5 24q0 28 2 34.5t9 9.5l231 68q3 0 5 -6t3 -13l2 -30q0 -17 -2.5 -34.5t-12.5 -20.5zM51 140q-3 -1 -8 -1q-7 0 -7 4q-3 12 -3.5 22.5t-0.5 21.5q0 3 -1 7.5t-1 9.5q0 9 2.5 17.5t10.5 13.5l224 67q1 1 4 1h4q7 0 8 -2.5
t1 -13.5v-72q0 -5 -4 -8.5t-6 -4.5l-66 -16q-2 0 -4 -1.5t-4 -2.5z" />
    <glyph glyph-name="period" unicode="." horiz-adv-x="356" 
d="M242 150q3 0 6.5 -3.5t3.5 -5.5v-126q0 -6 -7.5 -9.5t-18 -5t-21.5 -1.5h-18q-9 0 -23 1t-27 2t-22.5 2t-10.5 1l-2 10v126q0 2 9 5.5t17 3.5h114z" />
    <glyph glyph-name="slash" unicode="/" horiz-adv-x="665" 
d="M86 -46q-2 2 -4 2.5t-2 4.5q21 42 50 99t61.5 120t67 130t67.5 131t62 120t50 99q5 11 8.5 19t10.5 22q6 10 15.5 24t16.5 15q6 1 11.5 1h10.5q11 0 23 -1t26 -1h8t8 1q9 0 9 -5q0 -8 -5 -16q-22 -41 -48.5 -92t-54.5 -105.5t-57 -111.5t-56.5 -110.5t-51.5 -101
t-43 -84.5q-29 -52 -52 -94.5t-36 -60.5q-3 -2 -11 -4t-10 -2h-24z" />
    <glyph glyph-name="zero" unicode="0" horiz-adv-x="625" 
d="M538 311q0 -52 -11 -109t-37 -105t-68.5 -79.5t-105.5 -31.5q-33 0 -57.5 5t-43.5 14t-34.5 22t-29.5 30q-5 2 -8 7t-5 10t-4 8.5t-4 3.5q-26 47 -39 98.5t-13 104.5q0 41 6 85t23 98q15 31 33.5 57t42.5 45t53.5 29.5t66.5 10.5q63 0 107.5 -26.5t73 -69t41.5 -97
t13 -110.5zM312 130q23 0 37.5 20t22 47t10 54t2.5 42q0 29 -3 61t-11 59t-22.5 45t-37.5 18q-27 0 -43 -20.5t-24 -49t-10 -57.5t-2 -47q0 -28 4 -58t13 -55.5t24.5 -42t39.5 -16.5z" />
    <glyph glyph-name="one" unicode="1" horiz-adv-x="433" 
d="M329 582q3 -45 3.5 -88t0.5 -97l-1 -392l-3 -6h-104l-5 -2l-37 2v308q0 8 3.5 12.5t3.5 12.5q-2 0 -7 2t-7 2q-5 -3 -10 -11t-9 -13q-5 -5 -15.5 -15t-22.5 -19.5t-24 -16.5t-20 -7q0 39 2 76.5t2 74.5q7 8 17.5 16t23.5 18t27.5 23t28.5 32q4 4 10.5 14t14.5 15l38 59
h90z" />
    <glyph glyph-name="two" unicode="2" horiz-adv-x="560" 
d="M243 609q39 0 75.5 -11.5t65 -34t46 -55t17.5 -74.5q0 -74 -29.5 -144t-77.5 -128q-2 -4 -2 -10q0 -4 15 -6t35 -3t40.5 -1h31.5t21.5 0.5t21.5 0.5q2 -1 2 -5q0 -7 -10 -26.5t-22 -41t-23 -40t-13 -23.5l-4 -4q-5 0 -8.5 -0.5t-9.5 -0.5t-15 -0.5t-24 -0.5
q-72 0 -145.5 1t-145.5 1q-3 0 -9 2.5t-6 4.5q25 38 46.5 66t38.5 52q19 26 43.5 57.5t46 65t36.5 69t15 70.5q0 19 -8.5 33.5t-22 24.5t-30.5 14.5t-33 4.5q-15 0 -29 -1.5t-27 -7.5q-8 -2 -16.5 -8t-18.5 -6q-2 0 -4 0.5t-2 5.5v124q0 8 19.5 14.5t44 11t46.5 7t28 2.5z
" />
    <glyph glyph-name="three" unicode="3" horiz-adv-x="577" 
d="M269 614q40 0 77 -9.5t66 -30t46.5 -52t17.5 -75.5q0 -35 -13.5 -59t-40.5 -46v-4q0 -3 0.5 -5.5t4.5 -4.5q15 -17 24 -26.5t13.5 -14l6.5 -6.5t2 -3q22 -39 22 -82q0 -16 -1.5 -31.5t-6.5 -29.5q-2 -10 -6.5 -17t-4.5 -16q-2 -7 -8 -14.5t-13 -15t-13.5 -13.5t-9.5 -9
q-41 -32 -88 -46t-99 -14q-10 0 -33.5 3t-49.5 8t-47.5 12t-26.5 16q0 38 5 70t13 61q2 7 6 8t11 1q27 -14 55 -24t60 -10q35 0 61.5 14.5t26.5 52.5q0 27 -16.5 39.5t-36.5 18.5t-38.5 8t-22.5 8q-1 1 -1.5 5.5t-0.5 6.5l-0.5 4t-0.5 9.5v10.5v8v13.5t1 8.5l5 6q12 1 30 4
t34.5 10t28 18t11.5 28q0 40 -25.5 55.5t-62.5 15.5q-23 0 -46 -6.5t-46 -17.5q-11 0 -11 9v116q0 7 18.5 13.5t42.5 11t47.5 7t32.5 2.5z" />
    <glyph glyph-name="four" unicode="4" horiz-adv-x="603" 
d="M462 595q0 -14 -1 -27t-1 -27q0 -79 2 -157.5t2 -159.5q2 -8 8 -8h43q2 0 2.5 -6.5t0.5 -7.5l-54 -115v-73q0 -3 -3.5 -6t-5.5 -3l-136 -5q-10 0 -10 26q0 8 0.5 16t0.5 16q0 20 -7 25t-17 5q-4 0 -8.5 -0.5t-9.5 -0.5q-14 0 -28.5 -1t-30.5 -1q-3 0 -11 1t-10 1h-124
q-3 0 -3.5 7t-0.5 8l137 278q3 12 10 24.5t13.5 24t12 21t5.5 15.5q11 21 21.5 44.5t21 44t20.5 34t21 13.5h133zM298 216q9 0 11 10t2 15v7l-3 58q0 11 -0.5 21.5t-0.5 21.5l-3 2l-6 -4l-53 -116l-1 -7q0 -8 5 -8l18 -1z" />
    <glyph glyph-name="five" unicode="5" horiz-adv-x="519" 
d="M418 597q12 0 23 -2t11 -10q0 -7 -4.5 -27t-11 -42t-14 -40t-13.5 -20q-31 0 -64.5 -1t-64.5 -4q-12 -3 -15 -15.5t-3 -23.5q0 -12 7 -12.5t18 -5.5q70 -30 105 -76.5t35 -123.5q0 -21 -8.5 -44t-14.5 -40q-10 -26 -29.5 -47t-43.5 -36t-50.5 -24t-51.5 -12q-4 0 -16 -1
t-25.5 -1.5t-25 -1.5t-15.5 -1l-72 15q-5 0 -7 8.5t-2 20.5q0 9 1 19t1 21q0 7 -0.5 16.5t-0.5 21.5q0 8 1.5 16t6.5 8q18 0 34 -4t35 -4t40 4.5t38.5 14t28.5 25.5t11 40q0 20 -10 36t-25.5 27t-34.5 16.5t-37 5.5q-12 4 -22.5 5.5t-18 2t-11.5 1.5t-4 5q0 15 3 27l69 255
l5 5l220 2q2 0 8 0.5t14 0.5z" />
    <glyph glyph-name="six" unicode="6" horiz-adv-x="635" 
d="M421 594q4 0 7.5 -0.5t3.5 -5.5q0 -8 -4 -15t-10 -13t-12.5 -12t-11.5 -12q-6 -9 -17.5 -23t-22 -28.5t-18.5 -28t-8 -20.5q0 -6 6 -9t13.5 -4.5t15.5 -2t12 -1.5q52 -17 87 -44t61 -77q6 -11 12 -28t6 -57q0 -51 -14 -92t-42.5 -70t-70.5 -45t-97 -16q-52 0 -93.5 18.5
t-71 50t-45 74.5t-15.5 92l1 24l24 94q7 17 19 41t26.5 50t30.5 51.5t30.5 47.5t26 37.5t18.5 21.5q22 0 41.5 0.5t37.5 0.5t36 0.5t38 0.5zM273 143q20 -10 27 -11.5t19 -1.5q32 0 56.5 19.5t24.5 52.5q0 30 -20.5 51.5t-62.5 21.5q-29 0 -52.5 -18.5t-23.5 -50.5
q0 -20 9 -36t23 -27z" />
    <glyph glyph-name="seven" unicode="7" horiz-adv-x="568" 
d="M147 601h11.5t8.5 -1q10 0 25 0.5t35 0.5q40 0 91 -0.5t96 -1.5t76 -2.5t31 -4.5q-2 -4 -4.5 -13t-3.5 -11l-262 -563l-159 -6q-5 0 -6.5 5.5t-1.5 9.5l83 175q5 23 19 44.5t22 44.5q40 83 57.5 122t19.5 44q0 5 -12.5 8.5t-32.5 5.5t-44 2.5t-47 0.5q-18 0 -33.5 -1
t-26.5 -1v20q4 11 10 25t11.5 28t11 26t8.5 20q5 12 9.5 16.5t7.5 6.5z" />
    <glyph glyph-name="eight" unicode="8" horiz-adv-x="614" 
d="M301 619q44 0 80.5 -14.5t62.5 -40t40.5 -60t14.5 -74.5q-1 -17 -4 -29.5t-8 -23t-11 -20.5t-13 -22q0 -7 5.5 -12t8.5 -10q24 -27 35.5 -54t11.5 -64q0 -43 -16.5 -80t-44.5 -64.5t-65.5 -43t-79.5 -15.5q-48 0 -89.5 15.5t-72 43t-48.5 66t-18 84.5q0 38 14.5 69.5
t40.5 57.5q0 14 -6 22.5t-10 16.5q-10 14 -12.5 29t-2.5 32q0 41 13.5 76t38 60.5t59 40t76.5 14.5zM308 503q-29 0 -49 -18.5t-20 -49.5q0 -34 28 -50q14 -8 24 -10.5t26 -2.5q26 0 41 21t15 44q0 12 -3 23q-16 43 -62 43zM310 269q-32 0 -55 -19t-23 -52q0 -43 32 -64
q20 -9 27 -10.5t19 -1.5q31 0 52.5 19.5t21.5 51.5q0 14 -5.5 28t-15.5 24.5t-23.5 17t-29.5 6.5z" />
    <glyph glyph-name="nine" unicode="9" horiz-adv-x="640" 
d="M318 618q47 0 89 -17t73.5 -46.5t50 -70t18.5 -87.5q0 -18 -1.5 -41.5t-9 -52.5t-23 -64.5t-44.5 -77.5l-104 -137l-27 -25h-159q-5 0 -5.5 2t-0.5 5q10 19 30.5 44t41 49t36 44.5t15.5 31.5v3.5t-2 3.5q-41 7 -78.5 21t-66 38.5t-45.5 61t-17 89.5q0 49 18 90.5
t48.5 71.5t72.5 47t90 17zM316 478q-16 0 -30 -6.5t-24.5 -17.5t-17 -25t-6.5 -29q0 -19 7.5 -33.5t20.5 -24.5t29.5 -15.5t33.5 -5.5q29 2 50.5 24t21.5 53q0 35 -25 57.5t-60 22.5z" />
    <glyph glyph-name="colon" unicode=":" horiz-adv-x="367" 
d="M124 289q-3 0 -8 2t-7 6q-5 23 -6 44t-1 43q0 20 2 37t13 17h134l8 -8l4 -112q0 -1 -0.5 -5.5t-1.5 -10t-3.5 -9.5t-6.5 -4h-107q0 2 -8.5 2t-8.5 -2h-3zM124 3q-6 2 -11 2l-5 4v128q0 11 8.5 14t16.5 3h120q4 0 6.5 -7t2.5 -10v-108q0 -6 -3 -16t-11 -10h-124z" />
    <glyph glyph-name="semicolon" unicode=";" horiz-adv-x="370" 
d="M247 441q4 0 8.5 -2t6.5 -6q5 -23 6 -44t1 -43q0 -20 -2 -37t-13 -17h-133l-8 8l-5 112q0 1 0.5 5.5t1.5 9.5t3.5 9.5t7.5 4.5h126zM224 17v-10l-47 -89q0 -2 -4.5 -9.5t-6.5 -7.5h-66q-8 0 -9 7t-1 12q0 27 2.5 59.5t5.5 64.5t6 60t5 46l10 11h159v-17z" />
    <glyph glyph-name="less" unicode="&#x3c;" horiz-adv-x="467" 
d="M308 36q-3 -2 -7 1.5t-7 5.5l-154 150q-9 7 -18.5 16t-18 17.5t-13.5 16t-5 11.5q0 11 7.5 20.5t19.5 21.5l27 24l165 156q2 2 3.5 4t3.5 2t8.5 -5.5t14.5 -13.5t17 -18t17 -19q5 -2 8.5 -7.5t5.5 -10.5v-3q-8 -6 -16.5 -14.5t-13.5 -16.5l-112 -106q-5 -5 -6.5 -8.5
t-1.5 -8.5l131 -130l19 -13q0 -7 -11 -19z" />
    <glyph glyph-name="equal" unicode="=" horiz-adv-x="472" 
d="M367 399q2 0 2.5 -6t0.5 -7l6 -94l-5 -8q-33 -1 -60.5 -1.5t-50.5 -0.5q-45 0 -72 1t-44 1q-5 0 -9.5 -0.5t-9.5 -0.5q-9 0 -19 1t-10 6v102q0 1 3 4t8 3h260zM223 235q45 0 79.5 -1.5t69.5 -1.5q3 0 3.5 -6t0.5 -7v-94l-5 -8q-33 -1 -60.5 -1.5t-50.5 -0.5q-45 0 -72 1
t-44 1q-5 0 -9.5 -0.5t-9.5 -0.5q-9 0 -22 1.5t-13 6.5l6 100q0 1 3 4t8 3q29 0 58 2t58 2z" />
    <glyph glyph-name="greater" unicode="&#x3e;" horiz-adv-x="469" 
d="M152 482q1 1 3 1t5.5 -2.5t5.5 -3.5l163 -157q9 -8 18.5 -17t18 -17.5t13.5 -16t5 -11.5q0 -9 -7.5 -18.5t-19.5 -22.5q-7 -7 -13 -11.5t-14 -11.5l-147 -145q-4 -4 -8.5 -5t-9.5 -1q-6 0 -10 2q-3 1 -13 10t-21 19.5t-21 19.5t-12 9v4q8 5 15 12.5t12 15.5l114 111
q6 5 7 8.5t1 8.5l-143 133l-9 12q2 6 3 6z" />
    <glyph glyph-name="question" unicode="?" horiz-adv-x="414" 
d="M155 718q37 0 68 -12.5t53.5 -35t35 -53.5t12.5 -68q0 -15 -6.5 -46t-16.5 -60q-9 -24 -23 -52.5t-14 -54.5q0 -11 3 -16.5t14 -14.5q2 -30 3 -51t1 -51q0 -18 -6.5 -21t-29.5 -3q-66 0 -102.5 34.5t-36.5 101.5q0 22 7 48.5t16 52t17.5 48.5t10.5 37q0 15 -11 26.5
t-24.5 20t-24.5 14.5t-11 10q0 2 0.5 8.5t1.5 9.5l35 111q4 11 9 14t19 3zM278 150q2 -3 4 -10.5t2 -11.5v-117q0 -8 -10.5 -10t-21.5 -2h-33.5h-26t-25.5 0.5t-32 1.5q-2 2 -4 6.5t-2 6.5v129l10 10h117z" />
    <glyph glyph-name="at" unicode="@" horiz-adv-x="876" 
d="M429 717q79 0 147.5 -28t119.5 -78t80 -118t29 -149q0 -35 -6 -67.5t-20 -63.5q0 -1 -1 -1.5t-1 -1.5q-19 -41 -48 -55t-63 -14q-14 0 -30.5 5t-31.5 13.5t-27 19t-16 22.5q-6 -11 -19 -21.5t-30.5 -19t-38 -14t-41.5 -5.5q-47 0 -83 16t-60 44.5t-36 66.5t-12 82
q0 36 11.5 71t34.5 62.5t56.5 44t78.5 16.5q42 0 71.5 -16.5t46.5 -46.5v47l4 2l26 2l43 -2l1 -9l-3 -231q0 -36 13.5 -55.5t41.5 -19.5q25 0 40 10.5t22 28.5t9 42.5t2 52.5q0 63 -24.5 118.5t-66.5 96.5t-98 64.5t-120 23.5t-117 -22.5t-91.5 -62t-59.5 -93.5t-21 -117
q0 -69 21.5 -126.5t61.5 -98.5t95.5 -64t124.5 -23q79 0 144 37q5 0 6 -5t11 -18q10 -12 13 -16t3 -6l-2 -4q-40 -23 -86.5 -36t-97.5 -13q-87 0 -154.5 30.5t-114 82.5t-71 120.5t-24.5 144.5q0 48 12.5 89t31.5 85q6 20 18 32t24 25q31 31 60.5 54t62 38.5t68.5 23.5t81 8
zM429 244q15 0 29 6.5t25.5 19t19 30t8.5 39.5q-1 21 -7 41t-17 35.5t-26.5 24.5t-33.5 9q-42 0 -63 -30t-21 -83q0 -10 -1 -13t-1 -6q0 -8 3.5 -17.5t5.5 -16.5q10 -22 30 -30.5t49 -8.5z" />
    <glyph glyph-name="A" unicode="A" 
d="M451 697q3 0 11.5 -17t17.5 -38t16 -39.5t7 -21.5q54 -142 112 -280.5t115 -278.5q0 -15 -14 -18t-42 -3q-3 0 -17.5 0.5t-33.5 0.5t-40 0.5t-37 0.5q-9 22 -17 43t-26 43q-11 -1 -26.5 2t-39.5 3l-125 -2q-2 0 -7 0.5t-10.5 0.5t-10.5 0.5t-6 0.5q-12 0 -18.5 -13.5
t-11.5 -30.5t-10 -33.5t-13 -22.5q-19 -1 -34 -0.5t-29.5 1.5t-31 2t-38.5 1q-16 0 -29 2t-13 10q0 2 0.5 4.5t0.5 4.5l58 168q17 34 29 70.5t26 71.5q35 90 71 179.5t71 180.5q1 6 11 7t15 1h119zM368 230q11 0 24 0.5t23.5 1t17.5 2t7 4.5q0 7 -1 13.5t-4.5 16t-9.5 24
t-16 37.5q-4 9 -6.5 16.5t-7.5 15.5l-13 31q-2 0 -12 -21t-21 -47.5t-20 -51t-9 -30.5q0 -8 7.5 -10t14.5 -2h26z" />
    <glyph glyph-name="B" unicode="B" horiz-adv-x="674" 
d="M375 702q41 0 80.5 -12t70 -37t49.5 -62t19 -88q0 -26 -7 -48.5t-19 -45.5q-3 -4 -9.5 -10.5t-13.5 -14t-12.5 -14t-5.5 -9.5q0 -2 5 -7q36 -32 56 -69.5t20 -86.5q0 -47 -16.5 -82.5t-44 -60.5t-62.5 -39t-72 -16q-63 0 -105.5 -0.5t-75.5 -0.5t-60.5 1t-59.5 3
q-8 2 -10 10t-2 15l2 658q2 3 4.5 9.5t8.5 6.5h260zM387 527q-12 23 -40.5 27.5t-60.5 4.5q-3 -1 -6.5 -4t-3.5 -5v-108l7 -6h27l6 1q15 1 29 3.5t25 9t17.5 17.5t6.5 28q0 8 -2 18q-1 7 -5 14zM409 248q-7 12 -18 19t-24.5 11t-27 5t-25.5 1q-20 0 -29 -1.5t-9 -12.5v-113
l7 -3l13 -1l20 -1l14 -1q15 0 30.5 3t28 10.5t20.5 19.5t8 31q0 8 -2 17.5t-6 15.5z" />
    <glyph glyph-name="C" unicode="C" horiz-adv-x="703" 
d="M462 705h21t20 -2q9 -1 30 -6t42.5 -13t38 -18.5t16.5 -22.5q0 -8 -10 -30.5t-23 -46.5t-24 -42.5t-14 -18.5q-21 9 -48.5 19.5t-62.5 10.5q-38 0 -72.5 -14.5t-60.5 -39.5t-41.5 -57t-15.5 -68q0 -31 9 -66.5t30 -66t56 -51t88 -20.5q34 0 56.5 5.5t37 11.5t23 11.5
t14.5 5.5q5 0 7 -2q2 0 9 -9t15.5 -23t18 -30t18 -30.5t13.5 -25t5 -13.5q0 -9 -20 -21t-48 -23t-57.5 -18.5t-48.5 -7.5q-11 -2 -19.5 -2.5t-16.5 -0.5q-72 0 -135 20t-112 58.5t-82 95t-45 128.5q0 1 -1.5 1t-1.5 1q0 3 3.5 6t3.5 6q0 11 -3.5 25.5t-3.5 31.5
q0 82 36 155.5t104 121.5q1 0 3.5 -1t2.5 -3q0 8 6.5 13.5t10.5 7.5q51 36 109.5 47t118.5 11z" />
    <glyph glyph-name="D" unicode="D" horiz-adv-x="761" 
d="M643 518q47 -82 47 -174q0 -63 -19.5 -121t-55.5 -104.5t-87.5 -78.5t-116.5 -42q-42 -7 -84.5 -8t-77.5 -1h-51l-76 -1l-16 1l-4 4l-2 185l2 16l-1 10v467q0 9 7.5 14t17.5 7t20 2.5t15 0.5q58 0 119 -2t119 -13.5t110.5 -36t93.5 -69.5q15 -18 24 -30.5t16 -25.5z
M469 453q-17 22 -39 34t-45 23q-1 2 -2 3t-1 2q-1 -3 -5 -3q-20 0 -41 3.5t-43 3.5q-9 0 -9 -13q0 -84 1 -164t1 -163l4 -6l16 -1q42 0 77.5 8.5t61.5 28t41 52t15 80.5q0 20 -1.5 35t-5.5 27.5t-10 24t-15 25.5z" />
    <glyph glyph-name="E" unicode="E" horiz-adv-x="613" 
d="M484 424q4 0 7.5 -6.5t3.5 -9.5q0 -10 -0.5 -25.5t-1 -33.5l-1 -36t-0.5 -33l-8 -6h-55t-55.5 -0.5t-48 -1t-31.5 -1.5q-6 -2 -7.5 -9.5t-1.5 -20.5t0.5 -39.5t0.5 -48.5q3 -5 30.5 -7t63.5 -2.5t72 -0.5t55 -3q6 -4 7.5 -11.5t1.5 -18.5q0 -22 -1.5 -43t-1.5 -43
q0 -13 -6 -20t-16.5 -10.5t-25.5 -4t-32 -0.5q-74 0 -141 1.5t-137 1.5q-3 0 -8 -0.5t-13 -0.5q-11 0 -20.5 3t-12.5 12q0 27 -0.5 50.5t-0.5 43.5q0 11 1 23.5t6 22.5q0 3 -4 3q0 34 -1 67.5t-1 69.5q0 23 0.5 58.5t1 75t1.5 80t1.5 75t1 59t0.5 32.5q0 5 -1 8.5t-1 8.5
l10 8q43 0 86.5 2t87.5 2q18 0 43.5 -0.5t52.5 -0.5q45 0 79.5 -1.5t39.5 -6.5l3 -24q0 -5 -0.5 -19t-1 -30t-1 -30t-0.5 -20q0 -18 -32 -21.5t-94 -3.5q-11 0 -21.5 0.5t-20.5 0.5l-47 -1q0 -18 -2 -37.5t-2 -44.5q0 -2 -0.5 -2.5t-0.5 -1.5q0 -10 2.5 -19t13.5 -9h184z
" />
    <glyph glyph-name="F" unicode="F" horiz-adv-x="571" 
d="M469 695q4 0 9.5 -2.5t8.5 -3.5v-131l-6 -6h-26.5t-28 -0.5t-24 -0.5h-15.5q-4 0 -6 1.5t-6 1.5q-2 0 -3.5 -1t-4.5 -2q-21 -3 -36 -4t-25 -1t-15 -1.5t-7 -5.5q-2 -18 -2.5 -29t-0.5 -25q0 -10 0.5 -21t0.5 -28q3 -6 11 -9t18.5 -4.5t21 -1.5h18.5q24 0 48.5 1t48.5 1
q10 0 18.5 -1t11.5 -3q5 -23 6 -46.5t1 -48.5q0 -17 -4 -29t-21 -12h-171q-4 0 -6 -4t-2 -9q0 -55 1.5 -120.5t1.5 -144.5q-5 -5 -16.5 -6t-12.5 -1h-143q-3 0 -7 2t-5 5q2 23 3 47t1 50q0 50 -2 104t-2 115q0 91 2 181t2 181q0 11 11 11q10 0 20.5 -3.5t14.5 -2.5
q10 5 33 5q12 0 26.5 0.5t28.5 0.5t27 0.5t21 0.5h183z" />
    <glyph glyph-name="G" unicode="G" horiz-adv-x="827" 
d="M423 704q64 0 118 -16.5t114 -53.5q9 -6 9 -16q0 -5 -1 -7.5t-5 -8.5l-69 -110q-4 -5 -5.5 -5.5t-6.5 -0.5q-11 0 -22 8t-22 13q-26 9 -49 15.5t-51 6.5q-41 0 -74.5 -13.5t-57 -38.5t-36.5 -59.5t-13 -76.5q0 -35 12.5 -67.5t35 -57.5t53.5 -40t67 -15q42 0 71.5 12.5
t56.5 43.5q6 7 15 25.5t9 28.5q-9 0 -21 1.5t-29 1.5q-28 0 -40 4q0 8 -1 27t-1 51q0 6 0.5 15.5t1 18t1.5 14.5l1 6l6 10q2 0 11 0.5t19.5 1t20 0.5h13.5q52 0 105.5 -3t107.5 -3q6 -3 8 -10t2 -15q0 -90 -23 -165.5t-68.5 -130t-113 -85.5t-157.5 -31q-10 0 -20.5 0.5
t-18.5 3.5q-3 1 -8 1q-25 0 -52.5 11t-49.5 21q-31 13 -60 37t-53 53t-42.5 62t-27.5 66q-8 27 -10 54t-2 55q0 76 26.5 142t73 114.5t111 76.5t141.5 28z" />
    <glyph glyph-name="H" unicode="H" horiz-adv-x="763" 
d="M272 695q5 0 10 -2t7 -10q-1 -11 -1.5 -37.5t-0.5 -57v-59v-43.5q0 -14 0.5 -23t1.5 -14.5t1.5 -9t0.5 -7.5h172q9 0 14 9t7 21t2.5 24t0.5 18q1 8 1.5 14.5t0.5 14.5q0 6 -0.5 21.5t-0.5 33.5t-0.5 35t-0.5 26q0 8 1 22.5t1 15.5l12 6h156l6 -6v-537q0 -32 -3 -70.5
t-3 -71.5q-1 -3 -5 -5t-6 -2h-154q-8 0 -11 21t-3 45q0 32 0.5 50.5t1 31.5t1.5 25.5t3 33.5l-7 72l-5 3q-12 0 -29 0.5t-35 1t-35.5 1t-30.5 0.5q-20 0 -33.5 -1.5t-16.5 -4.5l-6 -5q0 -22 -1 -31.5t-1 -25.5q0 -20 1 -40t1 -41v-33.5v-30.5t-0.5 -30.5t-1.5 -34.5
q-5 -7 -13.5 -8t-15.5 -1q-73 0 -143 6q-8 3 -10 12t-2 20q0 158 5 316t5 315q1 11 4.5 19t14.5 8h143z" />
    <glyph glyph-name="I" unicode="I" horiz-adv-x="395" 
d="M118 693q42 0 83 -2t83 -2l7 -4l4 -6v-10v-20q0 -161 -1 -321.5t-4 -321.5q-4 -9 -10 -10.5t-17 -1.5h-121q-3 0 -7 0.5t-12 0.5q-6 1 -11.5 3.5t-7.5 9.5q-2 16 -2.5 35.5t-1 38t-0.5 32.5v18q0 113 3.5 225t3.5 224q0 14 -0.5 29.5t-0.5 18.5q1 9 1.5 19t1.5 19t2.5 16
t6.5 10z" />
    <glyph glyph-name="J" unicode="J" horiz-adv-x="434" 
d="M88 -3q-16 5 -20 15v25.5t-0.5 26.5t-0.5 23v15q0 11 2 23t11 14q40 0 56 9t19 42q0 12 0.5 42.5t1.5 64t1.5 62.5t0.5 39q0 38 -2 79.5t-2 73.5v44t1.5 47t3.5 37t7 15q11 0 21 -1.5t21 -1.5q8 0 15 3t15 3h77q15 0 20 -15l2 -25q1 -12 1.5 -26t1 -27t1 -24t0.5 -15
v-254q0 -15 -1.5 -24.5t-1.5 -33.5q0 -9 0.5 -26t1 -36t1 -37t0.5 -28q0 -29 -10 -53.5t-33 -42.5t-59.5 -28.5t-89.5 -10.5q-20 0 -35.5 1t-26.5 5z" />
    <glyph glyph-name="K" unicode="K" horiz-adv-x="724" 
d="M250 701q10 0 20.5 -1.5t10.5 -9.5v-204q0 -2 0.5 -6t1.5 -4q6 0 13.5 8t15 19t14.5 21.5t13 15.5l112 152q5 6 14 6h148l24 -4q2 0 2 -4q0 -1 -0.5 -4.5t-1.5 -4.5l-43 -68l-6 -4l-128 -171q-3 -3 -3 -8q0 -4 0.5 -6t2.5 -6l194 -401q0 -2 0.5 -3.5t0.5 -2.5
q0 -11 -18.5 -14t-41.5 -3q-45 0 -81.5 3t-51.5 3l-7 5q-1 1 -6 10t-17 34t-33.5 70t-55.5 117q-2 11 -5 16t-9 16q-2 0 -9 -9t-15 -20t-14.5 -20.5t-7.5 -11.5v-29t0.5 -29t0.5 -33v-42q0 -27 -2.5 -49.5t-13.5 -24.5q-29 0 -50 -1.5t-41 -1.5q-8 0 -21 1t-25 3t-20.5 3.5
t-8.5 3.5v344q0 3 1 10t2 15t2 16.5t1 13.5q0 67 -4 135t-4 134q0 6 1 12.5t7 9.5q19 1 42.5 1.5t44.5 1t36.5 0.5h18.5z" />
    <glyph glyph-name="L" unicode="L" horiz-adv-x="569" 
d="M281 689q1 -2 2 -20.5t2 -29.5q0 -4 -0.5 -22t-0.5 -34q0 -13 0.5 -41t1.5 -65.5t2.5 -81t2.5 -87.5t1.5 -84.5t0.5 -72.5l3 -2h200q6 0 10.5 -3t4.5 -14q0 -24 3 -50.5t3 -62.5q0 -14 -10 -14q-33 0 -58 -0.5t-52 -1.5t-61.5 -1.5t-86.5 -0.5q-24 0 -48.5 0.5t-44 2
t-31.5 3.5t-12 5q-2 166 -7.5 329t-5.5 328q0 8 2.5 16.5t10.5 8.5h162z" />
    <glyph glyph-name="M" unicode="M" horiz-adv-x="950" 
d="M263 688q5 0 11.5 -2.5t9.5 -6.5l182 -267q4 -6 9 -6t8 6l194 262l9 8q1 0 14.5 0.5t23.5 0.5q21 0 42 -0.5t38.5 -1t28 -1t10.5 -1.5l3 -5q0 -3 0.5 -12.5t1.5 -20.5t1.5 -20.5t0.5 -12.5v-80t-0.5 -122.5t-1 -140t-1.5 -132t-3 -97.5t-4 -38h-158q-3 0 -5 4.5t-3 10.5
t-1.5 12t-0.5 9q0 64 2 128t2 129v24.5v30.5t-0.5 26.5t-0.5 13.5l-6 12q-2 0 -11 -14t-19.5 -30.5t-20 -31t-10.5 -15.5q-31 -45 -63 -83t-64 -82q-5 -6 -9 -6q-7 0 -11.5 7.5t-6.5 11.5l-54 67q-2 2 -6 5t-4 6l-60 89q-5 5 -12.5 16t-15.5 23t-14.5 23.5t-10.5 18.5
q0 -84 -1.5 -156t-1.5 -141v-47.5t2 -46.5q-4 -4 -4.5 -8t-2.5 -4h-159q-5 0 -6.5 4t-1.5 8v142q2 5 2 6.5v5.5q-2 19 -3 45.5t-1 46.5q0 106 3 210t3 211q1 3 3.5 6t5.5 3h148z" />
    <glyph glyph-name="N" unicode="N" horiz-adv-x="793" 
d="M693 670v-357q-1 -3 -2 -15.5t-2 -13.5q0 -65 2 -129.5t2 -127.5v-6.5t-1.5 -9.5t-4 -9t-6.5 -4h-130q-8 0 -13 2t-10 9l-123 184q-2 5 -9 13t-8 10l-101 146l-12 13l-2 -4v-49.5t-0.5 -75t-1 -85t-1.5 -79.5t-2.5 -59t-3.5 -23h-158l-6 3q0 59 0.5 126.5t1.5 138
t1.5 141.5t0.5 137v52t-2 52l4 29l20 4l126 -4q3 0 6 -3t6 -7.5t5.5 -9t3.5 -6.5l94 -136q2 -6 7 -11t8 -12l129 -177q3 -7 8 -7q3 0 3 3v361l6 5l5.5 0.5t12 0.5h13.5h12h36.5t38.5 -0.5t30.5 -1.5t12.5 -2z" />
    <glyph glyph-name="O" unicode="O" horiz-adv-x="868" 
d="M192 76q-57 52 -89 125t-32 156q0 47 12.5 88t31.5 83q13 9 21.5 27.5t19.5 29.5q31 30 60 53t61 38.5t68 23.5t80 8q84 0 155 -31t122 -86q15 -15 31.5 -39t31 -56t23.5 -71.5t9 -85.5q0 -69 -27.5 -133.5t-76.5 -114t-116 -79.5t-146 -30q-44 0 -82 10t-69 24.5
t-53 30.5t-35 29zM573 464q-25 29 -61.5 46.5t-78.5 17.5q-38 0 -70 -14t-55.5 -38.5t-37 -57t-13.5 -69.5q0 -45 15.5 -80t44.5 -58q14 -14 47.5 -28t76.5 -14q38 0 70 14t55.5 38.5t36.5 57.5t13 70q0 32 -9 57t-34 58z" />
    <glyph glyph-name="P" unicode="P" horiz-adv-x="673" 
d="M112 5q-7 0 -9.5 6t-2.5 12q0 65 1.5 125t1.5 122q0 51 -0.5 104.5t-1 106.5t-1 103.5t-0.5 94.5l3 6q10 1 21.5 1.5t16.5 0.5h8t9 -2q11 0 37 0.5t54 0.5t50 0.5t24 0.5q69 0 130 -23.5t103 -69.5q31 -39 44 -75t13 -83q0 -48 -11.5 -75.5t-16.5 -33.5q-27 -37 -61 -61
t-72 -38t-78.5 -19.5t-81.5 -5.5q-13 -5 -15 -17.5t-2 -22.5v-141q0 -14 -7 -18.5t-16 -4.5h-33.5t-27 0.5t-25 1.5t-26.5 2q-7 0 -12 0.5t-8 0.5zM432 502q-10 14 -24.5 23.5t-31.5 15t-35.5 8t-34.5 2.5h-13t-8 -1l-10 -8v-188q0 -5 6 -6.5t14 -1.5h20q26 1 50 6.5
t42 17.5t29 32t11 52q0 14 -2 21.5t-13 26.5z" />
    <glyph glyph-name="Q" unicode="Q" horiz-adv-x="885" 
d="M792 152q17 0 30 -2t13 -8q0 -4 -1 -6l-3 -5l-8 -19l-58 -99l-6 -7l-207 -2q-8 0 -20.5 -2.5t-28 -5t-32.5 -5t-35 -2.5q-82 0 -141.5 21.5t-112.5 65.5q-56 51 -83.5 124t-27.5 161q0 76 27 140.5t74 111t112 72.5t141 26q87 0 156 -30.5t118 -83.5q37 -44 57 -82
t32 -85q0 -14 3.5 -32.5t3.5 -34.5q0 -89 -42 -170q-4 -8 -11.5 -16.5t-7.5 -18.5q0 -3 7.5 -4.5t17.5 -1.5h33zM436 529q-96 0 -143 -59t-47 -156q7 -17 11 -31.5t12 -31.5q11 -21 29 -37.5t40 -27.5t46.5 -16.5t47.5 -5.5q33 0 66 12t59.5 34t43 53.5t16.5 69.5
q0 37 -13.5 72.5t-37.5 63t-57 44t-73 16.5z" />
    <glyph glyph-name="R" unicode="R" horiz-adv-x="701" 
d="M382 689q47 0 90.5 -18.5t76.5 -50.5t53 -75t20 -91q0 -78 -43.5 -132t-113.5 -83q-3 0 -3 -5q0 -1 0.5 -1.5t0.5 -1.5l171 -209q5 -10 8.5 -15.5t3.5 -7.5t-11.5 -3.5t-25.5 -2.5t-26.5 -1.5t-13.5 -0.5q-2 0 -6 1t-5 2h-107q-7 1 -10.5 3.5t-6.5 7.5l-139 164
q-3 3 -7 8t-9 5q-1 0 -2 -2t-3 -11v-162q0 -2 -1.5 -5t-4.5 -3h-136q-19 0 -24.5 8.5t-7.5 26.5q0 64 0.5 119t1 106.5t1 101.5t0.5 104q0 7 -0.5 30.5t-1 49.5t-1 46.5t-0.5 22.5q0 8 0.5 20.5t1.5 24.5t1.5 20.5t1.5 9.5h277zM442 456q0 16 -3.5 27.5t-9.5 21.5
q-15 23 -43.5 31t-60.5 8q-11 0 -21 -0.5t-21 -1.5l-9 -10q0 -14 -0.5 -31t-1 -33t-1 -29.5t-0.5 -20.5v-21.5t1.5 -22.5t3.5 -19.5t7 -11.5h11q38 1 66 5t46 16t27 34t9 58z" />
    <glyph glyph-name="S" unicode="S" horiz-adv-x="641" 
d="M368 220q-13 12 -30 24t-35 23.5t-35.5 21t-29.5 17.5q-60 38 -94.5 86t-34.5 112q0 51 19 87.5t52 60t77.5 34.5t95.5 11q28 0 56.5 -5t62.5 -19q3 -1 13 -5.5t20.5 -9.5t18.5 -10t8 -8l-1 -5q0 -2 -2 -3.5t-2 -4.5q-5 -11 -14 -27l-18 -32t-17 -28.5t-11 -16.5
q-1 -3 -5 -3q-6 0 -18 5t-28 11.5t-33 11.5t-32 5q-10 0 -20.5 -2.5t-19.5 -8t-14.5 -14t-5.5 -20.5q0 -16 7.5 -27.5t22.5 -23.5q16 -12 25 -18.5t16 -11t15.5 -9t23.5 -14.5q35 -26 66 -46t53 -46q12 -16 20 -29.5t12.5 -27t6.5 -28t2 -32.5q0 -48 -19.5 -88t-52.5 -68
t-76.5 -43.5t-91.5 -15.5q-107 0 -201 52q-27 17 -34.5 23t-7.5 8v4q2 4 10 18t18.5 32.5t22 38t22.5 35.5q17 0 29 -11.5t25 -17.5q28 -14 58.5 -20.5t62.5 -6.5q22 0 40.5 9.5t18.5 34.5q0 10 -3 18.5t-14 22.5z" />
    <glyph glyph-name="T" unicode="T" horiz-adv-x="561" 
d="M486 684q1 -14 1.5 -47t0.5 -88q0 -2 -7.5 -4t-11.5 -2h-87q-6 0 -9 -7t-3 -12v-516q0 -1 -5 -4.5t-7 -3.5h-157l-7 6l-0.5 23.5t-1 62t-0.5 88t-0.5 102t-0.5 103v91.5v62h-24.5t-41 1.5t-38.5 4.5t-17 9v128q0 1 3 2.5t5 3.5h180q14 -2 17 -3q3 0 3 3h199z" />
    <glyph glyph-name="U" unicode="U" horiz-adv-x="726" 
d="M468 689q23 0 67 -1t86 -1q6 0 10.5 -2.5t4.5 -12.5v-396q0 -3 -0.5 -10l-1 -14t-2 -12.5t-2.5 -5.5v-22q0 -37 -15 -76t-38 -65q-14 -15 -24.5 -28.5t-24.5 -20.5q-23 -11 -49 -20t-48 -22q-3 3 -6 3q-12 0 -25.5 -2.5t-26.5 -2.5q-23 0 -42 1.5t-36.5 6t-35 12
t-37.5 20.5q-33 17 -55 35.5t-36.5 41t-23 49.5t-13.5 61q0 53 -0.5 102t-1.5 97t-1.5 97t-0.5 102q0 21 0.5 45t3.5 39q7 0 19.5 0.5t25 0.5t23 0.5t12.5 0.5q24 0 46 -1t45 -1l7 -6v-368q-3 -11 -4 -18.5t-1 -17.5q0 -16 3.5 -27t3.5 -33q0 -5 7 -15.5t16.5 -20.5t19 -17
t15.5 -7l52 2q8 5 15 6t14 6q13 8 20 16.5t11 17.5t6.5 20t6.5 23q-1 14 -1 45.5v67.5q0 41 0.5 91t1 96.5t1 84t1.5 54.5z" />
    <glyph glyph-name="V" unicode="V" horiz-adv-x="801" 
d="M728 707q5 0 7.5 -4t2.5 -8q0 -3 -5.5 -20.5t-13 -38t-14.5 -39.5t-10 -26q-10 -27 -16.5 -56t-21.5 -53l-127 -366q-6 -9 -9.5 -23.5t-7.5 -29t-9.5 -27t-14.5 -18.5q-8 0 -30 -0.5t-49 -1l-54 -1t-43 -0.5l-9 10l-169 481q-8 12 -10.5 26t-9.5 26l-51 144l-1 7
q0 4 1.5 8.5t8.5 4.5h175q8 0 12 -11l130 -377q2 -5 4.5 -9.5t5.5 -4.5q2 0 9.5 17.5t17.5 43.5t21.5 57t21 57t16 44t6.5 19q4 15 11 43.5t15.5 56.5t17.5 48.5t15 20.5h177z" />
    <glyph glyph-name="W" unicode="W" horiz-adv-x="1088" 
d="M166 699q15 0 31 -0.5t29.5 -2t22.5 -4t11 -6.5l119 -333q1 -2 2.5 -4t3.5 -4q7 4 10 18.5t5 23.5l94 290q2 5 6 13t11 8h77q2 0 6 -6t5 -9l107 -309q0 -4 2 -15t7 -14q2 1 7.5 14.5t12 31.5t13 37.5t10.5 32.5l71 219q1 2 4 7t5 5l29 3h150q5 0 6.5 -4t1.5 -7
q0 -15 -8 -41t-17.5 -51.5t-17.5 -43.5t-7 -16l-170 -528q-5 -12 -15 -16q-18 -1 -30 -1.5t-27 -0.5q-4 0 -14 0.5t-20.5 0.5t-20.5 0.5t-14 0.5q-7 1 -11.5 11t-7.5 22.5t-6 24.5t-7 18q-8 28 -18.5 61.5t-20 63.5t-17 53t-10.5 30q-8 0 -9.5 -2t-3.5 -7l-90 -259
q0 -2 -5 -9t-7 -7h-120q-11 0 -19 2l-243 677q-1 2 -3.5 9.5t-2.5 10.5q0 7 10.5 9t20.5 2h14t12 0.5t17.5 0.5h28.5z" />
    <glyph glyph-name="X" unicode="X" horiz-adv-x="824" 
d="M623 712q16 0 34.5 -0.5t34 -1.5t25.5 -3.5t10 -5.5q-2 0 -9 -11.5t-17 -29.5t-22 -38.5t-24 -38.5q-11 -18 -27 -37t-24 -40l-61 -101q-5 -3 -8.5 -13.5t-3.5 -15.5q0 -4 2.5 -8t4.5 -7l153 -232q6 -14 15.5 -29t20.5 -30.5t21 -31t16 -30.5q0 -5 -7 -8q-23 -2 -42 -3
t-37.5 -1.5t-39.5 -0.5h-48q-14 0 -25.5 2.5t-16.5 8.5l-119 178q0 2 -3 4t-4 2q-7 0 -22.5 -21t-33 -49t-34 -56t-25.5 -43q-8 -14 -28 -18t-42 -4q-11 0 -25.5 0.5t-42.5 0.5q-12 0 -26.5 0.5t-27.5 1t-22 2t-9 4.5q0 8 0.5 11t3.5 10l116 181l2 4t5 4l92 149
q0 8 -0.5 11.5t-5.5 11.5q-21 34 -40 67t-41 67q-6 10 -24 35t-37 53t-34 52.5t-15 32.5q0 2 1 5.5t6 3.5h194q8 0 12 -5l79 -120q2 -5 5.5 -11t8.5 -6q6 0 15.5 13t19.5 29t18 31t11 20q9 18 18 29t19 17t20.5 7.5t22.5 1.5h67z" />
    <glyph glyph-name="Y" unicode="Y" horiz-adv-x="753" 
d="M232 701q9 0 15.5 -2t10.5 -10l113 -205q3 -4 5 -4t5.5 5.5t8 13t8 15.5t5.5 14q3 6 11.5 21t19 34t22.5 39.5t22.5 37t18 27.5t10.5 11h193l3 -17l-115 -209q-8 -6 -12.5 -17.5t-11.5 -19.5l-81 -153q-6 -9 -8 -37t-2.5 -66.5t-0.5 -82.5t-2 -86q-2 -4 -6 -6t-8 -3
q-6 0 -22 -0.5t-34 -0.5t-34.5 -0.5t-23.5 -0.5h-15.5t-18 1t-14.5 3.5t-6 6.5v254q-26 40 -50 84.5t-45 86.5q-7 14 -17 32t-21.5 37t-23 36.5t-21.5 29.5l-58 113q0 2 -1 5t-1 5t5 5t7 3h170z" />
    <glyph glyph-name="Z" unicode="Z" horiz-adv-x="702" 
d="M190 704q38 0 72.5 -1t68.5 -2.5t68.5 -2.5t72.5 -1q39 0 78.5 2t79.5 2l3 -4q0 -1 -6 -12.5t-13 -25.5t-14 -26t-8 -14l-82 -147q-9 -12 -17 -26.5t-12 -29.5l-117 -213q-6 -6 -13.5 -18t-7.5 -20q0 -5 9 -7.5t22.5 -4t29 -2t29.5 -0.5q21 0 41.5 0.5t33.5 0.5
q11 0 22.5 -3t11.5 -4q1 0 5.5 3.5t8.5 3.5q11 0 18.5 1t17.5 1q4 0 9.5 -1.5t5.5 -7.5t-8.5 -30t-19 -50t-19 -46.5t-9.5 -20.5h-37l-252 2q-51 0 -99.5 -1t-97.5 -1q-2 2 -2 5l104 198l12 17l127 227q4 11 12 23t16.5 24.5t15 24t6.5 20.5t-2 11t-16 2q-60 0 -111 -0.5
t-112 -0.5q-3 1 -3.5 4t-0.5 5v3.5t2 2.5l45 133l7 6q6 0 13.5 0.5t11.5 0.5z" />
    <glyph glyph-name="bracketleft" unicode="[" horiz-adv-x="457" 
d="M378 66q3 -32 3 -62v-22.5t-0.5 -25t-2 -22.5t-4.5 -15q-17 -7 -40 -7.5t-42 -0.5l-159 4q-11 0 -20 6.5t-9 30.5l1 421l-2 14l1 338q0 24 9 30.5t20 6.5l159 4q19 0 42 -2.5t40 -15.5q3 -2 4.5 -10.5t2 -19.5t0.5 -23v-22q0 -15 -0.5 -26.5t-2.5 -27.5l-6 -8l-101 -3
q0 -6 -0.5 -19.5t-1 -29t-1 -30t-0.5 -23.5v-287q0 -9 -0.5 -31.5t-0.5 -47t-0.5 -45.5t-0.5 -27z" />
    <glyph glyph-name="backslash" unicode="\" horiz-adv-x="688" 
d="M218 666q25 -47 39 -73t21 -39.5t9 -17.5t3 -7q7 -11 15.5 -22.5t14.5 -22.5q2 -6 7.5 -18t11.5 -23q11 -19 24 -36t22 -37q3 -5 5 -9t5 -7q1 -2 6 -10.5t11 -18.5t10.5 -18.5t5.5 -10.5q4 -6 12.5 -21.5t18 -32.5t17.5 -32t11 -21q11 -19 31 -54.5l40 -71t35 -61.5
t15 -27q0 -5 -7.5 -10.5t-9.5 -7.5q-5 -2 -10.5 -4.5t-10.5 -2.5t-14 0.5t-18.5 1.5t-17 3t-9.5 4l-229 390q-51 87 -100.5 172.5t-98.5 173.5q-3 4 -3 10t4 7q6 4 22 5.5t23 1.5q20 0 35.5 -1t17.5 -2q11 -10 18 -19z" />
    <glyph glyph-name="bracketright" unicode="]" horiz-adv-x="453" 
d="M83 611q-3 31 -3 62v22.5t0.5 25t2 23.5t4.5 17q17 2 40 2.5t42 0.5l159 -2q11 0 20 -6.5t9 -30.5l-1 -690l2 -14l-1 -70q0 -24 -9 -30.5t-20 -6.5l-159 -4q-19 0 -42 1.5t-40 7.5q-3 6 -4.5 16t-2 22t-0.5 24.5v22.5q0 15 0.5 26.5t2.5 27.5l6 8l101 2q0 6 0.5 19.5
t1 29t1 30.5t0.5 24v287q0 9 0.5 31.5t0.5 47t0.5 45.5t0.5 27l-7 -2z" />
    <glyph glyph-name="asciicircum" unicode="^" horiz-adv-x="436" 
d="M50 612q0 1 3 6l128 138q10 11 21 22.5t16 11.5q6 0 11.5 -4.5t13.5 -12.5q5 -4 7.5 -7.5t7.5 -8.5l125 -132q2 -3 2.5 -8.5t0.5 -9.5q-30 0 -52.5 1t-28.5 3q-3 5 -7.5 9t-9.5 7l-62 69q-3 4 -5 4.5t-5 0.5l-75 -86l-8 -6h-26h-26t-20.5 0.5t-9.5 0.5z" />
    <glyph glyph-name="underscore" unicode="_" horiz-adv-x="473" 
d="M82 -96q-2 5 -0.5 18.5t-0.5 22.5q-1 5 -2.5 12t-1.5 12q0 3 0.5 12.5t3.5 17.5h51l80 1l99 1q37 0 78 -6q2 -6 3.5 -16t2.5 -21t1.5 -22.5t0.5 -18.5q0 -6 -3.5 -11t-10.5 -5q-25 0 -60 0.5t-72.5 1t-72 1t-57.5 0.5v1z" />
    <glyph glyph-name="grave" unicode="`" horiz-adv-x="204" 
d="M0 893q0 4 1.5 8.5t8.5 4.5h120q5 0 9 -5.5t6 -10.5l59 -148v-3q0 -9 -8 -11.5t-19 -2.5q-7 0 -14 -0.5t-14 -0.5q-17 0 -25 3t-12 8l-112 155v3z" />
    <glyph glyph-name="a" unicode="a" 
d="M451 693q3 0 11.5 -17t17.5 -38t16 -39.5t7 -21.5q21 -74 48.5 -144.5t57.5 -139.5t61 -137t60 -138q0 -15 -14 -18t-42 -3q-3 0 -17.5 0.5t-33.5 1t-40 1t-37 0.5q-15 11 -20.5 22.5t-8 21.5t-4.5 18.5t-9 14.5t-22.5 9.5t-44.5 3.5l-125 -2q-2 0 -7 0.5t-10.5 0.5
t-10.5 0.5t-6 0.5q-12 0 -18.5 -12t-11.5 -27.5l-10 -31t-13 -21.5q-19 -1 -34 -1.5t-29.5 -1t-31 -1t-38.5 -0.5q-16 0 -29 2t-13 10q0 2 0.5 4.5t0.5 4.5l58 168q17 34 29 70.5t26 71.5q35 90 71 179.5t71 180.5q1 6 11 7t15 1h119zM369 393q-5 -16 -9 -31t-9 -30
q-3 -9 -9 -21t-12 -24.5t-10.5 -25.5t-4.5 -23q0 -3 2 -7.5t9 -4.5h111q2 0 6 2.5t4 5.5l-43 115q-7 7 -8 15t-2.5 14.5t-6 10.5t-18.5 4z" />
    <glyph glyph-name="b" unicode="b" horiz-adv-x="678" 
d="M375 703q21 -5 40 -5.5t39 -6.5q31 -9 56.5 -27.5t43.5 -43t27.5 -54.5t9.5 -62q0 -51 -23 -94q-3 -4 -9.5 -10.5t-13.5 -14t-12.5 -14t-5.5 -9.5q0 -2 5 -7q36 -32 56 -69.5t20 -86.5q0 -47 -16.5 -82.5t-44 -60.5t-62.5 -39t-72 -16q-63 0 -105.5 -0.5t-75.5 -0.5
t-60.5 1t-59.5 3q-8 2 -10 9.5t-2 15.5q0 93 0.5 174.5t0.5 159.5t0.5 156.5t0.5 166.5q2 4 4.5 10.5t8.5 6.5h260zM286 553q-3 -1 -6.5 -4t-3.5 -5v-108l7 -6q19 0 38.5 1t35.5 6.5t26.5 17.5t10.5 34q0 24 -9.5 37t-24.5 19t-34.5 7t-39.5 1zM314 285q-20 0 -29 -1.5
t-9 -12.5v-114l7 -2q11 -1 26 -2t21 -1q15 0 30.5 3t28 10t20.5 19.5t8 30.5q0 24 -10.5 37.5t-26 21t-33.5 9.5t-33 2z" />
    <glyph glyph-name="c" unicode="c" horiz-adv-x="703" 
d="M448 709h16.5t19.5 -2q9 -1 33.5 -6t50 -12.5t45 -16.5t19.5 -18q0 -4 -10 -25.5t-23 -45.5t-25 -44t-15 -20q-2 -1 -7 -1q-10 0 -16.5 4.5t-13.5 8.5q-17 8 -40 9.5t-41 1.5q-53 0 -88 -20.5t-56 -54.5t-30 -78t-9 -90q19 -31 37 -56.5t39.5 -43.5t48.5 -27.5t65 -9.5
q35 0 64.5 11t62.5 27q3 0 16 -19t28 -42.5t27 -45t12 -26.5q0 -13 -20.5 -25.5t-47.5 -23t-52.5 -17t-34.5 -7.5q-10 -2 -20 -2.5t-21 -0.5q-60 0 -118.5 11.5t-109.5 46.5q-4 3 -10.5 8t-6.5 13q0 -1 -2.5 -2t-3.5 -1q-68 47 -104 121t-36 156q0 17 3.5 31.5t3.5 25.5
q0 2 -3.5 5.5t-3.5 5.5q0 1 1.5 1t1.5 2q12 72 45 127t82 92t112 56t135 19z" />
    <glyph glyph-name="d" unicode="d" horiz-adv-x="760" 
d="M160 706q66 0 135.5 -3t134 -20t120 -52.5t92.5 -101.5q47 -82 47 -174q0 -63 -19.5 -121t-55.5 -104.5t-87.5 -78.5t-116.5 -42q-42 -7 -84.5 -8t-77.5 -1q-69 0 -108.5 3t-39.5 9v670q0 9 7.5 14t17.5 7t20 2.5t15 0.5zM289 529l-4 -6q0 -83 -1 -163t-1 -164
q0 -13 9 -13q22 0 47 1.5t45 1.5q4 0 5 -4q0 1 1 2.5t2 3.5q21 10 40.5 22t34.5 30.5t24 47t9 72.5q0 40 -16.5 72t-44 53.5t-62.5 33t-72 11.5z" />
    <glyph glyph-name="e" unicode="e" horiz-adv-x="613" 
d="M423 696q35 0 57.5 -4.5t22.5 -29.5q0 -22 2 -43t2 -43q0 -11 -1.5 -19t-8.5 -11q-19 -3 -53.5 -3t-68.5 -0.5t-60 -2.5t-29 -7q0 -22 -0.5 -41.5t-0.5 -31.5q0 -14 1.5 -21t7.5 -9q10 -2 31.5 -2.5t48 -1t55.5 -0.5h55l8 -6q0 -15 0.5 -33t1 -35.5t1 -33t0.5 -25.5
q0 -4 -3.5 -10t-7.5 -6h-184q-11 0 -13.5 -9.5t-2.5 -18.5q0 -6 0.5 -12t0.5 -8q0 -12 0.5 -26.5t3 -26.5t6.5 -20t11 -8q5 0 12.5 -0.5t17.5 -0.5t20.5 0.5t21.5 0.5q62 0 98.5 -3.5t36.5 -22.5q0 -6 0.5 -20t0.5 -29.5t0.5 -29.5t0.5 -19l-2 -25q-3 -3 -14.5 -4.5
t-29.5 -2t-40 -1t-44 -0.5q-27 0 -52.5 -0.5t-43.5 -0.5q-44 0 -87.5 2.5t-86.5 2.5l-10 8q0 5 1 8t1 8q0 8 -0.5 32.5t-1 59t-1.5 75t-1.5 80.5t-1 75t-0.5 58q0 36 1 69.5t1 67.5q4 0 4 4q-5 10 -6 22t-1 23q0 20 0.5 43.5t0.5 50.5q3 10 12.5 12.5t20.5 2.5q8 0 13 -0.5
t8 -0.5q70 0 132.5 1.5t135.5 1.5z" />
    <glyph glyph-name="f" unicode="f" horiz-adv-x="576" 
d="M152 707q3 -6 11.5 -8.5t19.5 -2.5q14 0 34.5 0.5t27.5 2.5q5 -3 9 -3.5t9 -0.5q7 0 11.5 0.5t11.5 3.5h183q4 0 9.5 -2.5t8.5 -3.5v-131l-6 -6h-26.5t-28 -0.5t-24 -0.5h-15.5q-4 0 -6 1.5t-6 1.5q-2 0 -3.5 -1t-4.5 -2q-21 -3 -36 -4t-25 -1t-15 -1.5t-7 -5.5
q-2 -18 -2.5 -29t-0.5 -25q0 -10 0.5 -21t0.5 -28q3 -6 11 -9t18.5 -4.5t21 -1.5h18.5q24 0 48.5 1t48.5 1q10 0 18.5 -1t11.5 -3q5 -23 6 -46.5t1 -49.5q0 -17 -4 -28.5t-21 -11.5h-171q-4 0 -6 -4t-2 -9q0 -55 1.5 -120.5t1.5 -145.5q-5 -4 -16.5 -5.5t-12.5 -1.5h-135
q-3 0 -6.5 2.5t-5.5 4.5q-6 72 -7 148.5t-1 168.5q0 91 2 181t2 181q0 8 7.5 9.5t16.5 1.5t16.5 1t7.5 8z" />
    <glyph glyph-name="g" unicode="g" horiz-adv-x="827" 
d="M423 703q64 0 118 -16.5t114 -53.5q9 -6 9 -16q0 -5 -1 -7.5t-5 -8.5l-69 -110q-4 -5 -5.5 -5.5t-6.5 -0.5q-11 0 -22 8t-22 13q-26 9 -49 15.5t-51 6.5q-38 0 -71 -15.5t-57.5 -41t-38.5 -60t-14 -71.5q0 -35 12.5 -67.5t35 -57.5t53.5 -40t67 -15q42 0 71.5 12.5
t56.5 43.5q6 7 14 22.5t10 31.5q-6 0 -19.5 1.5t-30.5 1.5q-16 0 -24.5 2t-12.5 10t-4.5 24.5t-0.5 45.5q0 6 0.5 15.5t1 18t1.5 14.5l1 6l6 10q2 0 11 0.5t19.5 1t20 0.5h13.5q52 0 105.5 -3t107.5 -3q6 -3 8 -10t2 -15q0 -90 -23 -165.5t-68.5 -130t-113 -85.5t-157.5 -31
q-10 0 -25 1t-16 7q-1 -3 -6 -3q-25 0 -52.5 11t-49.5 21q-31 13 -60 37t-53 53t-42.5 62t-27.5 66q-8 27 -10 54t-2 55q0 76 26.5 142t73 114.5t111 76.5t141.5 28z" />
    <glyph glyph-name="h" unicode="h" horiz-adv-x="763" 
d="M272 695q5 0 10 -2t7 -9q-1 -12 -1.5 -38.5t-0.5 -57v-59v-43.5q0 -29 4 -41.5t18 -12.5h154q9 0 14 9t7 21t2.5 24t0.5 18q1 8 1.5 14.5t0.5 14.5q0 6 -0.5 22t-0.5 34t-0.5 34.5t-0.5 25.5q0 8 1 22.5t1 15.5l12 6h156l6 -6v-537q0 -32 -3 -70t-3 -72q-1 -3 -5 -5
t-6 -2h-154q-8 0 -11 21t-3 46q0 32 0.5 50t1 31t1.5 25.5t3 33.5q2 6 2.5 9t0.5 11q-1 6 -1.5 15t-1.5 17t-2.5 14t-4.5 6l-5 3q-12 0 -29 0.5t-35 1t-35.5 1t-30.5 0.5q-20 0 -33.5 -1t-16.5 -5l-6 -5q0 -22 -1 -31.5t-1 -25.5q0 -20 1 -40t1 -41v-33.5v-30.5t-0.5 -30.5
t-1.5 -34.5q-5 -7 -13.5 -8t-15.5 -1q-73 0 -143 6q-8 4 -10 13t-2 19q0 158 5 316t5 315q1 11 4.5 19t14.5 8h143z" />
    <glyph glyph-name="i" unicode="i" horiz-adv-x="394" 
d="M256 697q10 0 20.5 -1.5t14.5 -12.5q1 -16 1.5 -35.5t1 -37.5t0.5 -32.5v-18.5q0 -113 -3 -224.5t-3 -224.5q0 -14 0.5 -29.5t0.5 -17.5q-3 -18 -3 -38t-9 -26q-42 0 -83 1.5t-83 1.5l-7 4l-4 7q0 169 1 336.5t4 335.5q4 9 10 10.5t17 1.5h124z" />
    <glyph glyph-name="j" unicode="j" horiz-adv-x="434" 
d="M316 697q15 0 20 -15q1 -6 2 -23t2 -35.5t1.5 -35.5t0.5 -23q0 -25 -0.5 -50t-1 -49t-1 -45t-0.5 -37q0 -3 0.5 -13.5t1 -23t1 -23t0.5 -13.5q0 -15 -1.5 -24.5t-1.5 -33.5q0 -9 0.5 -26t1 -36t1 -37t0.5 -28q0 -5 -3 -16t-6 -23t-5.5 -21.5l-2.5 -9.5q-17 -23 -36.5 -36
t-41.5 -19.5t-46.5 -8t-50.5 -1.5q-12 0 -25.5 0.5t-25 3t-20 6.5t-11.5 11v25.5t-0.5 26.5t-0.5 23v15q0 11 2 23t11 14q32 2 52 10t23 41q0 12 0.5 42.5t1.5 64t1.5 62.5t0.5 39q0 38 -2 79.5t-2 73.5v44t1.5 47t3.5 37t7 15q11 0 21 -1.5t21 -1.5q8 0 15 3t15 3h77z" />
    <glyph glyph-name="k" unicode="k" horiz-adv-x="724" 
d="M250 704q10 0 20.5 -2t10.5 -10v-204q0 -2 0.5 -5.5t1.5 -3.5q6 0 13.5 8t15 19t14.5 21.5t13 15.5l112 152q6 6 14 6h148l24 -4q2 0 2 -5q0 -1 -0.5 -4.5t-1.5 -4.5l-43 -67l-6 -5l-128 -170q-3 -4 -3 -8t0.5 -6t2.5 -6l194 -401q0 -2 0.5 -3.5t0.5 -2.5
q0 -11 -18.5 -14.5t-41.5 -3.5q-45 0 -81.5 3t-51.5 3l-7 6q-1 1 -6 10t-17 33.5t-33.5 69.5t-55.5 118q-2 11 -3 21t-11 10q-2 0 -9 -8.5t-15 -19.5t-14.5 -20.5t-7.5 -11.5v-30t0.5 -29t0.5 -32.5v-41.5q0 -27 -2.5 -49.5t-13.5 -25.5q-29 0 -50 -1t-41 -1q-8 0 -21 1
t-25 2.5t-20.5 3.5t-8.5 3v345q0 3 1 10t2 15l2 16t1 13q0 68 -4 135.5t-4 134.5q0 6 1 12.5t7 9.5q19 1 42.5 1.5t44.5 1t36.5 0.5h18.5z" />
    <glyph glyph-name="l" unicode="l" horiz-adv-x="569" 
d="M281 689q1 -2 2 -20.5t2 -29.5q0 -4 -0.5 -22t-0.5 -34q0 -13 0.5 -41t1.5 -65.5t2.5 -81t2.5 -87t1.5 -84.5t0.5 -72l3 -3h200q6 0 10.5 -3t4.5 -14q0 -23 3 -48t3 -48q0 -5 -2.5 -15t-7.5 -11q-33 -3 -58 -5t-52 -3t-61.5 -1h-86.5q-24 0 -48.5 0.5t-44 2t-31.5 3.5
t-12 5q-2 166 -7.5 329t-5.5 328q0 9 2.5 17t10.5 8h162z" />
    <glyph glyph-name="m" unicode="m" horiz-adv-x="950" 
d="M263 689q5 0 11.5 -2.5t9.5 -6.5l182 -267q4 -6 9 -6t8 6l128 181l6 6l52 75l9 8l46 1q21 0 42 -0.5t38.5 -1t28 -1t10.5 -1.5l3 -5q0 -3 0.5 -12.5t1.5 -20.5t1.5 -20.5t0.5 -12.5v-80t-0.5 -122.5t-1 -140t-1.5 -132t-3 -97.5t-4 -38h-158q-3 0 -5 4.5t-3 10.5t-1.5 12
t-0.5 9q0 65 2 128.5t2 128.5v24.5v30.5t-0.5 26.5t-0.5 13.5l-6 12q-2 0 -11 -14t-19.5 -30.5t-20 -31t-10.5 -15.5q-31 -45 -63 -88.5t-64 -87.5l-4.5 -4.5t-4.5 -1.5q-7 0 -11.5 7.5t-6.5 12.5l-54 77q-3 2 -6.5 5t-3.5 6l-60 90q-6 3 -12.5 13t-13 21.5t-11.5 20t-7 8.5
t-4 -0.5t-5 -0.5q0 -70 -1.5 -140t-1.5 -139v-47.5t2 -46.5q-4 -4 -4.5 -8t-2.5 -4h-159q-5 0 -6.5 4t-1.5 8v142q2 5 2 6.5v5.5q-2 19 -3 45.5t-1 46.5q0 106 3 210t3 211q1 3 3.5 6t5.5 3h148z" />
    <glyph glyph-name="n" unicode="n" horiz-adv-x="793" 
d="M242 682q8 0 13 -2t10 -9l123 -178q2 -5 9 -13t8 -10l101 -146l12 -13l2 3v49.5t0.5 74t1 83.5t1.5 78.5t2.5 58t3.5 22.5h158l6 -4q0 -59 -0.5 -126t-1.5 -137.5t-1.5 -141.5t-0.5 -138v-51t1 -52l-3 -29l-20 -4l-126 4q-5 0 -12.5 10.5t-8.5 15.5l-94 135
q-2 7 -7.5 11.5t-7.5 12.5l-129 183q-2 2 -3.5 4.5t-4.5 2.5t-3 -4v-366l-6 -5l-5.5 -0.5t-12.5 -0.5h-14h-11h-37.5t-38.5 0.5t-30 1.5t-12 2l-4 5v358q1 3 1.5 15t2.5 14q0 64 -2 128.5t-2 128.5v6t1.5 10t3.5 9t7 4h130z" />
    <glyph glyph-name="o" unicode="o" horiz-adv-x="868" 
d="M443 -23q-79 0 -147 28t-118 77t-78.5 116.5t-28.5 147.5q0 69 27.5 133.5t76.5 114t116 79.5t146 30q77 0 143 -29t114 -79.5t75.5 -119t27.5 -147.5q0 -47 -12.5 -87.5t-31.5 -83.5q-7 -5 -12 -12.5t-9.5 -15.5l-9 -16t-10.5 -13q-31 -30 -60 -53t-61 -38.5t-68 -23.5
t-80 -8zM433 523q-38 0 -70 -14t-55.5 -38.5t-37 -57.5t-13.5 -70q0 -41 13.5 -74t38 -56.5t58 -36t74.5 -12.5q38 0 70 14t55.5 38.5t36.5 57t13 69.5t-14.5 70t-39 57.5t-58 38.5t-71.5 14z" />
    <glyph glyph-name="p" unicode="p" horiz-adv-x="673" 
d="M323 686q57 0 109 -16t92.5 -47.5t64.5 -78.5t24 -109v-10t-1 -14t-2 -12.5t-2 -5.5t-1.5 0.5t-1.5 0.5q0 -4 1 -7.5t1 -6.5q0 -11 -8.5 -29t-13.5 -25q-27 -37 -61 -61t-72 -38t-78.5 -19.5t-81.5 -5.5q-13 -5 -15 -17t-2 -23v-141q0 -14 -7 -18.5t-16 -4.5h-39.5t-32 1
t-31.5 2t-37 3q-7 0 -9.5 6t-2.5 12q0 65 1.5 125t1.5 123q0 50 -0.5 103.5t-1 106.5t-1 103.5t-0.5 94.5l3 6q10 1 21.5 1.5t16.5 0.5h8t9 -2q11 0 37 0.5t54 0.5t50 0.5t24 0.5zM285 542q-5 -3 -7 -11.5t-3.5 -19t-1.5 -22.5v-21v-21.5t0.5 -29.5t1 -33t0.5 -31l10 -9
q25 0 53 1.5t51.5 9.5t39 25.5t15.5 49.5q0 39 -11 61.5t-31.5 33.5t-50 14t-66.5 3z" />
    <glyph glyph-name="q" unicode="q" horiz-adv-x="890" 
d="M425 709q71 0 130.5 -21t106 -58.5t78.5 -89t48 -112.5q0 -14 3.5 -32.5t3.5 -34.5q0 -89 -42 -170q-4 -8 -11.5 -16.5t-7.5 -18.5q0 -5 16 -5.5t34.5 -0.5t34.5 -1.5t16 -8.5q0 -5 -1 -5l-69 -124l-6 -7l-207 -2q-8 0 -20.5 -2.5t-28 -5t-32.5 -5t-35 -2.5
q-82 0 -149 28.5t-115 78t-74.5 117.5t-26.5 148q0 76 27 140.5t74 111t112 72.5t141 26zM432 527q-33 0 -66 -12t-60 -34t-43.5 -53.5t-16.5 -69.5t13.5 -73t37.5 -62.5t57 -44t73 -16.5q48 0 84 15.5t59.5 43.5t35 67.5t11.5 87.5q-7 17 -11 32t-12 32q-11 21 -29 37.5
t-40 27.5t-46 16.5t-47 5.5z" />
    <glyph glyph-name="r" unicode="r" horiz-adv-x="701" 
d="M382 694q47 0 90.5 -18.5t76.5 -50.5t53 -75t20 -92q0 -77 -43.5 -131t-113.5 -83q-3 0 -3 -5l1 -4l171 -208q7 -10 9.5 -16t2.5 -8t-9 -2.5t-12 -0.5h-19t-40 -0.5t-54 -0.5h-61q-11 1 -17 10l-139 165q-3 2 -7 7.5t-9 5.5q-1 0 -2 -2t-3 -11v-162q-2 -3 -3.5 -6
t-2.5 -3h-136q-19 0 -24.5 9t-7.5 26q0 64 0.5 119.5t1 107t1 101.5t0.5 104q0 6 -0.5 29.5t-1 49.5t-1 47t-0.5 22q0 8 0.5 20.5t1.5 24.5t1.5 21t1.5 10h277zM304 552h-13t-8 -1l-9 -8v-188q0 -5 6 -6.5t15 -1.5q29 0 56 4t48 16t33.5 33t12.5 55q0 28 -13.5 46.5
t-34.5 30t-46 16t-47 4.5z" />
    <glyph glyph-name="s" unicode="s" horiz-adv-x="641" 
d="M353 697q28 0 56.5 -5t62.5 -18q3 -2 13 -6.5t20.5 -9.5t18.5 -10t8 -8q0 -4 -9 -20.5t-20 -36.5t-21.5 -37.5t-14.5 -22.5q-1 -2 -5 -2q-6 0 -18 5t-28 11t-33 11t-32 5q-10 0 -20.5 -2.5t-19.5 -8t-14.5 -14t-5.5 -20.5q0 -15 6.5 -26t20 -22.5t34.5 -24t49 -30.5
q32 -24 61 -43.5t51 -42t35 -51.5t13 -72q0 -49 -19.5 -88.5t-52.5 -68t-76.5 -44t-91.5 -15.5q-107 0 -205 55q-14 8 -26 16t-12 13v3q2 4 10 18.5t18.5 32.5t22 38t22.5 35q17 0 29 -11.5t25 -17.5q28 -14 58.5 -20t62.5 -6q22 0 40.5 9t18.5 35q0 23 -13.5 39t-30.5 28
q-38 23 -79 47t-75 54t-56 68t-22 88q0 51 19 87.5t52 60t77.5 34.5t95.5 11z" />
    <glyph glyph-name="t" unicode="t" horiz-adv-x="561" 
d="M486 684q1 -14 1.5 -47t0.5 -89q0 -2 -7.5 -3.5t-11.5 -1.5h-87q-6 0 -9 -7t-3 -12v-516q0 -1 -5 -4.5t-7 -3.5h-157l-7 6l-0.5 23.5t-1 62t-0.5 88t-0.5 101.5t-0.5 102.5v91.5l-3 56q0 9 -18.5 11t-40.5 3t-40.5 1.5t-18.5 6.5v128q0 1 3 2.5t5 3.5l85 1l11 -4
q1 0 3.5 1.5t4.5 1.5h295z" />
    <glyph glyph-name="u" unicode="u" horiz-adv-x="726" 
d="M468 689q23 0 67 -1t86 -1q6 0 10.5 -2.5t4.5 -12.5v-396q0 -3 -0.5 -10l-1 -14t-2 -12.5t-3.5 -5.5q1 -5 1 -11v-11q0 -37 -15 -76t-38 -65q-14 -15 -26 -25t-23 -24q-23 -11 -49 -20t-48 -22q-3 3 -6 3q-12 0 -25.5 -2.5t-26.5 -2.5q-23 0 -42 1.5t-36.5 6t-35 12
t-37.5 20.5q-33 17 -55 35.5t-36.5 41t-23 49.5t-13.5 61q0 53 -0.5 102t-1.5 97t-1.5 97t-0.5 102q0 21 1 45t8 39q5 0 16.5 0.5t23.5 0.5t22.5 0.5t12.5 0.5q24 0 46 -1t45 -1l7 -6v-368q0 -13 0.5 -22t0.5 -19t0.5 -22.5t0.5 -32.5q0 -5 7 -15.5t16.5 -20.5t19 -17
t15.5 -7l52 2q8 5 15 6t14 6q13 8 20 16.5t11 17.5t6.5 20t6.5 23q-1 14 -1 45.5v67.5q0 41 0.5 91t1 96.5t1 84t1.5 54.5z" />
    <glyph glyph-name="v" unicode="v" horiz-adv-x="801" 
d="M249 707q7 0 15.5 -20.5t17 -48.5t16 -56.5t11.5 -43.5q0 -1 6.5 -19t16 -44t20.5 -57t21.5 -57t17.5 -43.5t9 -17.5q3 0 6 4.5t5 9.5l130 377q2 4 4 7.5t7 3.5h175q8 0 9.5 -4.5t1.5 -8.5l-1 -7l-51 -144q-8 -12 -10 -26t-10 -26l-170 -481l-9 -10q-16 0 -42.5 0.5
t-53.5 1t-49.5 1t-30.5 0.5q-9 6 -14 18.5t-9.5 27t-8 29t-9.5 23.5l-126 366q-16 24 -22.5 53t-15.5 56q-3 7 -10 26t-14.5 39.5t-13 38t-5.5 20.5q0 4 2 8t7 4h177z" />
    <glyph glyph-name="w" unicode="w" horiz-adv-x="1088" 
d="M923 694h28.5t17 -0.5t12 -0.5h14.5q10 0 20 -2t10 -9q0 -2 -1.5 -7t-8.5 -26t-21.5 -62.5t-39.5 -116.5t-63.5 -187.5t-92.5 -275.5q-3 -1 -11 -4t-15 -5h-119q-2 0 -7 7t-5 9l-90 251q-3 5 -4.5 7t-8.5 2q-3 -7 -10.5 -28.5t-17.5 -50t-20 -60.5t-18 -60
q-5 -6 -7.5 -18.5t-6 -24.5t-8 -22t-11.5 -12l-68 -2q-15 0 -27.5 0.5t-29.5 1.5q-12 6 -15 16l-187 520q1 -1 -6.5 16t-17 41t-17.5 48.5t-8 39.5q0 4 2 8t6 4h150l29 -4q3 0 5.5 -4.5t3.5 -6.5l57 -156q0 -1 -0.5 -1.5t-0.5 -1.5q0 -10 8 -26.5t12 -27.5q4 -13 10.5 -32
t13 -37t12 -32t7.5 -15q5 3 7 14.5t2 14.5l102 302q2 4 5.5 9.5t6.5 5.5h76q7 0 11.5 -8t6.5 -13l101 -283q1 -8 4 -23t11 -19q2 2 3.5 4.5t2.5 4.5l112 325q2 4 11 6.5t22.5 4t29.5 2t31 0.5z" />
    <glyph glyph-name="x" unicode="x" horiz-adv-x="824" 
d="M715 703q5 0 6 -3.5t1 -5.5q0 -8 -14 -32.5t-32 -52.5t-35 -53t-23 -35q-22 -34 -41 -67t-40 -67q-5 -8 -5.5 -11.5t-0.5 -11.5l97 -149q3 -2 4 -4t3 -4l116 -181q3 -7 3.5 -10t0.5 -11q0 -3 -9 -4.5t-22 -2t-28 -1t-27 -0.5q-28 0 -42 -0.5t-25 -0.5q-22 0 -42 4t-29 18
l-25.5 42.5t-33.5 55t-33 48t-23 20.5q-1 0 -4 -2.5t-3 -3.5l-106 -175q-5 -6 -17 -8.5t-26 -2.5h-48t-39.5 0.5t-37.5 1.5t-42 3q-7 3 -7 8q12 30 31 55t30 53l153 245q2 3 3 4t1 5q0 9 -8 14l-73 114q-8 20 -24 39.5t-27 37.5t-23 38.5t-22 38t-17.5 29t-9.5 11.5
q0 4 10 6t25.5 3.5t34 2t34.5 0.5h67q12 0 22.5 -1.5t20.5 -7.5t19 -17t18 -30q3 -4 11 -19t18 -31t19.5 -29t15.5 -13q5 0 8.5 6t5.5 11l79 128q5 5 12 5h195z" />
    <glyph glyph-name="y" unicode="y" horiz-adv-x="793" 
d="M712 699q2 0 6.5 -3.5t4.5 -5.5q0 -1 -1 -4t-1 -5l-58 -113q-10 -12 -20 -29.5t-19.5 -36.5t-18 -37t-15.5 -32q-21 -42 -46.5 -86.5t-51.5 -84.5v-254q0 -4 -6 -6.5t-14.5 -3.5t-18 -1h-15.5q-7 0 -23 0.5t-34 0.5t-34 0.5t-23 0.5q-3 1 -7.5 3t-6.5 6q-2 42 -2 86
t-0.5 82t-2.5 66.5t-8 37.5l-84 153q-7 8 -11.5 19.5t-13.5 17.5l-118 209l4 17h192q3 0 11 -11t18.5 -27.5t22.5 -37t22.5 -39.5t18.5 -34t12 -21q1 -6 5 -13.5t8 -14t7.5 -11.5t5.5 -5q4 0 5 3l114 202q3 8 9.5 10t15.5 2h171z" />
    <glyph glyph-name="z" unicode="z" horiz-adv-x="697" 
d="M628 696q2 -4 2 -6l-105 -197l-11 -18l-128 -227q-3 -11 -11 -22.5t-15.5 -23.5t-13.5 -23t-6 -20t2 -11t16 -2q60 0 121.5 1.5t123.5 1.5q3 -1 3.5 -4t0.5 -5v-3.5t-1 -2.5l-45 -134l-7 -6q-6 0 -13.5 -0.5t-11.5 -0.5q-76 0 -152 1t-152 1h-158l-3 3q0 1 5 12.5
t11.5 25t12.5 25t8 13.5l81 147q10 12 17.5 26.5t11.5 29.5l117 216q6 6 15.5 20t9.5 23q-6 6 -24.5 7.5t-45.5 1.5q-21 0 -41.5 -0.5t-33.5 -0.5q-11 0 -22.5 2.5t-11.5 4.5q-1 0 -5.5 -3.5t-8.5 -3.5q-11 0 -18.5 -1.5t-17.5 -1.5q-5 0 -10 2t-5 8t8 29.5t17.5 49t17.5 46
t9 20.5l203 1q10 0 25 -0.5t31 -1t30.5 -1t23.5 -0.5q24 0 64.5 1t89.5 1z" />
    <glyph glyph-name="braceleft" unicode="{" horiz-adv-x="425" 
d="M302 592q-9 -10 -14 -36.5t-5 -59.5q0 -12 4 -35.5t4 -39.5q0 -19 -12.5 -41t-32.5 -39q20 -14 32.5 -38t12.5 -50q0 -16 -4 -32t-4 -39q0 -32 6 -58.5t16 -38.5l40 -48v-10q-32 -60 -52.5 -95.5t-36.5 -35.5t-39 13.5t-44.5 41.5t-36.5 69t-15 97q0 21 3.5 36t7.5 28.5
t7.5 27.5t3.5 33q0 16 -12.5 25.5t-26.5 9.5h-24q-10 0 -10 8l1 112q0 8 23 8q19 0 34 9t15 23q0 9 -3.5 20.5t-7.5 28.5t-7.5 40t-3.5 53q0 28 9 56.5t25.5 54.5t39.5 48.5t52 39.5l13 4q1 0 12.5 -15t29.5 -39q21 -27 34 -49.5t13 -32.5q0 2 -13 -14.5t-34 -39.5z" />
    <glyph glyph-name="bar" unicode="|" horiz-adv-x="316" 
d="M128 -94q-8 1 -14 2.5t-6 4.5t0.5 17.5t1 34.5t1 41.5t0.5 39.5q0 149 -5.5 293t-5.5 296q0 14 0.5 28t1.5 25t3.5 18t5.5 7h84l4 -2t3 -1l3 -37q-1 -17 -1 -32v-32q0 -134 4 -267.5t4 -267.5q0 -1 -0.5 -7t-1 -13.5t-1 -14.5t-0.5 -8q0 -8 1.5 -16.5t1.5 -16.5
q0 -7 -1 -14t-3 -12q0 -5 4 -7v-43q-5 -5 -9 -10.5t-12 -5.5t-18.5 -0.5t-22.5 -0.5h-1z" />
    <glyph glyph-name="braceright" unicode="}" horiz-adv-x="429" 
d="M127 86q5 11 8.5 26.5t5.5 32.5t2.5 33t0.5 28q0 36 3 57.5t9 35t14.5 23t20.5 22.5q-12 17 -20.5 30t-14.5 27t-9 31t-3 42q0 9 -0.5 25.5t-3 34.5t-6.5 34t-10 25l-41 53l1 5q8 14 16.5 27t15.5 27q3 5 10.5 18t16.5 26t17.5 23t12.5 10q10 0 20 -6t18.5 -14.5
t16.5 -17t16 -14.5l38 -51q7 -9 12 -24.5t8 -32t4.5 -33t1.5 -28.5q0 -14 -3.5 -27t-7 -26.5t-7 -29t-3.5 -34.5q0 -18 7.5 -26.5t30.5 -8.5h24q5 0 7.5 -3t2.5 -5l-1 -112q0 -5 -9 -6.5t-14 -1.5q-26 0 -37 -6t-11 -26q0 -9 3.5 -22t7 -31.5t7 -42.5t3.5 -54
q0 -68 -34.5 -117t-91.5 -82q-2 -1 -6.5 -2.5t-6.5 -1.5q-3 0 -13.5 15t-28.5 39q-3 3 -10.5 14t-15.5 24t-14.5 25.5t-6.5 18.5q0 3 6.5 10t14.5 15l15.5 15.5t10.5 13.5z" />
    <glyph glyph-name="asciitilde" unicode="~" horiz-adv-x="535" 
d="M436 293q7 -5 8.5 -6.5t1.5 -9.5q0 -21 -9 -38.5t-24 -30t-34.5 -19.5t-41.5 -7q-23 0 -36 6t-23.5 13t-22 13t-30.5 6q-13 0 -20.5 -6.5t-12 -14t-7.5 -13.5t-6 -6q-4 0 -10 2l-73 46q-7 4 -8.5 6.5t-1.5 10.5q0 21 9 39t24 30.5t35 19.5t41 7q20 0 32.5 -4.5
t28.5 -11.5q16 -6 26.5 -14t27.5 -8q9 0 16 6t12 13.5l9 13.5t6 6h4.5t5.5 -1z" />
    <glyph glyph-name="exclamdown" unicode="&#xa1;" horiz-adv-x="408" 
d="M140 558q-2 0 -5.5 5t-3.5 7v127q0 10 8 12t16 2q32 0 59.5 -1t55.5 -1q2 -1 6.5 -4.5t4.5 -7.5v-118q0 -8 -2.5 -14.5t-10.5 -6.5h-128zM100 23q5 42 9 71.5t4 58.5v11t-1 11l19 182v4q0 9 1.5 36t5 56.5t9 52.5t13.5 23h85q8 0 12.5 -9t7 -22.5t3 -29.5t0.5 -30
l13 -140q0 -11 4 -44t9.5 -75t9.5 -87.5t4 -82.5l-6 -6q-8 -1 -32 -1.5t-72 -0.5l-91 2l-7 3v17z" />
    <glyph glyph-name="cent" unicode="&#xa2;" horiz-adv-x="575" 
d="M530 45q0 -8 -12 -16.5t-29 -16t-35.5 -13t-30.5 -8.5l1 -7q-2 -11 -2 -20.5v-20.5q0 -5 -4 -16l-7 -1h-74q-7 0 -9.5 4t-2.5 9q0 13 -1 26t-1 25q-32 4 -61.5 13t-56.5 28q-3 2 -8 6t-5 10q0 -1 -2 -1.5t-3 -0.5q-29 20 -49.5 43.5t-33.5 54.5t-18.5 71.5t-5.5 95.5
q0 1 1 1t1 1q17 99 81.5 155.5t157.5 67.5q0 11 -0.5 22.5t-0.5 22.5q0 8 -2 13l4 3q3 0 7 2h75q8 0 10 -4t2 -9l-1 -52q13 -3 29.5 -7t31 -8.5t24.5 -10t10 -11.5q0 -3 -8 -19.5t-17.5 -35.5t-18.5 -34t-12 -15q-1 -1 -5 -1q-8 0 -13 3.5t-10 6.5q-13 6 -30.5 7.5
t-31.5 1.5q-41 0 -68 -16t-43.5 -42t-23 -59.5t-6.5 -69.5q15 -24 28.5 -43.5t30 -33t37.5 -21t50 -7.5q27 0 49.5 8.5t48.5 20.5q2 0 12 -14.5t21.5 -32.5t20.5 -34.5t9 -20.5z" />
    <glyph glyph-name="sterling" unicode="&#xa3;" horiz-adv-x="593" 
d="M507 109q0 -12 1 -22t2 -20.5t2 -23t1 -30.5q0 -14 -10 -14q-33 0 -58 -0.5t-52 -1.5t-61.5 -1.5t-86.5 -0.5q-18 0 -38.5 0.5t-40 1t-36 1.5t-26.5 3h-5v1q-9 1 -9 4q0 10 1 28t3 37l-4 61q0 6 4 10q39 6 56 27.5t21 53.5h-70q-2 0 -4.5 3.5t-4.5 7.5v80l5 7l68 1
q-6 33 -11.5 64.5t-5.5 56.5q0 42 17.5 74.5t46 55t65 34t75.5 11.5q26 0 50.5 -2.5t44 -7t31.5 -11t12 -14.5v-124q0 -5 -2 -5.5t-4 -0.5q-10 0 -18.5 6t-16.5 8q-13 6 -27 7.5t-29 1.5q-17 0 -33.5 -4.5t-30 -14.5t-22 -24.5t-8.5 -33.5q0 -18 2 -37t4 -39l77 -1
q11 0 22 -1t11 -5v-87q0 -1 -3.5 -3.5t-7.5 -2.5h-95q-2 -28 -8.5 -52t-23.5 -42l3 -4q0 -1 15 -0.5t37 1t48 1.5t49 1l3 -2h60q6 0 10.5 -3t4.5 -14z" />
    <glyph glyph-name="currency" unicode="&#xa4;" horiz-adv-x="602" 
d="M505 158q2 -3 4 -7t-3 -9l-46 -45l-6 -4h-3q-2 2 -4 4.5t-4 5.5l-15 15q-27 -20 -61 -31t-72 -11q-34 0 -66 11.5t-60 31.5l-16 -15q-3 -4 -12 -8q-3 3 -5 3l-45 46q-4 4 -2.5 8t3.5 7l21 22q-15 25 -23.5 53.5t-8.5 60.5q0 35 10.5 67t30.5 58q-5 5 -10 9t-10 9t-10 7
l1 4l3 6l45 46q5 5 9 3.5t7 -4.5l24 -25q56 36 125 36q28 0 52.5 -8t50.5 -19q5 -6 14 -11q5 5 11 10t12 11q8 8 15 1l46 -46q0 -1 3 -4q-4 -9 -8 -13q-5 -5 -9.5 -10t-9.5 -10q17 -24 25 -51t8 -63q0 -34 -8.5 -64.5t-24.5 -56.5zM296 419q-26 0 -48 -10t-38.5 -27t-26 -40
t-9.5 -49q0 -42 17.5 -67t44.5 -41q-2 0 -3 -3l3 -3q5 0 5 3q29 -13 61 -13q27 0 49 10t38.5 27t25.5 39.5t9 47.5q0 24 -9.5 46.5t-26 40t-40.5 28.5t-52 11z" />
    <glyph glyph-name="yen" unicode="&#xa5;" horiz-adv-x="703" 
d="M623 611q2 0 6 -2.5t4 -4.5q0 -1 -1 -3.5t-1 -4.5l-50 -97q-21 -33 -38 -66.5t-33.5 -67t-35 -66.5t-40.5 -64v-19h78q2 0 2.5 -3t0.5 -4l7 -51l-6 -4q-23 -1 -43.5 -1h-38.5v-27q21 -1 41 -1h42q4 0 4.5 -3t0.5 -4v-50l-6 -4h-43.5t-38.5 -1v-47q0 -4 -5.5 -6t-13 -3
t-15.5 -1h-13q-6 0 -20 0.5t-29.5 0.5t-29 0.5t-19.5 0.5q-3 1 -7 2t-5 6q-1 11 -1.5 23.5t-0.5 24.5h-49q-11 0 -25.5 0.5t-14.5 2.5l7 55q2 1 5 2t7 1h35t34 1v28h-26q-5 0 -11 -0.5t-11 -0.5q-11 0 -22 1t-11 3v55q4 4 12 4h68l-3.5 21t-3.5 14l-73 131q-7 7 -10 17
t-11 15l-102 180l3 15h166q2 0 9 -11t16 -28t19 -37.5t19 -39.5t16 -34t10 -20q4 -10 12.5 -23.5t11.5 -13.5t4 2l98 197q4 7 9 8.5t13 1.5h147z" />
    <glyph glyph-name="brokenbar" unicode="&#xa6;" horiz-adv-x="305" 
d="M120 412q-8 1 -14 2.5t-6 4.5t0.5 17.5t1 34.5t1 41.5t0.5 39.5q0 26 -1.5 46t-1.5 37q0 14 0.5 28t1.5 25t3.5 18t5.5 7h84q2 0 4 -1.5t3 -1.5l2 -17v-113q0 -9 -1 -24.5t-2 -18.5q0 -8 1.5 -16.5t1.5 -16.5q0 -9 -2 -12.5t-2 -9.5q0 -9 4 -11v-43q-5 -5 -9 -11t-12 -6
q-11 0 -27 0.5t-36 0.5zM110 -90l-4 2t-3 1l-3 21q0 10 0.5 26.5t0.5 33v30.5v19q0 1 0.5 7t1 13.5t1 14t0.5 8.5q0 8 -1.5 16.5t-1.5 16.5v76q0 11 4 13.5t17 2.5q5 0 18.5 0.5t28 0t25.5 -2t11 -5.5v-13q-2 -36 -2.5 -66.5t-0.5 -53.5q0 -26 1.5 -46t1.5 -37
q0 -14 -0.5 -28t-1.5 -25t-3.5 -18t-5.5 -7l-54 -1l-20 1h-10z" />
    <glyph glyph-name="section" unicode="&#xa7;" horiz-adv-x="573" 
d="M493 287q0 -43 -17.5 -77t-46.5 -59q17 -21 27.5 -46t10.5 -57q0 -69 -38 -107.5t-100 -51.5q-17 -3 -40.5 -5t-40.5 -2q-5 0 -9 0.5t-7 0.5q-32 3 -78 18q-3 1 -11 5.5t-17 9.5t-16 9.5t-7 6.5q0 3 7 17t16.5 31t19 31.5t13.5 19.5q1 3 5 3t15 -4.5t24.5 -10t28 -10
t27.5 -4.5q17 0 34 10.5t17 30.5q0 13 -5.5 22.5t-17 19t-29 20.5t-41.5 28q-29 19 -54 35.5t-44 36t-30 44.5t-11 62q0 43 17.5 77t46.5 59q-17 21 -27.5 46t-10.5 57q0 69 38 107.5t100 51.5q17 3 40.5 5t40.5 2q5 0 9 -0.5t7 -0.5q32 -3 78 -18q3 -2 11 -6t17 -9t16 -9.5
t7 -6.5q0 -3 -7 -17t-16.5 -31t-19 -32t-13.5 -19q-1 -3 -5 -3q-5 0 -15.5 4.5t-24 10t-28 10t-27.5 4.5q-17 0 -34 -10.5t-17 -30.5q0 -13 5.5 -22.5t17 -19t29 -21t41.5 -27.5q28 -19 53.5 -35.5t44.5 -36t30 -44.5t11 -62zM313 237q12 5 20 13t8 23q0 18 -9.5 34.5
t-26.5 28.5l-47 28q-12 -5 -20 -13t-8 -23q0 -19 10.5 -35.5t24.5 -27.5z" />
    <glyph glyph-name="dieresis" unicode="&#xa8;" horiz-adv-x="378" 
d="M16 739q-10 0 -16 5v62.5t0.5 38.5t1 19.5t1.5 5.5l4 5h126l5 -7v-126q0 -4 -6.5 -5t-8.5 -1q-19 0 -34.5 3t-31.5 3zM378 733q-26 0 -49 1.5t-47 2.5l-22 1h-8q-3 0 -5.5 9t-4 23.5t-2 31.5t-0.5 32q0 14 1 25t5 11h127q2 0 3.5 -6t1.5 -8v-123z" />
    <glyph glyph-name="copyright" unicode="&#xa9;" horiz-adv-x="868" 
d="M797 349q0 -69 -27.5 -133.5t-76.5 -114t-116 -79.5t-146 -30q-66 0 -124 22.5t-104 61.5q-68 63 -100 135.5t-32 155.5q0 47 12.5 87.5t31.5 83.5q13 9 21.5 27.5t19.5 29.5q31 30 60 53t61 38.5t68 23.5t80 8q82 0 150 -29t117.5 -79t77 -117t27.5 -144zM445 57
q63 0 116.5 24t92.5 64.5t60.5 94.5t21.5 114q0 61 -23.5 116t-65 95.5t-97.5 64.5t-122 24q-61 0 -114.5 -23.5t-93 -64t-62 -95t-22.5 -117.5q0 -43 9.5 -80.5t26.5 -69.5l1 -2q37 -66 106 -105.5t166 -39.5zM448 568h12.5t13.5 -1q4 0 18.5 -4t30 -10t27.5 -14t12 -15
q0 -3 -7 -15t-15.5 -25.5t-16.5 -24t-9 -10.5q-5 2 -5 3q-18 8 -33.5 13.5t-34.5 5.5q-22 0 -37.5 -6t-28 -16.5t-22.5 -25t-21 -31.5q0 -27 5 -52t17.5 -44.5t32.5 -31t50 -11.5q11 0 23.5 1t23.5 6q4 2 7 4t9 2q2 0 6 1.5t6 1.5t8.5 -11.5t14 -25t13 -25.5t5.5 -14
q0 -5 -12.5 -11.5t-28.5 -12t-31 -10t-19 -5.5q-6 -1 -11 -1h-10q-41 0 -77 11.5t-64 33.5t-47 54.5t-26 73.5q1 3 1 10q0 8 -1.5 14.5t-1.5 14.5q0 48 21 90.5t60 68.5q3 0 3 -1q0 4 3.5 7.5t6.5 4.5q29 20 62 26.5t67 6.5z" />
    <glyph glyph-name="ordfeminine" unicode="&#xaa;" horiz-adv-x="445" 
d="M257 668q1 0 4.5 -7t7 -15.5t6.5 -16t3 -8.5q22 -57 45.5 -112.5t46.5 -112.5q0 -6 -6 -7.5t-17 -1.5l-61 1q-4 9 -7 15l-7 14q-5 -1 -10.5 0.5t-15.5 1.5q-2 0 -10.5 -0.5t-18 -1t-18.5 -1t-11 -0.5t-8 0.5t-11 0.5q-4 -9 -6 -17t-7 -16q-15 0 -30.5 1t-33.5 1
q-6 0 -11.5 1t-5.5 4v3l24 68q7 14 11.5 29t10.5 29q14 36 28.5 72t28.5 73q1 2 5 2.5t6 0.5h68zM219 545q0 1 -3.5 -7t-7.5 -17.5t-7.5 -18.5t-3.5 -11q0 -3 7 -3h8h12t11 0.5t5 1.5q0 5 -7.5 22t-13.5 33z" />
    <glyph glyph-name="guillemotleft" unicode="&#xab;" horiz-adv-x="591" 
d="M161 142q-6 0 -8 4l-81 142q-13 17 -16 26t-3 13q5 14 9 23t9 19l75 138q2 5 17 6.5t31 1.5q62 0 83 -1t21 -2v-3q0 -8 -4 -15l-11 -19l-78 -139q-5 -6 -5 -12l106 -169l3 -9l-1 -4h-147zM412 141q-16 0 -30.5 1.5t-17.5 6.5l-73 138q-5 10 -10 21.5t-5 16.5v4q0 5 4 17
t12 22l79 142q2 4 8 4h148l1 -6l-4 -7l-105 -169q0 -3 1.5 -5t3.5 -7l86 -155l8 -10t4 -8v-3l-7 -1q-2 0 -7.5 -0.5t-14.5 -0.5z" />
    <glyph glyph-name="logicalnot" unicode="&#xac;" horiz-adv-x="287" 
 />
    <glyph glyph-name="registered" unicode="&#xae;" horiz-adv-x="868" 
d="M446 718q48 0 88.5 -12.5t83.5 -31.5q4 -6 11.5 -11.5t15.5 -10l16 -9t13 -10.5q31 -31 54 -60t38.5 -60.5t23 -67.5t7.5 -81q0 -79 -27.5 -147t-77 -118t-117 -78.5t-147.5 -28.5q-69 0 -133.5 27.5t-114 76.5t-79.5 116t-30 146q0 77 30 143t81.5 114t119.5 75.5
t144 27.5zM438 655q-63 0 -117.5 -24t-95.5 -66t-64.5 -98t-23.5 -119q0 -62 23.5 -115t64.5 -92.5t95.5 -62t117.5 -22.5q68 0 123.5 23.5t93.5 65.5l9 9q34 41 52.5 94t18.5 116q0 64 -24 117.5t-64.5 92t-94.5 60t-114 21.5zM453 566q28 0 53 -11t44.5 -29.5t31 -44
t11.5 -54.5q0 -45 -25 -76.5t-66 -48.5q-4 0 -4 -2q0 -1 2 -3l101 -122q7 -14 7 -15q-8 -2 -12 -2q-13 0 -33.5 -0.5t-38.5 -0.5h-18t-13 1q-7 1 -9 6l-82 97q-2 1 -4 4t-5 3q-2 0 -3 -1t-1 -6v-95q0 -6 -3 -6h-79q-11 0 -14.5 5.5t-5.5 16.5q0 37 0.5 69.5t0.5 62.5
t0.5 59.5t0.5 61.5l-2 107q1 9 1.5 16t1.5 8h163zM389 478v-111q0 -5 13 -5q42 0 65 15t23 49q0 28 -24.5 42.5t-59.5 14.5h-11z" />
    <glyph glyph-name="macron" unicode="&#xaf;" horiz-adv-x="293" 
d="M8 751q-2 0 -4 3.5t-4 6.5v72l5 7q34 1 63 1.5t53 0.5q43 0 76.5 -0.5t65.5 -0.5q11 0 20.5 -1t9.5 -5v-79q0 -1 -3 -4t-7 -3l-161 1l-7 -1z" />
    <glyph glyph-name="degree" unicode="&#xb0;" horiz-adv-x="445" 
d="M124 344q-25 26 -37 50t-12 60q0 32 11 59.5t31 48t47.5 32t60.5 11.5q32 0 62 -15t51 -41q17 -25 24.5 -47t7.5 -46q0 -31 -12.5 -58t-33.5 -46.5t-48.5 -31t-58.5 -11.5q-19 0 -35.5 5.5t-33.5 13.5q-2 2 -11 8zM222 393q27 0 46.5 19.5t19.5 46.5q0 23 -18.5 43
t-47.5 20q-26 0 -43 -14q-2 -2 -7 -2q0 -5 -2 -7q-13 -20 -13 -43q0 -14 6 -25.5t15 -19.5t20.5 -13t23.5 -5z" />
    <glyph glyph-name="plusminus" unicode="&#xb1;" horiz-adv-x="454" 
d="M303 508q1 0 2.5 -1.5t3 -9t2 -24t0.5 -46.5q1 -3 3.5 -6t4.5 -3h43q2 0 2.5 -6t0.5 -7v-111l-4 -3l-51 1l1 -75q0 -3 -3.5 -6.5t-5.5 -3.5l-136 -4q-11 0 -11 25q0 8 1 16.5t1 16.5q0 19 -7 24.5t-17 5.5q-4 0 -8 -0.5t-9 -0.5q-10 0 -19.5 1.5t-9.5 6.5l-1 112
q0 2 2.5 5t7.5 3h49q9 0 11 10.5t2 15.5q0 37 2 50.5t9 13.5l65 2zM107 24q-8 1 -14.5 2t-6.5 6v112q0 2 2.5 5t7.5 3q28 -1 47 -1.5t32 -1t21.5 -0.5h15.5q46 0 80 1.5t70 1.5q2 0 2.5 -6t0.5 -7v-105l-4 -9q-33 -1 -61 -1.5t-51 -0.5q-45 0 -72 1t-44 1z" />
    <glyph glyph-name="acute" unicode="&#xb4;" horiz-adv-x="192" 
d="M8 725q-8 0 -8 8q0 2 1 5t2 5l51 131q2 5 6 10.5t9 5.5h113q7 0 8.5 -5t1.5 -8q0 -4 -3.5 -10t-11.5 -17l-85 -115q-5 -6 -16.5 -8.5t-20.5 -2.5l-31 1h-16z" />
    <glyph glyph-name="paragraph" unicode="&#xb6;" horiz-adv-x="714" 
d="M620 679q0 -44 -0.5 -94.5t-1 -103.5t-1 -106.5t-0.5 -104.5v-55.5t0.5 -79t1 -90t1 -90t0.5 -80v-57.5q0 -6 -2.5 -12t-9.5 -6q-21 0 -37.5 -0.5t-33.5 -0.5q-9 0 -16 4.5t-7 18.5v341q0 10 1.5 62.5t0.5 128.5l-2 237l-10 5q0 2 -8 3t-13 1h-26.5t-26.5 -2
q-1 -78 -2 -163t-1 -165v-55.5t0.5 -79t1 -90t1 -90t0.5 -80v-57.5q0 -6 -2.5 -12t-9.5 -6q-21 0 -37.5 -0.5t-33.5 -0.5q-9 0 -16 4.5t-7 18.5v341v33.5t-0.5 61t-3 59t-6.5 28.5q-29 0 -57.5 4t-55.5 14t-51 27t-43 43q-3 5 -11 24t-8 53q0 43 17 76.5t45.5 55.5t65 33.5
t76.5 11.5h26.5t35.5 -0.5l38 -1t35 -0.5h135q6 2 9 2h8t16.5 -0.5t21.5 -1.5z" />
    <glyph glyph-name="periodcentered" unicode="&#xb7;" horiz-adv-x="360" 
d="M242 392q3 0 6.5 -8.5t3.5 -16.5v-115q0 -3 -3.5 -6.5t-6.5 -3.5h-125q-6 0 -9.5 7.5t-5 18t-1.5 21.5v18q0 9 1 23t2 27t2 22.5t1 10.5l10 2h125z" />
    <glyph glyph-name="cedilla" unicode="&#xb8;" horiz-adv-x="145" 
d="M34 -221q-8 0 -10.5 1.5t-4.5 7.5l-18 57l-1 9q7 2 17 4t20 5.5t17 9.5t7 18q0 13 -6.5 21t-16 12.5t-20.5 6.5t-19 2q0 15 9.5 31.5t9.5 38.5h57q5 -14 15.5 -26.5t21.5 -26.5q2 -2 2 -5q4 -2 5 -4q11 -14 18.5 -29t7.5 -35q0 -23 -10.5 -41.5t-26.5 -31t-35.5 -19
t-38.5 -6.5z" />
    <glyph glyph-name="ordmasculine" unicode="&#xba;" horiz-adv-x="456" 
d="M231 381q-32 0 -59.5 11t-48 31t-32 47.5t-11.5 60.5q0 28 11 54t31 46t47.5 32.5t59.5 12.5q31 0 58 -12.5t46.5 -33.5t31 -48.5t11.5 -58.5q0 -19 -5.5 -35.5t-13.5 -33.5q-5 -4 -8.5 -11.5t-7.5 -12.5q-26 -25 -50 -37t-60 -12zM228 479q20 0 33 14t13 34
q0 22 -13.5 34.5t-34.5 12.5q-19 0 -32.5 -14t-13.5 -33q0 -20 14 -34t34 -14z" />
    <glyph glyph-name="guillemotright" unicode="&#xbb;" horiz-adv-x="591" 
d="M179 518q16 0 30.5 -1.5t17.5 -6.5l73 -138q5 -10 10 -21.5t5 -16.5v-4q0 -5 -4 -17t-12 -22l-79 -142q-2 -4 -8 -4h-148l-1 6l4 7l105 169q0 3 -1.5 5t-3.5 7l-86 155l-8 10t-4 8v3l7 1q2 0 7.5 0.5t14.5 0.5zM430 517q6 0 8 -4l81 -142q9 -20 14 -29t5 -13
q0 -11 -6.5 -20t-11.5 -19l-75 -138q-2 -5 -17 -6.5t-31 -1.5q-62 0 -83 0.5t-21 2.5v3q0 8 4 15l11 19l78 139q5 6 5 12l-106 169l-3 9l1 4h147z" />
    <glyph glyph-name="onequarter" unicode="&#xbc;" horiz-adv-x="1017" 
d="M593 1057q3 -45 3.5 -88t0.5 -97l-1 -392l-3 -6h-104l-5 -2l-37 2v308q0 8 3.5 12.5t3.5 12.5q-2 0 -7 2t-7 2q-5 -3 -10 -11t-9 -13q-5 -5 -15.5 -15t-22.5 -19.5t-24 -16.5t-20 -7q0 39 2 76.5t2 74.5q7 8 17.5 16t23.5 18t27.5 23t28.5 32q4 4 10.5 14t14.5 15l38 59
h90zM45 283l-5 26l6 51q-1 1 4 3t8 2h155q16 2 32.5 2.5t32.5 0.5q23 0 42 -0.5t43 -2.5q55 0 100.5 1t89.5 2t90.5 2t102.5 1q16 0 25.5 -0.5t27.5 -2.5h171q2 0 4 -1.5t3 -2.5q0 -9 -0.5 -12t-1.5 -5l-2 -31q0 -5 1 -10.5t1 -10.5l-7 -5q-83 -1 -171 -3t-194.5 -4
t-238.5 -3t-302 0h-15zM642 168q0 -14 -1 -27t-1 -27q0 -79 2 -157.5t2 -159.5q2 -8 8 -8h43q2 0 2.5 -6.5t0.5 -7.5l-54 -115v-73q0 -3 -3.5 -6t-5.5 -3l-136 -5q-10 0 -10 26q0 8 0.5 16t0.5 16q0 20 -7 25t-17 5q-4 0 -8.5 -0.5t-9.5 -0.5q-14 0 -28.5 -1t-30.5 -1
q-3 0 -11 1t-10 1h-124q-3 0 -3.5 7t-0.5 8l137 278q3 12 10 24.5t13.5 24t12 21t5.5 15.5q11 21 21.5 44.5t21 44t20.5 34t21 13.5h133zM478 -211q9 0 11 10t2 15v7l-3 58q0 11 -0.5 21.5t-0.5 21.5l-3 2l-6 -4l-53 -116l-1 -7q0 -8 5 -8l18 -1z" />
    <glyph glyph-name="onehalf" unicode="&#xbd;" horiz-adv-x="1017" 
d="M593 1057q3 -45 3.5 -88t0.5 -97l-1 -392l-3 -6h-104l-5 -2l-37 2v308q0 8 3.5 12.5t3.5 12.5q-2 0 -7 2t-7 2q-5 -3 -10 -11t-9 -13q-5 -5 -15.5 -15t-22.5 -19.5t-24 -16.5t-20 -7q0 39 2 76.5t2 74.5q7 8 17.5 16t23.5 18t27.5 23t28.5 32q4 4 10.5 14t14.5 15l38 59
h90zM45 283l-5 26l6 51q-1 1 4 3t8 2h155q16 2 32.5 2.5t32.5 0.5q23 0 42 -0.5t43 -2.5q55 0 100.5 1t89.5 2t90.5 2t102.5 1q16 0 25.5 -0.5t27.5 -2.5h171q2 0 4 -1.5t3 -2.5q0 -9 -0.5 -12t-1.5 -5l-2 -31q0 -5 1 -10.5t1 -10.5l-7 -5q-83 -1 -171 -3t-194.5 -4
t-238.5 -3t-302 0h-15zM484 182q39 0 75.5 -11.5t65 -34t46 -55t17.5 -74.5q0 -74 -29.5 -144t-77.5 -128q-2 -4 -2 -10q0 -4 15 -6t35 -3t40.5 -1h31.5t21.5 0.5t21.5 0.5q2 -1 2 -5q0 -7 -10 -26.5t-22 -41t-23 -40t-13 -23.5l-4 -4q-5 0 -8.5 -0.5t-9.5 -0.5t-15 -0.5
t-24 -0.5q-72 0 -145.5 1t-145.5 1q-3 0 -9 2.5t-6 4.5q25 38 46.5 66t38.5 52q19 26 43.5 57.5t46 65t36.5 69t15 70.5q0 19 -8.5 33.5t-22 24.5t-30.5 14.5t-33 4.5q-15 0 -29 -1.5t-27 -7.5q-8 -2 -16.5 -8t-18.5 -6q-2 0 -4 0.5t-2 5.5v124q0 8 19.5 14.5t44 11t46.5 7
t28 2.5z" />
    <glyph glyph-name="threequarters" unicode="&#xbe;" horiz-adv-x="1017" 
d="M499 1089q40 0 77 -9.5t66 -30t46.5 -52t17.5 -75.5q0 -35 -13.5 -59t-40.5 -46v-4q0 -3 0.5 -5.5t4.5 -4.5q15 -17 24 -26.5t13.5 -14l6.5 -6.5t2 -3q22 -39 22 -82q0 -16 -1.5 -31.5t-6.5 -29.5q-2 -10 -6.5 -17t-4.5 -16q-2 -7 -8 -14.5t-13 -15t-13.5 -13.5t-9.5 -9
q-41 -32 -88 -46t-99 -14q-10 0 -33.5 3t-49.5 8t-47.5 12t-26.5 16q0 38 5 70t13 61q2 7 6 8t11 1q27 -14 55 -24t60 -10q35 0 61.5 14.5t26.5 52.5q0 27 -16.5 39.5t-36.5 18.5t-38.5 8t-22.5 8q-1 1 -1.5 5.5t-0.5 6.5l-0.5 4t-0.5 9.5v10.5v8v13.5t1 8.5l5 6q12 1 30 4
t34.5 10t28 18t11.5 28q0 40 -25.5 55.5t-62.5 15.5q-23 0 -46 -6.5t-46 -17.5q-11 0 -11 9v116q0 7 18.5 13.5t42.5 11t47.5 7t32.5 2.5zM45 283l-5 26l6 51q-1 1 4 3t8 2h155q16 2 32.5 2.5t32.5 0.5q23 0 42 -0.5t43 -2.5q55 0 100.5 1t89.5 2t90.5 2t102.5 1
q16 0 25.5 -0.5t27.5 -2.5h171q2 0 4 -1.5t3 -2.5q0 -9 -0.5 -12t-1.5 -5l-2 -31q0 -5 1 -10.5t1 -10.5l-7 -5q-83 -1 -171 -3t-194.5 -4t-238.5 -3t-302 0h-15zM642 168q0 -14 -1 -27t-1 -27q0 -79 2 -157.5t2 -159.5q2 -8 8 -8h43q2 0 2.5 -6.5t0.5 -7.5l-54 -115v-73
q0 -3 -3.5 -6t-5.5 -3l-136 -5q-10 0 -10 26q0 8 0.5 16t0.5 16q0 20 -7 25t-17 5q-4 0 -8.5 -0.5t-9.5 -0.5q-14 0 -28.5 -1t-30.5 -1q-3 0 -11 1t-10 1h-124q-3 0 -3.5 7t-0.5 8l137 278q3 12 10 24.5t13.5 24t12 21t5.5 15.5q11 21 21.5 44.5t21 44t20.5 34t21 13.5h133z
M478 -211q9 0 11 10t2 15v7l-3 58q0 11 -0.5 21.5t-0.5 21.5l-3 2l-6 -4l-53 -116l-1 -7q0 -8 5 -8l18 -1z" />
    <glyph glyph-name="questiondown" unicode="&#xbf;" horiz-adv-x="414" 
d="M136 565q-2 3 -4 10.5t-2 11.5v117q0 8 10.5 10t21.5 2h33h26.5t25.5 -0.5t32 -1.5q2 -2 4 -6.5t2 -6.5v-129l-10 -10h-117zM259 -3q-37 0 -68 12.5t-53.5 35t-35 53.5t-12.5 68q0 15 6.5 46t16.5 60q9 24 23 52.5t14 54.5q0 11 -3 16.5t-14 14.5q-2 30 -3 51t-1 51
q0 18 6.5 21t29.5 3q66 0 102.5 -34.5t36.5 -101.5q0 -22 -7 -48.5t-16 -52t-17.5 -48.5t-10.5 -37q0 -15 11 -26.5t24.5 -20t24.5 -14.5t11 -10q0 -2 -0.5 -8.5t-1.5 -9.5l-35 -111q-4 -11 -9 -14t-19 -3z" />
    <glyph glyph-name="Agrave" unicode="&#xc0;" 
d="M217 915q0 4 1.5 8.5t8.5 4.5h120q5 0 9 -5.5t6 -10.5l59 -148v-3q0 -9 -8 -11.5t-19 -2.5q-7 0 -14 -0.5t-14 -0.5q-17 0 -25 3t-12 8l-112 155v3zM451 697q3 0 11.5 -17t17.5 -38t16 -39.5t7 -21.5q54 -142 112 -280.5t115 -278.5q0 -15 -14 -18t-42 -3q-3 0 -17.5 0.5
t-33.5 0.5t-40 0.5t-37 0.5q-9 22 -17 43t-26 43q-11 -1 -26.5 2t-39.5 3l-125 -2q-2 0 -7 0.5t-10.5 0.5t-10.5 0.5t-6 0.5q-12 0 -18.5 -13.5t-11.5 -30.5t-10 -33.5t-13 -22.5q-19 -1 -34 -0.5t-29.5 1.5t-31 2t-38.5 1q-16 0 -29 2t-13 10q0 2 0.5 4.5t0.5 4.5l58 168
q17 34 29 70.5t26 71.5q35 90 71 179.5t71 180.5q1 6 11 7t15 1h119zM368 230q11 0 24 0.5t23.5 1t17.5 2t7 4.5q0 7 -1 13.5t-4.5 16t-9.5 24t-16 37.5q-4 9 -6.5 16.5t-7.5 15.5l-13 31q-2 0 -12 -21t-21 -47.5t-20 -51t-9 -30.5q0 -8 7.5 -10t14.5 -2h26z" />
    <glyph glyph-name="Aacute" unicode="&#xc1;" 
d="M345 747q-8 0 -8 8q0 2 1 5t2 5l51 131q2 5 6 10.5t9 5.5h113q7 0 8.5 -5t1.5 -8q0 -4 -3.5 -10t-11.5 -17l-85 -115q-5 -6 -16.5 -8.5t-20.5 -2.5l-31 1h-16zM451 697q3 0 11.5 -17t17.5 -38t16 -39.5t7 -21.5q54 -142 112 -280.5t115 -278.5q0 -15 -14 -18t-42 -3
q-3 0 -17.5 0.5t-33.5 0.5t-40 0.5t-37 0.5q-9 22 -17 43t-26 43q-11 -1 -26.5 2t-39.5 3l-125 -2q-2 0 -7 0.5t-10.5 0.5t-10.5 0.5t-6 0.5q-12 0 -18.5 -13.5t-11.5 -30.5t-10 -33.5t-13 -22.5q-19 -1 -34 -0.5t-29.5 1.5t-31 2t-38.5 1q-16 0 -29 2t-13 10q0 2 0.5 4.5
t0.5 4.5l58 168q17 34 29 70.5t26 71.5q35 90 71 179.5t71 180.5q1 6 11 7t15 1h119zM368 230q11 0 24 0.5t23.5 1t17.5 2t7 4.5q0 7 -1 13.5t-4.5 16t-9.5 24t-16 37.5q-4 9 -6.5 16.5t-7.5 15.5l-13 31q-2 0 -12 -21t-21 -47.5t-20 -51t-9 -30.5q0 -8 7.5 -10t14.5 -2h26z
" />
    <glyph glyph-name="Acircumflex" unicode="&#xc2;" 
d="M539 760q2 -4 2 -6q0 -7 -9 -7h-12t-20 -0.5t-23 -0.5h-21q-7 0 -10.5 2.5t-10.5 8.5l-57 57l-55 -57q-7 -11 -19 -11q-20 0 -38 0.5t-39 0.5q-9 0 -9 7q0 4 4 10l94 132q3 5 6.5 10.5t8.5 5.5h83q6 0 10.5 -2t11 -8.5t16 -19t23.5 -32.5zM451 697q3 0 11.5 -17t17.5 -38
t16 -39.5t7 -21.5q54 -142 112 -280.5t115 -278.5q0 -15 -14 -18t-42 -3q-3 0 -17.5 0.5t-33.5 0.5t-40 0.5t-37 0.5q-9 22 -17 43t-26 43q-11 -1 -26.5 2t-39.5 3l-125 -2q-2 0 -7 0.5t-10.5 0.5t-10.5 0.5t-6 0.5q-12 0 -18.5 -13.5t-11.5 -30.5t-10 -33.5t-13 -22.5
q-19 -1 -34 -0.5t-29.5 1.5t-31 2t-38.5 1q-16 0 -29 2t-13 10q0 2 0.5 4.5t0.5 4.5l58 168q17 34 29 70.5t26 71.5q35 90 71 179.5t71 180.5q1 6 11 7t15 1h119zM368 230q11 0 24 0.5t23.5 1t17.5 2t7 4.5q0 7 -1 13.5t-4.5 16t-9.5 24t-16 37.5q-4 9 -6.5 16.5t-7.5 15.5
l-13 31q-2 0 -12 -21t-21 -47.5t-20 -51t-9 -30.5q0 -8 7.5 -10t14.5 -2h26z" />
    <glyph glyph-name="Atilde" unicode="&#xc3;" 
d="M234 772q-7 3 -8.5 6t-1.5 11q0 21 9 39t24 30.5t35 19.5t41 7q20 0 32.5 -4.5t28.5 -11.5q16 -6 26.5 -14t27.5 -8q9 0 16 6t12 13.5l9 13.5t6 6h4.5t5.5 -1l43 -23q6 -3 8 -5t2 -10q0 -23 -9 -41t-24 -30t-35 -18.5t-41 -6.5q-23 0 -36 6t-23.5 13t-22 13t-30.5 6
q-13 0 -20.5 -6.5t-12 -14t-7.5 -13.5t-6 -6q-4 0 -10 2zM451 697q3 0 11.5 -17t17.5 -38t16 -39.5t7 -21.5q54 -142 112 -280.5t115 -278.5q0 -15 -14 -18t-42 -3q-3 0 -17.5 0.5t-33.5 0.5t-40 0.5t-37 0.5q-9 22 -17 43t-26 43q-11 -1 -26.5 2t-39.5 3l-125 -2
q-2 0 -7 0.5t-10.5 0.5t-10.5 0.5t-6 0.5q-12 0 -18.5 -13.5t-11.5 -30.5t-10 -33.5t-13 -22.5q-19 -1 -34 -0.5t-29.5 1.5t-31 2t-38.5 1q-16 0 -29 2t-13 10q0 2 0.5 4.5t0.5 4.5l58 168q17 34 29 70.5t26 71.5q35 90 71 179.5t71 180.5q1 6 11 7t15 1h119zM368 230
q11 0 24 0.5t23.5 1t17.5 2t7 4.5q0 7 -1 13.5t-4.5 16t-9.5 24t-16 37.5q-4 9 -6.5 16.5t-7.5 15.5l-13 31q-2 0 -12 -21t-21 -47.5t-20 -51t-9 -30.5q0 -8 7.5 -10t14.5 -2h26z" />
    <glyph glyph-name="Adieresis" unicode="&#xc4;" 
d="M208 739q-10 0 -16 5v62.5t0.5 38.5t1 19.5t1.5 5.5l4 5h126l5 -7v-126q0 -4 -6.5 -5t-8.5 -1q-19 0 -34.5 3t-31.5 3zM570 733q-26 0 -49 1.5t-47 2.5l-22 1h-8q-3 0 -5.5 9t-4 23.5t-2 31.5t-0.5 32q0 14 1 25t5 11h127q2 0 3.5 -6t1.5 -8v-123zM341 686q11 0 19 -0.5
t16 -1.5t17.5 -1.5t23.5 -0.5h22.5t15.5 1q7 -1 15 -18t15 -37.5t11.5 -37t4.5 -17.5l131 -339q1 -10 9 -21l72 -194q2 -3 4.5 -8t2.5 -10h-168q-12 0 -19 15t-12 32.5t-9 32.5t-9 15q-17 0 -33.5 -0.5t-33.5 -0.5q-34 0 -67.5 1t-67.5 4q-7 0 -12.5 4t-12.5 4
q-11 -2 -16.5 -20t-11 -39.5t-14 -39t-24.5 -17.5q-3 0 -12.5 1t-12.5 1h-129q-5 0 -5.5 2.5t-0.5 6.5l111 280q2 4 3 7t2 8l73 173q0 2 2 8t2 8q20 48 40 95t38 95q3 7 7 8t13 1zM377 393q-5 -16 -9 -30.5t-9 -29.5q-3 -9 -9 -21t-12 -24.5t-10.5 -25.5t-4.5 -23
q0 -4 2 -8.5t9 -4.5h111q2 0 6 3t4 5l-43 115q-7 7 -8 15t-2.5 14.5t-6 10.5t-18.5 4z" />
    <glyph glyph-name="Aring" unicode="&#xc5;" 
d="M503 581q54 -142 112 -280.5t115 -278.5q0 -15 -14 -18t-42 -3q-3 0 -17.5 0.5t-33.5 0.5t-40 0.5t-37 0.5q-9 22 -17 43t-26 43q-11 -1 -26.5 2t-39.5 3l-125 -2q-2 0 -7 0.5t-10.5 0.5t-10.5 0.5t-6 0.5q-12 0 -18.5 -13.5t-11.5 -30.5t-10 -33.5t-13 -22.5
q-19 -1 -34 -0.5t-29.5 1.5t-31 2t-38.5 1q-16 0 -29 2t-13 10q0 2 0.5 4.5t0.5 4.5l58 168q17 34 29 70.5t26 71.5q35 90 71 179.5t71 180.5q0 4 7 6q-44 28 -53 81q1 2 1 7t-1 8.5t-1 8.5q0 29 13 54.5t36 41.5q2 0 2 -1q0 7 6 7q17 12 35.5 16t38.5 4h4q33 -1 57 -12
t39 -29t22.5 -40.5t7.5 -45.5q0 -29 -12.5 -55t-36.5 -41q-3 -5 -8 -7l-6 -3q6 -10 13.5 -27t15 -34.5t12.5 -31t5 -15.5zM389 864q-26 0 -45.5 -18.5t-19.5 -39.5q0 -39 19.5 -56t46.5 -17q26 0 46 19.5t20 51.5q0 20 -16 39t-48 19zM368 230q11 0 24 0.5t23.5 1t17.5 2
t7 4.5q0 7 -1 13.5t-4.5 16t-9.5 24t-16 37.5q-4 9 -6.5 16.5t-7.5 15.5l-13 31q-2 0 -12 -21t-21 -47.5t-20 -51t-9 -30.5q0 -8 7.5 -10t14.5 -2h26z" />
    <glyph glyph-name="AE" unicode="&#xc6;" horiz-adv-x="931" 
d="M825 151q6 -4 7.5 -11.5t1.5 -18.5q0 -22 -1.5 -43t-1.5 -43q0 -13 -6 -20t-16.5 -10.5t-25.5 -4t-32 -0.5h-58t-56 2q-21 0 -46 0.5t-45 0.5q-9 22 -17 43t-26 43q-11 -1 -26.5 2t-39.5 3l-125 -2l-34 2q-12 0 -18.5 -13.5t-11.5 -30.5t-10 -33.5t-13 -22.5
q-19 -1 -34 -0.5t-29.5 1.5t-31 2t-38.5 1q-16 0 -29 2t-13 10q0 2 0.5 4.5t0.5 4.5l58 168q17 34 29 70.5t26 71.5q35 90 71 179.5t71 180.5q1 6 11 7t15 1h119q5 0 24 -0.5t45 -1t56 -0.5t56 -0.5t45.5 -0.5h25.5q45 0 79.5 -1.5t39.5 -6.5l3 -24q0 -5 -0.5 -19t-1 -30
t-1 -30t-0.5 -20q0 -18 -32 -21.5t-94 -3.5q-11 0 -21.5 0.5t-20.5 0.5h-135l41 -104h242q4 0 7.5 -6.5t3.5 -9.5q0 -10 -0.5 -25.5t-1 -33.5l-1 -36t-0.5 -33l-8 -6h-180l53 -130q20 0 41.5 -0.5t42 -0.5t38 -1t28.5 -2zM368 230q11 0 24 0.5t23.5 1t17.5 2t7 4.5
q0 7 -1 13.5t-4.5 16t-9.5 24t-16 37.5q-4 9 -6.5 16.5t-7.5 15.5l-13 31q-2 0 -12 -21t-21 -47.5t-20 -51t-9 -30.5q0 -8 7.5 -10t14.5 -2h26z" />
    <glyph glyph-name="Ccedilla" unicode="&#xc7;" horiz-adv-x="703" 
d="M658 60q0 -9 -20 -21t-48 -23t-57.5 -18.5t-48.5 -7.5q-5 -1 -9 -1.5t-8 -0.5q5 -10 13 -19t16 -19q2 -2 2 -5q4 -2 5 -4q11 -14 18.5 -29t7.5 -35q0 -23 -10.5 -41.5t-26.5 -31t-35.5 -19t-38.5 -6.5q-8 0 -10.5 1.5t-4.5 7.5l-18 57l-1 9q7 2 17 4t20 5.5t17 9.5t7 18
q0 13 -6.5 21t-16 12.5t-20.5 6.5t-19 2q0 13 7 26t11 30q-63 6 -118 29t-97.5 61t-71.5 91t-40 119q0 1 -1.5 1t-1.5 1q0 3 3.5 6t3.5 6q0 11 -3.5 25.5t-3.5 31.5q0 82 36 155.5t104 121.5q1 0 3.5 -1t2.5 -3q0 8 6.5 13.5t10.5 7.5q51 36 109.5 47t118.5 11h21t20 -2
q9 -1 30 -6t42.5 -13t38 -18.5t16.5 -22.5q0 -8 -10 -30.5t-23 -46.5t-24 -42.5t-14 -18.5q-21 9 -48.5 19.5t-62.5 10.5q-38 0 -72.5 -14.5t-60.5 -39.5t-41.5 -57t-15.5 -68q0 -31 9 -66.5t30 -66t56 -51t88 -20.5q34 0 56.5 5.5t37 11.5t23 11.5t14.5 5.5q5 0 7 -2
q2 0 9 -9t15.5 -23t18 -30t18 -30.5t13.5 -25t5 -13.5z" />
    <glyph glyph-name="Egrave" unicode="&#xc8;" horiz-adv-x="613" 
d="M141 915q0 4 1.5 8.5t8.5 4.5h120q5 0 9 -5.5t6 -10.5l59 -148v-3q0 -9 -8 -11.5t-19 -2.5q-7 0 -14 -0.5t-14 -0.5q-17 0 -25 3t-12 8l-112 155v3zM484 424q4 0 7.5 -6.5t3.5 -9.5q0 -10 -0.5 -25.5t-1 -33.5l-1 -36t-0.5 -33l-8 -6h-55t-55.5 -0.5t-48 -1t-31.5 -1.5
q-6 -2 -7.5 -9.5t-1.5 -20.5t0.5 -39.5t0.5 -48.5q3 -5 30.5 -7t63.5 -2.5t72 -0.5t55 -3q6 -4 7.5 -11.5t1.5 -18.5q0 -22 -1.5 -43t-1.5 -43q0 -13 -6 -20t-16.5 -10.5t-25.5 -4t-32 -0.5q-74 0 -141 1.5t-137 1.5q-3 0 -8 -0.5t-13 -0.5q-11 0 -20.5 3t-12.5 12
q0 27 -0.5 50.5t-0.5 43.5q0 11 1 23.5t6 22.5q0 3 -4 3q0 34 -1 67.5t-1 69.5q0 23 0.5 58.5t1 75t1.5 80t1.5 75t1 59t0.5 32.5q0 5 -1 8.5t-1 8.5l10 8q43 0 86.5 2t87.5 2q18 0 43.5 -0.5t52.5 -0.5q45 0 79.5 -1.5t39.5 -6.5l3 -24q0 -5 -0.5 -19t-1 -30t-1 -30
t-0.5 -20q0 -18 -32 -21.5t-94 -3.5q-11 0 -21.5 0.5t-20.5 0.5l-47 -1q0 -18 -2 -37.5t-2 -44.5q0 -2 -0.5 -2.5t-0.5 -1.5q0 -10 2.5 -19t13.5 -9h184z" />
    <glyph glyph-name="Eacute" unicode="&#xc9;" horiz-adv-x="613" 
d="M269 747q-8 0 -8 8q0 2 1 5t2 5l51 131q2 5 6 10.5t9 5.5h113q7 0 8.5 -5t1.5 -8q0 -4 -3.5 -10t-11.5 -17l-85 -115q-5 -6 -16.5 -8.5t-20.5 -2.5l-31 1h-16zM484 424q4 0 7.5 -6.5t3.5 -9.5q0 -10 -0.5 -25.5t-1 -33.5l-1 -36t-0.5 -33l-8 -6h-55t-55.5 -0.5t-48 -1
t-31.5 -1.5q-6 -2 -7.5 -9.5t-1.5 -20.5t0.5 -39.5t0.5 -48.5q3 -5 30.5 -7t63.5 -2.5t72 -0.5t55 -3q6 -4 7.5 -11.5t1.5 -18.5q0 -22 -1.5 -43t-1.5 -43q0 -13 -6 -20t-16.5 -10.5t-25.5 -4t-32 -0.5q-74 0 -141 1.5t-137 1.5q-3 0 -8 -0.5t-13 -0.5q-11 0 -20.5 3
t-12.5 12q0 27 -0.5 50.5t-0.5 43.5q0 11 1 23.5t6 22.5q0 3 -4 3q0 34 -1 67.5t-1 69.5q0 23 0.5 58.5t1 75t1.5 80t1.5 75t1 59t0.5 32.5q0 5 -1 8.5t-1 8.5l10 8q43 0 86.5 2t87.5 2q18 0 43.5 -0.5t52.5 -0.5q45 0 79.5 -1.5t39.5 -6.5l3 -24q0 -5 -0.5 -19t-1 -30
t-1 -30t-0.5 -20q0 -18 -32 -21.5t-94 -3.5q-11 0 -21.5 0.5t-20.5 0.5l-47 -1q0 -18 -2 -37.5t-2 -44.5q0 -2 -0.5 -2.5t-0.5 -1.5q0 -10 2.5 -19t13.5 -9h184z" />
    <glyph glyph-name="Ecircumflex" unicode="&#xca;" horiz-adv-x="613" 
d="M463 760q2 -4 2 -6q0 -7 -9 -7h-12t-20 -0.5t-23 -0.5h-21q-7 0 -10.5 2.5t-10.5 8.5l-57 57l-55 -57q-7 -11 -19 -11q-20 0 -38 0.5t-39 0.5q-9 0 -9 7q0 4 4 10l94 132q3 5 6.5 10.5t8.5 5.5h83q6 0 10.5 -2t11 -8.5t16 -19t23.5 -32.5zM484 424q4 0 7.5 -6.5t3.5 -9.5
q0 -10 -0.5 -25.5t-1 -33.5l-1 -36t-0.5 -33l-8 -6h-55t-55.5 -0.5t-48 -1t-31.5 -1.5q-6 -2 -7.5 -9.5t-1.5 -20.5t0.5 -39.5t0.5 -48.5q3 -5 30.5 -7t63.5 -2.5t72 -0.5t55 -3q6 -4 7.5 -11.5t1.5 -18.5q0 -22 -1.5 -43t-1.5 -43q0 -13 -6 -20t-16.5 -10.5t-25.5 -4
t-32 -0.5q-74 0 -141 1.5t-137 1.5q-3 0 -8 -0.5t-13 -0.5q-11 0 -20.5 3t-12.5 12q0 27 -0.5 50.5t-0.5 43.5q0 11 1 23.5t6 22.5q0 3 -4 3q0 34 -1 67.5t-1 69.5q0 23 0.5 58.5t1 75t1.5 80t1.5 75t1 59t0.5 32.5q0 5 -1 8.5t-1 8.5l10 8q43 0 86.5 2t87.5 2
q18 0 43.5 -0.5t52.5 -0.5q45 0 79.5 -1.5t39.5 -6.5l3 -24q0 -5 -0.5 -19t-1 -30t-1 -30t-0.5 -20q0 -18 -32 -21.5t-94 -3.5q-11 0 -21.5 0.5t-20.5 0.5l-47 -1q0 -18 -2 -37.5t-2 -44.5q0 -2 -0.5 -2.5t-0.5 -1.5q0 -10 2.5 -19t13.5 -9h184z" />
    <glyph glyph-name="Edieresis" unicode="&#xcb;" horiz-adv-x="613" 
d="M130 761q-10 0 -16 5v62.5t0.5 38.5t1 19.5t1.5 5.5l4 5h126l5 -7v-126q0 -4 -6.5 -5t-8.5 -1q-19 0 -34.5 3t-31.5 3zM492 755q-26 0 -49 1.5t-47 2.5l-22 1h-8q-3 0 -5.5 9t-4 23.5t-2 31.5t-0.5 32q0 14 1 25t5 11h127q2 0 3.5 -6t1.5 -8v-123zM484 424q4 0 7.5 -6.5
t3.5 -9.5q0 -10 -0.5 -25.5t-1 -33.5l-1 -36t-0.5 -33l-8 -6h-55t-55.5 -0.5t-48 -1t-31.5 -1.5q-6 -2 -7.5 -9.5t-1.5 -20.5t0.5 -39.5t0.5 -48.5q3 -5 30.5 -7t63.5 -2.5t72 -0.5t55 -3q6 -4 7.5 -11.5t1.5 -18.5q0 -22 -1.5 -43t-1.5 -43q0 -13 -6 -20t-16.5 -10.5
t-25.5 -4t-32 -0.5q-74 0 -141 1.5t-137 1.5q-3 0 -8 -0.5t-13 -0.5q-11 0 -20.5 3t-12.5 12q0 27 -0.5 50.5t-0.5 43.5q0 11 1 23.5t6 22.5q0 3 -4 3q0 34 -1 67.5t-1 69.5q0 23 0.5 58.5t1 75t1.5 80t1.5 75t1 59t0.5 32.5q0 5 -1 8.5t-1 8.5l10 8q43 0 86.5 2t87.5 2
q18 0 43.5 -0.5t52.5 -0.5q45 0 79.5 -1.5t39.5 -6.5l3 -24q0 -5 -0.5 -19t-1 -30t-1 -30t-0.5 -20q0 -18 -32 -21.5t-94 -3.5q-11 0 -21.5 0.5t-20.5 0.5l-47 -1q0 -18 -2 -37.5t-2 -44.5q0 -2 -0.5 -2.5t-0.5 -1.5q0 -10 2.5 -19t13.5 -9h184z" />
    <glyph glyph-name="Igrave" unicode="&#xcc;" horiz-adv-x="395" 
d="M41 915q0 4 1.5 8.5t8.5 4.5h120q5 0 9 -5.5t6 -10.5l59 -148v-3q0 -9 -8 -11.5t-19 -2.5q-7 0 -14 -0.5t-14 -0.5q-17 0 -25 3t-12 8l-112 155v3zM118 693q42 0 83 -2t83 -2l7 -4l4 -6v-10v-20q0 -161 -1 -321.5t-4 -321.5q-4 -9 -10 -10.5t-17 -1.5h-121q-3 0 -7 0.5
t-12 0.5q-6 1 -11.5 3.5t-7.5 9.5q-2 16 -2.5 35.5t-1 38t-0.5 32.5v18q0 113 3.5 225t3.5 224q0 14 -0.5 29.5t-0.5 18.5q1 9 1.5 19t1.5 19t2.5 16t6.5 10z" />
    <glyph glyph-name="Iacute" unicode="&#xcd;" horiz-adv-x="395" 
d="M169 747q-8 0 -8 8q0 2 1 5t2 5l51 131q2 5 6 10.5t9 5.5h113q7 0 8.5 -5t1.5 -8q0 -4 -3.5 -10t-11.5 -17l-85 -115q-5 -6 -16.5 -8.5t-20.5 -2.5l-31 1h-16zM118 693q42 0 83 -2t83 -2l7 -4l4 -6v-10v-20q0 -161 -1 -321.5t-4 -321.5q-4 -9 -10 -10.5t-17 -1.5h-121
q-3 0 -7 0.5t-12 0.5q-6 1 -11.5 3.5t-7.5 9.5q-2 16 -2.5 35.5t-1 38t-0.5 32.5v18q0 113 3.5 225t3.5 224q0 14 -0.5 29.5t-0.5 18.5q1 9 1.5 19t1.5 19t2.5 16t6.5 10z" />
    <glyph glyph-name="Icircumflex" unicode="&#xce;" horiz-adv-x="395" 
d="M363 760q2 -4 2 -6q0 -7 -9 -7h-12t-20 -0.5t-23 -0.5h-21q-7 0 -10.5 2.5t-10.5 8.5l-57 57l-55 -57q-7 -11 -19 -11q-20 0 -38 0.5t-39 0.5q-9 0 -9 7q0 4 4 10l94 132q3 5 6.5 10.5t8.5 5.5h83q6 0 10.5 -2t11 -8.5t16 -19t23.5 -32.5zM118 693q42 0 83 -2t83 -2l7 -4
l4 -6v-10v-20q0 -161 -1 -321.5t-4 -321.5q-4 -9 -10 -10.5t-17 -1.5h-121q-3 0 -7 0.5t-12 0.5q-6 1 -11.5 3.5t-7.5 9.5q-2 16 -2.5 35.5t-1 38t-0.5 32.5v18q0 113 3.5 225t3.5 224q0 14 -0.5 29.5t-0.5 18.5q1 9 1.5 19t1.5 19t2.5 16t6.5 10z" />
    <glyph glyph-name="Idieresis" unicode="&#xcf;" horiz-adv-x="395" 
d="M30 761q-10 0 -16 5v62.5t0.5 38.5t1 19.5t1.5 5.5l4 5h126l5 -7v-126q0 -4 -6.5 -5t-8.5 -1q-19 0 -34.5 3t-31.5 3zM392 755q-26 0 -49 1.5t-47 2.5l-22 1h-8q-3 0 -5.5 9t-4 23.5t-2 31.5t-0.5 32q0 14 1 25t5 11h127q2 0 3.5 -6t1.5 -8v-123zM118 693q42 0 83 -2
t83 -2l7 -4l4 -6v-10v-20q0 -161 -1 -321.5t-4 -321.5q-4 -9 -10 -10.5t-17 -1.5h-121q-3 0 -7 0.5t-12 0.5q-6 1 -11.5 3.5t-7.5 9.5q-2 16 -2.5 35.5t-1 38t-0.5 32.5v18q0 113 3.5 225t3.5 224q0 14 -0.5 29.5t-0.5 18.5q1 9 1.5 19t1.5 19t2.5 16t6.5 10z" />
    <glyph glyph-name="Eth" unicode="&#xd0;" horiz-adv-x="813" 
d="M213 705q58 0 119 -2t119 -13.5t110.5 -36t93.5 -69.5q15 -18 24 -30.5t16 -25.5q47 -82 47 -174q0 -63 -19.5 -121t-55.5 -104.5t-87.5 -78.5t-116.5 -42q-42 -7 -84.5 -8t-77.5 -1h-51l-76 -1l-16 1l-4 4l-2 185l2 16l-1 10v92l-45 1q-2 0 -4 3.5t-4 6.5v72l5 7l48 1
v284q0 9 7.5 14t17.5 7t20 2.5t15 0.5zM345 529q-9 0 -9 -13v-59t1 -58h6.5t13 -0.5t15 -0.5h13.5q8 0 8 -7v-77q0 -2 -2 -5.5t-8 -3.5q-13 0 -26 0.5t-20 0.5q1 -28 1 -58v-59l4 -6l16 -1q42 0 77.5 8.5t61.5 28t41 52t15 80.5q0 20 -1.5 35t-5.5 27.5t-10 24t-15 25.5
q-17 22 -39 34t-45 23q-1 2 -2 3t-1 2q-1 -3 -5 -3q-20 0 -41 3.5t-43 3.5z" />
    <glyph glyph-name="Ntilde" unicode="&#xd1;" horiz-adv-x="793" 
d="M246 772q-7 3 -8.5 6t-1.5 11q0 21 9 39t24 30.5t35 19.5t41 7q20 0 32.5 -4.5t28.5 -11.5q16 -6 26.5 -14t27.5 -8q9 0 16 6t12 13.5l9 13.5t6 6h4.5t5.5 -1l43 -23q6 -3 8 -5t2 -10q0 -23 -9 -41t-24 -30t-35 -18.5t-41 -6.5q-23 0 -36 6t-23.5 13t-22 13t-30.5 6
q-13 0 -20.5 -6.5t-12 -14t-7.5 -13.5t-6 -6q-4 0 -10 2zM693 670v-357q-1 -3 -2 -15.5t-2 -13.5q0 -65 2 -129.5t2 -127.5v-6.5t-1.5 -9.5t-4 -9t-6.5 -4h-130q-8 0 -13 2t-10 9l-123 184q-2 5 -9 13t-8 10l-101 146l-12 13l-2 -4v-49.5t-0.5 -75t-1 -85t-1.5 -79.5
t-2.5 -59t-3.5 -23h-158l-6 3q0 59 0.5 126.5t1.5 138t1.5 141.5t0.5 137v52t-2 52l4 29l20 4l126 -4q3 0 6 -3t6 -7.5t5.5 -9t3.5 -6.5l94 -136q2 -6 7 -11t8 -12l129 -177q3 -7 8 -7q3 0 3 3v361l6 5l5.5 0.5t12 0.5h13.5h12h36.5t38.5 -0.5t30.5 -1.5t12.5 -2z" />
    <glyph glyph-name="Ograve" unicode="&#xd2;" horiz-adv-x="868" 
d="M273 925q0 4 1.5 8.5t8.5 4.5h120q5 0 9 -5.5t6 -10.5l59 -148v-3q0 -9 -8 -11.5t-19 -2.5q-7 0 -14 -0.5t-14 -0.5q-17 0 -25 3t-12 8l-112 155v3zM192 76q-57 52 -89 125t-32 156q0 47 12.5 88t31.5 83q13 9 21.5 27.5t19.5 29.5q31 30 60 53t61 38.5t68 23.5t80 8
q84 0 155 -31t122 -86q15 -15 31.5 -39t31 -56t23.5 -71.5t9 -85.5q0 -69 -27.5 -133.5t-76.5 -114t-116 -79.5t-146 -30q-44 0 -82 10t-69 24.5t-53 30.5t-35 29zM573 464q-25 29 -61.5 46.5t-78.5 17.5q-38 0 -70 -14t-55.5 -38.5t-37 -57t-13.5 -69.5q0 -45 15.5 -80
t44.5 -58q14 -14 47.5 -28t76.5 -14q38 0 70 14t55.5 38.5t36.5 57.5t13 70q0 32 -9 57t-34 58z" />
    <glyph glyph-name="Oacute" unicode="&#xd3;" horiz-adv-x="868" 
d="M401 757q-8 0 -8 8q0 2 1 5t2 5l51 131q2 5 6 10.5t9 5.5h113q7 0 8.5 -5t1.5 -8q0 -4 -3.5 -10t-11.5 -17l-85 -115q-5 -6 -16.5 -8.5t-20.5 -2.5l-31 1h-16zM192 76q-57 52 -89 125t-32 156q0 47 12.5 88t31.5 83q13 9 21.5 27.5t19.5 29.5q31 30 60 53t61 38.5
t68 23.5t80 8q84 0 155 -31t122 -86q15 -15 31.5 -39t31 -56t23.5 -71.5t9 -85.5q0 -69 -27.5 -133.5t-76.5 -114t-116 -79.5t-146 -30q-44 0 -82 10t-69 24.5t-53 30.5t-35 29zM573 464q-25 29 -61.5 46.5t-78.5 17.5q-38 0 -70 -14t-55.5 -38.5t-37 -57t-13.5 -69.5
q0 -45 15.5 -80t44.5 -58q14 -14 47.5 -28t76.5 -14q38 0 70 14t55.5 38.5t36.5 57.5t13 70q0 32 -9 57t-34 58z" />
    <glyph glyph-name="Ocircumflex" unicode="&#xd4;" horiz-adv-x="868" 
d="M595 770q2 -4 2 -6q0 -7 -9 -7h-12t-20 -0.5t-23 -0.5h-21q-7 0 -10.5 2.5t-10.5 8.5l-57 57l-55 -57q-7 -11 -19 -11q-20 0 -38 0.5t-39 0.5q-9 0 -9 7q0 4 4 10l94 132q3 5 6.5 10.5t8.5 5.5h83q6 0 10.5 -2t11 -8.5t16 -19t23.5 -32.5zM192 76q-57 52 -89 125t-32 156
q0 47 12.5 88t31.5 83q13 9 21.5 27.5t19.5 29.5q31 30 60 53t61 38.5t68 23.5t80 8q84 0 155 -31t122 -86q15 -15 31.5 -39t31 -56t23.5 -71.5t9 -85.5q0 -69 -27.5 -133.5t-76.5 -114t-116 -79.5t-146 -30q-44 0 -82 10t-69 24.5t-53 30.5t-35 29zM573 464
q-25 29 -61.5 46.5t-78.5 17.5q-38 0 -70 -14t-55.5 -38.5t-37 -57t-13.5 -69.5q0 -45 15.5 -80t44.5 -58q14 -14 47.5 -28t76.5 -14q38 0 70 14t55.5 38.5t36.5 57.5t13 70q0 32 -9 57t-34 58z" />
    <glyph glyph-name="Otilde" unicode="&#xd5;" horiz-adv-x="868" 
d="M290 782q-7 3 -8.5 6t-1.5 11q0 21 9 39t24 30.5t35 19.5t41 7q20 0 32.5 -4.5t28.5 -11.5q16 -6 26.5 -14t27.5 -8q9 0 16 6t12 13.5l9 13.5t6 6h4.5t5.5 -1l43 -23q6 -3 8 -5t2 -10q0 -23 -9 -41t-24 -30t-35 -18.5t-41 -6.5q-23 0 -36 6t-23.5 13t-22 13t-30.5 6
q-13 0 -20.5 -6.5t-12 -14t-7.5 -13.5t-6 -6q-4 0 -10 2zM192 76q-57 52 -89 125t-32 156q0 47 12.5 88t31.5 83q13 9 21.5 27.5t19.5 29.5q31 30 60 53t61 38.5t68 23.5t80 8q84 0 155 -31t122 -86q15 -15 31.5 -39t31 -56t23.5 -71.5t9 -85.5q0 -69 -27.5 -133.5
t-76.5 -114t-116 -79.5t-146 -30q-44 0 -82 10t-69 24.5t-53 30.5t-35 29zM573 464q-25 29 -61.5 46.5t-78.5 17.5q-38 0 -70 -14t-55.5 -38.5t-37 -57t-13.5 -69.5q0 -45 15.5 -80t44.5 -58q14 -14 47.5 -28t76.5 -14q38 0 70 14t55.5 38.5t36.5 57.5t13 70q0 32 -9 57
t-34 58z" />
    <glyph glyph-name="Odieresis" unicode="&#xd6;" horiz-adv-x="868" 
d="M260 762q-10 0 -16 5v62.5t0.5 38.5t1 19.5t1.5 5.5l4 5h126l5 -7v-126q0 -4 -6.5 -5t-8.5 -1q-19 0 -34.5 3t-31.5 3zM622 756q-26 0 -49 1.5t-47 2.5l-22 1h-8q-3 0 -5.5 9t-4 23.5t-2 31.5t-0.5 32q0 14 1 25t5 11h127q2 0 3.5 -6t1.5 -8v-123zM753 513
q21 -42 31.5 -82.5t10.5 -85.5q0 -85 -31 -151.5t-82 -112.5t-116 -70t-132 -24q-76 0 -142.5 27.5t-115.5 75.5t-77 112t-28 136q0 36 4.5 64t14 54.5t25 52.5t36.5 57l64 67q10 4 25.5 15t42 22t67 20t102.5 9q48 0 99 -20t95 -48q18 -12 30 -20.5t22.5 -20t22.5 -29.5z
M431 538q-39 0 -73.5 -14.5t-60 -40t-40.5 -60t-15 -74.5q0 -42 15 -77.5t41.5 -62t62.5 -41.5t78 -15q36 0 69.5 15t59.5 40t42 58t16 69q0 35 -6 63t-26 58q-29 40 -71.5 61t-91.5 21z" />
    <glyph glyph-name="multiply" unicode="&#xd7;" horiz-adv-x="467" 
d="M172 410q3 0 8 -3l52 -52q4 4 9 10t8 10q33 33 42 33q4 0 5 -2l37 -34l42 -46q0 -8 -11 -22.5t-34 -34.5q-2 -2 -2.5 -6t1.5 -6l48 -47l1 -2q0 -2 -3.5 -6t-4.5 -4l-74 -74l-9 -4l-53 53l-47 -47q-3 -4 -7 -4l-6 4l-75 70q-11 9 -11 16q0 2 3.5 7.5t8.5 10.5q3 3 8 7.5
t11 10t11.5 10.5t8.5 8l-16 18q-3 3 -6.5 5.5t-6.5 5.5q-7 8 -15 18t-9 14q8 7 21.5 20.5t27 27.5t24.5 24.5t13 10.5z" />
    <glyph glyph-name="Oslash" unicode="&#xd8;" horiz-adv-x="868" 
d="M727 561q26 -35 48 -91t22 -131q0 -69 -27.5 -133.5t-76.5 -114t-116 -79.5t-146 -30q-71 0 -125.5 23t-86.5 48q-19 -19 -37 -34t-30 -17l-20 21q-6 4 -6 6l-34 34q-6 4 -6 6l1 4l56 58q-34 48 -53 105.5t-19 120.5q0 47 12.5 88t31.5 83q13 9 21.5 27.5t19.5 29.5
q31 30 60 53t61 38.5t68 23.5t80 8q63 0 119.5 -18t103.5 -52l23 25q5 4 12 10t14.5 11.5t14 8.5t10.5 3q13 -3 23 -13q11 -10 17.5 -18t16.5 -17q8 -8 11.5 -10.5t4.5 -4.5q0 -5 -5 -8zM433 528q-38 0 -70 -14t-55.5 -38.5t-37 -57t-13.5 -69.5q0 -49 18 -85l245 242
q-41 22 -87 22zM441 169q38 0 70 14t55.5 38.5t36.5 57.5t13 70q0 23 -4.5 42t-15.5 39l-242 -242q17 -8 39 -13.5t48 -5.5z" />
    <glyph glyph-name="Ugrave" unicode="&#xd9;" horiz-adv-x="726" 
d="M204 915q0 4 1.5 8.5t8.5 4.5h120q5 0 9 -5.5t6 -10.5l59 -148v-3q0 -9 -8 -11.5t-19 -2.5q-7 0 -14 -0.5t-14 -0.5q-17 0 -25 3t-12 8l-112 155v3zM468 689q23 0 67 -1t86 -1q6 0 10.5 -2.5t4.5 -12.5v-396q0 -3 -0.5 -10l-1 -14t-2 -12.5t-2.5 -5.5v-22q0 -37 -15 -76
t-38 -65q-14 -15 -24.5 -28.5t-24.5 -20.5q-23 -11 -49 -20t-48 -22q-3 3 -6 3q-12 0 -25.5 -2.5t-26.5 -2.5q-23 0 -42 1.5t-36.5 6t-35 12t-37.5 20.5q-33 17 -55 35.5t-36.5 41t-23 49.5t-13.5 61q0 53 -0.5 102t-1.5 97t-1.5 97t-0.5 102q0 21 0.5 45t3.5 39
q7 0 19.5 0.5t25 0.5t23 0.5t12.5 0.5q24 0 46 -1t45 -1l7 -6v-368q-3 -11 -4 -18.5t-1 -17.5q0 -16 3.5 -27t3.5 -33q0 -5 7 -15.5t16.5 -20.5t19 -17t15.5 -7l52 2q8 5 15 6t14 6q13 8 20 16.5t11 17.5t6.5 20t6.5 23q-1 14 -1 45.5v67.5q0 41 0.5 91t1 96.5t1 84
t1.5 54.5z" />
    <glyph glyph-name="Uacute" unicode="&#xda;" horiz-adv-x="726" 
d="M332 747q-8 0 -8 8q0 2 1 5t2 5l51 131q2 5 6 10.5t9 5.5h113q7 0 8.5 -5t1.5 -8q0 -4 -3.5 -10t-11.5 -17l-85 -115q-5 -6 -16.5 -8.5t-20.5 -2.5l-31 1h-16zM468 689q23 0 67 -1t86 -1q6 0 10.5 -2.5t4.5 -12.5v-396q0 -3 -0.5 -10l-1 -14t-2 -12.5t-2.5 -5.5v-22
q0 -37 -15 -76t-38 -65q-14 -15 -24.5 -28.5t-24.5 -20.5q-23 -11 -49 -20t-48 -22q-3 3 -6 3q-12 0 -25.5 -2.5t-26.5 -2.5q-23 0 -42 1.5t-36.5 6t-35 12t-37.5 20.5q-33 17 -55 35.5t-36.5 41t-23 49.5t-13.5 61q0 53 -0.5 102t-1.5 97t-1.5 97t-0.5 102q0 21 0.5 45
t3.5 39q7 0 19.5 0.5t25 0.5t23 0.5t12.5 0.5q24 0 46 -1t45 -1l7 -6v-368q-3 -11 -4 -18.5t-1 -17.5q0 -16 3.5 -27t3.5 -33q0 -5 7 -15.5t16.5 -20.5t19 -17t15.5 -7l52 2q8 5 15 6t14 6q13 8 20 16.5t11 17.5t6.5 20t6.5 23q-1 14 -1 45.5v67.5q0 41 0.5 91t1 96.5t1 84
t1.5 54.5z" />
    <glyph glyph-name="Ucircumflex" unicode="&#xdb;" horiz-adv-x="726" 
d="M526 760q2 -4 2 -6q0 -7 -9 -7h-12t-20 -0.5t-23 -0.5h-21q-7 0 -10.5 2.5t-10.5 8.5l-57 57l-55 -57q-7 -11 -19 -11q-20 0 -38 0.5t-39 0.5q-9 0 -9 7q0 4 4 10l94 132q3 5 6.5 10.5t8.5 5.5h83q6 0 10.5 -2t11 -8.5t16 -19t23.5 -32.5zM468 689q23 0 67 -1t86 -1
q6 0 10.5 -2.5t4.5 -12.5v-396q0 -3 -0.5 -10l-1 -14t-2 -12.5t-2.5 -5.5v-22q0 -37 -15 -76t-38 -65q-14 -15 -24.5 -28.5t-24.5 -20.5q-23 -11 -49 -20t-48 -22q-3 3 -6 3q-12 0 -25.5 -2.5t-26.5 -2.5q-23 0 -42 1.5t-36.5 6t-35 12t-37.5 20.5q-33 17 -55 35.5t-36.5 41
t-23 49.5t-13.5 61q0 53 -0.5 102t-1.5 97t-1.5 97t-0.5 102q0 21 0.5 45t3.5 39q7 0 19.5 0.5t25 0.5t23 0.5t12.5 0.5q24 0 46 -1t45 -1l7 -6v-368q-3 -11 -4 -18.5t-1 -17.5q0 -16 3.5 -27t3.5 -33q0 -5 7 -15.5t16.5 -20.5t19 -17t15.5 -7l52 2q8 5 15 6t14 6
q13 8 20 16.5t11 17.5t6.5 20t6.5 23q-1 14 -1 45.5v67.5q0 41 0.5 91t1 96.5t1 84t1.5 54.5z" />
    <glyph glyph-name="Udieresis" unicode="&#xdc;" horiz-adv-x="726" 
d="M181 744q-10 0 -16 5v62.5t0.5 38.5t1 19.5t1.5 5.5l4 5h126l5 -7v-126q0 -4 -6.5 -5t-8.5 -1q-19 0 -34.5 3t-31.5 3zM543 738q-26 0 -49 1.5t-47 2.5l-22 1h-8q-3 0 -5.5 9t-4 23.5t-2 31.5t-0.5 32q0 14 1 25t5 11h127q2 0 3.5 -6t1.5 -8v-123zM468 689q23 0 67 -1
t86 -1q6 0 10.5 -2.5t4.5 -12.5v-396q0 -3 -0.5 -10l-1 -14t-2 -12.5t-2.5 -5.5v-22q0 -37 -15 -76t-38 -65q-14 -15 -24.5 -28.5t-24.5 -20.5q-23 -11 -49 -20t-48 -22q-3 3 -6 3q-12 0 -25.5 -2.5t-26.5 -2.5q-23 0 -42 1.5t-36.5 6t-35 12t-37.5 20.5q-33 17 -55 35.5
t-36.5 41t-23 49.5t-13.5 61q0 53 -0.5 102t-1.5 97t-1.5 97t-0.5 102q0 21 0.5 45t3.5 39q7 0 19.5 0.5t25 0.5t23 0.5t12.5 0.5q24 0 46 -1t45 -1l7 -6v-368q-3 -11 -4 -18.5t-1 -17.5q0 -16 3.5 -27t3.5 -33q0 -5 7 -15.5t16.5 -20.5t19 -17t15.5 -7l52 2q8 5 15 6t14 6
q13 8 20 16.5t11 17.5t6.5 20t6.5 23q-1 14 -1 45.5v67.5q0 41 0.5 91t1 96.5t1 84t1.5 54.5z" />
    <glyph glyph-name="Yacute" unicode="&#xdd;" horiz-adv-x="753" 
d="M343 747q-8 0 -8 8q0 2 1 5t2 5l51 131q2 5 6 10.5t9 5.5h113q7 0 8.5 -5t1.5 -8q0 -4 -3.5 -10t-11.5 -17l-85 -115q-5 -6 -16.5 -8.5t-20.5 -2.5l-31 1h-16zM232 701q9 0 15.5 -2t10.5 -10l113 -205q3 -4 5 -4t5.5 5.5t8 13t8 15.5t5.5 14q3 6 11.5 21t19 34t22.5 39.5
t22.5 37t18 27.5t10.5 11h193l3 -17l-115 -209q-8 -6 -12.5 -17.5t-11.5 -19.5l-81 -153q-6 -9 -8 -37t-2.5 -66.5t-0.5 -82.5t-2 -86q-2 -4 -6 -6t-8 -3q-6 0 -22 -0.5t-34 -0.5t-34.5 -0.5t-23.5 -0.5h-15.5t-18 1t-14.5 3.5t-6 6.5v254q-26 40 -50 84.5t-45 86.5
q-7 14 -17 32t-21.5 37t-23 36.5t-21.5 29.5l-58 113q0 2 -1 5t-1 5t5 5t7 3h170z" />
    <glyph glyph-name="Thorn" unicode="&#xde;" horiz-adv-x="703" 
d="M326 609q57 0 109 -16t92.5 -47.5t64.5 -78.5t24 -109q0 -48 -11.5 -75.5t-16.5 -33.5q-27 -37 -61 -61t-72 -38t-78.5 -19.5t-81.5 -5.5q-13 -5 -15 -17.5t-2 -22.5v-63q0 -14 -7 -18.5t-16 -4.5h-39.5t-32 1t-31.5 2t-37 3q-7 0 -9.5 6t-2.5 12q0 32 0.5 53t1 40t1 39
t0.5 51q0 51 -0.5 104.5t-1 106.5t-1 103.5t-0.5 94.5l1 1l-1 25q2 16 2.5 35t8.5 24q39 0 77 -2t77 -2l10 -9v-79q20 1 33 1h15zM299 268q29 0 56.5 4t48.5 16t33.5 33t12.5 55q0 28 -13.5 46.5t-34.5 30t-46 16t-47 4.5h-13t-8 -1l-10 -8v-188q0 -5 6.5 -6.5t14.5 -1.5z
" />
    <glyph glyph-name="germandbls" unicode="&#xdf;" horiz-adv-x="792" 
d="M689 114q-3 0 -10 -7.5t-14.5 -17t-14 -18t-9.5 -11.5q-46 -38 -100.5 -54t-114.5 -16q-23 0 -45 5t-42 12q0 40 0.5 75.5t4.5 68.5q3 8 8 8q4 0 10 -3q18 -8 32.5 -10t37.5 -2q21 0 40.5 4t34 13.5t23.5 25.5t9 39q0 22 -8.5 36t-21.5 22.5t-29 12.5t-31.5 6.5
t-28.5 4.5t-20 7q-11 3 -22.5 5t-13.5 5q0 2 -0.5 7t-0.5 10q0 6 1 11.5t1 12.5l50 79q4 11 13 26t18.5 30t17 27.5t8.5 19.5q-5 0 -10.5 1t-14.5 1q-49 0 -88.5 -0.5t-68.5 -0.5q-2 -2 -3 -4q-2 -18 -2.5 -29t-0.5 -25v-215q0 -55 1.5 -120.5t1.5 -145.5q-5 -4 -16.5 -5.5
t-12.5 -1.5h-135q-3 0 -6.5 2.5t-5.5 4.5q-6 72 -7 148.5t-1 168.5q0 91 2 181t2 181q0 8 7.5 9.5t16.5 1.5t16.5 1t7.5 8q3 -6 11.5 -8.5t19.5 -2.5q14 0 34.5 0.5t27.5 2.5q5 -3 9 -3.5t9 -0.5q3 0 23 0.5t45.5 1t50.5 0.5h38h26l6 -1q32 -1 58.5 -2t67.5 -1
q8 0 22.5 -0.5t29.5 -0.5t28 -0.5t19 -0.5l3 -4q0 -1 -0.5 -11t-1.5 -22.5t-2.5 -23.5t-2.5 -13l-70 -147q-8 -10 -14 -21t-11 -23q28 -13 47.5 -29.5t32.5 -31.5t19.5 -26t8.5 -14q14 -21 20 -45.5t6 -50.5q0 -18 -2 -36t-8 -35q-2 -12 -7.5 -20t-5.5 -19z" />
    <glyph glyph-name="agrave" unicode="&#xe0;" 
d="M217 915q0 4 1.5 8.5t8.5 4.5h120q5 0 9 -5.5t6 -10.5l59 -148v-3q0 -9 -8 -11.5t-19 -2.5q-7 0 -14 -0.5t-14 -0.5q-17 0 -25 3t-12 8l-112 155v3zM451 693q3 0 11.5 -17t17.5 -38t16 -39.5t7 -21.5q21 -74 48.5 -144.5t57.5 -139.5t61 -137t60 -138q0 -15 -14 -18
t-42 -3q-3 0 -17.5 0.5t-33.5 1t-40 1t-37 0.5q-15 11 -20.5 22.5t-8 21.5t-4.5 18.5t-9 14.5t-22.5 9.5t-44.5 3.5l-125 -2q-2 0 -7 0.5t-10.5 0.5t-10.5 0.5t-6 0.5q-12 0 -18.5 -12t-11.5 -27.5l-10 -31t-13 -21.5q-19 -1 -34 -1.5t-29.5 -1t-31 -1t-38.5 -0.5
q-16 0 -29 2t-13 10q0 2 0.5 4.5t0.5 4.5l58 168q17 34 29 70.5t26 71.5q35 90 71 179.5t71 180.5q1 6 11 7t15 1h119zM369 393q-5 -16 -9 -31t-9 -30q-3 -9 -9 -21t-12 -24.5t-10.5 -25.5t-4.5 -23q0 -3 2 -7.5t9 -4.5h111q2 0 6 2.5t4 5.5l-43 115q-7 7 -8 15t-2.5 14.5
t-6 10.5t-18.5 4z" />
    <glyph glyph-name="aacute" unicode="&#xe1;" 
d="M345 747q-8 0 -8 8q0 2 1 5t2 5l51 131q2 5 6 10.5t9 5.5h113q7 0 8.5 -5t1.5 -8q0 -4 -3.5 -10t-11.5 -17l-85 -115q-5 -6 -16.5 -8.5t-20.5 -2.5l-31 1h-16zM451 693q3 0 11.5 -17t17.5 -38t16 -39.5t7 -21.5q21 -74 48.5 -144.5t57.5 -139.5t61 -137t60 -138
q0 -15 -14 -18t-42 -3q-3 0 -17.5 0.5t-33.5 1t-40 1t-37 0.5q-15 11 -20.5 22.5t-8 21.5t-4.5 18.5t-9 14.5t-22.5 9.5t-44.5 3.5l-125 -2q-2 0 -7 0.5t-10.5 0.5t-10.5 0.5t-6 0.5q-12 0 -18.5 -12t-11.5 -27.5l-10 -31t-13 -21.5q-19 -1 -34 -1.5t-29.5 -1t-31 -1
t-38.5 -0.5q-16 0 -29 2t-13 10q0 2 0.5 4.5t0.5 4.5l58 168q17 34 29 70.5t26 71.5q35 90 71 179.5t71 180.5q1 6 11 7t15 1h119zM369 393q-5 -16 -9 -31t-9 -30q-3 -9 -9 -21t-12 -24.5t-10.5 -25.5t-4.5 -23q0 -3 2 -7.5t9 -4.5h111q2 0 6 2.5t4 5.5l-43 115q-7 7 -8 15
t-2.5 14.5t-6 10.5t-18.5 4z" />
    <glyph glyph-name="acircumflex" unicode="&#xe2;" 
d="M539 760q2 -4 2 -6q0 -7 -9 -7h-12t-20 -0.5t-23 -0.5h-21q-7 0 -10.5 2.5t-10.5 8.5l-57 57l-55 -57q-7 -11 -19 -11q-20 0 -38 0.5t-39 0.5q-9 0 -9 7q0 4 4 10l94 132q3 5 6.5 10.5t8.5 5.5h83q6 0 10.5 -2t11 -8.5t16 -19t23.5 -32.5zM451 693q3 0 11.5 -17t17.5 -38
t16 -39.5t7 -21.5q21 -74 48.5 -144.5t57.5 -139.5t61 -137t60 -138q0 -15 -14 -18t-42 -3q-3 0 -17.5 0.5t-33.5 1t-40 1t-37 0.5q-15 11 -20.5 22.5t-8 21.5t-4.5 18.5t-9 14.5t-22.5 9.5t-44.5 3.5l-125 -2q-2 0 -7 0.5t-10.5 0.5t-10.5 0.5t-6 0.5q-12 0 -18.5 -12
t-11.5 -27.5l-10 -31t-13 -21.5q-19 -1 -34 -1.5t-29.5 -1t-31 -1t-38.5 -0.5q-16 0 -29 2t-13 10q0 2 0.5 4.5t0.5 4.5l58 168q17 34 29 70.5t26 71.5q35 90 71 179.5t71 180.5q1 6 11 7t15 1h119zM369 393q-5 -16 -9 -31t-9 -30q-3 -9 -9 -21t-12 -24.5t-10.5 -25.5
t-4.5 -23q0 -3 2 -7.5t9 -4.5h111q2 0 6 2.5t4 5.5l-43 115q-7 7 -8 15t-2.5 14.5t-6 10.5t-18.5 4z" />
    <glyph glyph-name="atilde" unicode="&#xe3;" 
d="M234 772q-7 3 -8.5 6t-1.5 11q0 21 9 39t24 30.5t35 19.5t41 7q20 0 32.5 -4.5t28.5 -11.5q16 -6 26.5 -14t27.5 -8q9 0 16 6t12 13.5l9 13.5t6 6h4.5t5.5 -1l43 -23q6 -3 8 -5t2 -10q0 -23 -9 -41t-24 -30t-35 -18.5t-41 -6.5q-23 0 -36 6t-23.5 13t-22 13t-30.5 6
q-13 0 -20.5 -6.5t-12 -14t-7.5 -13.5t-6 -6q-4 0 -10 2zM451 693q3 0 11.5 -17t17.5 -38t16 -39.5t7 -21.5q21 -74 48.5 -144.5t57.5 -139.5t61 -137t60 -138q0 -15 -14 -18t-42 -3q-3 0 -17.5 0.5t-33.5 1t-40 1t-37 0.5q-15 11 -20.5 22.5t-8 21.5t-4.5 18.5t-9 14.5
t-22.5 9.5t-44.5 3.5l-125 -2q-2 0 -7 0.5t-10.5 0.5t-10.5 0.5t-6 0.5q-12 0 -18.5 -12t-11.5 -27.5l-10 -31t-13 -21.5q-19 -1 -34 -1.5t-29.5 -1t-31 -1t-38.5 -0.5q-16 0 -29 2t-13 10q0 2 0.5 4.5t0.5 4.5l58 168q17 34 29 70.5t26 71.5q35 90 71 179.5t71 180.5
q1 6 11 7t15 1h119zM369 393q-5 -16 -9 -31t-9 -30q-3 -9 -9 -21t-12 -24.5t-10.5 -25.5t-4.5 -23q0 -3 2 -7.5t9 -4.5h111q2 0 6 2.5t4 5.5l-43 115q-7 7 -8 15t-2.5 14.5t-6 10.5t-18.5 4z" />
    <glyph glyph-name="adieresis" unicode="&#xe4;" 
d="M208 739q-10 0 -16 5v62.5t0.5 38.5t1 19.5t1.5 5.5l4 5h126l5 -7v-126q0 -4 -6.5 -5t-8.5 -1q-19 0 -34.5 3t-31.5 3zM570 733q-26 0 -49 1.5t-47 2.5l-22 1h-8q-3 0 -5.5 9t-4 23.5t-2 31.5t-0.5 32q0 14 1 25t5 11h127q2 0 3.5 -6t1.5 -8v-123zM341 686q11 0 19 -0.5
t16 -1.5t17.5 -1.5t23.5 -0.5h22.5t15.5 1q7 -1 15 -18t15 -37.5t11.5 -37t4.5 -17.5l131 -339q1 -10 9 -21l72 -194q2 -3 4.5 -8t2.5 -10h-168q-12 0 -19 15t-12 32.5t-9 32.5t-9 15q-17 0 -33.5 -0.5t-33.5 -0.5q-34 0 -67.5 1t-67.5 4q-7 0 -12.5 4t-12.5 4
q-11 -2 -16.5 -20t-11 -39.5t-14 -39t-24.5 -17.5q-3 0 -12.5 1t-12.5 1h-129q-5 0 -5.5 2.5t-0.5 6.5l111 280q2 4 3 7t2 8l73 173q0 2 2 8t2 8q20 48 40 95t38 95q3 7 7 8t13 1zM377 393q-5 -16 -9 -30.5t-9 -29.5q-3 -9 -9 -21t-12 -24.5t-10.5 -25.5t-4.5 -23
q0 -4 2 -8.5t9 -4.5h111q2 0 6 3t4 5l-43 115q-7 7 -8 15t-2.5 14.5t-6 10.5t-18.5 4z" />
    <glyph glyph-name="aring" unicode="&#xe5;" 
d="M503 577q21 -74 48.5 -144.5t57.5 -139.5t61 -137t60 -138q0 -15 -14 -18t-42 -3q-3 0 -17.5 0.5t-33.5 1t-40 1t-37 0.5q-15 11 -20.5 22.5t-8 21.5t-4.5 18.5t-9 14.5t-22.5 9.5t-44.5 3.5l-125 -2q-2 0 -7 0.5t-10.5 0.5t-10.5 0.5t-6 0.5q-12 0 -18.5 -12
t-11.5 -27.5l-10 -31t-13 -21.5q-19 -1 -34 -1.5t-29.5 -1t-31 -1t-38.5 -0.5q-16 0 -29 2t-13 10q0 2 0.5 4.5t0.5 4.5l58 168q17 34 29 70.5t26 71.5q35 90 71 179.5t71 180.5q0 3 9 7q-43 25 -54 81q1 2 1 7t-1 8.5t-1 8.5q0 29 13 54.5t36 41.5q2 0 2 -1q0 7 6 7
q17 12 35.5 16t38.5 4h4q33 -1 57 -12t39 -29t22.5 -40.5t7.5 -45.5q0 -29 -12.5 -55t-36.5 -41q-3 -5 -8 -7l-7 -4q6 -9 13.5 -26.5t15 -34.5t12.5 -31t5 -16zM390 861q-26 0 -45.5 -18.5t-19.5 -39.5q0 -39 19.5 -56t46.5 -17q26 0 46 19.5t20 51.5q0 20 -16 39t-48 19z
M437 226q2 0 6 2.5t4 5.5l-43 115q-7 7 -8 15t-2.5 14.5t-6 10.5t-18.5 4q-5 -16 -9 -31t-9 -30q-3 -9 -9 -21t-12 -24.5t-10.5 -25.5t-4.5 -23q0 -3 2 -7.5t9 -4.5h111z" />
    <glyph glyph-name="ae" unicode="&#xe6;" horiz-adv-x="931" 
d="M825 151q6 -4 7.5 -11.5t1.5 -18.5q0 -22 -1.5 -43t-1.5 -43q0 -13 -6 -20t-16.5 -10.5t-25.5 -4t-32 -0.5h-58t-56 2q-21 0 -46 0.5t-45 0.5q-9 22 -17 43t-26 43q-11 -1 -26.5 2t-39.5 3l-125 -2l-34 2q-12 0 -18.5 -13.5t-11.5 -30.5t-10 -33.5t-13 -22.5
q-19 -1 -34 -0.5t-29.5 1.5t-31 2t-38.5 1q-16 0 -29 2t-13 10q0 2 0.5 4.5t0.5 4.5l58 168q17 34 29 70.5t26 71.5q35 90 71 179.5t71 180.5q1 6 11 7t15 1h119q5 0 24 -0.5t45 -1t56 -0.5t56 -0.5t45.5 -0.5h25.5q45 0 79.5 -1.5t39.5 -6.5l3 -24q0 -5 -0.5 -19t-1 -30
t-1 -30t-0.5 -20q0 -18 -32 -21.5t-94 -3.5q-11 0 -21.5 0.5t-20.5 0.5h-135l41 -104h242q4 0 7.5 -6.5t3.5 -9.5q0 -10 -0.5 -25.5t-1 -33.5l-1 -36t-0.5 -33l-8 -6h-180l53 -130q20 0 41.5 -0.5t42 -0.5t38 -1t28.5 -2zM368 230q11 0 24 0.5t23.5 1t17.5 2t7 4.5
q0 7 -1 13.5t-4.5 16t-9.5 24t-16 37.5q-4 9 -6.5 16.5t-7.5 15.5l-13 31q-2 0 -12 -21t-21 -47.5t-20 -51t-9 -30.5q0 -8 7.5 -10t14.5 -2h26z" />
    <glyph glyph-name="ccedilla" unicode="&#xe7;" horiz-adv-x="703" 
d="M658 67q0 -13 -20.5 -25.5t-47.5 -23t-52.5 -17t-34.5 -7.5q-14 -3 -27 -3q5 -11 13.5 -20.5t17.5 -20.5q2 -2 2 -5q4 -2 5 -4q11 -14 18.5 -29t7.5 -35q0 -23 -10.5 -41.5t-26.5 -31t-35.5 -19t-38.5 -6.5q-8 0 -10.5 1.5t-4.5 7.5l-18 57l-1 9q7 2 17 4t20 5.5t17 9.5
t7 18q0 13 -6.5 21t-16 12.5t-20.5 6.5t-19 2q0 14 8 28t10 32q-48 3 -92.5 15.5t-85.5 40.5q-4 3 -10.5 8t-6.5 13q0 -1 -2.5 -2t-3.5 -1q-68 47 -104 121t-36 156q0 17 3.5 31.5t3.5 25.5q0 2 -3.5 5.5t-3.5 5.5q0 1 1.5 1t1.5 2q12 72 45 127t82 92t112 56t135 19h16.5
t19.5 -2q9 -1 33.5 -6t50 -12.5t45 -16.5t19.5 -18q0 -4 -10 -25.5t-23 -45.5t-25 -44t-15 -20q-2 -1 -7 -1q-10 0 -16.5 4.5t-13.5 8.5q-17 8 -40 9.5t-41 1.5q-53 0 -88 -20.5t-56 -54.5t-30 -78t-9 -90q19 -31 37 -56.5t39.5 -43.5t48.5 -27.5t65 -9.5q35 0 64.5 11
t62.5 27q3 0 16 -19t28 -42.5t27 -45t12 -26.5z" />
    <glyph glyph-name="egrave" unicode="&#xe8;" horiz-adv-x="613" 
d="M141 915q0 4 1.5 8.5t8.5 4.5h120q5 0 9 -5.5t6 -10.5l59 -148v-3q0 -9 -8 -11.5t-19 -2.5q-7 0 -14 -0.5t-14 -0.5q-17 0 -25 3t-12 8l-112 155v3zM423 696q35 0 57.5 -4.5t22.5 -29.5q0 -22 2 -43t2 -43q0 -11 -1.5 -19t-8.5 -11q-19 -3 -53.5 -3t-68.5 -0.5t-60 -2.5
t-29 -7q0 -22 -0.5 -41.5t-0.5 -31.5q0 -14 1.5 -21t7.5 -9q10 -2 31.5 -2.5t48 -1t55.5 -0.5h55l8 -6q0 -15 0.5 -33t1 -35.5t1 -33t0.5 -25.5q0 -4 -3.5 -10t-7.5 -6h-184q-11 0 -13.5 -9.5t-2.5 -18.5q0 -6 0.5 -12t0.5 -8q0 -12 0.5 -26.5t3 -26.5t6.5 -20t11 -8
q5 0 12.5 -0.5t17.5 -0.5t20.5 0.5t21.5 0.5q62 0 98.5 -3.5t36.5 -22.5q0 -6 0.5 -20t0.5 -29.5t0.5 -29.5t0.5 -19l-2 -25q-3 -3 -14.5 -4.5t-29.5 -2t-40 -1t-44 -0.5q-27 0 -52.5 -0.5t-43.5 -0.5q-44 0 -87.5 2.5t-86.5 2.5l-10 8q0 5 1 8t1 8q0 8 -0.5 32.5t-1 59
t-1.5 75t-1.5 80.5t-1 75t-0.5 58q0 36 1 69.5t1 67.5q4 0 4 4q-5 10 -6 22t-1 23q0 20 0.5 43.5t0.5 50.5q3 10 12.5 12.5t20.5 2.5q8 0 13 -0.5t8 -0.5q70 0 132.5 1.5t135.5 1.5z" />
    <glyph glyph-name="eacute" unicode="&#xe9;" horiz-adv-x="613" 
d="M269 747q-8 0 -8 8q0 2 1 5t2 5l51 131q2 5 6 10.5t9 5.5h113q7 0 8.5 -5t1.5 -8q0 -4 -3.5 -10t-11.5 -17l-85 -115q-5 -6 -16.5 -8.5t-20.5 -2.5l-31 1h-16zM423 696q35 0 57.5 -4.5t22.5 -29.5q0 -22 2 -43t2 -43q0 -11 -1.5 -19t-8.5 -11q-19 -3 -53.5 -3t-68.5 -0.5
t-60 -2.5t-29 -7q0 -22 -0.5 -41.5t-0.5 -31.5q0 -14 1.5 -21t7.5 -9q10 -2 31.5 -2.5t48 -1t55.5 -0.5h55l8 -6q0 -15 0.5 -33t1 -35.5t1 -33t0.5 -25.5q0 -4 -3.5 -10t-7.5 -6h-184q-11 0 -13.5 -9.5t-2.5 -18.5q0 -6 0.5 -12t0.5 -8q0 -12 0.5 -26.5t3 -26.5t6.5 -20
t11 -8q5 0 12.5 -0.5t17.5 -0.5t20.5 0.5t21.5 0.5q62 0 98.5 -3.5t36.5 -22.5q0 -6 0.5 -20t0.5 -29.5t0.5 -29.5t0.5 -19l-2 -25q-3 -3 -14.5 -4.5t-29.5 -2t-40 -1t-44 -0.5q-27 0 -52.5 -0.5t-43.5 -0.5q-44 0 -87.5 2.5t-86.5 2.5l-10 8q0 5 1 8t1 8q0 8 -0.5 32.5
t-1 59t-1.5 75t-1.5 80.5t-1 75t-0.5 58q0 36 1 69.5t1 67.5q4 0 4 4q-5 10 -6 22t-1 23q0 20 0.5 43.5t0.5 50.5q3 10 12.5 12.5t20.5 2.5q8 0 13 -0.5t8 -0.5q70 0 132.5 1.5t135.5 1.5z" />
    <glyph glyph-name="ecircumflex" unicode="&#xea;" horiz-adv-x="613" 
d="M463 760q2 -4 2 -6q0 -7 -9 -7h-12t-20 -0.5t-23 -0.5h-21q-7 0 -10.5 2.5t-10.5 8.5l-57 57l-55 -57q-7 -11 -19 -11q-20 0 -38 0.5t-39 0.5q-9 0 -9 7q0 4 4 10l94 132q3 5 6.5 10.5t8.5 5.5h83q6 0 10.5 -2t11 -8.5t16 -19t23.5 -32.5zM423 696q35 0 57.5 -4.5
t22.5 -29.5q0 -22 2 -43t2 -43q0 -11 -1.5 -19t-8.5 -11q-19 -3 -53.5 -3t-68.5 -0.5t-60 -2.5t-29 -7q0 -22 -0.5 -41.5t-0.5 -31.5q0 -14 1.5 -21t7.5 -9q10 -2 31.5 -2.5t48 -1t55.5 -0.5h55l8 -6q0 -15 0.5 -33t1 -35.5t1 -33t0.5 -25.5q0 -4 -3.5 -10t-7.5 -6h-184
q-11 0 -13.5 -9.5t-2.5 -18.5q0 -6 0.5 -12t0.5 -8q0 -12 0.5 -26.5t3 -26.5t6.5 -20t11 -8q5 0 12.5 -0.5t17.5 -0.5t20.5 0.5t21.5 0.5q62 0 98.5 -3.5t36.5 -22.5q0 -6 0.5 -20t0.5 -29.5t0.5 -29.5t0.5 -19l-2 -25q-3 -3 -14.5 -4.5t-29.5 -2t-40 -1t-44 -0.5
q-27 0 -52.5 -0.5t-43.5 -0.5q-44 0 -87.5 2.5t-86.5 2.5l-10 8q0 5 1 8t1 8q0 8 -0.5 32.5t-1 59t-1.5 75t-1.5 80.5t-1 75t-0.5 58q0 36 1 69.5t1 67.5q4 0 4 4q-5 10 -6 22t-1 23q0 20 0.5 43.5t0.5 50.5q3 10 12.5 12.5t20.5 2.5q8 0 13 -0.5t8 -0.5q70 0 132.5 1.5
t135.5 1.5z" />
    <glyph glyph-name="edieresis" unicode="&#xeb;" horiz-adv-x="613" 
d="M130 761q-10 0 -16 5v62.5t0.5 38.5t1 19.5t1.5 5.5l4 5h126l5 -7v-126q0 -4 -6.5 -5t-8.5 -1q-19 0 -34.5 3t-31.5 3zM492 755q-26 0 -49 1.5t-47 2.5l-22 1h-8q-3 0 -5.5 9t-4 23.5t-2 31.5t-0.5 32q0 14 1 25t5 11h127q2 0 3.5 -6t1.5 -8v-123zM423 696
q35 0 57.5 -4.5t22.5 -29.5q0 -22 2 -43t2 -43q0 -11 -1.5 -19t-8.5 -11q-19 -3 -53.5 -3t-68.5 -0.5t-60 -2.5t-29 -7q0 -22 -0.5 -41.5t-0.5 -31.5q0 -14 1.5 -21t7.5 -9q10 -2 31.5 -2.5t48 -1t55.5 -0.5h55l8 -6q0 -15 0.5 -33t1 -35.5t1 -33t0.5 -25.5q0 -4 -3.5 -10
t-7.5 -6h-184q-11 0 -13.5 -9.5t-2.5 -18.5q0 -6 0.5 -12t0.5 -8q0 -12 0.5 -26.5t3 -26.5t6.5 -20t11 -8q5 0 12.5 -0.5t17.5 -0.5t20.5 0.5t21.5 0.5q62 0 98.5 -3.5t36.5 -22.5q0 -6 0.5 -20t0.5 -29.5t0.5 -29.5t0.5 -19l-2 -25q-3 -3 -14.5 -4.5t-29.5 -2t-40 -1
t-44 -0.5q-27 0 -52.5 -0.5t-43.5 -0.5q-44 0 -87.5 2.5t-86.5 2.5l-10 8q0 5 1 8t1 8q0 8 -0.5 32.5t-1 59t-1.5 75t-1.5 80.5t-1 75t-0.5 58q0 36 1 69.5t1 67.5q4 0 4 4q-5 10 -6 22t-1 23q0 20 0.5 43.5t0.5 50.5q3 10 12.5 12.5t20.5 2.5q8 0 13 -0.5t8 -0.5
q70 0 132.5 1.5t135.5 1.5z" />
    <glyph glyph-name="igrave" unicode="&#xec;" horiz-adv-x="386" 
d="M38 915q0 4 1.5 8.5t8.5 4.5h120q5 0 9 -5.5t6 -10.5l59 -148v-3q0 -9 -8 -11.5t-19 -2.5q-7 0 -14 -0.5t-14 -0.5q-17 0 -25 3t-12 8l-112 155v3zM255 697q10 0 20.5 -1.5t14.5 -12.5q1 -16 1.5 -35.5t1 -37.5t0.5 -32.5v-18.5q0 -113 -3 -224.5t-3 -224.5
q0 -14 0.5 -29.5t0.5 -17.5q-3 -18 -3 -38t-9 -26q-42 0 -83 1.5t-83 1.5l-7 1l-4 10q0 169 1 336.5t4 335.5q4 9 10 10.5t17 1.5h124z" />
    <glyph glyph-name="iacute" unicode="&#xed;" horiz-adv-x="386" 
d="M166 747q-8 0 -8 8q0 2 1 5t2 5l51 131q2 5 6 10.5t9 5.5h113q7 0 8.5 -5t1.5 -8q0 -4 -3.5 -10t-11.5 -17l-85 -115q-5 -6 -16.5 -8.5t-20.5 -2.5l-31 1h-16zM255 697q10 0 20.5 -1.5t14.5 -12.5q1 -16 1.5 -35.5t1 -37.5t0.5 -32.5v-18.5q0 -113 -3 -224.5t-3 -224.5
q0 -14 0.5 -29.5t0.5 -17.5q-3 -18 -3 -38t-9 -26q-42 0 -83 1.5t-83 1.5l-7 1l-4 10q0 169 1 336.5t4 335.5q4 9 10 10.5t17 1.5h124z" />
    <glyph glyph-name="icircumflex" unicode="&#xee;" horiz-adv-x="386" 
d="M360 760q2 -4 2 -6q0 -7 -9 -7h-12t-20 -0.5t-23 -0.5h-21q-7 0 -10.5 2.5t-10.5 8.5l-57 57l-55 -57q-7 -11 -19 -11q-20 0 -38 0.5t-39 0.5q-9 0 -9 7q0 4 4 10l94 132q3 5 6.5 10.5t8.5 5.5h83q6 0 10.5 -2t11 -8.5t16 -19t23.5 -32.5zM255 697q10 0 20.5 -1.5
t14.5 -12.5q1 -16 1.5 -35.5t1 -37.5t0.5 -32.5v-18.5q0 -113 -3 -224.5t-3 -224.5q0 -14 0.5 -29.5t0.5 -17.5q-3 -18 -3 -38t-9 -26q-42 0 -83 1.5t-83 1.5l-7 1l-4 10q0 169 1 336.5t4 335.5q4 9 10 10.5t17 1.5h124z" />
    <glyph glyph-name="idieresis" unicode="&#xef;" horiz-adv-x="386" 
d="M27 761q-10 0 -16 5v62.5t0.5 38.5t1 19.5t1.5 5.5l4 5h126l5 -7v-126q0 -4 -6.5 -5t-8.5 -1q-19 0 -34.5 3t-31.5 3zM389 755q-26 0 -49 1.5t-47 2.5l-22 1h-8q-3 0 -5.5 9t-4 23.5t-2 31.5t-0.5 32q0 14 1 25t5 11h127q2 0 3.5 -6t1.5 -8v-123zM255 697q10 0 20.5 -1.5
t14.5 -12.5q1 -16 1.5 -35.5t1 -37.5t0.5 -32.5v-18.5q0 -113 -3 -224.5t-3 -224.5q0 -14 0.5 -29.5t0.5 -17.5q-3 -18 -3 -38t-9 -26q-42 0 -83 1.5t-83 1.5l-7 1l-4 10q0 169 1 336.5t4 335.5q4 9 10 10.5t17 1.5h124z" />
    <glyph glyph-name="eth" unicode="&#xf0;" horiz-adv-x="813" 
d="M213 705q58 0 119 -2t119 -13.5t110.5 -36t93.5 -69.5q15 -18 24 -30.5t16 -25.5q47 -82 47 -174q0 -63 -19.5 -121t-55.5 -104.5t-87.5 -78.5t-116.5 -42q-42 -7 -84.5 -8t-77.5 -1h-51l-76 -1l-16 1l-4 4l-2 185l2 16l-1 10v92l-45 1q-2 0 -4 3.5t-4 6.5v72l5 7l48 1
v284q0 9 7.5 14t17.5 7t20 2.5t15 0.5zM345 529q-9 0 -9 -13v-59t1 -58h6.5t13 -0.5t15 -0.5h13.5q8 0 8 -7v-77q0 -2 -2 -5.5t-8 -3.5q-13 0 -26 0.5t-20 0.5q1 -28 1 -58v-59l4 -6l16 -1q42 0 77.5 8.5t61.5 28t41 52t15 80.5q0 20 -1.5 35t-5.5 27.5t-10 24t-15 25.5
q-17 22 -39 34t-45 23q-1 2 -2 3t-1 2q-1 -3 -5 -3q-20 0 -41 3.5t-43 3.5z" />
    <glyph glyph-name="ntilde" unicode="&#xf1;" horiz-adv-x="793" 
d="M251 772q-7 3 -8.5 6t-1.5 11q0 21 9 39t24 30.5t35 19.5t41 7q20 0 32.5 -4.5t28.5 -11.5q16 -6 26.5 -14t27.5 -8q9 0 16 6t12 13.5l9 13.5t6 6h4.5t5.5 -1l43 -23q6 -3 8 -5t2 -10q0 -23 -9 -41t-24 -30t-35 -18.5t-41 -6.5q-23 0 -36 6t-23.5 13t-22 13t-30.5 6
q-13 0 -20.5 -6.5t-12 -14t-7.5 -13.5t-6 -6q-4 0 -10 2zM242 682q8 0 13 -2t10 -9l123 -178q2 -5 9 -13t8 -10l101 -146l12 -13l2 3v49.5t0.5 74t1 83.5t1.5 78.5t2.5 58t3.5 22.5h158l6 -4q0 -59 -0.5 -126t-1.5 -137.5t-1.5 -141.5t-0.5 -138v-51t1 -52l-3 -29l-20 -4
l-126 4q-5 0 -12.5 10.5t-8.5 15.5l-94 135q-2 7 -7.5 11.5t-7.5 12.5l-129 183q-2 2 -3.5 4.5t-4.5 2.5t-3 -4v-366l-6 -5l-5.5 -0.5t-12.5 -0.5h-14h-11h-37.5t-38.5 0.5t-30 1.5t-12 2l-4 5v358q1 3 1.5 15t2.5 14q0 64 -2 128.5t-2 128.5v6t1.5 10t3.5 9t7 4h130z" />
    <glyph glyph-name="ograve" unicode="&#xf2;" horiz-adv-x="868" 
d="M263 925q0 4 1.5 8.5t8.5 4.5h120q5 0 9 -5.5t6 -10.5l59 -148v-3q0 -9 -8 -11.5t-19 -2.5q-7 0 -14 -0.5t-14 -0.5q-17 0 -25 3t-12 8l-112 155v3zM443 -23q-79 0 -147 28t-118 77t-78.5 116.5t-28.5 147.5q0 69 27.5 133.5t76.5 114t116 79.5t146 30q77 0 143 -29
t114 -79.5t75.5 -119t27.5 -147.5q0 -47 -12.5 -87.5t-31.5 -83.5q-7 -5 -12 -12.5t-9.5 -15.5l-9 -16t-10.5 -13q-31 -30 -60 -53t-61 -38.5t-68 -23.5t-80 -8zM433 523q-38 0 -70 -14t-55.5 -38.5t-37 -57.5t-13.5 -70q0 -41 13.5 -74t38 -56.5t58 -36t74.5 -12.5
q38 0 70 14t55.5 38.5t36.5 57t13 69.5t-14.5 70t-39 57.5t-58 38.5t-71.5 14z" />
    <glyph glyph-name="oacute" unicode="&#xf3;" horiz-adv-x="868" 
d="M391 757q-8 0 -8 8q0 2 1 5t2 5l51 131q2 5 6 10.5t9 5.5h113q7 0 8.5 -5t1.5 -8q0 -4 -3.5 -10t-11.5 -17l-85 -115q-5 -6 -16.5 -8.5t-20.5 -2.5l-31 1h-16zM443 -23q-79 0 -147 28t-118 77t-78.5 116.5t-28.5 147.5q0 69 27.5 133.5t76.5 114t116 79.5t146 30
q77 0 143 -29t114 -79.5t75.5 -119t27.5 -147.5q0 -47 -12.5 -87.5t-31.5 -83.5q-7 -5 -12 -12.5t-9.5 -15.5l-9 -16t-10.5 -13q-31 -30 -60 -53t-61 -38.5t-68 -23.5t-80 -8zM433 523q-38 0 -70 -14t-55.5 -38.5t-37 -57.5t-13.5 -70q0 -41 13.5 -74t38 -56.5t58 -36
t74.5 -12.5q38 0 70 14t55.5 38.5t36.5 57t13 69.5t-14.5 70t-39 57.5t-58 38.5t-71.5 14z" />
    <glyph glyph-name="ocircumflex" unicode="&#xf4;" horiz-adv-x="868" 
d="M585 770q2 -4 2 -6q0 -7 -9 -7h-12t-20 -0.5t-23 -0.5h-21q-7 0 -10.5 2.5t-10.5 8.5l-57 57l-55 -57q-7 -11 -19 -11q-20 0 -38 0.5t-39 0.5q-9 0 -9 7q0 4 4 10l94 132q3 5 6.5 10.5t8.5 5.5h83q6 0 10.5 -2t11 -8.5t16 -19t23.5 -32.5zM443 -23q-79 0 -147 28t-118 77
t-78.5 116.5t-28.5 147.5q0 69 27.5 133.5t76.5 114t116 79.5t146 30q77 0 143 -29t114 -79.5t75.5 -119t27.5 -147.5q0 -47 -12.5 -87.5t-31.5 -83.5q-7 -5 -12 -12.5t-9.5 -15.5l-9 -16t-10.5 -13q-31 -30 -60 -53t-61 -38.5t-68 -23.5t-80 -8zM433 523q-38 0 -70 -14
t-55.5 -38.5t-37 -57.5t-13.5 -70q0 -41 13.5 -74t38 -56.5t58 -36t74.5 -12.5q38 0 70 14t55.5 38.5t36.5 57t13 69.5t-14.5 70t-39 57.5t-58 38.5t-71.5 14z" />
    <glyph glyph-name="otilde" unicode="&#xf5;" horiz-adv-x="868" 
d="M280 782q-7 3 -8.5 6t-1.5 11q0 21 9 39t24 30.5t35 19.5t41 7q20 0 32.5 -4.5t28.5 -11.5q16 -6 26.5 -14t27.5 -8q9 0 16 6t12 13.5l9 13.5t6 6h4.5t5.5 -1l43 -23q6 -3 8 -5t2 -10q0 -23 -9 -41t-24 -30t-35 -18.5t-41 -6.5q-23 0 -36 6t-23.5 13t-22 13t-30.5 6
q-13 0 -20.5 -6.5t-12 -14t-7.5 -13.5t-6 -6q-4 0 -10 2zM443 -23q-79 0 -147 28t-118 77t-78.5 116.5t-28.5 147.5q0 69 27.5 133.5t76.5 114t116 79.5t146 30q77 0 143 -29t114 -79.5t75.5 -119t27.5 -147.5q0 -47 -12.5 -87.5t-31.5 -83.5q-7 -5 -12 -12.5t-9.5 -15.5
l-9 -16t-10.5 -13q-31 -30 -60 -53t-61 -38.5t-68 -23.5t-80 -8zM433 523q-38 0 -70 -14t-55.5 -38.5t-37 -57.5t-13.5 -70q0 -41 13.5 -74t38 -56.5t58 -36t74.5 -12.5q38 0 70 14t55.5 38.5t36.5 57t13 69.5t-14.5 70t-39 57.5t-58 38.5t-71.5 14z" />
    <glyph glyph-name="odieresis" unicode="&#xf6;" horiz-adv-x="868" 
d="M260 762q-10 0 -16 5v62.5t0.5 38.5t1 19.5t1.5 5.5l4 5h126l5 -7v-126q0 -4 -6.5 -5t-8.5 -1q-19 0 -34.5 3t-31.5 3zM622 756q-26 0 -49 1.5t-47 2.5l-22 1h-8q-3 0 -5.5 9t-4 23.5t-2 31.5t-0.5 32q0 14 1 25t5 11h127q2 0 3.5 -6t1.5 -8v-123zM795 341
q0 -72 -25.5 -132.5t-70.5 -106t-105.5 -74t-130.5 -37.5q-79 0 -150 24t-125 70t-85.5 112.5t-31.5 150.5q0 87 42 168q3 4 7.5 12t10.5 16.5t12.5 17t11.5 15.5q6 7 15 15t19.5 16t20.5 15.5t17 13.5q18 17 41 30t48.5 22t52 14t50.5 5q20 0 42 -1t44 -4t43 -9.5t39 -16.5
q51 -25 89.5 -62.5t65 -82t40 -94t13.5 -97.5zM428 542q-36 0 -69.5 -15t-59.5 -40t-41.5 -58t-15.5 -69q0 -35 5.5 -63.5t25.5 -57.5q29 -40 72 -61t92 -21q39 0 73.5 14.5t60 40t40.5 60t15 74.5q0 42 -15 77.5t-42 62t-63 41.5t-78 15z" />
    <glyph glyph-name="divide" unicode="&#xf7;" horiz-adv-x="358" 
d="M235 392q0 -1 -0.5 -4.5t-1.5 -8t-3 -8t-5 -3.5h-105q-2 0 -6.5 1.5t-5.5 5.5q-5 19 -5.5 36.5t-0.5 35.5q0 16 2 30t10 14h111l7 -6zM57 199q-8 1 -14.5 2t-6.5 6v112q0 2 2.5 5t7.5 3q28 -1 47 -1.5t32 -1t21.5 -0.5h15.5q46 0 80 1.5t70 1.5q2 0 2.5 -6t0.5 -7v-105
l-4 -9q-33 -1 -61 -1.5t-51 -0.5q-45 0 -72 1t-44 1zM227 157q3 0 5.5 -6t2.5 -8v-89q0 -5 -2.5 -13.5t-9.5 -8.5h-102q-6 2 -10 2l-4 3v106q0 9 7 11.5t14 2.5h99z" />
    <glyph glyph-name="oslash" unicode="&#xf8;" horiz-adv-x="868" 
d="M727 561q26 -35 48 -91t22 -131q0 -69 -27.5 -133.5t-76.5 -114t-116 -79.5t-146 -30q-71 0 -125.5 23t-86.5 48q-19 -19 -37 -34t-30 -17l-20 21q-6 4 -6 6l-34 34q-6 4 -6 6l1 4l56 58q-34 48 -53 105.5t-19 120.5q0 47 12.5 88t31.5 83q13 9 21.5 27.5t19.5 29.5
q31 30 60 53t61 38.5t68 23.5t80 8q63 0 119.5 -18t103.5 -52l23 25q5 4 12 10t14.5 11.5t14 8.5t10.5 3q13 -3 23 -13q11 -10 17.5 -18t16.5 -17q8 -8 11.5 -10.5t4.5 -4.5q0 -5 -5 -8zM433 528q-38 0 -70 -14t-55.5 -38.5t-37 -57t-13.5 -69.5q0 -49 18 -85l245 242
q-41 22 -87 22zM441 169q38 0 70 14t55.5 38.5t36.5 57.5t13 70q0 23 -4.5 42t-15.5 39l-242 -242q17 -8 39 -13.5t48 -5.5z" />
    <glyph glyph-name="ugrave" unicode="&#xf9;" horiz-adv-x="726" 
d="M203 915q0 4 1.5 8.5t8.5 4.5h120q5 0 9 -5.5t6 -10.5l59 -148v-3q0 -9 -8 -11.5t-19 -2.5q-7 0 -14 -0.5t-14 -0.5q-17 0 -25 3t-12 8l-112 155v3zM468 689q23 0 67 -1t86 -1q6 0 10.5 -2.5t4.5 -12.5v-396q0 -3 -0.5 -10l-1 -14t-2 -12.5t-3.5 -5.5q1 -5 1 -11v-11
q0 -37 -15 -76t-38 -65q-14 -15 -26 -25t-23 -24q-23 -11 -49 -20t-48 -22q-3 3 -6 3q-12 0 -25.5 -2.5t-26.5 -2.5q-23 0 -42 1.5t-36.5 6t-35 12t-37.5 20.5q-33 17 -55 35.5t-36.5 41t-23 49.5t-13.5 61q0 53 -0.5 102t-1.5 97t-1.5 97t-0.5 102q0 21 1 45t8 39
q5 0 16.5 0.5t23.5 0.5t22.5 0.5t12.5 0.5q24 0 46 -1t45 -1l7 -6v-368q0 -13 0.5 -22t0.5 -19t0.5 -22.5t0.5 -32.5q0 -5 7 -15.5t16.5 -20.5t19 -17t15.5 -7l52 2q8 5 15 6t14 6q13 8 20 16.5t11 17.5t6.5 20t6.5 23q-1 14 -1 45.5v67.5q0 41 0.5 91t1 96.5t1 84t1.5 54.5
z" />
    <glyph glyph-name="uacute" unicode="&#xfa;" horiz-adv-x="726" 
d="M331 747q-8 0 -8 8q0 2 1 5t2 5l51 131q2 5 6 10.5t9 5.5h113q7 0 8.5 -5t1.5 -8q0 -4 -3.5 -10t-11.5 -17l-85 -115q-5 -6 -16.5 -8.5t-20.5 -2.5l-31 1h-16zM468 689q23 0 67 -1t86 -1q6 0 10.5 -2.5t4.5 -12.5v-396q0 -3 -0.5 -10l-1 -14t-2 -12.5t-3.5 -5.5
q1 -5 1 -11v-11q0 -37 -15 -76t-38 -65q-14 -15 -26 -25t-23 -24q-23 -11 -49 -20t-48 -22q-3 3 -6 3q-12 0 -25.5 -2.5t-26.5 -2.5q-23 0 -42 1.5t-36.5 6t-35 12t-37.5 20.5q-33 17 -55 35.5t-36.5 41t-23 49.5t-13.5 61q0 53 -0.5 102t-1.5 97t-1.5 97t-0.5 102
q0 21 1 45t8 39q5 0 16.5 0.5t23.5 0.5t22.5 0.5t12.5 0.5q24 0 46 -1t45 -1l7 -6v-368q0 -13 0.5 -22t0.5 -19t0.5 -22.5t0.5 -32.5q0 -5 7 -15.5t16.5 -20.5t19 -17t15.5 -7l52 2q8 5 15 6t14 6q13 8 20 16.5t11 17.5t6.5 20t6.5 23q-1 14 -1 45.5v67.5q0 41 0.5 91
t1 96.5t1 84t1.5 54.5z" />
    <glyph glyph-name="ucircumflex" unicode="&#xfb;" horiz-adv-x="726" 
d="M525 760q2 -4 2 -6q0 -7 -9 -7h-12t-20 -0.5t-23 -0.5h-21q-7 0 -10.5 2.5t-10.5 8.5l-57 57l-55 -57q-7 -11 -19 -11q-20 0 -38 0.5t-39 0.5q-9 0 -9 7q0 4 4 10l94 132q3 5 6.5 10.5t8.5 5.5h83q6 0 10.5 -2t11 -8.5t16 -19t23.5 -32.5zM468 689q23 0 67 -1t86 -1
q6 0 10.5 -2.5t4.5 -12.5v-396q0 -3 -0.5 -10l-1 -14t-2 -12.5t-3.5 -5.5q1 -5 1 -11v-11q0 -37 -15 -76t-38 -65q-14 -15 -26 -25t-23 -24q-23 -11 -49 -20t-48 -22q-3 3 -6 3q-12 0 -25.5 -2.5t-26.5 -2.5q-23 0 -42 1.5t-36.5 6t-35 12t-37.5 20.5q-33 17 -55 35.5
t-36.5 41t-23 49.5t-13.5 61q0 53 -0.5 102t-1.5 97t-1.5 97t-0.5 102q0 21 1 45t8 39q5 0 16.5 0.5t23.5 0.5t22.5 0.5t12.5 0.5q24 0 46 -1t45 -1l7 -6v-368q0 -13 0.5 -22t0.5 -19t0.5 -22.5t0.5 -32.5q0 -5 7 -15.5t16.5 -20.5t19 -17t15.5 -7l52 2q8 5 15 6t14 6
q13 8 20 16.5t11 17.5t6.5 20t6.5 23q-1 14 -1 45.5v67.5q0 41 0.5 91t1 96.5t1 84t1.5 54.5z" />
    <glyph glyph-name="udieresis" unicode="&#xfc;" horiz-adv-x="726" 
d="M183 746q-10 0 -16 5v62.5t0.5 38.5t1 19.5t1.5 5.5l4 5h126l5 -7v-126q0 -4 -6.5 -5t-8.5 -1q-19 0 -34.5 3t-31.5 3zM545 740q-26 0 -49 1.5t-47 2.5l-22 1h-8q-3 0 -5.5 9t-4 23.5t-2 31.5t-0.5 32q0 14 1 25t5 11h127q2 0 3.5 -6t1.5 -8v-123zM468 689q23 0 67 -1
t86 -1q6 0 10.5 -2.5t4.5 -12.5v-396q0 -3 -0.5 -10l-1 -14t-2 -12.5t-3.5 -5.5q1 -5 1 -11v-11q0 -37 -15 -76t-38 -65q-14 -15 -26 -25t-23 -24q-23 -11 -49 -20t-48 -22q-3 3 -6 3q-12 0 -25.5 -2.5t-26.5 -2.5q-23 0 -42 1.5t-36.5 6t-35 12t-37.5 20.5q-33 17 -55 35.5
t-36.5 41t-23 49.5t-13.5 61q0 53 -0.5 102t-1.5 97t-1.5 97t-0.5 102q0 21 1 45t8 39q5 0 16.5 0.5t23.5 0.5t22.5 0.5t12.5 0.5q24 0 46 -1t45 -1l7 -6v-368q0 -13 0.5 -22t0.5 -19t0.5 -22.5t0.5 -32.5q0 -5 7 -15.5t16.5 -20.5t19 -17t15.5 -7l52 2q8 5 15 6t14 6
q13 8 20 16.5t11 17.5t6.5 20t6.5 23q-1 14 -1 45.5v67.5q0 41 0.5 91t1 96.5t1 84t1.5 54.5z" />
    <glyph glyph-name="yacute" unicode="&#xfd;" horiz-adv-x="793" 
d="M363 747q-8 0 -8 8q0 2 1 5t2 5l51 131q2 5 6 10.5t9 5.5h113q7 0 8.5 -5t1.5 -8q0 -4 -3.5 -10t-11.5 -17l-85 -115q-5 -6 -16.5 -8.5t-20.5 -2.5l-31 1h-16zM712 699q2 0 6.5 -3.5t4.5 -5.5q0 -1 -1 -4t-1 -5l-58 -113q-10 -12 -20 -29.5t-19.5 -36.5t-18 -37
t-15.5 -32q-21 -42 -46.5 -86.5t-51.5 -84.5v-254q0 -4 -6 -6.5t-14.5 -3.5t-18 -1h-15.5q-7 0 -23 0.5t-34 0.5t-34 0.5t-23 0.5q-3 1 -7.5 3t-6.5 6q-2 42 -2 86t-0.5 82t-2.5 66.5t-8 37.5l-84 153q-7 8 -11.5 19.5t-13.5 17.5l-118 209l4 17h192q3 0 11 -11t18.5 -27.5
t22.5 -37t22.5 -39.5t18.5 -34t12 -21q1 -6 5 -13.5t8 -14t7.5 -11.5t5.5 -5q4 0 5 3l114 202q3 8 9.5 10t15.5 2h171z" />
    <glyph glyph-name="thorn" unicode="&#xfe;" horiz-adv-x="703" 
d="M326 112h-15t-33 1v-101l-10 -9q-39 0 -77 -2t-77 -2q-8 5 -8.5 24t-2.5 35l1 25l-1 1q0 44 0.5 94.5t1 103.5t1 106.5t0.5 104.5q0 31 -0.5 52t-1 40t-1 41t-0.5 54q0 6 2.5 12t9.5 6q22 0 38 0.5t31 0.5t31.5 0.5t39.5 0.5q9 0 16 -4.5t7 -18.5v-41q0 -10 0.5 -22.5
t4.5 -17.5q45 0 88.5 -5.5t82.5 -19.5t73 -38t61 -61q5 -6 16.5 -33.5t11.5 -75.5q0 -62 -24 -109t-64.5 -78.5t-92.5 -47.5t-109 -16zM299 453q-8 0 -14.5 -1.5t-6.5 -6.5v-188l10 -8q0 -1 8 -1h13q22 0 47 4.5t46 16t34.5 30t13.5 46.5q0 34 -12.5 55t-33.5 33t-48.5 16
t-56.5 4z" />
    <glyph glyph-name="ydieresis" unicode="&#xff;" horiz-adv-x="793" 
d="M224 761q-10 0 -16 5v62.5t0.5 38.5t1 19.5t1.5 5.5l4 5h126l5 -7v-126q0 -4 -6.5 -5t-8.5 -1q-19 0 -34.5 3t-31.5 3zM586 755q-26 0 -49 1.5t-47 2.5l-22 1h-8q-3 0 -5.5 9t-4 23.5t-2 31.5t-0.5 32q0 14 1 25t5 11h127q2 0 3.5 -6t1.5 -8v-123zM712 699q2 0 6.5 -3.5
t4.5 -5.5q0 -1 -1 -4t-1 -5l-58 -113q-10 -12 -20 -29.5t-19.5 -36.5t-18 -37t-15.5 -32q-21 -42 -46.5 -86.5t-51.5 -84.5v-254q0 -4 -6 -6.5t-14.5 -3.5t-18 -1h-15.5q-7 0 -23 0.5t-34 0.5t-34 0.5t-23 0.5q-3 1 -7.5 3t-6.5 6q-2 42 -2 86t-0.5 82t-2.5 66.5t-8 37.5
l-84 153q-7 8 -11.5 19.5t-13.5 17.5l-118 209l4 17h192q3 0 11 -11t18.5 -27.5t22.5 -37t22.5 -39.5t18.5 -34t12 -21q1 -6 5 -13.5t8 -14t7.5 -11.5t5.5 -5q4 0 5 3l114 202q3 8 9.5 10t15.5 2h171z" />
    <glyph glyph-name="Amacron" unicode="&#x100;" 
d="M240 773q-2 0 -4 3.5t-4 6.5v72l5 7q34 1 63 1.5t53 0.5q43 0 76.5 -0.5t65.5 -0.5q11 0 20.5 -1t9.5 -5v-79q0 -1 -3 -4t-7 -3l-161 1l-7 -1zM451 697q3 0 11.5 -17t17.5 -38t16 -39.5t7 -21.5q54 -142 112 -280.5t115 -278.5q0 -15 -14 -18t-42 -3q-3 0 -17.5 0.5
t-33.5 0.5t-40 0.5t-37 0.5q-9 22 -17 43t-26 43q-11 -1 -26.5 2t-39.5 3l-125 -2q-2 0 -7 0.5t-10.5 0.5t-10.5 0.5t-6 0.5q-12 0 -18.5 -13.5t-11.5 -30.5t-10 -33.5t-13 -22.5q-19 -1 -34 -0.5t-29.5 1.5t-31 2t-38.5 1q-16 0 -29 2t-13 10q0 2 0.5 4.5t0.5 4.5l58 168
q17 34 29 70.5t26 71.5q35 90 71 179.5t71 180.5q1 6 11 7t15 1h119zM368 230q11 0 24 0.5t23.5 1t17.5 2t7 4.5q0 7 -1 13.5t-4.5 16t-9.5 24t-16 37.5q-4 9 -6.5 16.5t-7.5 15.5l-13 31q-2 0 -12 -21t-21 -47.5t-20 -51t-9 -30.5q0 -8 7.5 -10t14.5 -2h26z" />
    <glyph glyph-name="amacron" unicode="&#x101;" 
d="M240 773q-2 0 -4 3.5t-4 6.5v72l5 7q34 1 63 1.5t53 0.5q43 0 76.5 -0.5t65.5 -0.5q11 0 20.5 -1t9.5 -5v-79q0 -1 -3 -4t-7 -3l-161 1l-7 -1zM451 693q3 0 11.5 -17t17.5 -38t16 -39.5t7 -21.5q21 -74 48.5 -144.5t57.5 -139.5t61 -137t60 -138q0 -15 -14 -18t-42 -3
q-3 0 -17.5 0.5t-33.5 1t-40 1t-37 0.5q-15 11 -20.5 22.5t-8 21.5t-4.5 18.5t-9 14.5t-22.5 9.5t-44.5 3.5l-125 -2q-2 0 -7 0.5t-10.5 0.5t-10.5 0.5t-6 0.5q-12 0 -18.5 -12t-11.5 -27.5l-10 -31t-13 -21.5q-19 -1 -34 -1.5t-29.5 -1t-31 -1t-38.5 -0.5q-16 0 -29 2
t-13 10q0 2 0.5 4.5t0.5 4.5l58 168q17 34 29 70.5t26 71.5q35 90 71 179.5t71 180.5q1 6 11 7t15 1h119zM369 393q-5 -16 -9 -31t-9 -30q-3 -9 -9 -21t-12 -24.5t-10.5 -25.5t-4.5 -23q0 -3 2 -7.5t9 -4.5h111q2 0 6 2.5t4 5.5l-43 115q-7 7 -8 15t-2.5 14.5t-6 10.5
t-18.5 4z" />
    <glyph glyph-name="Abreve" unicode="&#x102;" 
d="M535 905q0 -38 -15 -73t-44 -55l-4.5 -4.5t-4.5 -3.5q-19 -14 -42 -20t-46 -7h-2q-3 0 -3 1q-57 2 -98 37t-52 99q2 3 2 10q0 5 -1.5 8t-1.5 7l67 3l10 -1q0 -12 4 -25.5t13 -25.5t24.5 -20t38.5 -8q32 0 55.5 22t23.5 57q0 3 4 3h67q5 0 5 -4zM451 697q3 0 11.5 -17
t17.5 -38t16 -39.5t7 -21.5q54 -142 112 -280.5t115 -278.5q0 -15 -14 -18t-42 -3q-3 0 -17.5 0.5t-33.5 0.5t-40 0.5t-37 0.5q-9 22 -17 43t-26 43q-11 -1 -26.5 2t-39.5 3l-125 -2q-2 0 -7 0.5t-10.5 0.5t-10.5 0.5t-6 0.5q-12 0 -18.5 -13.5t-11.5 -30.5t-10 -33.5
t-13 -22.5q-19 -1 -34 -0.5t-29.5 1.5t-31 2t-38.5 1q-16 0 -29 2t-13 10q0 2 0.5 4.5t0.5 4.5l58 168q17 34 29 70.5t26 71.5q35 90 71 179.5t71 180.5q1 6 11 7t15 1h119zM368 230q11 0 24 0.5t23.5 1t17.5 2t7 4.5q0 7 -1 13.5t-4.5 16t-9.5 24t-16 37.5q-4 9 -6.5 16.5
t-7.5 15.5l-13 31q-2 0 -12 -21t-21 -47.5t-20 -51t-9 -30.5q0 -8 7.5 -10t14.5 -2h26z" />
    <glyph glyph-name="abreve" unicode="&#x103;" 
d="M535 905q0 -38 -15 -73t-44 -55l-4.5 -4.5t-4.5 -3.5q-19 -14 -42 -20t-46 -7h-2q-3 0 -3 1q-57 2 -98 37t-52 99q2 3 2 10q0 5 -1.5 8t-1.5 7l67 3l10 -1q0 -12 4 -25.5t13 -25.5t24.5 -20t38.5 -8q32 0 55.5 22t23.5 57q0 3 4 3h67q5 0 5 -4zM451 693q3 0 11.5 -17
t17.5 -38t16 -39.5t7 -21.5q21 -74 48.5 -144.5t57.5 -139.5t61 -137t60 -138q0 -15 -14 -18t-42 -3q-3 0 -17.5 0.5t-33.5 1t-40 1t-37 0.5q-15 11 -20.5 22.5t-8 21.5t-4.5 18.5t-9 14.5t-22.5 9.5t-44.5 3.5l-125 -2q-2 0 -7 0.5t-10.5 0.5t-10.5 0.5t-6 0.5
q-12 0 -18.5 -12t-11.5 -27.5l-10 -31t-13 -21.5q-19 -1 -34 -1.5t-29.5 -1t-31 -1t-38.5 -0.5q-16 0 -29 2t-13 10q0 2 0.5 4.5t0.5 4.5l58 168q17 34 29 70.5t26 71.5q35 90 71 179.5t71 180.5q1 6 11 7t15 1h119zM369 393q-5 -16 -9 -31t-9 -30q-3 -9 -9 -21t-12 -24.5
t-10.5 -25.5t-4.5 -23q0 -3 2 -7.5t9 -4.5h111q2 0 6 2.5t4 5.5l-43 115q-7 7 -8 15t-2.5 14.5t-6 10.5t-18.5 4z" />
    <glyph glyph-name="Aogonek" unicode="&#x104;" 
d="M503 581q54 -142 112 -280.5t115 -278.5q0 -15 -14 -18t-42 -3l-67 1q-17 -17 -33.5 -43t-16.5 -68q0 -12 6.5 -18t15.5 -9.5t19 -5.5t17 -4q1 -2 2.5 -4t1.5 -5v-53q0 -8 -5.5 -10.5t-7.5 -2.5q-72 0 -102.5 25.5t-30.5 72.5q0 32 9.5 51t20.5 35q1 2 5 4q7 12 15.5 22
t19.5 21q-8 20 -15.5 39.5t-24.5 39.5q-11 -1 -26.5 2t-39.5 3l-125 -2l-34 2q-12 0 -18.5 -13.5t-11.5 -30.5t-10 -33.5t-13 -22.5q-19 -1 -34 -0.5t-29.5 1.5t-31 2t-38.5 1q-16 0 -29 2t-13 10q0 2 0.5 4.5t0.5 4.5l58 168q17 34 29 70.5t26 71.5q35 90 71 179.5
t71 180.5q1 6 11 7t15 1h119q3 0 11.5 -17t17.5 -38t16 -39.5t7 -21.5zM368 230q11 0 24 0.5t23.5 1t17.5 2t7 4.5q0 7 -1 13.5t-4.5 16t-9.5 24t-16 37.5q-4 9 -6.5 16.5t-7.5 15.5l-13 31q-2 0 -12 -21t-21 -47.5t-20 -51t-9 -30.5q0 -8 7.5 -10t14.5 -2h26z" />
    <glyph glyph-name="aogonek" unicode="&#x105;" 
d="M503 577q21 -74 48.5 -144.5t57.5 -139.5t61 -137t60 -138q0 -15 -14 -18t-42 -3l-102 3q-16 -17 -31.5 -42.5t-15.5 -66.5q0 -12 6.5 -18t15.5 -9.5t19 -5.5t17 -4q1 -2 2.5 -4t1.5 -5v-53q0 -8 -5.5 -10.5t-7.5 -2.5q-72 0 -102.5 25.5t-30.5 72.5q0 32 9.5 51t20.5 35
q1 2 5 4q9 16 20.5 28t28.5 29q-8 13 -9 25t-6.5 21t-21 14.5t-51.5 5.5l-125 -2l-34 2q-12 0 -18.5 -12t-11.5 -27.5l-10 -31t-13 -21.5q-19 -1 -34 -1.5t-29.5 -1t-31 -1t-38.5 -0.5q-16 0 -29 2t-13 10q0 2 0.5 4.5t0.5 4.5l58 168q17 34 29 70.5t26 71.5q35 90 71 179.5
t71 180.5q1 6 11 7t15 1h119q3 0 11.5 -17t17.5 -38t16 -39.5t7 -21.5zM369 393q-5 -16 -9 -31t-9 -30q-3 -9 -9 -21t-12 -24.5t-10.5 -25.5t-4.5 -23q0 -3 2 -7.5t9 -4.5h111q2 0 6 2.5t4 5.5l-43 115q-7 7 -8 15t-2.5 14.5t-6 10.5t-18.5 4z" />
    <glyph glyph-name="Cacute" unicode="&#x106;" horiz-adv-x="703" 
d="M381 757q-8 0 -8 8q0 2 1 5t2 5l51 131q2 5 6 10.5t9 5.5h113q7 0 8.5 -5t1.5 -8q0 -4 -3.5 -10t-11.5 -17l-85 -115q-5 -6 -16.5 -8.5t-20.5 -2.5l-31 1h-16zM462 705h21t20 -2q9 -1 30 -6t42.5 -13t38 -18.5t16.5 -22.5q0 -8 -10 -30.5t-23 -46.5t-24 -42.5t-14 -18.5
q-21 9 -48.5 19.5t-62.5 10.5q-38 0 -72.5 -14.5t-60.5 -39.5t-41.5 -57t-15.5 -68q0 -31 9 -66.5t30 -66t56 -51t88 -20.5q34 0 56.5 5.5t37 11.5t23 11.5t14.5 5.5q5 0 7 -2q2 0 9 -9t15.5 -23t18 -30t18 -30.5t13.5 -25t5 -13.5q0 -9 -20 -21t-48 -23t-57.5 -18.5
t-48.5 -7.5q-11 -2 -19.5 -2.5t-16.5 -0.5q-72 0 -135 20t-112 58.5t-82 95t-45 128.5q0 1 -1.5 1t-1.5 1q0 3 3.5 6t3.5 6q0 11 -3.5 25.5t-3.5 31.5q0 82 36 155.5t104 121.5q1 0 3.5 -1t2.5 -3q0 8 6.5 13.5t10.5 7.5q51 36 109.5 47t118.5 11z" />
    <glyph glyph-name="cacute" unicode="&#x107;" horiz-adv-x="703" 
d="M411 757q-8 0 -8 8q0 2 1 5t2 5l51 131q2 5 6 10.5t9 5.5h113q7 0 8.5 -5t1.5 -8q0 -4 -3.5 -10t-11.5 -17l-85 -115q-5 -6 -16.5 -8.5t-20.5 -2.5l-31 1h-16zM448 709h16.5t19.5 -2q9 -1 33.5 -6t50 -12.5t45 -16.5t19.5 -18q0 -4 -10 -25.5t-23 -45.5t-25 -44t-15 -20
q-2 -1 -7 -1q-10 0 -16.5 4.5t-13.5 8.5q-17 8 -40 9.5t-41 1.5q-53 0 -88 -20.5t-56 -54.5t-30 -78t-9 -90q19 -31 37 -56.5t39.5 -43.5t48.5 -27.5t65 -9.5q35 0 64.5 11t62.5 27q3 0 16 -19t28 -42.5t27 -45t12 -26.5q0 -13 -20.5 -25.5t-47.5 -23t-52.5 -17t-34.5 -7.5
q-10 -2 -20 -2.5t-21 -0.5q-60 0 -118.5 11.5t-109.5 46.5q-4 3 -10.5 8t-6.5 13q0 -1 -2.5 -2t-3.5 -1q-68 47 -104 121t-36 156q0 17 3.5 31.5t3.5 25.5q0 2 -3.5 5.5t-3.5 5.5q0 1 1.5 1t1.5 2q12 72 45 127t82 92t112 56t135 19z" />
    <glyph glyph-name="Cdotaccent" unicode="&#x10a;" horiz-adv-x="703" 
d="M360 901q19 0 34.5 -3t31.5 -3q14 0 24 1.5t17 1.5q10 0 16 -5v-63.5t-0.5 -40.5t-1 -21t-1.5 -6l-115 -1l-20 2v97q0 26 3 33.5t12 7.5zM462 705h21t20 -2q9 -1 30 -6t42.5 -13t38 -18.5t16.5 -22.5q0 -8 -10 -30.5t-23 -46.5t-24 -42.5t-14 -18.5q-21 9 -48.5 19.5
t-62.5 10.5q-38 0 -72.5 -14.5t-60.5 -39.5t-41.5 -57t-15.5 -68q0 -31 9 -66.5t30 -66t56 -51t88 -20.5q34 0 56.5 5.5t37 11.5t23 11.5t14.5 5.5q5 0 7 -2q2 0 9 -9t15.5 -23t18 -30t18 -30.5t13.5 -25t5 -13.5q0 -9 -20 -21t-48 -23t-57.5 -18.5t-48.5 -7.5
q-11 -2 -19.5 -2.5t-16.5 -0.5q-72 0 -135 20t-112 58.5t-82 95t-45 128.5q0 1 -1.5 1t-1.5 1q0 3 3.5 6t3.5 6q0 11 -3.5 25.5t-3.5 31.5q0 82 36 155.5t104 121.5q1 0 3.5 -1t2.5 -3q0 8 6.5 13.5t10.5 7.5q51 36 109.5 47t118.5 11z" />
    <glyph glyph-name="cdotaccent" unicode="&#x10b;" horiz-adv-x="703" 
d="M390 901q19 0 34.5 -3t31.5 -3q14 0 24 1.5t17 1.5q10 0 16 -5v-63.5t-0.5 -40.5t-1 -21t-1.5 -6l-115 -1l-20 2v97q0 26 3 33.5t12 7.5zM448 709h16.5t19.5 -2q9 -1 33.5 -6t50 -12.5t45 -16.5t19.5 -18q0 -4 -10 -25.5t-23 -45.5t-25 -44t-15 -20q-2 -1 -7 -1
q-10 0 -16.5 4.5t-13.5 8.5q-17 8 -40 9.5t-41 1.5q-53 0 -88 -20.5t-56 -54.5t-30 -78t-9 -90q19 -31 37 -56.5t39.5 -43.5t48.5 -27.5t65 -9.5q35 0 64.5 11t62.5 27q3 0 16 -19t28 -42.5t27 -45t12 -26.5q0 -13 -20.5 -25.5t-47.5 -23t-52.5 -17t-34.5 -7.5
q-10 -2 -20 -2.5t-21 -0.5q-60 0 -118.5 11.5t-109.5 46.5q-4 3 -10.5 8t-6.5 13q0 -1 -2.5 -2t-3.5 -1q-68 47 -104 121t-36 156q0 17 3.5 31.5t3.5 25.5q0 2 -3.5 5.5t-3.5 5.5q0 1 1.5 1t1.5 2q12 72 45 127t82 92t112 56t135 19z" />
    <glyph glyph-name="Ccaron" unicode="&#x10c;" horiz-adv-x="703" 
d="M256 908q-2 4 -2 6q0 7 9 7h12t20 0.5t23 0.5h21q7 0 10.5 -2.5t10.5 -8.5l57 -57l55 57q11 11 19 11q20 0 38 -0.5t39 -0.5q9 0 9 -7q0 -4 -4 -10l-94 -132q-3 -5 -6.5 -10.5t-8.5 -5.5h-83q-6 0 -10.5 2t-11 8.5t-16 19t-23.5 32.5zM579 184q2 0 9 -9t15.5 -23t18 -30
t18 -30.5t13.5 -25t5 -13.5q0 -9 -20 -21t-48 -23t-57.5 -18.5t-48.5 -7.5q-11 -2 -19.5 -2.5t-16.5 -0.5q-72 0 -135 20t-112 58.5t-82 95t-45 128.5q0 1 -1.5 1t-1.5 1q0 3 3.5 6t3.5 6q0 11 -3.5 25.5t-3.5 31.5q0 82 36 155.5t104 121.5q1 0 3.5 -1t2.5 -3q0 8 6.5 13.5
t10.5 7.5q51 36 109.5 47t118.5 11h21t20 -2q9 -1 30 -6t42.5 -13t38 -18.5t16.5 -22.5q0 -8 -10 -30.5t-23 -46.5t-24 -42.5t-14 -18.5q-21 9 -48.5 19.5t-62.5 10.5q-38 0 -72.5 -14.5t-60.5 -39.5t-41.5 -57t-15.5 -68q0 -31 9 -66.5t30 -66t56 -51t88 -20.5
q34 0 56.5 5.5t37 11.5t23 11.5t14.5 5.5q5 0 7 -2z" />
    <glyph glyph-name="ccaron" unicode="&#x10d;" horiz-adv-x="703" 
d="M286 908q-2 4 -2 6q0 7 9 7h12t20 0.5t23 0.5h21q7 0 10.5 -2.5t10.5 -8.5l57 -57l55 57q11 11 19 11q20 0 38 -0.5t39 -0.5q9 0 9 -7q0 -4 -4 -10l-94 -132q-3 -5 -6.5 -10.5t-8.5 -5.5h-83q-6 0 -10.5 2t-11 8.5t-16 19t-23.5 32.5zM575 200q3 0 16 -19t28 -42.5
t27 -45t12 -26.5q0 -13 -20.5 -25.5t-47.5 -23t-52.5 -17t-34.5 -7.5q-10 -2 -20 -2.5t-21 -0.5q-60 0 -118.5 11.5t-109.5 46.5q-4 3 -10.5 8t-6.5 13q0 -1 -2.5 -2t-3.5 -1q-68 47 -104 121t-36 156q0 17 3.5 31.5t3.5 25.5q0 2 -3.5 5.5t-3.5 5.5q0 1 1.5 1t1.5 2
q12 72 45 127t82 92t112 56t135 19h16.5t19.5 -2q9 -1 33.5 -6t50 -12.5t45 -16.5t19.5 -18q0 -4 -10 -25.5t-23 -45.5t-25 -44t-15 -20q-2 -1 -7 -1q-10 0 -16.5 4.5t-13.5 8.5q-17 8 -40 9.5t-41 1.5q-53 0 -88 -20.5t-56 -54.5t-30 -78t-9 -90q19 -31 37 -56.5
t39.5 -43.5t48.5 -27.5t65 -9.5q35 0 64.5 11t62.5 27z" />
    <glyph glyph-name="Dcaron" unicode="&#x10e;" horiz-adv-x="761" 
d="M153 898q-2 4 -2 6q0 7 9 7h12t20 0.5t23 0.5h21q7 0 10.5 -2.5t10.5 -8.5l57 -57l55 57q11 11 19 11q20 0 38 -0.5t39 -0.5q9 0 9 -7q0 -4 -4 -10l-94 -132q-3 -5 -6.5 -10.5t-8.5 -5.5h-83q-6 0 -10.5 2t-11 8.5t-16 19t-23.5 32.5zM643 518q47 -82 47 -174
q0 -63 -19.5 -121t-55.5 -104.5t-87.5 -78.5t-116.5 -42q-42 -7 -84.5 -8t-77.5 -1h-51l-76 -1l-16 1l-4 4l-2 185l2 16l-1 10v467q0 9 7.5 14t17.5 7t20 2.5t15 0.5q58 0 119 -2t119 -13.5t110.5 -36t93.5 -69.5q15 -18 24 -30.5t16 -25.5zM306 172q42 0 77.5 8.5t61.5 28
t41 52t15 80.5q0 20 -1.5 35t-5.5 27.5t-10 24t-15 25.5q-17 22 -39 34t-45 23q-1 2 -2 3t-1 2q-1 -3 -5 -3q-20 0 -41 3.5t-43 3.5q-9 0 -9 -13q0 -84 1 -164t1 -163l4 -6z" />
    <glyph glyph-name="dcaron" unicode="&#x10f;" horiz-adv-x="761" 
d="M153 898q-2 4 -2 6q0 7 9 7h12t20 0.5t23 0.5h21q7 0 10.5 -2.5t10.5 -8.5l57 -57l55 57q11 11 19 11q20 0 38 -0.5t39 -0.5q9 0 9 -7q0 -4 -4 -10l-94 -132q-3 -5 -6.5 -10.5t-8.5 -5.5h-83q-6 0 -10.5 2t-11 8.5t-16 19t-23.5 32.5zM643 518q47 -82 47 -174
q0 -63 -19.5 -121t-55.5 -104.5t-87.5 -78.5t-116.5 -42q-42 -7 -84.5 -8t-77.5 -1h-51l-76 -1l-16 1l-4 4l-2 185l2 16l-1 10v467q0 9 7.5 14t17.5 7t20 2.5t15 0.5q58 0 119 -2t119 -13.5t110.5 -36t93.5 -69.5q15 -18 24 -30.5t16 -25.5zM306 172q42 0 77.5 8.5t61.5 28
t41 52t15 80.5q0 20 -1.5 35t-5.5 27.5t-10 24t-15 25.5q-17 22 -39 34t-45 23q-1 2 -2 3t-1 2q-1 -3 -5 -3q-20 0 -41 3.5t-43 3.5q-9 0 -9 -13q0 -84 1 -164t1 -163l4 -6z" />
    <glyph glyph-name="Dcroat" unicode="&#x110;" horiz-adv-x="813" 
d="M213 705q58 0 119 -2t119 -13.5t110.5 -36t93.5 -69.5q15 -18 24 -30.5t16 -25.5q47 -82 47 -174q0 -63 -19.5 -121t-55.5 -104.5t-87.5 -78.5t-116.5 -42q-42 -7 -84.5 -8t-77.5 -1h-51l-76 -1l-16 1l-4 4l-2 185l2 16l-1 10v92l-45 1q-2 0 -4 3.5t-4 6.5v72l5 7l48 1
v284q0 9 7.5 14t17.5 7t20 2.5t15 0.5zM345 529q-9 0 -9 -13v-59t1 -58h6.5t13 -0.5t15 -0.5h13.5q8 0 8 -7v-77q0 -2 -2 -5.5t-8 -3.5q-13 0 -26 0.5t-20 0.5q1 -28 1 -58v-59l4 -6l16 -1q42 0 77.5 8.5t61.5 28t41 52t15 80.5q0 20 -1.5 35t-5.5 27.5t-10 24t-15 25.5
q-17 22 -39 34t-45 23q-1 2 -2 3t-1 2q-1 -3 -5 -3q-20 0 -41 3.5t-43 3.5z" />
    <glyph glyph-name="dcroat" unicode="&#x111;" horiz-adv-x="813" 
d="M213 705q58 0 119 -2t119 -13.5t110.5 -36t93.5 -69.5q15 -18 24 -30.5t16 -25.5q47 -82 47 -174q0 -63 -19.5 -121t-55.5 -104.5t-87.5 -78.5t-116.5 -42q-42 -7 -84.5 -8t-77.5 -1h-51l-76 -1l-16 1l-4 4l-2 185l2 16l-1 10v92l-45 1q-2 0 -4 3.5t-4 6.5v72l5 7l48 1
v284q0 9 7.5 14t17.5 7t20 2.5t15 0.5zM345 529q-9 0 -9 -13v-59t1 -58h6.5t13 -0.5t15 -0.5h13.5q8 0 8 -7v-77q0 -2 -2 -5.5t-8 -3.5q-13 0 -26 0.5t-20 0.5q1 -28 1 -58v-59l4 -6l16 -1q42 0 77.5 8.5t61.5 28t41 52t15 80.5q0 20 -1.5 35t-5.5 27.5t-10 24t-15 25.5
q-17 22 -39 34t-45 23q-1 2 -2 3t-1 2q-1 -3 -5 -3q-20 0 -41 3.5t-43 3.5z" />
    <glyph glyph-name="Emacron" unicode="&#x112;" horiz-adv-x="613" 
d="M164 773q-2 0 -4 3.5t-4 6.5v72l5 7q34 1 63 1.5t53 0.5q43 0 76.5 -0.5t65.5 -0.5q11 0 20.5 -1t9.5 -5v-79q0 -1 -3 -4t-7 -3l-161 1l-7 -1zM484 424q4 0 7.5 -6.5t3.5 -9.5q0 -10 -0.5 -25.5t-1 -33.5l-1 -36t-0.5 -33l-8 -6h-55t-55.5 -0.5t-48 -1t-31.5 -1.5
q-6 -2 -7.5 -9.5t-1.5 -20.5t0.5 -39.5t0.5 -48.5q3 -5 30.5 -7t63.5 -2.5t72 -0.5t55 -3q6 -4 7.5 -11.5t1.5 -18.5q0 -22 -1.5 -43t-1.5 -43q0 -13 -6 -20t-16.5 -10.5t-25.5 -4t-32 -0.5q-74 0 -141 1.5t-137 1.5q-3 0 -8 -0.5t-13 -0.5q-11 0 -20.5 3t-12.5 12
q0 27 -0.5 50.5t-0.5 43.5q0 11 1 23.5t6 22.5q0 3 -4 3q0 34 -1 67.5t-1 69.5q0 23 0.5 58.5t1 75t1.5 80t1.5 75t1 59t0.5 32.5q0 5 -1 8.5t-1 8.5l10 8q43 0 86.5 2t87.5 2q18 0 43.5 -0.5t52.5 -0.5q45 0 79.5 -1.5t39.5 -6.5l3 -24q0 -5 -0.5 -19t-1 -30t-1 -30
t-0.5 -20q0 -18 -32 -21.5t-94 -3.5q-11 0 -21.5 0.5t-20.5 0.5l-47 -1q0 -18 -2 -37.5t-2 -44.5q0 -2 -0.5 -2.5t-0.5 -1.5q0 -10 2.5 -19t13.5 -9h184z" />
    <glyph glyph-name="emacron" unicode="&#x113;" horiz-adv-x="613" 
d="M164 773q-2 0 -4 3.5t-4 6.5v72l5 7q34 1 63 1.5t53 0.5q43 0 76.5 -0.5t65.5 -0.5q11 0 20.5 -1t9.5 -5v-79q0 -1 -3 -4t-7 -3l-161 1l-7 -1zM423 696q35 0 57.5 -4.5t22.5 -29.5q0 -22 2 -43t2 -43q0 -11 -1.5 -19t-8.5 -11q-19 -3 -53.5 -3t-68.5 -0.5t-60 -2.5
t-29 -7q0 -22 -0.5 -41.5t-0.5 -31.5q0 -14 1.5 -21t7.5 -9q10 -2 31.5 -2.5t48 -1t55.5 -0.5h55l8 -6q0 -15 0.5 -33t1 -35.5t1 -33t0.5 -25.5q0 -4 -3.5 -10t-7.5 -6h-184q-11 0 -13.5 -9.5t-2.5 -18.5q0 -6 0.5 -12t0.5 -8q0 -12 0.5 -26.5t3 -26.5t6.5 -20t11 -8
q5 0 12.5 -0.5t17.5 -0.5t20.5 0.5t21.5 0.5q62 0 98.5 -3.5t36.5 -22.5q0 -6 0.5 -20t0.5 -29.5t0.5 -29.5t0.5 -19l-2 -25q-3 -3 -14.5 -4.5t-29.5 -2t-40 -1t-44 -0.5q-27 0 -52.5 -0.5t-43.5 -0.5q-44 0 -87.5 2.5t-86.5 2.5l-10 8q0 5 1 8t1 8q0 8 -0.5 32.5t-1 59
t-1.5 75t-1.5 80.5t-1 75t-0.5 58q0 36 1 69.5t1 67.5q4 0 4 4q-5 10 -6 22t-1 23q0 20 0.5 43.5t0.5 50.5q3 10 12.5 12.5t20.5 2.5q8 0 13 -0.5t8 -0.5q70 0 132.5 1.5t135.5 1.5z" />
    <glyph glyph-name="Edotaccent" unicode="&#x116;" horiz-adv-x="613" 
d="M248 891q19 0 34.5 -3t31.5 -3q14 0 24 1.5t17 1.5q10 0 16 -5v-63.5t-0.5 -40.5t-1 -21t-1.5 -6l-115 -1l-20 2v97q0 26 3 33.5t12 7.5zM484 424q4 0 7.5 -6.5t3.5 -9.5q0 -10 -0.5 -25.5t-1 -33.5l-1 -36t-0.5 -33l-8 -6h-55t-55.5 -0.5t-48 -1t-31.5 -1.5
q-6 -2 -7.5 -9.5t-1.5 -20.5t0.5 -39.5t0.5 -48.5q3 -5 30.5 -7t63.5 -2.5t72 -0.5t55 -3q6 -4 7.5 -11.5t1.5 -18.5q0 -22 -1.5 -43t-1.5 -43q0 -13 -6 -20t-16.5 -10.5t-25.5 -4t-32 -0.5q-74 0 -141 1.5t-137 1.5q-3 0 -8 -0.5t-13 -0.5q-11 0 -20.5 3t-12.5 12
q0 27 -0.5 50.5t-0.5 43.5q0 11 1 23.5t6 22.5q0 3 -4 3q0 34 -1 67.5t-1 69.5q0 23 0.5 58.5t1 75t1.5 80t1.5 75t1 59t0.5 32.5q0 5 -1 8.5t-1 8.5l10 8q43 0 86.5 2t87.5 2q18 0 43.5 -0.5t52.5 -0.5q45 0 79.5 -1.5t39.5 -6.5l3 -24q0 -5 -0.5 -19t-1 -30t-1 -30
t-0.5 -20q0 -18 -32 -21.5t-94 -3.5q-11 0 -21.5 0.5t-20.5 0.5l-47 -1q0 -18 -2 -37.5t-2 -44.5q0 -2 -0.5 -2.5t-0.5 -1.5q0 -10 2.5 -19t13.5 -9h184z" />
    <glyph glyph-name="edotaccent" unicode="&#x117;" horiz-adv-x="613" 
d="M248 891q19 0 34.5 -3t31.5 -3q14 0 24 1.5t17 1.5q10 0 16 -5v-63.5t-0.5 -40.5t-1 -21t-1.5 -6l-115 -1l-20 2v97q0 26 3 33.5t12 7.5zM423 696q35 0 57.5 -4.5t22.5 -29.5q0 -22 2 -43t2 -43q0 -11 -1.5 -19t-8.5 -11q-19 -3 -53.5 -3t-68.5 -0.5t-60 -2.5t-29 -7
q0 -22 -0.5 -41.5t-0.5 -31.5q0 -14 1.5 -21t7.5 -9q10 -2 31.5 -2.5t48 -1t55.5 -0.5h55l8 -6q0 -15 0.5 -33t1 -35.5t1 -33t0.5 -25.5q0 -4 -3.5 -10t-7.5 -6h-184q-11 0 -13.5 -9.5t-2.5 -18.5q0 -6 0.5 -12t0.5 -8q0 -12 0.5 -26.5t3 -26.5t6.5 -20t11 -8q5 0 12.5 -0.5
t17.5 -0.5t20.5 0.5t21.5 0.5q62 0 98.5 -3.5t36.5 -22.5q0 -6 0.5 -20t0.5 -29.5t0.5 -29.5t0.5 -19l-2 -25q-3 -3 -14.5 -4.5t-29.5 -2t-40 -1t-44 -0.5q-27 0 -52.5 -0.5t-43.5 -0.5q-44 0 -87.5 2.5t-86.5 2.5l-10 8q0 5 1 8t1 8q0 8 -0.5 32.5t-1 59t-1.5 75t-1.5 80.5
t-1 75t-0.5 58q0 36 1 69.5t1 67.5q4 0 4 4q-5 10 -6 22t-1 23q0 20 0.5 43.5t0.5 50.5q3 10 12.5 12.5t20.5 2.5q8 0 13 -0.5t8 -0.5q70 0 132.5 1.5t135.5 1.5z" />
    <glyph glyph-name="Eogonek" unicode="&#x118;" horiz-adv-x="613" 
d="M507 140q6 -4 7.5 -11.5t1.5 -18.5q0 -22 -1.5 -43t-1.5 -43q0 -16 -8 -23.5t-20 -15.5q-18 -12 -31 -35.5t-13 -58.5q0 -12 6.5 -18t15.5 -9.5t19 -5.5t17 -4q1 -2 2.5 -4t1.5 -5v-53q0 -8 -5.5 -10.5t-7.5 -2.5q-72 0 -102.5 25.5t-30.5 72.5q0 32 9.5 51t20.5 35
q1 2 5 4q4 6 7 11.5t8 10.5q-66 1 -127 2t-125 1q-3 0 -8 -0.5t-13 -0.5q-11 0 -20.5 3t-12.5 12q0 27 -0.5 50.5t-0.5 43.5q0 11 1 23.5t6 22.5q0 3 -4 3q0 34 -1 67.5t-1 69.5q0 23 0.5 58.5t1 75t1.5 80t1.5 75t1 59t0.5 32.5q0 5 -1 8.5t-1 8.5l10 8q43 0 86.5 2t87.5 2
q18 0 43.5 -0.5t52.5 -0.5q45 0 79.5 -1.5t39.5 -6.5l3 -24q0 -5 -0.5 -19t-1 -30t-1 -30t-0.5 -20q0 -18 -32 -21.5t-94 -3.5q-11 0 -21.5 0.5t-20.5 0.5l-47 -1q0 -18 -2 -37.5t-2 -44.5q0 -2 -0.5 -2.5t-0.5 -1.5q0 -10 2.5 -19t13.5 -9h184q4 0 7.5 -6.5t3.5 -9.5
q0 -10 -0.5 -25.5t-1 -33.5l-1 -36t-0.5 -33l-8 -6h-55t-55.5 -0.5t-48 -1t-31.5 -1.5q-6 -2 -7.5 -9.5t-1.5 -20.5t0.5 -39.5t0.5 -48.5q3 -5 30.5 -7t63.5 -2.5t72 -0.5t55 -3z" />
    <glyph glyph-name="eogonek" unicode="&#x119;" horiz-adv-x="613" 
d="M507 140q6 -4 7.5 -11.5t1.5 -18.5q0 -22 -1.5 -43t-1.5 -43q0 -16 -8 -23.5t-20 -15.5q-18 -12 -31 -35.5t-13 -58.5q0 -12 6.5 -18t15.5 -9.5t19 -5.5t17 -4q1 -2 2.5 -4t1.5 -5v-53q0 -8 -5.5 -10.5t-7.5 -2.5q-72 0 -102.5 25.5t-30.5 72.5q0 32 9.5 51t20.5 35
q1 2 5 4q4 6 7 11.5t8 10.5q-66 1 -127 2t-125 1q-3 0 -8 -0.5t-13 -0.5q-11 0 -20.5 3t-12.5 12q0 27 -0.5 50.5t-0.5 43.5q0 11 1 23.5t6 22.5q0 3 -4 3q0 34 -1 67.5t-1 69.5q0 23 0.5 58.5t1 75t1.5 80t1.5 75t1 59t0.5 32.5q0 5 -1 8.5t-1 8.5l10 8q43 0 86.5 2t87.5 2
q18 0 43.5 -0.5t52.5 -0.5q45 0 79.5 -1.5t39.5 -6.5l3 -24q0 -5 -0.5 -19t-1 -30t-1 -30t-0.5 -20q0 -18 -32 -21.5t-94 -3.5q-11 0 -21.5 0.5t-20.5 0.5l-47 -1q0 -18 -2 -37.5t-2 -44.5q0 -2 -0.5 -2.5t-0.5 -1.5q0 -10 2.5 -19t13.5 -9h184q4 0 7.5 -6.5t3.5 -9.5
q0 -10 -0.5 -25.5t-1 -33.5l-1 -36t-0.5 -33l-8 -6h-55t-55.5 -0.5t-48 -1t-31.5 -1.5q-6 -2 -7.5 -9.5t-1.5 -20.5t0.5 -39.5t0.5 -48.5q3 -5 30.5 -7t63.5 -2.5t72 -0.5t55 -3z" />
    <glyph glyph-name="Ecaron" unicode="&#x11a;" horiz-adv-x="613" 
d="M144 898q-2 4 -2 6q0 7 9 7h12t20 0.5t23 0.5h21q7 0 10.5 -2.5t10.5 -8.5l57 -57l55 57q11 11 19 11q20 0 38 -0.5t39 -0.5q9 0 9 -7q0 -4 -4 -10l-94 -132q-3 -5 -6.5 -10.5t-8.5 -5.5h-83q-6 0 -10.5 2t-11 8.5t-16 19t-23.5 32.5zM507 140q6 -4 7.5 -11.5t1.5 -18.5
q0 -22 -1.5 -43t-1.5 -43q0 -13 -6 -20t-16.5 -10.5t-25.5 -4t-32 -0.5q-74 0 -141 1.5t-137 1.5q-3 0 -8 -0.5t-13 -0.5q-11 0 -20.5 3t-12.5 12q0 27 -0.5 50.5t-0.5 43.5q0 11 1 23.5t6 22.5q0 3 -4 3q0 34 -1 67.5t-1 69.5q0 23 0.5 58.5t1 75t1.5 80t1.5 75t1 59
t0.5 32.5q0 5 -1 8.5t-1 8.5l10 8q43 0 86.5 2t87.5 2q18 0 43.5 -0.5t52.5 -0.5q45 0 79.5 -1.5t39.5 -6.5l3 -24q0 -5 -0.5 -19t-1 -30t-1 -30t-0.5 -20q0 -18 -32 -21.5t-94 -3.5q-11 0 -21.5 0.5t-20.5 0.5l-47 -1q0 -18 -2 -37.5t-2 -44.5q0 -2 -0.5 -2.5t-0.5 -1.5
q0 -10 2.5 -19t13.5 -9h184q4 0 7.5 -6.5t3.5 -9.5q0 -10 -0.5 -25.5t-1 -33.5l-1 -36t-0.5 -33l-8 -6h-55t-55.5 -0.5t-48 -1t-31.5 -1.5q-6 -2 -7.5 -9.5t-1.5 -20.5t0.5 -39.5t0.5 -48.5q3 -5 30.5 -7t63.5 -2.5t72 -0.5t55 -3z" />
    <glyph glyph-name="ecaron" unicode="&#x11b;" horiz-adv-x="613" 
d="M144 898q-2 4 -2 6q0 7 9 7h12t20 0.5t23 0.5h21q7 0 10.5 -2.5t10.5 -8.5l57 -57l55 57q11 11 19 11q20 0 38 -0.5t39 -0.5q9 0 9 -7q0 -4 -4 -10l-94 -132q-3 -5 -6.5 -10.5t-8.5 -5.5h-83q-6 0 -10.5 2t-11 8.5t-16 19t-23.5 32.5zM513 122q0 -6 0.5 -20t0.5 -29.5
t0.5 -29.5t0.5 -19l-2 -25q-3 -3 -14.5 -4.5t-29.5 -2t-40 -1t-44 -0.5q-27 0 -52.5 -0.5t-43.5 -0.5q-44 0 -87.5 2.5t-86.5 2.5l-10 8q0 5 1 8t1 8q0 8 -0.5 32.5t-1 59t-1.5 75t-1.5 80.5t-1 75t-0.5 58q0 36 1 69.5t1 67.5q4 0 4 4q-5 10 -6 22t-1 23q0 20 0.5 43.5
t0.5 50.5q3 10 12.5 12.5t20.5 2.5q8 0 13 -0.5t8 -0.5q70 0 132.5 1.5t135.5 1.5q35 0 57.5 -4.5t22.5 -29.5q0 -22 2 -43t2 -43q0 -11 -1.5 -19t-8.5 -11q-19 -3 -53.5 -3t-68.5 -0.5t-60 -2.5t-29 -7q0 -22 -0.5 -41.5t-0.5 -31.5q0 -14 1.5 -21t7.5 -9q10 -2 31.5 -2.5
t48 -1t55.5 -0.5h55l8 -6q0 -15 0.5 -33t1 -35.5t1 -33t0.5 -25.5q0 -4 -3.5 -10t-7.5 -6h-184q-11 0 -13.5 -9.5t-2.5 -18.5q0 -6 0.5 -12t0.5 -8q0 -12 0.5 -26.5t3 -26.5t6.5 -20t11 -8q5 0 12.5 -0.5t17.5 -0.5t20.5 0.5t21.5 0.5q62 0 98.5 -3.5t36.5 -22.5z" />
    <glyph glyph-name="Gbreve" unicode="&#x11e;" horiz-adv-x="827" 
d="M568 915q0 -38 -15 -73t-44 -55l-4.5 -4.5t-4.5 -3.5q-19 -14 -42 -20t-46 -7h-2q-3 0 -3 1q-57 2 -98 37t-52 99q2 3 2 10q0 5 -1.5 8t-1.5 7l67 3l10 -1q0 -12 4 -25.5t13 -25.5t24.5 -20t38.5 -8q32 0 55.5 22t23.5 57q0 3 4 3h67q5 0 5 -4zM423 704q64 0 118 -16.5
t114 -53.5q9 -6 9 -16q0 -5 -1 -7.5t-5 -8.5l-69 -110q-4 -5 -5.5 -5.5t-6.5 -0.5q-11 0 -22 8t-22 13q-26 9 -49 15.5t-51 6.5q-41 0 -74.5 -13.5t-57 -38.5t-36.5 -59.5t-13 -76.5q0 -35 12.5 -67.5t35 -57.5t53.5 -40t67 -15q42 0 71.5 12.5t56.5 43.5q6 7 15 25.5
t9 28.5q-9 0 -21 1.5t-29 1.5q-28 0 -40 4q0 8 -1 27t-1 51q0 6 0.5 15.5t1 18t1.5 14.5l1 6l6 10q2 0 11 0.5t19.5 1t20 0.5h13.5q52 0 105.5 -3t107.5 -3q6 -3 8 -10t2 -15q0 -90 -23 -165.5t-68.5 -130t-113 -85.5t-157.5 -31q-10 0 -20.5 0.5t-18.5 3.5q-3 1 -8 1
q-25 0 -52.5 11t-49.5 21q-31 13 -60 37t-53 53t-42.5 62t-27.5 66q-8 27 -10 54t-2 55q0 76 26.5 142t73 114.5t111 76.5t141.5 28z" />
    <glyph glyph-name="gbreve" unicode="&#x11f;" horiz-adv-x="827" 
d="M580 915q0 -38 -15 -73t-44 -55l-4.5 -4.5t-4.5 -3.5q-19 -14 -42 -20t-46 -7h-2q-3 0 -3 1q-57 2 -98 37t-52 99q2 3 2 10q0 5 -1.5 8t-1.5 7l67 3l10 -1q0 -12 4 -25.5t13 -25.5t24.5 -20t38.5 -8q32 0 55.5 22t23.5 57q0 3 4 3h67q5 0 5 -4zM423 703q64 0 118 -16.5
t114 -53.5q9 -6 9 -16q0 -5 -1 -7.5t-5 -8.5l-69 -110q-4 -5 -5.5 -5.5t-6.5 -0.5q-11 0 -22 8t-22 13q-26 9 -49 15.5t-51 6.5q-38 0 -71 -15.5t-57.5 -41t-38.5 -60t-14 -71.5q0 -35 12.5 -67.5t35 -57.5t53.5 -40t67 -15q42 0 71.5 12.5t56.5 43.5q6 7 14 22.5t10 31.5
q-6 0 -19.5 1.5t-30.5 1.5q-16 0 -24.5 2t-12.5 10t-4.5 24.5t-0.5 45.5q0 6 0.5 15.5t1 18t1.5 14.5l1 6l6 10q2 0 11 0.5t19.5 1t20 0.5h13.5q52 0 105.5 -3t107.5 -3q6 -3 8 -10t2 -15q0 -90 -23 -165.5t-68.5 -130t-113 -85.5t-157.5 -31q-10 0 -25 1t-16 7q-1 -3 -6 -3
q-25 0 -52.5 11t-49.5 21q-31 13 -60 37t-53 53t-42.5 62t-27.5 66q-8 27 -10 54t-2 55q0 76 26.5 142t73 114.5t111 76.5t141.5 28z" />
    <glyph glyph-name="Gdotaccent" unicode="&#x120;" horiz-adv-x="827" 
d="M357 901q19 0 34.5 -3t31.5 -3q14 0 24 1.5t17 1.5q10 0 16 -5v-63.5t-0.5 -40.5t-1 -21t-1.5 -6l-115 -1l-20 2v97q0 26 3 33.5t12 7.5zM423 704q64 0 118 -16.5t114 -53.5q9 -6 9 -16q0 -5 -1 -7.5t-5 -8.5l-69 -110q-4 -5 -5.5 -5.5t-6.5 -0.5q-11 0 -22 8t-22 13
q-26 9 -49 15.5t-51 6.5q-41 0 -74.5 -13.5t-57 -38.5t-36.5 -59.5t-13 -76.5q0 -35 12.5 -67.5t35 -57.5t53.5 -40t67 -15q42 0 71.5 12.5t56.5 43.5q6 7 15 25.5t9 28.5q-9 0 -21 1.5t-29 1.5q-28 0 -40 4q0 8 -1 27t-1 51q0 6 0.5 15.5t1 18t1.5 14.5l1 6l6 10
q2 0 11 0.5t19.5 1t20 0.5h13.5q52 0 105.5 -3t107.5 -3q6 -3 8 -10t2 -15q0 -90 -23 -165.5t-68.5 -130t-113 -85.5t-157.5 -31q-10 0 -20.5 0.5t-18.5 3.5q-3 1 -8 1q-25 0 -52.5 11t-49.5 21q-31 13 -60 37t-53 53t-42.5 62t-27.5 66q-8 27 -10 54t-2 55q0 76 26.5 142
t73 114.5t111 76.5t141.5 28z" />
    <glyph glyph-name="gdotaccent" unicode="&#x121;" horiz-adv-x="827" 
d="M369 901q19 0 34.5 -3t31.5 -3q14 0 24 1.5t17 1.5q10 0 16 -5v-63.5t-0.5 -40.5t-1 -21t-1.5 -6l-115 -1l-20 2v97q0 26 3 33.5t12 7.5zM423 703q64 0 118 -16.5t114 -53.5q9 -6 9 -16q0 -5 -1 -7.5t-5 -8.5l-69 -110q-4 -5 -5.5 -5.5t-6.5 -0.5q-11 0 -22 8t-22 13
q-26 9 -49 15.5t-51 6.5q-38 0 -71 -15.5t-57.5 -41t-38.5 -60t-14 -71.5q0 -35 12.5 -67.5t35 -57.5t53.5 -40t67 -15q42 0 71.5 12.5t56.5 43.5q6 7 14 22.5t10 31.5q-6 0 -19.5 1.5t-30.5 1.5q-16 0 -24.5 2t-12.5 10t-4.5 24.5t-0.5 45.5q0 6 0.5 15.5t1 18t1.5 14.5
l1 6l6 10q2 0 11 0.5t19.5 1t20 0.5h13.5q52 0 105.5 -3t107.5 -3q6 -3 8 -10t2 -15q0 -90 -23 -165.5t-68.5 -130t-113 -85.5t-157.5 -31q-10 0 -25 1t-16 7q-1 -3 -6 -3q-25 0 -52.5 11t-49.5 21q-31 13 -60 37t-53 53t-42.5 62t-27.5 66q-8 27 -10 54t-2 55
q0 76 26.5 142t73 114.5t111 76.5t141.5 28z" />
    <glyph glyph-name="uni0122" unicode="&#x122;" horiz-adv-x="827" 
d="M423 704q64 0 118 -16.5t114 -53.5q9 -6 9 -16q0 -5 -1 -7.5t-5 -8.5l-69 -110q-4 -5 -5.5 -5.5t-6.5 -0.5q-11 0 -22 8t-22 13q-26 9 -49 15.5t-51 6.5q-41 0 -74.5 -13.5t-57 -38.5t-36.5 -59.5t-13 -76.5q0 -35 12.5 -67.5t35 -57.5t53.5 -40t67 -15q42 0 71.5 12.5
t56.5 43.5q6 7 15 25.5t9 28.5q-9 0 -21 1.5t-29 1.5q-28 0 -40 4q0 8 -1 27t-1 51q0 6 0.5 15.5t1 18t1.5 14.5l1 6l6 10q2 0 11 0.5t19.5 1t20 0.5h13.5q52 0 105.5 -3t107.5 -3q6 -3 8 -10t2 -15q0 -90 -23 -165.5t-68.5 -130t-113 -85.5t-157.5 -31q-10 0 -20.5 0.5
t-18.5 3.5q-3 1 -8 1q-25 0 -52.5 11t-49.5 21q-31 13 -60 37t-53 53t-42.5 62t-27.5 66q-8 27 -10 54t-2 55q0 76 26.5 142t73 114.5t111 76.5t141.5 28zM400 -268q0 -2 -5 -8t-11 -6h-48q-6 0 -7 5.5t-1 9.5q0 22 2 50t5 55.5t5.5 51.5t4.5 39l7 3h130q3 0 3 -4t-2 -10
l-44 -106z" />
    <glyph glyph-name="uni0123" unicode="&#x123;" horiz-adv-x="827" 
d="M423 703q64 0 118 -16.5t114 -53.5q9 -6 9 -16q0 -5 -1 -7.5t-5 -8.5l-69 -110q-4 -5 -5.5 -5.5t-6.5 -0.5q-11 0 -22 8t-22 13q-26 9 -49 15.5t-51 6.5q-38 0 -71 -15.5t-57.5 -41t-38.5 -60t-14 -71.5q0 -35 12.5 -67.5t35 -57.5t53.5 -40t67 -15q42 0 71.5 12.5
t56.5 43.5q6 7 14 22.5t10 31.5q-6 0 -19.5 1.5t-30.5 1.5q-16 0 -24.5 2t-12.5 10t-4.5 24.5t-0.5 45.5q0 6 0.5 15.5t1 18t1.5 14.5l1 6l6 10q2 0 11 0.5t19.5 1t20 0.5h13.5q52 0 105.5 -3t107.5 -3q6 -3 8 -10t2 -15q0 -90 -23 -165.5t-68.5 -130t-113 -85.5t-157.5 -31
q-10 0 -25 1t-16 7q-1 -3 -6 -3q-25 0 -52.5 11t-49.5 21q-31 13 -60 37t-53 53t-42.5 62t-27.5 66q-8 27 -10 54t-2 55q0 76 26.5 142t73 114.5t111 76.5t141.5 28zM400 -268q0 -2 -5 -8t-11 -6h-48q-6 0 -7 5.5t-1 9.5q0 22 2 50t5 55.5t5.5 51.5t4.5 39l7 3h130q3 0 3 -4
t-2 -10l-44 -106z" />
    <glyph glyph-name="Hbar" unicode="&#x126;" horiz-adv-x="754" 
d="M739 545q0 -8 0.5 -11t0.5 -4.5t0.5 -2t0.5 -3.5l-7 -5l-71 -2v-367q0 -32 -3 -70.5t-3 -71.5q-1 -3 -5 -5t-6 -2h-154q-8 0 -11 21t-3 45q0 32 0.5 50.5t1 31.5t1.5 25.5t3 33.5l-7 72l-5 3q-12 0 -29 0.5t-35 1t-35.5 1t-30.5 0.5q-20 0 -33.5 -1.5t-16.5 -4.5l-6 -5
q0 -22 -1 -31.5t-1 -25.5q0 -20 1 -40t1 -41v-33.5v-30.5t-0.5 -30.5t-1.5 -34.5q-5 -7 -13.5 -8t-15.5 -1q-73 0 -143 6q-8 3 -10 12t-2 20q0 118 3 234.5t5 234.5l-93 -1l-2 3l-5 26l6 55q-1 1 4 3t8 2l84 1v73q1 11 4.5 19t14.5 8h143q5 0 10 -2t7 -10q-1 -11 -1 -34
t-1 -52l195 3h6q-1 15 -1 28v21t1 22.5t1 15.5l12 6h156l6 -6v-91h73q2 0 4 -1.5t3 -2.5l-1 -11l-3 -25v-11zM488 513q-55 -2 -104.5 -2.5t-96.5 -1.5v-23q0 -14 0.5 -23t1.5 -14.5t1.5 -9t0.5 -7.5h172q9 0 14 9t7 21t2.5 24t0.5 18z" />
    <glyph glyph-name="hbar" unicode="&#x127;" horiz-adv-x="754" 
d="M739 545q0 -8 0.5 -11t0.5 -4.5t0.5 -2t0.5 -3.5l-7 -5l-71 -2v-367q0 -32 -3 -70.5t-3 -71.5q-1 -3 -5 -5t-6 -2h-154q-8 0 -11 21t-3 45q0 32 0.5 50.5t1 31.5t1.5 25.5t3 33.5l-7 72l-5 3q-12 0 -29 0.5t-35 1t-35.5 1t-30.5 0.5q-20 0 -33.5 -1.5t-16.5 -4.5l-6 -5
q0 -22 -1 -31.5t-1 -25.5q0 -20 1 -40t1 -41v-33.5v-30.5t-0.5 -30.5t-1.5 -34.5q-5 -7 -13.5 -8t-15.5 -1q-73 0 -143 6q-8 3 -10 12t-2 20q0 118 3 234.5t5 234.5l-93 -1l-2 3l-5 26l6 55q-1 1 4 3t8 2l84 1v73q1 11 4.5 19t14.5 8h143q5 0 10 -2t7 -10q-1 -11 -1 -34
t-1 -52l195 3h6q-1 15 -1 28v21t1 22.5t1 15.5l12 6h156l6 -6v-91h73q2 0 4 -1.5t3 -2.5l-1 -11l-3 -25v-11zM488 513q-55 -2 -104.5 -2.5t-96.5 -1.5v-23q0 -14 0.5 -23t1.5 -14.5t1.5 -9t0.5 -7.5h172q9 0 14 9t7 21t2.5 24t0.5 18z" />
    <glyph glyph-name="Imacron" unicode="&#x12a;" horiz-adv-x="395" 
d="M64 773q-2 0 -4 3.5t-4 6.5v72l5 7q34 1 63 1.5t53 0.5q43 0 76.5 -0.5t65.5 -0.5q11 0 20.5 -1t9.5 -5v-79q0 -1 -3 -4t-7 -3l-161 1l-7 -1zM118 693q42 0 83 -2t83 -2l7 -4l4 -6v-10v-20q0 -161 -1 -321.5t-4 -321.5q-4 -9 -10 -10.5t-17 -1.5h-121q-3 0 -7 0.5
t-12 0.5q-6 1 -11.5 3.5t-7.5 9.5q-2 16 -2.5 35.5t-1 38t-0.5 32.5v18q0 113 3.5 225t3.5 224q0 14 -0.5 29.5t-0.5 18.5q1 9 1.5 19t1.5 19t2.5 16t6.5 10z" />
    <glyph glyph-name="imacron" unicode="&#x12b;" horiz-adv-x="386" 
d="M61 773q-2 0 -4 3.5t-4 6.5v72l5 7q34 1 63 1.5t53 0.5q43 0 76.5 -0.5t65.5 -0.5q11 0 20.5 -1t9.5 -5v-79q0 -1 -3 -4t-7 -3l-161 1l-7 -1zM255 697q10 0 20.5 -1.5t14.5 -12.5q1 -16 1.5 -35.5t1 -37.5t0.5 -32.5v-18.5q0 -113 -3 -224.5t-3 -224.5q0 -14 0.5 -29.5
t0.5 -17.5q-3 -18 -3 -38t-9 -26q-42 0 -83 1.5t-83 1.5l-7 1l-4 10q0 169 1 336.5t4 335.5q4 9 10 10.5t17 1.5h124z" />
    <glyph glyph-name="Iogonek" unicode="&#x12e;" horiz-adv-x="395" 
d="M295 649q0 -161 -1 -321.5t-4 -321.5q-5 -11 -18 -12q-15 -17 -28.5 -41.5t-13.5 -61.5q0 -12 6.5 -18t15.5 -9.5t19 -5.5t17 -4q1 -2 2.5 -4t1.5 -5v-53q0 -8 -5.5 -10.5t-7.5 -2.5q-72 0 -102.5 25.5t-30.5 72.5q0 32 9.5 51t20.5 35q1 2 5 4q5 8 9.5 14t9.5 13h-58
q-3 0 -7 0.5t-12 0.5q-6 1 -11.5 3.5t-7.5 9.5q-2 16 -2.5 35.5t-1 38t-0.5 32.5v18q0 113 3.5 225t3.5 224q0 14 -0.5 29.5t-0.5 18.5q1 9 1.5 19t1.5 19t2.5 16t6.5 10q42 0 83 -2t83 -2l7 -4l4 -6v-30z" />
    <glyph glyph-name="iogonek" unicode="&#x12f;" horiz-adv-x="395" 
d="M229 -109q0 -12 6.5 -18t15.5 -9.5t19 -5.5t17 -4q1 -2 2.5 -4t1.5 -5v-53q0 -8 -5.5 -10.5t-7.5 -2.5q-72 0 -102.5 25.5t-30.5 72.5q0 32 9.5 51t20.5 35q1 2 5 4q5 9 11 17t14 16q-23 1 -46.5 1.5t-47.5 0.5l-7 1l-4 10q0 169 1 336.5t4 335.5q4 9 10 10.5t17 1.5h124
q10 0 20.5 -1.5t14.5 -12.5q1 -16 1.5 -35.5t1 -37.5t0.5 -32.5v-18.5q0 -113 -3 -224.5t-3 -224.5q0 -14 0.5 -29.5t0.5 -17.5q-3 -18 -3 -38t-9 -26q-16 -15 -32 -40.5t-16 -67.5z" />
    <glyph glyph-name="Idotaccent" unicode="&#x130;" horiz-adv-x="395" 
d="M148 891q19 0 34.5 -3t31.5 -3q14 0 24 1.5t17 1.5q10 0 16 -5v-63.5t-0.5 -40.5t-1 -21t-1.5 -6l-115 -1l-20 2v97q0 26 3 33.5t12 7.5zM118 693q42 0 83 -2t83 -2l7 -4l4 -6v-10v-20q0 -161 -1 -321.5t-4 -321.5q-4 -9 -10 -10.5t-17 -1.5h-121q-3 0 -7 0.5t-12 0.5
q-6 1 -11.5 3.5t-7.5 9.5q-2 16 -2.5 35.5t-1 38t-0.5 32.5v18q0 113 3.5 225t3.5 224q0 14 -0.5 29.5t-0.5 18.5q1 9 1.5 19t1.5 19t2.5 16t6.5 10z" />
    <glyph glyph-name="dotlessi" unicode="&#x131;" horiz-adv-x="386" 
d="M255 697q10 0 20.5 -1.5t14.5 -12.5q1 -16 1.5 -35.5t1 -37.5t0.5 -32.5v-18.5q0 -113 -3 -224.5t-3 -224.5q0 -14 0.5 -29.5t0.5 -17.5q-3 -18 -3 -38t-9 -26q-42 0 -83 1.5t-83 1.5l-7 1l-4 10q0 169 1 336.5t4 335.5q4 9 10 10.5t17 1.5h124z" />
    <glyph glyph-name="IJ" unicode="&#x132;" horiz-adv-x="757" 
d="M115 701q42 0 83 -2t83 -2l7 -4l4 -6v-102t-1 -110t-2 -111.5t-2 -106.5q-4 -9 -10 -10.5t-17 -1.5h-124q-10 0 -20.5 1.5t-14.5 12.5q-2 16 -2.5 35.5t-1 38t-0.5 32.5v18q0 23 1 51t2.5 55.5t2.5 53.5t1 46q0 14 -0.5 29.5t-0.5 18.5q1 9 1.5 19t1.5 19t2.5 16t6.5 10z
M411 -3q-16 5 -20 15v25.5t-0.5 26.5t-0.5 23v15q0 11 2 23t11 14q40 0 56 9t19 42q0 12 0.5 42.5t1.5 64t1.5 62.5t0.5 39q0 38 -2 79.5t-2 73.5v44t1.5 47t3.5 37t7 15q11 0 21 -1.5t21 -1.5q8 0 15 3t15 3h77q15 0 20 -15l2 -25q1 -12 1.5 -26t1 -27t1 -24t0.5 -15v-254
q0 -15 -1.5 -24.5t-1.5 -33.5q0 -9 0.5 -26t1 -36t1 -37t0.5 -28q0 -29 -10 -53.5t-33 -42.5t-59.5 -28.5t-89.5 -10.5q-20 0 -35.5 1t-26.5 5z" />
    <glyph glyph-name="ij" unicode="&#x133;" horiz-adv-x="757" 
d="M115 701q42 0 83 -2t83 -2l7 -4l4 -6v-102t-1 -110t-2 -111.5t-2 -106.5q-4 -9 -10 -10.5t-17 -1.5h-124q-10 0 -20.5 1.5t-14.5 12.5q-2 16 -2.5 35.5t-1 38t-0.5 32.5v18q0 23 1 51t2.5 55.5t2.5 53.5t1 46q0 14 -0.5 29.5t-0.5 18.5q1 9 1.5 19t1.5 19t2.5 16t6.5 10z
M411 -3q-16 5 -20 15v25.5t-0.5 26.5t-0.5 23v15q0 11 2 23t11 14q40 0 56 9t19 42q0 12 0.5 42.5t1.5 64t1.5 62.5t0.5 39q0 38 -2 79.5t-2 73.5v44t1.5 47t3.5 37t7 15q11 0 21 -1.5t21 -1.5q8 0 15 3t15 3h77q15 0 20 -15l2 -25q1 -12 1.5 -26t1 -27t1 -24t0.5 -15v-254
q0 -15 -1.5 -24.5t-1.5 -33.5q0 -9 0.5 -26t1 -36t1 -37t0.5 -28q0 -29 -10 -53.5t-33 -42.5t-59.5 -28.5t-89.5 -10.5q-20 0 -35.5 1t-26.5 5z" />
    <glyph glyph-name="uni0136" unicode="&#x136;" horiz-adv-x="724" 
d="M250 701q10 0 20.5 -1.5t10.5 -9.5v-204q0 -2 0.5 -6t1.5 -4q6 0 13.5 8t15 19t14.5 21.5t13 15.5l112 152q5 6 14 6h148l24 -4q2 0 2 -4q0 -1 -0.5 -4.5t-1.5 -4.5l-43 -68l-6 -4l-128 -171q-3 -3 -3 -8q0 -4 0.5 -6t2.5 -6l194 -401q0 -2 0.5 -3.5t0.5 -2.5
q0 -11 -18.5 -14t-41.5 -3q-45 0 -81.5 3t-51.5 3l-7 5q-1 1 -6 10t-17 34t-33.5 70t-55.5 117q-2 11 -5 16t-9 16q-2 0 -9 -9t-15 -20t-14.5 -20.5t-7.5 -11.5v-29t0.5 -29t0.5 -33v-42q0 -27 -2.5 -49.5t-13.5 -24.5q-29 0 -50 -1.5t-41 -1.5q-8 0 -21 1t-25 3t-20.5 3.5
t-8.5 3.5v344q0 3 1 10t2 15t2 16.5t1 13.5q0 67 -4 135t-4 134q0 6 1 12.5t7 9.5q19 1 42.5 1.5t44.5 1t36.5 0.5h18.5zM348 -268q0 -2 -5 -8t-11 -6h-48q-6 0 -7 5.5t-1 9.5q0 22 2 50t5 55.5t5.5 51.5t4.5 39l7 3h130q3 0 3 -4t-2 -10l-44 -106z" />
    <glyph glyph-name="uni0137" unicode="&#x137;" horiz-adv-x="724" 
d="M250 704q10 0 20.5 -2t10.5 -10v-204q0 -2 0.5 -5.5t1.5 -3.5q6 0 13.5 8t15 19t14.5 21.5t13 15.5l112 152q6 6 14 6h148l24 -4q2 0 2 -5q0 -1 -0.5 -4.5t-1.5 -4.5l-43 -67l-6 -5l-128 -170q-3 -4 -3 -8t0.5 -6t2.5 -6l194 -401q0 -2 0.5 -3.5t0.5 -2.5
q0 -11 -18.5 -14.5t-41.5 -3.5q-45 0 -81.5 3t-51.5 3l-7 6q-1 1 -6 10t-17 33.5t-33.5 69.5t-55.5 118q-2 11 -3 21t-11 10q-2 0 -9 -8.5t-15 -19.5t-14.5 -20.5t-7.5 -11.5v-30t0.5 -29t0.5 -32.5v-41.5q0 -27 -2.5 -49.5t-13.5 -25.5q-29 0 -50 -1t-41 -1q-8 0 -21 1
t-25 2.5t-20.5 3.5t-8.5 3v345q0 3 1 10t2 15l2 16t1 13q0 68 -4 135.5t-4 134.5q0 6 1 12.5t7 9.5q19 1 42.5 1.5t44.5 1t36.5 0.5h18.5zM353 -268q0 -2 -5 -8t-11 -6h-48q-6 0 -7 5.5t-1 9.5q0 22 2 50t5 55.5t5.5 51.5t4.5 39l7 3h130q3 0 3 -4t-2 -10l-44 -106z" />
    <glyph glyph-name="Lacute" unicode="&#x139;" horiz-adv-x="569" 
d="M162 747q-8 0 -8 8q0 2 1 5t2 5l51 131q2 5 6 10.5t9 5.5h113q7 0 8.5 -5t1.5 -8q0 -4 -3.5 -10t-11.5 -17l-85 -115q-5 -6 -16.5 -8.5t-20.5 -2.5l-31 1h-16zM281 689q1 -2 2 -20.5t2 -29.5q0 -4 -0.5 -22t-0.5 -34q0 -13 0.5 -41t1.5 -65.5t2.5 -81t2.5 -87.5
t1.5 -84.5t0.5 -72.5l3 -2h200q6 0 10.5 -3t4.5 -14q0 -24 3 -50.5t3 -62.5q0 -14 -10 -14q-33 0 -58 -0.5t-52 -1.5t-61.5 -1.5t-86.5 -0.5q-24 0 -48.5 0.5t-44 2t-31.5 3.5t-12 5q-2 166 -7.5 329t-5.5 328q0 8 2.5 16.5t10.5 8.5h162z" />
    <glyph glyph-name="lacute" unicode="&#x13a;" horiz-adv-x="569" 
d="M162 747q-8 0 -8 8q0 2 1 5t2 5l51 131q2 5 6 10.5t9 5.5h113q7 0 8.5 -5t1.5 -8q0 -4 -3.5 -10t-11.5 -17l-85 -115q-5 -6 -16.5 -8.5t-20.5 -2.5l-31 1h-16zM281 689q1 -2 2 -20.5t2 -29.5q0 -4 -0.5 -22t-0.5 -34q0 -13 0.5 -41t1.5 -65.5t2.5 -81t2.5 -87t1.5 -84.5
t0.5 -72l3 -3h200q6 0 10.5 -3t4.5 -14q0 -23 3 -48t3 -48q0 -5 -2.5 -15t-7.5 -11q-33 -3 -58 -5t-52 -3t-61.5 -1h-86.5q-24 0 -48.5 0.5t-44 2t-31.5 3.5t-12 5q-2 166 -7.5 329t-5.5 328q0 9 2.5 17t10.5 8h162z" />
    <glyph glyph-name="uni013B" unicode="&#x13b;" horiz-adv-x="569" 
d="M281 689q1 -2 2 -20.5t2 -29.5q0 -4 -0.5 -22t-0.5 -34q0 -13 0.5 -41t1.5 -65.5t2.5 -81t2.5 -87.5t1.5 -84.5t0.5 -72.5l3 -2h200q6 0 10.5 -3t4.5 -14q0 -24 3 -50.5t3 -62.5q0 -14 -10 -14q-33 0 -58 -0.5t-52 -1.5t-61.5 -1.5t-86.5 -0.5q-24 0 -48.5 0.5t-44 2
t-31.5 3.5t-12 5q-2 166 -7.5 329t-5.5 328q0 8 2.5 16.5t10.5 8.5h162zM302 -268q0 -2 -5 -8t-11 -6h-48q-6 0 -7 5.5t-1 9.5q0 22 2 50t5 55.5t5.5 51.5t4.5 39l7 3h130q3 0 3 -4t-2 -10l-44 -106z" />
    <glyph glyph-name="uni013C" unicode="&#x13c;" horiz-adv-x="569" 
d="M281 689q1 -2 2 -20.5t2 -29.5q0 -4 -0.5 -22t-0.5 -34q0 -13 0.5 -41t1.5 -65.5t2.5 -81t2.5 -87t1.5 -84.5t0.5 -72l3 -3h200q6 0 10.5 -3t4.5 -14q0 -23 3 -48t3 -48q0 -5 -2.5 -15t-7.5 -11q-33 -3 -58 -5t-52 -3t-61.5 -1h-86.5q-24 0 -48.5 0.5t-44 2t-31.5 3.5
t-12 5q-2 166 -7.5 329t-5.5 328q0 9 2.5 17t10.5 8h162zM293 -268q0 -2 -5 -8t-11 -6h-48q-6 0 -7 5.5t-1 9.5q0 22 2 50t5 55.5t5.5 51.5t4.5 39l7 3h130q3 0 3 -4t-2 -10l-44 -106z" />
    <glyph glyph-name="Lcaron" unicode="&#x13d;" horiz-adv-x="572" 
d="M281 689q1 -2 2 -20.5t2 -29.5q0 -4 -0.5 -22t-0.5 -34q0 -13 0.5 -41t1.5 -65.5t2.5 -81t2.5 -87.5t1.5 -84.5t0.5 -72.5l3 -2h200q6 0 10.5 -3t4.5 -14q0 -24 3 -50.5t3 -62.5q0 -14 -10 -14q-33 0 -58 -0.5t-52 -1.5t-61.5 -1.5t-86.5 -0.5q-24 0 -48.5 0.5t-44 2
t-31.5 3.5t-12 5q-2 166 -7.5 329t-5.5 328q0 8 2.5 16.5t10.5 8.5h162zM448 476q0 -2 -5 -8t-11 -6h-48q-6 0 -7 5.5t-1 9.5q0 22 2 50t5 55.5t5.5 51.5t4.5 39l7 3h130q3 0 3 -4t-2 -10l-44 -106z" />
    <glyph glyph-name="lcaron" unicode="&#x13e;" horiz-adv-x="572" 
d="M281 689q1 -2 2 -20.5t2 -29.5q0 -4 -0.5 -22t-0.5 -34q0 -13 0.5 -41t1.5 -65.5t2.5 -81t2.5 -87t1.5 -84.5t0.5 -72l3 -3h200q6 0 10.5 -3t4.5 -14q0 -23 3 -48t3 -48q0 -5 -2.5 -15t-7.5 -11q-33 -3 -58 -5t-52 -3t-61.5 -1h-86.5q-24 0 -48.5 0.5t-44 2t-31.5 3.5
t-12 5q-2 166 -7.5 329t-5.5 328q0 9 2.5 17t10.5 8h162zM448 476q0 -2 -5 -8t-11 -6h-48q-6 0 -7 5.5t-1 9.5q0 22 2 50t5 55.5t5.5 51.5t4.5 39l7 3h130q3 0 3 -4t-2 -10l-44 -106z" />
    <glyph glyph-name="Ldot" unicode="&#x13f;" horiz-adv-x="569" 
d="M281 689q1 -2 2 -20.5t2 -29.5q0 -4 -0.5 -22t-0.5 -34q0 -13 0.5 -41t1.5 -65.5t2.5 -81t2.5 -87.5t1.5 -84.5t0.5 -72.5l3 -2h200q6 0 10.5 -3t4.5 -14q0 -24 3 -50.5t3 -62.5q0 -14 -10 -14q-33 0 -58 -0.5t-52 -1.5t-61.5 -1.5t-86.5 -0.5q-24 0 -48.5 0.5t-44 2
t-31.5 3.5t-12 5q-2 166 -7.5 329t-5.5 328q0 8 2.5 16.5t10.5 8.5h162zM559 417q3 0 6.5 -8.5t3.5 -16.5v-115q0 -3 -3.5 -6.5t-6.5 -3.5h-125q-6 0 -9.5 7.5t-5 18t-1.5 21.5v18q0 9 1 23t2 27t2 22.5t1 10.5l10 2h125z" />
    <glyph glyph-name="ldot" unicode="&#x140;" horiz-adv-x="569" 
d="M281 689q1 -2 2 -20.5t2 -29.5q0 -4 -0.5 -22t-0.5 -34q0 -13 0.5 -41t1.5 -65.5t2.5 -81t2.5 -87t1.5 -84.5t0.5 -72l3 -3h200q6 0 10.5 -3t4.5 -14q0 -23 3 -48t3 -48q0 -5 -2.5 -15t-7.5 -11q-33 -3 -58 -5t-52 -3t-61.5 -1h-86.5q-24 0 -48.5 0.5t-44 2t-31.5 3.5
t-12 5q-2 166 -7.5 329t-5.5 328q0 9 2.5 17t10.5 8h162zM559 417q3 0 6.5 -8.5t3.5 -16.5v-115q0 -3 -3.5 -6.5t-6.5 -3.5h-125q-6 0 -9.5 7.5t-5 18t-1.5 21.5v18q0 9 1 23t2 27t2 22.5t1 10.5l10 2h125z" />
    <glyph glyph-name="Lslash" unicode="&#x141;" horiz-adv-x="569" 
d="M511 132q0 -24 3 -50.5t3 -62.5q0 -14 -10 -14q-33 0 -58 -0.5t-52 -1.5t-61.5 -1.5t-86.5 -0.5q-24 0 -48.5 0.5t-44 2t-31.5 3.5t-12 5q-1 61 -2 121.5t-3 120.5l-37 -10q-6 -2 -8 -2q-7 0 -7 5q-3 12 -3.5 22.5t-0.5 21.5q0 3 -1 7.5t-1 9.5q0 9 2.5 17.5t10.5 13.5
l42 13q-2 79 -3.5 158t-1.5 159q0 8 2.5 16.5t10.5 8.5h162l6 -5q1 -2 2 -20.5t2 -29.5q0 -4 -0.5 -22t-0.5 -34q0 -18 1 -66.5t3 -109.5l108 32q1 1 4 1h4q7 0 8 -2.5t1 -13.5v-72q0 -5 -4 -8.5t-6 -4.5l-112 -31q1 -45 1.5 -85t0.5 -72l3 -2h200q6 0 10.5 -3t4.5 -14z" />
    <glyph glyph-name="lslash" unicode="&#x142;" horiz-adv-x="569" 
d="M511 132q0 -24 3 -50.5t3 -62.5q0 -14 -10 -14q-33 0 -58 -0.5t-52 -1.5t-61.5 -1.5t-86.5 -0.5q-24 0 -48.5 0.5t-44 2t-31.5 3.5t-12 5q-1 61 -2 121.5t-3 120.5l-37 -10q-6 -2 -8 -2q-7 0 -7 5q-3 12 -3.5 22.5t-0.5 21.5q0 3 -1 7.5t-1 9.5q0 9 2.5 17.5t10.5 13.5
l42 13q-2 79 -3.5 158t-1.5 159q0 8 2.5 16.5t10.5 8.5h162l6 -5q1 -2 2 -20.5t2 -29.5q0 -4 -0.5 -22t-0.5 -34q0 -18 1 -66.5t3 -109.5l108 32q1 1 4 1h4q7 0 8 -2.5t1 -13.5v-72q0 -5 -4 -8.5t-6 -4.5l-112 -31q1 -45 1.5 -85t0.5 -72l3 -2h200q6 0 10.5 -3t4.5 -14z" />
    <glyph glyph-name="Nacute" unicode="&#x143;" horiz-adv-x="793" 
d="M357 747q-8 0 -8 8q0 2 1 5t2 5l51 131q2 5 6 10.5t9 5.5h113q7 0 8.5 -5t1.5 -8q0 -4 -3.5 -10t-11.5 -17l-85 -115q-5 -6 -16.5 -8.5t-20.5 -2.5l-31 1h-16zM693 670v-357q-1 -3 -2 -15.5t-2 -13.5q0 -65 2 -129.5t2 -127.5v-6.5t-1.5 -9.5t-4 -9t-6.5 -4h-130
q-8 0 -13 2t-10 9l-123 184q-2 5 -9 13t-8 10l-101 146l-12 13l-2 -4v-49.5t-0.5 -75t-1 -85t-1.5 -79.5t-2.5 -59t-3.5 -23h-158l-6 3q0 59 0.5 126.5t1.5 138t1.5 141.5t0.5 137v52t-2 52l4 29l20 4l126 -4q3 0 6 -3t6 -7.5t5.5 -9t3.5 -6.5l94 -136q2 -6 7 -11t8 -12
l129 -177q3 -7 8 -7q3 0 3 3v361l6 5l5.5 0.5t12 0.5h13.5h12h36.5t38.5 -0.5t30.5 -1.5t12.5 -2z" />
    <glyph glyph-name="nacute" unicode="&#x144;" horiz-adv-x="793" 
d="M362 747q-8 0 -8 8q0 2 1 5t2 5l51 131q2 5 6 10.5t9 5.5h113q7 0 8.5 -5t1.5 -8q0 -4 -3.5 -10t-11.5 -17l-85 -115q-5 -6 -16.5 -8.5t-20.5 -2.5l-31 1h-16zM242 682q8 0 13 -2t10 -9l123 -178q2 -5 9 -13t8 -10l101 -146l12 -13l2 3v49.5t0.5 74t1 83.5t1.5 78.5
t2.5 58t3.5 22.5h158l6 -4q0 -59 -0.5 -126t-1.5 -137.5t-1.5 -141.5t-0.5 -138v-51t1 -52l-3 -29l-20 -4l-126 4q-5 0 -12.5 10.5t-8.5 15.5l-94 135q-2 7 -7.5 11.5t-7.5 12.5l-129 183q-2 2 -3.5 4.5t-4.5 2.5t-3 -4v-366l-6 -5l-5.5 -0.5t-12.5 -0.5h-14h-11h-37.5
t-38.5 0.5t-30 1.5t-12 2l-4 5v358q1 3 1.5 15t2.5 14q0 64 -2 128.5t-2 128.5v6t1.5 10t3.5 9t7 4h130z" />
    <glyph glyph-name="uni0145" unicode="&#x145;" horiz-adv-x="793" 
d="M693 670v-357q-1 -3 -2 -15.5t-2 -13.5q0 -65 2 -129.5t2 -127.5v-6.5t-1.5 -9.5t-4 -9t-6.5 -4h-130q-8 0 -13 2t-10 9l-123 184q-2 5 -9 13t-8 10l-101 146l-12 13l-2 -4v-49.5t-0.5 -75t-1 -85t-1.5 -79.5t-2.5 -59t-3.5 -23h-158l-6 3q0 59 0.5 126.5t1.5 138
t1.5 141.5t0.5 137v52t-2 52l4 29l20 4l126 -4q3 0 6 -3t6 -7.5t5.5 -9t3.5 -6.5l94 -136q2 -6 7 -11t8 -12l129 -177q3 -7 8 -7q3 0 3 3v361l6 5l5.5 0.5t12 0.5h13.5h12h36.5t38.5 -0.5t30.5 -1.5t12.5 -2zM427 -188l44 106q2 6 2 10t-3 4h-130l-7 -3q-2 -15 -4.5 -39
t-5.5 -51.5t-5 -55.5t-2 -50q0 -4 1 -9.5t7 -5.5h48q6 0 11 6t5 8z" />
    <glyph glyph-name="uni0146" unicode="&#x146;" horiz-adv-x="793" 
d="M242 682q8 0 13 -2t10 -9l123 -178q2 -5 9 -13t8 -10l101 -146l12 -13l2 3v49.5t0.5 74t1 83.5t1.5 78.5t2.5 58t3.5 22.5h158l6 -4q0 -59 -0.5 -126t-1.5 -137.5t-1.5 -141.5t-0.5 -138v-51t1 -52l-3 -29l-20 -4l-126 4q-5 0 -12.5 10.5t-8.5 15.5l-94 135
q-2 7 -7.5 11.5t-7.5 12.5l-129 183q-2 2 -3.5 4.5t-4.5 2.5t-3 -4v-366l-6 -5l-5.5 -0.5t-12.5 -0.5h-14h-11h-37.5t-38.5 0.5t-30 1.5t-12 2l-4 5v358q1 3 1.5 15t2.5 14q0 64 -2 128.5t-2 128.5v6t1.5 10t3.5 9t7 4h130zM388 -268q0 -2 -5 -8t-11 -6h-48q-6 0 -7 5.5
t-1 9.5q0 22 2 50t5 55.5t5.5 51.5t4.5 39l7 3h130q3 0 3 -4t-2 -10l-44 -106z" />
    <glyph glyph-name="Ncaron" unicode="&#x147;" horiz-adv-x="793" 
d="M232 898q-2 4 -2 6q0 7 9 7h12t20 0.5t23 0.5h21q7 0 10.5 -2.5t10.5 -8.5l57 -57l55 57q11 11 19 11q20 0 38 -0.5t39 -0.5q9 0 9 -7q0 -4 -4 -10l-94 -132q-3 -5 -6.5 -10.5t-8.5 -5.5h-83q-6 0 -10.5 2t-11 8.5t-16 19t-23.5 32.5zM693 313q-1 -3 -2 -15.5t-2 -13.5
q0 -65 2 -129.5t2 -127.5v-6.5t-1.5 -9.5t-4 -9t-6.5 -4h-130q-8 0 -13 2t-10 9l-123 184q-2 5 -9 13t-8 10l-101 146l-12 13l-2 -4v-49.5t-0.5 -75t-1 -85t-1.5 -79.5t-2.5 -59t-3.5 -23h-158l-6 3q0 59 0.5 126.5t1.5 138t1.5 141.5t0.5 137v52t-2 52l4 29l20 4l126 -4
q3 0 6 -3t6 -7.5t5.5 -9t3.5 -6.5l94 -136q2 -6 7 -11t8 -12l129 -177q3 -7 8 -7q3 0 3 3v361l6 5l5.5 0.5t12 0.5h13.5h12h36.5t38.5 -0.5t30.5 -1.5t12.5 -2l4 -6v-357z" />
    <glyph glyph-name="ncaron" unicode="&#x148;" horiz-adv-x="793" 
d="M237 898q-2 4 -2 6q0 7 9 7h12t20 0.5t23 0.5h21q7 0 10.5 -2.5t10.5 -8.5l57 -57l55 57q11 11 19 11q20 0 38 -0.5t39 -0.5q9 0 9 -7q0 -4 -4 -10l-94 -132q-3 -5 -6.5 -10.5t-8.5 -5.5h-83q-6 0 -10.5 2t-11 8.5t-16 19t-23.5 32.5zM693 676q0 -59 -0.5 -126
t-1.5 -137.5t-1.5 -141.5t-0.5 -138v-51t1 -52l-3 -29l-20 -4l-126 4q-5 0 -12.5 10.5t-8.5 15.5l-94 135q-2 7 -7.5 11.5t-7.5 12.5l-129 183q-2 2 -3.5 4.5t-4.5 2.5t-3 -4v-366l-6 -5l-5.5 -0.5t-12.5 -0.5h-14h-11h-37.5t-38.5 0.5t-30 1.5t-12 2l-4 5v358q1 3 1.5 15
t2.5 14q0 64 -2 128.5t-2 128.5v6t1.5 10t3.5 9t7 4h130q8 0 13 -2t10 -9l123 -178q2 -5 9 -13t8 -10l101 -146l12 -13l2 3v49.5t0.5 74t1 83.5t1.5 78.5t2.5 58t3.5 22.5h158z" />
    <glyph glyph-name="Eng" unicode="&#x14a;" horiz-adv-x="795" 
d="M693 20q1 -23 1.5 -49.5t0.5 -40.5q0 -29 -10 -53.5t-33 -42.5t-59.5 -28.5t-89.5 -10.5q-12 0 -25.5 0.5t-25 3t-20 6.5t-11.5 11v25.5t-0.5 26.5t-0.5 23v15q0 11 2 23t11 14q40 0 62.5 9t25.5 42v26l-116 173q-2 5 -9 13t-8 10l-101 146l-12 13l-2 -4v-49.5t-0.5 -75
t-1 -85t-1.5 -79.5t-2.5 -59t-3.5 -23h-158l-6 3q0 59 0.5 126.5t1.5 138t1.5 141.5t0.5 137v52t-2 52l4 29l20 4l126 -4q3 0 6 -3t6 -7.5t5.5 -9t3.5 -6.5l94 -136q2 -6 7 -11t8 -12l129 -177q3 -7 8 -7q3 0 3 3v361l6 5l5.5 0.5t12 0.5h13.5h12h36.5t38.5 -0.5t30.5 -1.5
t12.5 -2l4 -6l-4 -386q0 -21 0.5 -60t1.5 -79.5t1.5 -74t0.5 -43.5v-7z" />
    <glyph glyph-name="eng" unicode="&#x14b;" horiz-adv-x="795" 
d="M693 20q1 -23 1.5 -49.5t0.5 -40.5q0 -29 -10 -53.5t-33 -42.5t-59.5 -28.5t-89.5 -10.5q-12 0 -25.5 0.5t-25 3t-20 6.5t-11.5 11v25.5t-0.5 26.5t-0.5 23v15q0 11 2 23t11 14q40 0 62.5 9t25.5 42v26l-116 173q-2 5 -9 13t-8 10l-101 146l-12 13l-2 -4v-49.5t-0.5 -75
t-1 -85t-1.5 -79.5t-2.5 -59t-3.5 -23h-158l-6 3q0 59 0.5 126.5t1.5 138t1.5 141.5t0.5 137v52t-2 52l4 29l20 4l126 -4q3 0 6 -3t6 -7.5t5.5 -9t3.5 -6.5l94 -136q2 -6 7 -11t8 -12l129 -177q3 -7 8 -7q3 0 3 3v361l6 5l5.5 0.5t12 0.5h13.5h12h36.5t38.5 -0.5t30.5 -1.5
t12.5 -2l4 -6l-4 -386q0 -21 0.5 -60t1.5 -79.5t1.5 -74t0.5 -43.5v-7z" />
    <glyph glyph-name="Omacron" unicode="&#x14c;" horiz-adv-x="868" 
d="M296 783q-2 0 -4 3.5t-4 6.5v72l5 7q34 1 63 1.5t53 0.5q43 0 76.5 -0.5t65.5 -0.5q11 0 20.5 -1t9.5 -5v-79q0 -1 -3 -4t-7 -3l-161 1l-7 -1zM192 76q-57 52 -89 125t-32 156q0 47 12.5 88t31.5 83q13 9 21.5 27.5t19.5 29.5q31 30 60 53t61 38.5t68 23.5t80 8
q84 0 155 -31t122 -86q15 -15 31.5 -39t31 -56t23.5 -71.5t9 -85.5q0 -69 -27.5 -133.5t-76.5 -114t-116 -79.5t-146 -30q-44 0 -82 10t-69 24.5t-53 30.5t-35 29zM573 464q-25 29 -61.5 46.5t-78.5 17.5q-38 0 -70 -14t-55.5 -38.5t-37 -57t-13.5 -69.5q0 -45 15.5 -80
t44.5 -58q14 -14 47.5 -28t76.5 -14q38 0 70 14t55.5 38.5t36.5 57.5t13 70q0 32 -9 57t-34 58z" />
    <glyph glyph-name="omacron" unicode="&#x14d;" horiz-adv-x="868" 
d="M286 783q-2 0 -4 3.5t-4 6.5v72l5 7q34 1 63 1.5t53 0.5q43 0 76.5 -0.5t65.5 -0.5q11 0 20.5 -1t9.5 -5v-79q0 -1 -3 -4t-7 -3l-161 1l-7 -1zM443 -23q-79 0 -147 28t-118 77t-78.5 116.5t-28.5 147.5q0 69 27.5 133.5t76.5 114t116 79.5t146 30q77 0 143 -29t114 -79.5
t75.5 -119t27.5 -147.5q0 -47 -12.5 -87.5t-31.5 -83.5q-7 -5 -12 -12.5t-9.5 -15.5l-9 -16t-10.5 -13q-31 -30 -60 -53t-61 -38.5t-68 -23.5t-80 -8zM433 523q-38 0 -70 -14t-55.5 -38.5t-37 -57.5t-13.5 -70q0 -41 13.5 -74t38 -56.5t58 -36t74.5 -12.5q38 0 70 14
t55.5 38.5t36.5 57t13 69.5t-14.5 70t-39 57.5t-58 38.5t-71.5 14z" />
    <glyph glyph-name="Ohungarumlaut" unicode="&#x150;" horiz-adv-x="868" 
d="M480 938q7 0 8.5 -4.5t1.5 -8.5v-3l-95 -155q-5 -6 -17 -8.5t-20 -2.5q-5 0 -14 0.5l-18 1t-16 2t-7 4.5l42 158q2 5 6 10.5t9 5.5h120zM678 938q7 0 8.5 -4.5t1.5 -8.5v-3l-112 -155q-5 -6 -17 -8.5t-20 -2.5q-7 0 -14 0.5t-14 0.5q-11 0 -19 1.5t-8 5.5v10l59 148
q2 5 6 10.5t9 5.5h120zM192 76q-57 52 -89 125t-32 156q0 47 12.5 88t31.5 83q13 9 21.5 27.5t19.5 29.5q31 30 60 53t61 38.5t68 23.5t80 8q84 0 155 -31t122 -86q15 -15 31.5 -39t31 -56t23.5 -71.5t9 -85.5q0 -69 -27.5 -133.5t-76.5 -114t-116 -79.5t-146 -30
q-44 0 -82 10t-69 24.5t-53 30.5t-35 29zM573 464q-25 29 -61.5 46.5t-78.5 17.5q-38 0 -70 -14t-55.5 -38.5t-37 -57t-13.5 -69.5q0 -45 15.5 -80t44.5 -58q14 -14 47.5 -28t76.5 -14q38 0 70 14t55.5 38.5t36.5 57.5t13 70q0 32 -9 57t-34 58z" />
    <glyph glyph-name="ohungarumlaut" unicode="&#x151;" horiz-adv-x="868" 
d="M470 938q7 0 8.5 -4.5t1.5 -8.5v-3l-95 -155q-5 -6 -17 -8.5t-20 -2.5q-5 0 -14 0.5l-18 1t-16 2t-7 4.5l42 158q2 5 6 10.5t9 5.5h120zM668 938q7 0 8.5 -4.5t1.5 -8.5v-3l-112 -155q-5 -6 -17 -8.5t-20 -2.5q-7 0 -14 0.5t-14 0.5q-11 0 -19 1.5t-8 5.5v10l59 148
q2 5 6 10.5t9 5.5h120zM443 -23q-79 0 -147 28t-118 77t-78.5 116.5t-28.5 147.5q0 69 27.5 133.5t76.5 114t116 79.5t146 30q77 0 143 -29t114 -79.5t75.5 -119t27.5 -147.5q0 -47 -12.5 -87.5t-31.5 -83.5q-7 -5 -12 -12.5t-9.5 -15.5l-9 -16t-10.5 -13q-31 -30 -60 -53
t-61 -38.5t-68 -23.5t-80 -8zM433 523q-38 0 -70 -14t-55.5 -38.5t-37 -57.5t-13.5 -70q0 -41 13.5 -74t38 -56.5t58 -36t74.5 -12.5q38 0 70 14t55.5 38.5t36.5 57t13 69.5t-14.5 70t-39 57.5t-58 38.5t-71.5 14z" />
    <glyph glyph-name="OE" unicode="&#x152;" horiz-adv-x="1019" 
d="M913 140q6 -4 7.5 -11.5t1.5 -18.5q0 -22 -1.5 -43t-1.5 -43q0 -13 -6 -20t-16.5 -10.5t-25.5 -4t-32 -0.5q-74 0 -141 1.5t-137 1.5q-3 0 -8 -0.5t-13 -0.5q-7 0 -13 1t-11 4q-39 -10 -85 -10q-77 0 -143 30t-114 81.5t-75.5 119.5t-27.5 144q0 47 12.5 88t31.5 83
q13 9 21.5 27.5t19.5 29.5q31 30 60 53t61 38.5t68 23.5t80 8q34 0 66 -5.5t61 -15.5q35 1 71.5 2.5t71.5 1.5q18 0 43.5 -0.5t52.5 -0.5q45 0 79.5 -1.5t39.5 -6.5l3 -24q0 -5 -0.5 -19t-1 -30t-1 -30t-0.5 -20q0 -18 -32 -21.5t-94 -3.5q-11 0 -21.5 0.5t-20.5 0.5l-47 -1
q0 -18 -2 -37.5t-2 -44.5q0 -2 -0.5 -2.5t-0.5 -1.5q0 -10 2.5 -19t13.5 -9h184q4 0 7.5 -6.5t3.5 -9.5q0 -10 -0.5 -25.5t-1 -33.5l-1 -36t-0.5 -33l-8 -6h-55t-55.5 -0.5t-48 -1t-31.5 -1.5q-6 -2 -7.5 -9.5t-1.5 -20.5t0.5 -39.5t0.5 -48.5q3 -5 30.5 -7t63.5 -2.5
t72 -0.5t55 -3zM257 353q0 -41 13.5 -74t38 -56.5t58 -36.5t74.5 -13q34 0 68 13q-1 25 -1.5 49.5t-0.5 50.5q0 19 0.5 45.5t1 57t1 63t0.5 64.5q-37 16 -77 16q-38 0 -70 -14t-55.5 -38.5t-37 -57t-13.5 -69.5z" />
    <glyph glyph-name="oe" unicode="&#x153;" horiz-adv-x="1019" 
d="M913 140q6 -4 7.5 -11.5t1.5 -18.5q0 -22 -1.5 -43t-1.5 -43q0 -13 -6 -20t-16.5 -10.5t-25.5 -4t-32 -0.5q-74 0 -141 1.5t-137 1.5q-3 0 -8 -0.5t-13 -0.5q-7 0 -13 1t-11 4q-39 -10 -85 -10q-77 0 -143 30t-114 81.5t-75.5 119.5t-27.5 144q0 47 12.5 88t31.5 83
q13 9 21.5 27.5t19.5 29.5q31 30 60 53t61 38.5t68 23.5t80 8q34 0 66 -5.5t61 -15.5q35 1 71.5 2.5t71.5 1.5q18 0 43.5 -0.5t52.5 -0.5q45 0 79.5 -1.5t39.5 -6.5l3 -24q0 -5 -0.5 -19t-1 -30t-1 -30t-0.5 -20q0 -18 -32 -21.5t-94 -3.5q-11 0 -21.5 0.5t-20.5 0.5l-47 -1
q0 -18 -2 -37.5t-2 -44.5q0 -2 -0.5 -2.5t-0.5 -1.5q0 -10 2.5 -19t13.5 -9h184q4 0 7.5 -6.5t3.5 -9.5q0 -10 -0.5 -25.5t-1 -33.5l-1 -36t-0.5 -33l-8 -6h-55t-55.5 -0.5t-48 -1t-31.5 -1.5q-6 -2 -7.5 -9.5t-1.5 -20.5t0.5 -39.5t0.5 -48.5q3 -5 30.5 -7t63.5 -2.5
t72 -0.5t55 -3zM257 353q0 -41 13.5 -74t38 -56.5t58 -36.5t74.5 -13q34 0 68 13q-1 25 -1.5 49.5t-0.5 50.5q0 19 0.5 45.5t1 57t1 63t0.5 64.5q-37 16 -77 16q-38 0 -70 -14t-55.5 -38.5t-37 -57t-13.5 -69.5z" />
    <glyph glyph-name="Racute" unicode="&#x154;" horiz-adv-x="701" 
d="M284 747q-8 0 -8 8q0 2 1 5t2 5l51 131q2 5 6 10.5t9 5.5h113q7 0 8.5 -5t1.5 -8q0 -4 -3.5 -10t-11.5 -17l-85 -115q-5 -6 -16.5 -8.5t-20.5 -2.5l-31 1h-16zM382 689q47 0 90.5 -18.5t76.5 -50.5t53 -75t20 -91q0 -78 -43.5 -132t-113.5 -83q-3 0 -3 -5q0 -1 0.5 -1.5
t0.5 -1.5l171 -209q5 -10 8.5 -15.5t3.5 -7.5t-11.5 -3.5t-25.5 -2.5t-26.5 -1.5t-13.5 -0.5q-2 0 -6 1t-5 2h-107q-7 1 -10.5 3.5t-6.5 7.5l-139 164q-3 3 -7 8t-9 5q-1 0 -2 -2t-3 -11v-162q0 -2 -1.5 -5t-4.5 -3h-136q-19 0 -24.5 8.5t-7.5 26.5q0 64 0.5 119t1 106.5
t1 101.5t0.5 104q0 7 -0.5 30.5t-1 49.5t-1 46.5t-0.5 22.5q0 8 0.5 20.5t1.5 24.5t1.5 20.5t1.5 9.5h277zM442 456q0 16 -3.5 27.5t-9.5 21.5q-15 23 -43.5 31t-60.5 8q-11 0 -21 -0.5t-21 -1.5l-9 -10q0 -14 -0.5 -31t-1 -33t-1 -29.5t-0.5 -20.5v-21.5t1.5 -22.5
t3.5 -19.5t7 -11.5h11q38 1 66 5t46 16t27 34t9 58z" />
    <glyph glyph-name="racute" unicode="&#x155;" horiz-adv-x="701" 
d="M300 747q-8 0 -8 8q0 2 1 5t2 5l51 131q2 5 6 10.5t9 5.5h113q7 0 8.5 -5t1.5 -8q0 -4 -3.5 -10t-11.5 -17l-85 -115q-5 -6 -16.5 -8.5t-20.5 -2.5l-31 1h-16zM382 694q47 0 90.5 -18.5t76.5 -50.5t53 -75t20 -92q0 -77 -43.5 -131t-113.5 -83q-3 0 -3 -5l1 -4l171 -208
q7 -10 9.5 -16t2.5 -8t-9 -2.5t-12 -0.5h-19t-40 -0.5t-54 -0.5h-61q-11 1 -17 10l-139 165q-3 2 -7 7.5t-9 5.5q-1 0 -2 -2t-3 -11v-162q-2 -3 -3.5 -6t-2.5 -3h-136q-19 0 -24.5 9t-7.5 26q0 64 0.5 119.5t1 107t1 101.5t0.5 104q0 6 -0.5 29.5t-1 49.5t-1 47t-0.5 22
q0 8 0.5 20.5t1.5 24.5t1.5 21t1.5 10h277zM304 552h-13t-8 -1l-9 -8v-188q0 -5 6 -6.5t15 -1.5q29 0 56 4t48 16t33.5 33t12.5 55q0 28 -13.5 46.5t-34.5 30t-46 16t-47 4.5z" />
    <glyph glyph-name="uni0156" unicode="&#x156;" horiz-adv-x="701" 
d="M382 689q47 0 90.5 -18.5t76.5 -50.5t53 -75t20 -91q0 -78 -43.5 -132t-113.5 -83q-3 0 -3 -5q0 -1 0.5 -1.5t0.5 -1.5l171 -209q5 -10 8.5 -15.5t3.5 -7.5t-11.5 -3.5t-25.5 -2.5t-26.5 -1.5t-13.5 -0.5q-2 0 -6 1t-5 2h-107q-7 1 -10.5 3.5t-6.5 7.5l-139 164
q-3 3 -7 8t-9 5q-1 0 -2 -2t-3 -11v-162q0 -2 -1.5 -5t-4.5 -3h-136q-19 0 -24.5 8.5t-7.5 26.5q0 64 0.5 119t1 106.5t1 101.5t0.5 104q0 7 -0.5 30.5t-1 49.5t-1 46.5t-0.5 22.5q0 8 0.5 20.5t1.5 24.5t1.5 20.5t1.5 9.5h277zM442 456q0 16 -3.5 27.5t-9.5 21.5
q-15 23 -43.5 31t-60.5 8q-11 0 -21 -0.5t-21 -1.5l-9 -10q0 -14 -0.5 -31t-1 -33t-1 -29.5t-0.5 -20.5v-21.5t1.5 -22.5t3.5 -19.5t7 -11.5h11q38 1 66 5t46 16t27 34t9 58zM342 -268q0 -2 -5 -8t-11 -6h-48q-6 0 -7 5.5t-1 9.5q0 22 2 50t5 55.5t5.5 51.5t4.5 39l7 3h130
q3 0 3 -4t-2 -10l-44 -106z" />
    <glyph glyph-name="uni0157" unicode="&#x157;" horiz-adv-x="701" 
d="M382 694q47 0 90.5 -18.5t76.5 -50.5t53 -75t20 -92q0 -77 -43.5 -131t-113.5 -83q-3 0 -3 -5l1 -4l171 -208q7 -10 9.5 -16t2.5 -8t-9 -2.5t-12 -0.5h-19t-40 -0.5t-54 -0.5h-61q-11 1 -17 10l-139 165q-3 2 -7 7.5t-9 5.5q-1 0 -2 -2t-3 -11v-162q-2 -3 -3.5 -6
t-2.5 -3h-136q-19 0 -24.5 9t-7.5 26q0 64 0.5 119.5t1 107t1 101.5t0.5 104q0 6 -0.5 29.5t-1 49.5t-1 47t-0.5 22q0 8 0.5 20.5t1.5 24.5t1.5 21t1.5 10h277zM304 552h-13t-8 -1l-9 -8v-188q0 -5 6 -6.5t15 -1.5q29 0 56 4t48 16t33.5 33t12.5 55q0 28 -13.5 46.5
t-34.5 30t-46 16t-47 4.5zM342 -268q0 -2 -5 -8t-11 -6h-48q-6 0 -7 5.5t-1 9.5q0 22 2 50t5 55.5t5.5 51.5t4.5 39l7 3h130q3 0 3 -4t-2 -10l-44 -106z" />
    <glyph glyph-name="Rcaron" unicode="&#x158;" horiz-adv-x="701" 
d="M159 898q-2 4 -2 6q0 7 9 7h12t20 0.5t23 0.5h21q7 0 10.5 -2.5t10.5 -8.5l57 -57l55 57q11 11 19 11q20 0 38 -0.5t39 -0.5q9 0 9 -7q0 -4 -4 -10l-94 -132q-3 -5 -6.5 -10.5t-8.5 -5.5h-83q-6 0 -10.5 2t-11 8.5t-16 19t-23.5 32.5zM634 22q5 -10 8.5 -15.5t3.5 -7.5
t-11.5 -3.5t-25.5 -2.5t-26.5 -1.5t-13.5 -0.5q-2 0 -6 1t-5 2h-107q-7 1 -10.5 3.5t-6.5 7.5l-139 164q-3 3 -7 8t-9 5q-1 0 -2 -2t-3 -11v-162q0 -2 -1.5 -5t-4.5 -3h-136q-19 0 -24.5 8.5t-7.5 26.5q0 64 0.5 119t1 106.5t1 101.5t0.5 104q0 7 -0.5 30.5t-1 49.5t-1 46.5
t-0.5 22.5q0 8 0.5 20.5t1.5 24.5t1.5 20.5t1.5 9.5h277q47 0 90.5 -18.5t76.5 -50.5t53 -75t20 -91q0 -78 -43.5 -132t-113.5 -83q-3 0 -3 -5q0 -1 0.5 -1.5t0.5 -1.5zM294 343q38 1 66 5t46 16t27 34t9 58q0 16 -3.5 27.5t-9.5 21.5q-15 23 -43.5 31t-60.5 8
q-11 0 -21 -0.5t-21 -1.5l-9 -10q0 -14 -0.5 -31t-1 -33t-1 -29.5t-0.5 -20.5v-21.5t1.5 -22.5t3.5 -19.5t7 -11.5h11z" />
    <glyph glyph-name="rcaron" unicode="&#x159;" horiz-adv-x="701" 
d="M175 898q-2 4 -2 6q0 7 9 7h12t20 0.5t23 0.5h21q7 0 10.5 -2.5t10.5 -8.5l57 -57l55 57q11 11 19 11q20 0 38 -0.5t39 -0.5q9 0 9 -7q0 -4 -4 -10l-94 -132q-3 -5 -6.5 -10.5t-8.5 -5.5h-83q-6 0 -10.5 2t-11 8.5t-16 19t-23.5 32.5zM634 27q7 -10 9.5 -16t2.5 -8
t-9 -2.5t-12 -0.5h-19t-40 -0.5t-54 -0.5h-61q-11 1 -17 10l-139 165q-3 2 -7 7.5t-9 5.5q-1 0 -2 -2t-3 -11v-162q-2 -3 -3.5 -6t-2.5 -3h-136q-19 0 -24.5 9t-7.5 26q0 64 0.5 119.5t1 107t1 101.5t0.5 104q0 6 -0.5 29.5t-1 49.5t-1 47t-0.5 22q0 8 0.5 20.5t1.5 24.5
t1.5 21t1.5 10h277q47 0 90.5 -18.5t76.5 -50.5t53 -75t20 -92q0 -77 -43.5 -131t-113.5 -83q-3 0 -3 -5l1 -4zM295 347q29 0 56 4t48 16t33.5 33t12.5 55q0 28 -13.5 46.5t-34.5 30t-46 16t-47 4.5h-13t-8 -1l-9 -8v-188q0 -5 6 -6.5t15 -1.5z" />
    <glyph glyph-name="Sacute" unicode="&#x15a;" horiz-adv-x="641" 
d="M297 747q-8 0 -8 8q0 2 1 5t2 5l51 131q2 5 6 10.5t9 5.5h113q7 0 8.5 -5t1.5 -8q0 -4 -3.5 -10t-11.5 -17l-85 -115q-5 -6 -16.5 -8.5t-20.5 -2.5l-31 1h-16zM368 220q-13 12 -30 24t-35 23.5t-35.5 21t-29.5 17.5q-60 38 -94.5 86t-34.5 112q0 51 19 87.5t52 60
t77.5 34.5t95.5 11q28 0 56.5 -5t62.5 -19q3 -1 13 -5.5t20.5 -9.5t18.5 -10t8 -8l-1 -5q0 -2 -2 -3.5t-2 -4.5q-5 -11 -14 -27l-18 -32t-17 -28.5t-11 -16.5q-1 -3 -5 -3q-6 0 -18 5t-28 11.5t-33 11.5t-32 5q-10 0 -20.5 -2.5t-19.5 -8t-14.5 -14t-5.5 -20.5
q0 -16 7.5 -27.5t22.5 -23.5q16 -12 25 -18.5t16 -11t15.5 -9t23.5 -14.5q35 -26 66 -46t53 -46q12 -16 20 -29.5t12.5 -27t6.5 -28t2 -32.5q0 -48 -19.5 -88t-52.5 -68t-76.5 -43.5t-91.5 -15.5q-107 0 -201 52q-27 17 -34.5 23t-7.5 8v4q2 4 10 18t18.5 32.5t22 38
t22.5 35.5q17 0 29 -11.5t25 -17.5q28 -14 58.5 -20.5t62.5 -6.5q22 0 40.5 9.5t18.5 34.5q0 10 -3 18.5t-14 22.5z" />
    <glyph glyph-name="sacute" unicode="&#x15b;" horiz-adv-x="641" 
d="M312 747q-8 0 -8 8q0 2 1 5t2 5l51 131q2 5 6 10.5t9 5.5h113q7 0 8.5 -5t1.5 -8q0 -4 -3.5 -10t-11.5 -17l-85 -115q-5 -6 -16.5 -8.5t-20.5 -2.5l-31 1h-16zM353 697q28 0 56.5 -5t62.5 -18q3 -2 13 -6.5t20.5 -9.5t18.5 -10t8 -8q0 -4 -9 -20.5t-20 -36.5t-21.5 -37.5
t-14.5 -22.5q-1 -2 -5 -2q-6 0 -18 5t-28 11t-33 11t-32 5q-10 0 -20.5 -2.5t-19.5 -8t-14.5 -14t-5.5 -20.5q0 -15 6.5 -26t20 -22.5t34.5 -24t49 -30.5q32 -24 61 -43.5t51 -42t35 -51.5t13 -72q0 -49 -19.5 -88.5t-52.5 -68t-76.5 -44t-91.5 -15.5q-107 0 -205 55
q-14 8 -26 16t-12 13v3q2 4 10 18.5t18.5 32.5t22 38t22.5 35q17 0 29 -11.5t25 -17.5q28 -14 58.5 -20t62.5 -6q22 0 40.5 9t18.5 35q0 23 -13.5 39t-30.5 28q-38 23 -79 47t-75 54t-56 68t-22 88q0 51 19 87.5t52 60t77.5 34.5t95.5 11z" />
    <glyph glyph-name="Scedilla" unicode="&#x15e;" horiz-adv-x="641" 
d="M561 195q0 -44 -16.5 -80.5t-44.5 -64.5t-65.5 -45.5t-79.5 -22.5q5 -11 13.5 -20.5t17.5 -20.5q2 -2 2 -5q4 -2 5 -4q11 -14 18.5 -29t7.5 -35q0 -23 -10.5 -41.5t-26.5 -31t-35.5 -19t-38.5 -6.5q-8 0 -10.5 1.5t-4.5 7.5l-18 57l-1 9q7 2 17 4t20 5.5t17 9.5t7 18
q0 13 -6.5 21t-16 12.5t-20.5 6.5t-19 2q0 13 7.5 26.5t10.5 30.5q-90 6 -171 51q-27 17 -34.5 23t-7.5 8v4q2 4 10 18t18.5 32.5t22 38t22.5 35.5q17 0 29 -11.5t25 -17.5q28 -14 58.5 -20.5t62.5 -6.5q22 0 40.5 9.5t18.5 34.5q0 10 -3 18.5t-14 22.5q-13 12 -30 24
t-35 23.5t-35.5 21t-29.5 17.5q-60 38 -94.5 86t-34.5 112q0 51 19 87.5t52 60t77.5 34.5t95.5 11q28 0 56.5 -5t62.5 -19q3 -1 13 -5.5t20.5 -9.5t18.5 -10t8 -8l-1 -5q0 -2 -2 -3.5t-2 -4.5q-5 -11 -14 -27l-18 -32t-17 -28.5t-11 -16.5q-1 -3 -5 -3q-6 0 -18 5t-28 11.5
t-33 11.5t-32 5q-10 0 -20.5 -2.5t-19.5 -8t-14.5 -14t-5.5 -20.5q0 -16 7.5 -27.5t22.5 -23.5q16 -12 25 -18.5t16 -11t15.5 -9t23.5 -14.5q35 -26 66 -46t53 -46q12 -16 20 -29.5t12.5 -27t6.5 -28t2 -32.5z" />
    <glyph glyph-name="scedilla" unicode="&#x15f;" horiz-adv-x="641" 
d="M561 196q0 -45 -16.5 -82t-44.5 -65t-66 -45t-80 -22q5 -11 14 -21.5t18 -21.5q2 -2 2 -5q4 -2 5 -4q11 -14 18.5 -29t7.5 -35q0 -23 -10.5 -41.5t-26.5 -31t-35.5 -19t-38.5 -6.5q-8 0 -10.5 1.5t-4.5 7.5l-18 57l-1 9q7 2 17 4t20 5.5t17 9.5t7 18q0 13 -6.5 21
t-16 12.5t-20.5 6.5t-19 2q0 13 7.5 27.5t10.5 31.5q-93 8 -175 54q-14 8 -26 16t-12 13v3q2 4 10 18.5t18.5 32.5t22 38t22.5 35q17 0 29 -11.5t25 -17.5q28 -14 58.5 -20t62.5 -6q22 0 40.5 9t18.5 35q0 23 -13.5 39t-30.5 28q-38 23 -79 47t-75 54t-56 68t-22 88
q0 51 19 87.5t52 60t77.5 34.5t95.5 11q28 0 56.5 -5t62.5 -18q3 -2 13 -6.5t20.5 -9.5t18.5 -10t8 -8q0 -4 -9 -20.5t-20 -36.5t-21.5 -37.5t-14.5 -22.5q-1 -2 -5 -2q-6 0 -18 5t-28 11t-33 11t-32 5q-10 0 -20.5 -2.5t-19.5 -8t-14.5 -14t-5.5 -20.5q0 -15 6.5 -26
t20 -22.5t34.5 -24t49 -30.5q32 -24 61 -43.5t51 -42t35 -51.5t13 -72z" />
    <glyph glyph-name="Scaron" unicode="&#x160;" horiz-adv-x="641" 
d="M172 898q-2 4 -2 6q0 7 9 7h12t20 0.5t23 0.5h21q7 0 10.5 -2.5t10.5 -8.5l57 -57l55 57q11 11 19 11q20 0 38 -0.5t39 -0.5q9 0 9 -7q0 -4 -4 -10l-94 -132q-3 -5 -6.5 -10.5t-8.5 -5.5h-83q-6 0 -10.5 2t-11 8.5t-16 19t-23.5 32.5zM520 312q12 -16 20 -29.5t12.5 -27
t6.5 -28t2 -32.5q0 -48 -19.5 -88t-52.5 -68t-76.5 -43.5t-91.5 -15.5q-107 0 -201 52q-27 17 -34.5 23t-7.5 8v4q2 4 10 18t18.5 32.5t22 38t22.5 35.5q17 0 29 -11.5t25 -17.5q28 -14 58.5 -20.5t62.5 -6.5q22 0 40.5 9.5t18.5 34.5q0 10 -3 18.5t-14 22.5q-13 12 -30 24
t-35 23.5t-35.5 21t-29.5 17.5q-60 38 -94.5 86t-34.5 112q0 51 19 87.5t52 60t77.5 34.5t95.5 11q28 0 56.5 -5t62.5 -19q3 -1 13 -5.5t20.5 -9.5t18.5 -10t8 -8l-1 -5q0 -2 -2 -3.5t-2 -4.5q-5 -11 -14 -27l-18 -32t-17 -28.5t-11 -16.5q-1 -3 -5 -3q-6 0 -18 5t-28 11.5
t-33 11.5t-32 5q-10 0 -20.5 -2.5t-19.5 -8t-14.5 -14t-5.5 -20.5q0 -16 7.5 -27.5t22.5 -23.5q16 -12 25 -18.5t16 -11t15.5 -9t23.5 -14.5q35 -26 66 -46t53 -46z" />
    <glyph glyph-name="scaron" unicode="&#x161;" horiz-adv-x="641" 
d="M187 898q-2 4 -2 6q0 7 9 7h12t20 0.5t23 0.5h21q7 0 10.5 -2.5t10.5 -8.5l57 -57l55 57q11 11 19 11q20 0 38 -0.5t39 -0.5q9 0 9 -7q0 -4 -4 -10l-94 -132q-3 -5 -6.5 -10.5t-8.5 -5.5h-83q-6 0 -10.5 2t-11 8.5t-16 19t-23.5 32.5zM401 405q32 -24 61 -43.5t51 -42
t35 -51.5t13 -72q0 -49 -19.5 -88.5t-52.5 -68t-76.5 -44t-91.5 -15.5q-107 0 -205 55q-14 8 -26 16t-12 13v3q2 4 10 18.5t18.5 32.5t22 38t22.5 35q17 0 29 -11.5t25 -17.5q28 -14 58.5 -20t62.5 -6q22 0 40.5 9t18.5 35q0 23 -13.5 39t-30.5 28q-38 23 -79 47t-75 54
t-56 68t-22 88q0 51 19 87.5t52 60t77.5 34.5t95.5 11q28 0 56.5 -5t62.5 -18q3 -2 13 -6.5t20.5 -9.5t18.5 -10t8 -8q0 -4 -9 -20.5t-20 -36.5t-21.5 -37.5t-14.5 -22.5q-1 -2 -5 -2q-6 0 -18 5t-28 11t-33 11t-32 5q-10 0 -20.5 -2.5t-19.5 -8t-14.5 -14t-5.5 -20.5
q0 -15 6.5 -26t20 -22.5t34.5 -24t49 -30.5z" />
    <glyph glyph-name="uni0162" unicode="&#x162;" horiz-adv-x="561" 
d="M486 684q1 -14 1.5 -47t0.5 -88q0 -2 -7.5 -4t-11.5 -2h-87q-6 0 -9 -7t-3 -12v-516q0 -1 -5 -4.5t-7 -3.5h-53q6 -14 15.5 -25.5t20.5 -24.5q2 -2 2 -5q4 -2 5 -4q11 -14 18.5 -29t7.5 -35q0 -23 -10.5 -41.5t-26.5 -31t-35.5 -19t-38.5 -6.5q-8 0 -10.5 1.5t-4.5 7.5
l-18 57l-1 9q7 2 17 4t20 5.5t17 9.5t7 18q0 13 -6.5 21t-16 12.5t-20.5 6.5t-19 2q0 14 9 30.5t10 36.5h-46l-7 6l-0.5 23.5t-1 62t-0.5 88t-0.5 102t-0.5 103v91.5v62h-24.5t-41 1.5t-38.5 4.5t-17 9v128q0 1 3 2.5t5 3.5h180q14 -2 17 -3q3 0 3 3h199z" />
    <glyph glyph-name="uni0163" unicode="&#x163;" horiz-adv-x="561" 
d="M486 684q1 -14 1.5 -47t0.5 -89q0 -2 -7.5 -3.5t-11.5 -1.5h-87q-6 0 -9 -7t-3 -12v-516q0 -1 -5 -4.5t-7 -3.5h-53q6 -14 15.5 -25.5t20.5 -24.5q2 -2 2 -5q4 -2 5 -4q11 -14 18.5 -29t7.5 -35q0 -23 -10.5 -41.5t-26.5 -31t-35.5 -19t-38.5 -6.5q-8 0 -10.5 1.5
t-4.5 7.5l-18 57l-1 9q7 2 17 4t20 5.5t17 9.5t7 18q0 13 -6.5 21t-16 12.5t-20.5 6.5t-19 2q0 14 9 30.5t10 36.5h-46l-7 6l-0.5 23.5t-1 62t-0.5 88t-0.5 101.5t-0.5 102.5v91.5l-3 56q0 9 -18.5 11t-40.5 3t-40.5 1.5t-18.5 6.5v128q0 1 3 2.5t5 3.5l85 1l11 -4
q1 0 3.5 1.5t4.5 1.5h295z" />
    <glyph glyph-name="Tcaron" unicode="&#x164;" horiz-adv-x="561" 
d="M116 898q-2 4 -2 6q0 7 9 7h12t20 0.5t23 0.5h21q7 0 10.5 -2.5t10.5 -8.5l57 -57l55 57q11 11 19 11q20 0 38 -0.5t39 -0.5q9 0 9 -7q0 -4 -4 -10l-94 -132q-3 -5 -6.5 -10.5t-8.5 -5.5h-83q-6 0 -10.5 2t-11 8.5t-16 19t-23.5 32.5zM486 684q1 -14 1.5 -47t0.5 -88
q0 -2 -7.5 -4t-11.5 -2h-87q-6 0 -9 -7t-3 -12v-516q0 -1 -5 -4.5t-7 -3.5h-157l-7 6l-0.5 23.5t-1 62t-0.5 88t-0.5 102t-0.5 103v91.5v62h-24.5t-41 1.5t-38.5 4.5t-17 9v128q0 1 3 2.5t5 3.5h180q14 -2 17 -3q3 0 3 3h199z" />
    <glyph glyph-name="tcaron" unicode="&#x165;" horiz-adv-x="561" 
d="M124 898q-2 4 -2 6q0 7 9 7h12t20 0.5t23 0.5h21q7 0 10.5 -2.5t10.5 -8.5l57 -57l55 57q11 11 19 11q20 0 38 -0.5t39 -0.5q9 0 9 -7q0 -4 -4 -10l-94 -132q-3 -5 -6.5 -10.5t-8.5 -5.5h-83q-6 0 -10.5 2t-11 8.5t-16 19t-23.5 32.5zM486 684q1 -14 1.5 -47t0.5 -89
q0 -2 -7.5 -3.5t-11.5 -1.5h-87q-6 0 -9 -7t-3 -12v-516q0 -1 -5 -4.5t-7 -3.5h-157l-7 6l-0.5 23.5t-1 62t-0.5 88t-0.5 101.5t-0.5 102.5v91.5l-3 56q0 9 -18.5 11t-40.5 3t-40.5 1.5t-18.5 6.5v128q0 1 3 2.5t5 3.5l85 1l11 -4q1 0 3.5 1.5t4.5 1.5h295z" />
    <glyph glyph-name="Tbar" unicode="&#x166;" horiz-adv-x="561" 
d="M136 773q-2 0 -4 3.5t-4 6.5v72l5 7q34 1 63 1.5t53 0.5q43 0 76.5 -0.5t65.5 -0.5q11 0 20.5 -1t9.5 -5v-79q0 -1 -3 -4t-7 -3l-161 1l-7 -1zM486 684q1 -14 1.5 -47t0.5 -88q0 -2 -7.5 -4t-11.5 -2h-87q-6 0 -9 -7t-3 -12v-516q0 -1 -5 -4.5t-7 -3.5h-157l-7 6
l-0.5 23.5t-1 62t-0.5 88t-0.5 102t-0.5 103v91.5v62h-24.5t-41 1.5t-38.5 4.5t-17 9v128q0 1 3 2.5t5 3.5h180q14 -2 17 -3q3 0 3 3h199z" />
    <glyph glyph-name="tbar" unicode="&#x167;" horiz-adv-x="561" 
d="M144 773q-2 0 -4 3.5t-4 6.5v72l5 7q34 1 63 1.5t53 0.5q43 0 76.5 -0.5t65.5 -0.5q11 0 20.5 -1t9.5 -5v-79q0 -1 -3 -4t-7 -3l-161 1l-7 -1zM486 684q1 -14 1.5 -47t0.5 -89q0 -2 -7.5 -3.5t-11.5 -1.5h-87q-6 0 -9 -7t-3 -12v-516q0 -1 -5 -4.5t-7 -3.5h-157l-7 6
l-0.5 23.5t-1 62t-0.5 88t-0.5 101.5t-0.5 102.5v91.5l-3 56q0 9 -18.5 11t-40.5 3t-40.5 1.5t-18.5 6.5v128q0 1 3 2.5t5 3.5l85 1l11 -4q1 0 3.5 1.5t4.5 1.5h295z" />
    <glyph glyph-name="Umacron" unicode="&#x16a;" horiz-adv-x="726" 
d="M227 773q-2 0 -4 3.5t-4 6.5v72l5 7q34 1 63 1.5t53 0.5q43 0 76.5 -0.5t65.5 -0.5q11 0 20.5 -1t9.5 -5v-79q0 -1 -3 -4t-7 -3l-161 1l-7 -1zM468 689q23 0 67 -1t86 -1q6 0 10.5 -2.5t4.5 -12.5v-396q0 -3 -0.5 -10l-1 -14t-2 -12.5t-2.5 -5.5v-22q0 -37 -15 -76
t-38 -65q-14 -15 -24.5 -28.5t-24.5 -20.5q-23 -11 -49 -20t-48 -22q-3 3 -6 3q-12 0 -25.5 -2.5t-26.5 -2.5q-23 0 -42 1.5t-36.5 6t-35 12t-37.5 20.5q-33 17 -55 35.5t-36.5 41t-23 49.5t-13.5 61q0 53 -0.5 102t-1.5 97t-1.5 97t-0.5 102q0 21 0.5 45t3.5 39
q7 0 19.5 0.5t25 0.5t23 0.5t12.5 0.5q24 0 46 -1t45 -1l7 -6v-368q-3 -11 -4 -18.5t-1 -17.5q0 -16 3.5 -27t3.5 -33q0 -5 7 -15.5t16.5 -20.5t19 -17t15.5 -7l52 2q8 5 15 6t14 6q13 8 20 16.5t11 17.5t6.5 20t6.5 23q-1 14 -1 45.5v67.5q0 41 0.5 91t1 96.5t1 84
t1.5 54.5z" />
    <glyph glyph-name="umacron" unicode="&#x16b;" horiz-adv-x="726" 
d="M226 773q-2 0 -4 3.5t-4 6.5v72l5 7q34 1 63 1.5t53 0.5q43 0 76.5 -0.5t65.5 -0.5q11 0 20.5 -1t9.5 -5v-79q0 -1 -3 -4t-7 -3l-161 1l-7 -1zM468 689q23 0 67 -1t86 -1q6 0 10.5 -2.5t4.5 -12.5v-396q0 -3 -0.5 -10l-1 -14t-2 -12.5t-3.5 -5.5q1 -5 1 -11v-11
q0 -37 -15 -76t-38 -65q-14 -15 -26 -25t-23 -24q-23 -11 -49 -20t-48 -22q-3 3 -6 3q-12 0 -25.5 -2.5t-26.5 -2.5q-23 0 -42 1.5t-36.5 6t-35 12t-37.5 20.5q-33 17 -55 35.5t-36.5 41t-23 49.5t-13.5 61q0 53 -0.5 102t-1.5 97t-1.5 97t-0.5 102q0 21 1 45t8 39
q5 0 16.5 0.5t23.5 0.5t22.5 0.5t12.5 0.5q24 0 46 -1t45 -1l7 -6v-368q0 -13 0.5 -22t0.5 -19t0.5 -22.5t0.5 -32.5q0 -5 7 -15.5t16.5 -20.5t19 -17t15.5 -7l52 2q8 5 15 6t14 6q13 8 20 16.5t11 17.5t6.5 20t6.5 23q-1 14 -1 45.5v67.5q0 41 0.5 91t1 96.5t1 84t1.5 54.5
z" />
    <glyph glyph-name="Uring" unicode="&#x16e;" horiz-adv-x="726" 
d="M497 833q0 -29 -12.5 -55t-36.5 -41q-3 -5 -8 -7q-16 -11 -35 -14t-39 -4h-1q-2 0 -2 1q-53 2 -85.5 29t-40.5 72q1 2 1 7t-1 8.5t-1 8.5q0 29 13 54.5t36 41.5q2 0 2 -1q0 7 6 7q17 12 35.5 16t38.5 4h4q33 -1 57 -12t39 -29t22.5 -40.5t7.5 -45.5zM367 771
q26 0 46 19.5t20 51.5q0 20 -16 39t-48 19l-3 2q-26 0 -45.5 -18.5t-19.5 -39.5q0 -39 19.5 -56t46.5 -17zM468 689q23 0 67 -1t86 -1q6 0 10.5 -2.5t4.5 -12.5v-396q0 -3 -0.5 -10l-1 -14t-2 -12.5t-2.5 -5.5v-22q0 -37 -15 -76t-38 -65q-14 -15 -24.5 -28.5t-24.5 -20.5
q-23 -11 -49 -20t-48 -22q-3 3 -6 3q-12 0 -25.5 -2.5t-26.5 -2.5q-23 0 -42 1.5t-36.5 6t-35 12t-37.5 20.5q-33 17 -55 35.5t-36.5 41t-23 49.5t-13.5 61q0 53 -0.5 102t-1.5 97t-1.5 97t-0.5 102q0 21 0.5 45t3.5 39q7 0 19.5 0.5t25 0.5t23 0.5t12.5 0.5q24 0 46 -1
t45 -1l7 -6v-368q-3 -11 -4 -18.5t-1 -17.5q0 -16 3.5 -27t3.5 -33q0 -5 7 -15.5t16.5 -20.5t19 -17t15.5 -7l52 2q8 5 15 6t14 6q13 8 20 16.5t11 17.5t6.5 20t6.5 23q-1 14 -1 45.5v67.5q0 41 0.5 91t1 96.5t1 84t1.5 54.5z" />
    <glyph glyph-name="uring" unicode="&#x16f;" horiz-adv-x="726" 
d="M497 833q0 -29 -12.5 -55t-36.5 -41q-3 -5 -8 -7q-16 -11 -35 -14t-39 -4h-1q-2 0 -2 1q-53 2 -85.5 29t-40.5 72q1 2 1 7t-1 8.5t-1 8.5q0 29 13 54.5t36 41.5q2 0 2 -1q0 7 6 7q17 12 35.5 16t38.5 4h4q33 -1 57 -12t39 -29t22.5 -40.5t7.5 -45.5zM367 771
q26 0 46 19.5t20 51.5q0 20 -16 39t-48 19l-3 2q-26 0 -45.5 -18.5t-19.5 -39.5q0 -39 19.5 -56t46.5 -17zM468 689q23 0 67 -1t86 -1q6 0 10.5 -2.5t4.5 -12.5v-396q0 -3 -0.5 -10l-1 -14t-2 -12.5t-3.5 -5.5q1 -5 1 -11v-11q0 -37 -15 -76t-38 -65q-14 -15 -26 -25
t-23 -24q-23 -11 -49 -20t-48 -22q-3 3 -6 3q-12 0 -25.5 -2.5t-26.5 -2.5q-23 0 -42 1.5t-36.5 6t-35 12t-37.5 20.5q-33 17 -55 35.5t-36.5 41t-23 49.5t-13.5 61q0 53 -0.5 102t-1.5 97t-1.5 97t-0.5 102q0 21 1 45t8 39q5 0 16.5 0.5t23.5 0.5t22.5 0.5t12.5 0.5
q24 0 46 -1t45 -1l7 -6v-368q0 -13 0.5 -22t0.5 -19t0.5 -22.5t0.5 -32.5q0 -5 7 -15.5t16.5 -20.5t19 -17t15.5 -7l52 2q8 5 15 6t14 6q13 8 20 16.5t11 17.5t6.5 20t6.5 23q-1 14 -1 45.5v67.5q0 41 0.5 91t1 96.5t1 84t1.5 54.5z" />
    <glyph glyph-name="Uhungarumlaut" unicode="&#x170;" horiz-adv-x="726" 
d="M411 928q7 0 8.5 -4.5t1.5 -8.5v-3l-95 -155q-5 -6 -17 -8.5t-20 -2.5q-5 0 -14 0.5l-18 1t-16 2t-7 4.5l42 158q2 5 6 10.5t9 5.5h120zM609 928q7 0 8.5 -4.5t1.5 -8.5v-3l-112 -155q-5 -6 -17 -8.5t-20 -2.5q-7 0 -14 0.5t-14 0.5q-11 0 -19 1.5t-8 5.5v10l59 148
q2 5 6 10.5t9 5.5h120zM468 689q23 0 67 -1t86 -1q6 0 10.5 -2.5t4.5 -12.5v-396q0 -3 -0.5 -10l-1 -14t-2 -12.5t-2.5 -5.5v-22q0 -37 -15 -76t-38 -65q-14 -15 -24.5 -28.5t-24.5 -20.5q-23 -11 -49 -20t-48 -22q-3 3 -6 3q-12 0 -25.5 -2.5t-26.5 -2.5q-23 0 -42 1.5
t-36.5 6t-35 12t-37.5 20.5q-33 17 -55 35.5t-36.5 41t-23 49.5t-13.5 61q0 53 -0.5 102t-1.5 97t-1.5 97t-0.5 102q0 21 0.5 45t3.5 39q7 0 19.5 0.5t25 0.5t23 0.5t12.5 0.5q24 0 46 -1t45 -1l7 -6v-368q-3 -11 -4 -18.5t-1 -17.5q0 -16 3.5 -27t3.5 -33q0 -5 7 -15.5
t16.5 -20.5t19 -17t15.5 -7l52 2q8 5 15 6t14 6q13 8 20 16.5t11 17.5t6.5 20t6.5 23q-1 14 -1 45.5v67.5q0 41 0.5 91t1 96.5t1 84t1.5 54.5z" />
    <glyph glyph-name="uhungarumlaut" unicode="&#x171;" horiz-adv-x="726" 
d="M410 928q7 0 8.5 -4.5t1.5 -8.5v-3l-95 -155q-5 -6 -17 -8.5t-20 -2.5q-5 0 -14 0.5l-18 1t-16 2t-7 4.5l42 158q2 5 6 10.5t9 5.5h120zM608 928q7 0 8.5 -4.5t1.5 -8.5v-3l-112 -155q-5 -6 -17 -8.5t-20 -2.5q-7 0 -14 0.5t-14 0.5q-11 0 -19 1.5t-8 5.5v10l59 148
q2 5 6 10.5t9 5.5h120zM468 689q23 0 67 -1t86 -1q6 0 10.5 -2.5t4.5 -12.5v-396q0 -3 -0.5 -10l-1 -14t-2 -12.5t-3.5 -5.5q1 -5 1 -11v-11q0 -37 -15 -76t-38 -65q-14 -15 -26 -25t-23 -24q-23 -11 -49 -20t-48 -22q-3 3 -6 3q-12 0 -25.5 -2.5t-26.5 -2.5q-23 0 -42 1.5
t-36.5 6t-35 12t-37.5 20.5q-33 17 -55 35.5t-36.5 41t-23 49.5t-13.5 61q0 53 -0.5 102t-1.5 97t-1.5 97t-0.5 102q0 21 1 45t8 39q5 0 16.5 0.5t23.5 0.5t22.5 0.5t12.5 0.5q24 0 46 -1t45 -1l7 -6v-368q0 -13 0.5 -22t0.5 -19t0.5 -22.5t0.5 -32.5q0 -5 7 -15.5
t16.5 -20.5t19 -17t15.5 -7l52 2q8 5 15 6t14 6q13 8 20 16.5t11 17.5t6.5 20t6.5 23q-1 14 -1 45.5v67.5q0 41 0.5 91t1 96.5t1 84t1.5 54.5z" />
    <glyph glyph-name="Uogonek" unicode="&#x172;" horiz-adv-x="726" 
d="M621 687q6 0 10.5 -2.5t4.5 -12.5v-396q0 -3 -0.5 -10l-1 -14t-2 -12.5t-2.5 -5.5v-22q0 -37 -15 -76t-38 -65q-14 -15 -24.5 -28.5t-24.5 -20.5q-14 -6 -29 -12t-31 -12q-16 -17 -30.5 -42.5t-14.5 -64.5q0 -12 6.5 -18t15.5 -9.5t19 -5.5t17 -4q1 -2 2.5 -4t1.5 -5v-53
q0 -8 -5.5 -10.5t-7.5 -2.5q-72 0 -102.5 25.5t-30.5 72.5q0 32 9.5 51t20.5 35q1 2 5 4l7 11h-8q-23 0 -42 1.5t-36.5 6t-35 12t-37.5 20.5q-33 17 -55 35.5t-36.5 41t-23 49.5t-13.5 61q0 53 -0.5 102t-1.5 97t-1.5 97t-0.5 102q0 21 0.5 45t3.5 39q7 0 19.5 0.5t25 0.5
t23 0.5t12.5 0.5q24 0 46 -1t45 -1l7 -6v-368q-3 -11 -4 -18.5t-1 -17.5q0 -16 3.5 -27t3.5 -33q0 -5 7 -15.5t16.5 -20.5t19 -17t15.5 -7l52 2q8 5 15 6t14 6q13 8 20 16.5t11 17.5t6.5 20t6.5 23q-1 14 -1 45.5v67.5q0 41 0.5 91t1 96.5t1 84t1.5 54.5l8 2q23 0 67 -1
t86 -1z" />
    <glyph glyph-name="uogonek" unicode="&#x173;" horiz-adv-x="726" 
d="M621 687q6 0 10.5 -2.5t4.5 -12.5v-396q0 -3 -0.5 -10l-1 -14t-2 -12.5t-3.5 -5.5q1 -5 1 -11v-11q0 -37 -15 -76t-38 -65q-14 -15 -26 -25t-23 -24q-14 -6 -29 -12t-31 -12q-16 -17 -30.5 -42.5t-14.5 -64.5q0 -12 6.5 -18t15.5 -9.5t19 -5.5t17 -4q1 -2 2.5 -4t1.5 -5
v-53q0 -8 -5.5 -10.5t-7.5 -2.5q-72 0 -102.5 25.5t-30.5 72.5q0 32 9.5 51t20.5 35q1 2 5 4l7 11h-8q-23 0 -42 1.5t-36.5 6t-35 12t-37.5 20.5q-33 17 -55 35.5t-36.5 41t-23 49.5t-13.5 61q0 53 -0.5 102t-1.5 97t-1.5 97t-0.5 102q0 21 1 45t8 39q5 0 16.5 0.5t23.5 0.5
t22.5 0.5t12.5 0.5q24 0 46 -1t45 -1l7 -6v-368q-3 -11 -4 -18.5t-1 -17.5q0 -16 3.5 -27t3.5 -33q0 -5 7 -15.5t16.5 -20.5t19 -17t15.5 -7l52 2q8 5 15 6t14 6q13 8 20 16.5t11 17.5t6.5 20t6.5 23q-1 14 -1 45.5v67.5q0 41 0.5 91t1 96.5t1 84t1.5 54.5l8 2q23 0 67 -1
t86 -1z" />
    <glyph glyph-name="Wcircumflex" unicode="&#x174;" horiz-adv-x="1088" 
d="M709 760q2 -4 2 -6q0 -7 -9 -7h-12t-20 -0.5t-23 -0.5h-21q-7 0 -10.5 2.5t-10.5 8.5l-57 57l-55 -57q-7 -11 -19 -11q-20 0 -38 0.5t-39 0.5q-9 0 -9 7q0 4 4 10l94 132q3 5 6.5 10.5t8.5 5.5h83q6 0 10.5 -2t11 -8.5t16 -19t23.5 -32.5zM166 699q15 0 31 -0.5t29.5 -2
t22.5 -4t11 -6.5l119 -333q1 -2 2.5 -4t3.5 -4q7 4 10 18.5t5 23.5l94 290q2 5 6 13t11 8h77q2 0 6 -6t5 -9l107 -309q0 -4 2 -15t7 -14q2 1 7.5 14.5t12 31.5t13 37.5t10.5 32.5l71 219q1 2 4 7t5 5l29 3h150q5 0 6.5 -4t1.5 -7q0 -15 -8 -41t-17.5 -51.5t-17.5 -43.5
t-7 -16l-170 -528q-5 -12 -15 -16q-18 -1 -30 -1.5t-27 -0.5q-4 0 -14 0.5t-20.5 0.5t-20.5 0.5t-14 0.5q-7 1 -11.5 11t-7.5 22.5t-6 24.5t-7 18q-8 28 -18.5 61.5t-20 63.5t-17 53t-10.5 30q-8 0 -9.5 -2t-3.5 -7l-90 -259q0 -2 -5 -9t-7 -7h-120q-11 0 -19 2l-243 677
q-1 2 -3.5 9.5t-2.5 10.5q0 7 10.5 9t20.5 2h14t12 0.5t17.5 0.5h28.5z" />
    <glyph glyph-name="wcircumflex" unicode="&#x175;" horiz-adv-x="1088" 
d="M703 760q2 -4 2 -6q0 -7 -9 -7h-12t-20 -0.5t-23 -0.5h-21q-7 0 -10.5 2.5t-10.5 8.5l-57 57l-55 -57q-7 -11 -19 -11q-20 0 -38 0.5t-39 0.5q-9 0 -9 7q0 4 4 10l94 132q3 5 6.5 10.5t8.5 5.5h83q6 0 10.5 -2t11 -8.5t16 -19t23.5 -32.5zM923 694h28.5t17 -0.5t12 -0.5
h14.5q10 0 20 -2t10 -9q0 -2 -1.5 -7t-8.5 -26t-21.5 -62.5t-39.5 -116.5t-63.5 -187.5t-92.5 -275.5q-3 -1 -11 -4t-15 -5h-119q-2 0 -7 7t-5 9l-90 251q-3 5 -4.5 7t-8.5 2q-3 -7 -10.5 -28.5t-17.5 -50t-20 -60.5t-18 -60q-5 -6 -7.5 -18.5t-6 -24.5t-8 -22t-11.5 -12
l-68 -2q-15 0 -27.5 0.5t-29.5 1.5q-12 6 -15 16l-187 520q1 -1 -6.5 16t-17 41t-17.5 48.5t-8 39.5q0 4 2 8t6 4h150l29 -4q3 0 5.5 -4.5t3.5 -6.5l57 -156q0 -1 -0.5 -1.5t-0.5 -1.5q0 -10 8 -26.5t12 -27.5q4 -13 10.5 -32t13 -37t12 -32t7.5 -15q5 3 7 14.5t2 14.5
l102 302q2 4 5.5 9.5t6.5 5.5h76q7 0 11.5 -8t6.5 -13l101 -283q1 -8 4 -23t11 -19q2 2 3.5 4.5t2.5 4.5l112 325q2 4 11 6.5t22.5 4t29.5 2t31 0.5z" />
    <glyph glyph-name="Ycircumflex" unicode="&#x176;" horiz-adv-x="753" 
d="M537 760q2 -4 2 -6q0 -7 -9 -7h-12t-20 -0.5t-23 -0.5h-21q-7 0 -10.5 2.5t-10.5 8.5l-57 57l-55 -57q-7 -11 -19 -11q-20 0 -38 0.5t-39 0.5q-9 0 -9 7q0 4 4 10l94 132q3 5 6.5 10.5t8.5 5.5h83q6 0 10.5 -2t11 -8.5t16 -19t23.5 -32.5zM232 701q9 0 15.5 -2t10.5 -10
l113 -205q3 -4 5 -4t5.5 5.5t8 13t8 15.5t5.5 14q3 6 11.5 21t19 34t22.5 39.5t22.5 37t18 27.5t10.5 11h193l3 -17l-115 -209q-8 -6 -12.5 -17.5t-11.5 -19.5l-81 -153q-6 -9 -8 -37t-2.5 -66.5t-0.5 -82.5t-2 -86q-2 -4 -6 -6t-8 -3q-6 0 -22 -0.5t-34 -0.5t-34.5 -0.5
t-23.5 -0.5h-15.5t-18 1t-14.5 3.5t-6 6.5v254q-26 40 -50 84.5t-45 86.5q-7 14 -17 32t-21.5 37t-23 36.5t-21.5 29.5l-58 113q0 2 -1 5t-1 5t5 5t7 3h170z" />
    <glyph glyph-name="ycircumflex" unicode="&#x177;" horiz-adv-x="793" 
d="M557 760q2 -4 2 -6q0 -7 -9 -7h-12t-20 -0.5t-23 -0.5h-21q-7 0 -10.5 2.5t-10.5 8.5l-57 57l-55 -57q-7 -11 -19 -11q-20 0 -38 0.5t-39 0.5q-9 0 -9 7q0 4 4 10l94 132q3 5 6.5 10.5t8.5 5.5h83q6 0 10.5 -2t11 -8.5t16 -19t23.5 -32.5zM712 699q2 0 6.5 -3.5t4.5 -5.5
q0 -1 -1 -4t-1 -5l-58 -113q-10 -12 -20 -29.5t-19.5 -36.5t-18 -37t-15.5 -32q-21 -42 -46.5 -86.5t-51.5 -84.5v-254q0 -4 -6 -6.5t-14.5 -3.5t-18 -1h-15.5q-7 0 -23 0.5t-34 0.5t-34 0.5t-23 0.5q-3 1 -7.5 3t-6.5 6q-2 42 -2 86t-0.5 82t-2.5 66.5t-8 37.5l-84 153
q-7 8 -11.5 19.5t-13.5 17.5l-118 209l4 17h192q3 0 11 -11t18.5 -27.5t22.5 -37t22.5 -39.5t18.5 -34t12 -21q1 -6 5 -13.5t8 -14t7.5 -11.5t5.5 -5q4 0 5 3l114 202q3 8 9.5 10t15.5 2h171z" />
    <glyph glyph-name="Ydieresis" unicode="&#x178;" horiz-adv-x="753" 
d="M204 761q-10 0 -16 5v62.5t0.5 38.5t1 19.5t1.5 5.5l4 5h126l5 -7v-126q0 -4 -6.5 -5t-8.5 -1q-19 0 -34.5 3t-31.5 3zM566 755q-26 0 -49 1.5t-47 2.5l-22 1h-8q-3 0 -5.5 9t-4 23.5t-2 31.5t-0.5 32q0 14 1 25t5 11h127q2 0 3.5 -6t1.5 -8v-123zM232 701q9 0 15.5 -2
t10.5 -10l113 -205q3 -4 5 -4t5.5 5.5t8 13t8 15.5t5.5 14q3 6 11.5 21t19 34t22.5 39.5t22.5 37t18 27.5t10.5 11h193l3 -17l-115 -209q-8 -6 -12.5 -17.5t-11.5 -19.5l-81 -153q-6 -9 -8 -37t-2.5 -66.5t-0.5 -82.5t-2 -86q-2 -4 -6 -6t-8 -3q-6 0 -22 -0.5t-34 -0.5
t-34.5 -0.5t-23.5 -0.5h-15.5t-18 1t-14.5 3.5t-6 6.5v254q-26 40 -50 84.5t-45 86.5q-7 14 -17 32t-21.5 37t-23 36.5t-21.5 29.5l-58 113q0 2 -1 5t-1 5t5 5t7 3h170z" />
    <glyph glyph-name="Zacute" unicode="&#x179;" horiz-adv-x="702" 
d="M345 747q-8 0 -8 8q0 2 1 5t2 5l51 131q2 5 6 10.5t9 5.5h113q7 0 8.5 -5t1.5 -8q0 -4 -3.5 -10t-11.5 -17l-85 -115q-5 -6 -16.5 -8.5t-20.5 -2.5l-31 1h-16zM190 704q38 0 72.5 -1t68.5 -2.5t68.5 -2.5t72.5 -1q39 0 78.5 2t79.5 2l3 -4q0 -1 -6 -12.5t-13 -25.5
t-14 -26t-8 -14l-82 -147q-9 -12 -17 -26.5t-12 -29.5l-117 -213q-6 -6 -13.5 -18t-7.5 -20q0 -5 9 -7.5t22.5 -4t29 -2t29.5 -0.5q21 0 41.5 0.5t33.5 0.5q11 0 22.5 -3t11.5 -4q1 0 5.5 3.5t8.5 3.5q11 0 18.5 1t17.5 1q4 0 9.5 -1.5t5.5 -7.5t-8.5 -30t-19 -50t-19 -46.5
t-9.5 -20.5h-37l-252 2q-51 0 -99.5 -1t-97.5 -1q-2 2 -2 5l104 198l12 17l127 227q4 11 12 23t16.5 24.5t15 24t6.5 20.5t-2 11t-16 2q-60 0 -111 -0.5t-112 -0.5q-3 1 -3.5 4t-0.5 5v3.5t2 2.5l45 133l7 6q6 0 13.5 0.5t11.5 0.5z" />
    <glyph glyph-name="zacute" unicode="&#x17a;" horiz-adv-x="697" 
d="M345 747q-8 0 -8 8q0 2 1 5t2 5l51 131q2 5 6 10.5t9 5.5h113q7 0 8.5 -5t1.5 -8q0 -4 -3.5 -10t-11.5 -17l-85 -115q-5 -6 -16.5 -8.5t-20.5 -2.5l-31 1h-16zM628 696q2 -4 2 -6l-105 -197l-11 -18l-128 -227q-3 -11 -11 -22.5t-15.5 -23.5t-13.5 -23t-6 -20t2 -11
t16 -2q60 0 121.5 1.5t123.5 1.5q3 -1 3.5 -4t0.5 -5v-3.5t-1 -2.5l-45 -134l-7 -6q-6 0 -13.5 -0.5t-11.5 -0.5q-76 0 -152 1t-152 1h-158l-3 3q0 1 5 12.5t11.5 25t12.5 25t8 13.5l81 147q10 12 17.5 26.5t11.5 29.5l117 216q6 6 15.5 20t9.5 23q-6 6 -24.5 7.5t-45.5 1.5
q-21 0 -41.5 -0.5t-33.5 -0.5q-11 0 -22.5 2.5t-11.5 4.5q-1 0 -5.5 -3.5t-8.5 -3.5q-11 0 -18.5 -1.5t-17.5 -1.5q-5 0 -10 2t-5 8t8 29.5t17.5 49t17.5 46t9 20.5l203 1q10 0 25 -0.5t31 -1t30.5 -1t23.5 -0.5q24 0 64.5 1t89.5 1z" />
    <glyph glyph-name="Zdotaccent" unicode="&#x17b;" horiz-adv-x="702" 
d="M324 891q19 0 34.5 -3t31.5 -3q14 0 24 1.5t17 1.5q10 0 16 -5v-63.5t-0.5 -40.5t-1 -21t-1.5 -6l-115 -1l-20 2v97q0 26 3 33.5t12 7.5zM190 704q38 0 72.5 -1t68.5 -2.5t68.5 -2.5t72.5 -1q39 0 78.5 2t79.5 2l3 -4q0 -1 -6 -12.5t-13 -25.5t-14 -26t-8 -14l-82 -147
q-9 -12 -17 -26.5t-12 -29.5l-117 -213q-6 -6 -13.5 -18t-7.5 -20q0 -5 9 -7.5t22.5 -4t29 -2t29.5 -0.5q21 0 41.5 0.5t33.5 0.5q11 0 22.5 -3t11.5 -4q1 0 5.5 3.5t8.5 3.5q11 0 18.5 1t17.5 1q4 0 9.5 -1.5t5.5 -7.5t-8.5 -30t-19 -50t-19 -46.5t-9.5 -20.5h-37l-252 2
q-51 0 -99.5 -1t-97.5 -1q-2 2 -2 5l104 198l12 17l127 227q4 11 12 23t16.5 24.5t15 24t6.5 20.5t-2 11t-16 2q-60 0 -111 -0.5t-112 -0.5q-3 1 -3.5 4t-0.5 5v3.5t2 2.5l45 133l7 6q6 0 13.5 0.5t11.5 0.5z" />
    <glyph glyph-name="zdotaccent" unicode="&#x17c;" horiz-adv-x="697" 
d="M324 891q19 0 34.5 -3t31.5 -3q14 0 24 1.5t17 1.5q10 0 16 -5v-63.5t-0.5 -40.5t-1 -21t-1.5 -6l-115 -1l-20 2v97q0 26 3 33.5t12 7.5zM628 696q2 -4 2 -6l-105 -197l-11 -18l-128 -227q-3 -11 -11 -22.5t-15.5 -23.5t-13.5 -23t-6 -20t2 -11t16 -2q60 0 121.5 1.5
t123.5 1.5q3 -1 3.5 -4t0.5 -5v-3.5t-1 -2.5l-45 -134l-7 -6q-6 0 -13.5 -0.5t-11.5 -0.5q-76 0 -152 1t-152 1h-158l-3 3q0 1 5 12.5t11.5 25t12.5 25t8 13.5l81 147q10 12 17.5 26.5t11.5 29.5l117 216q6 6 15.5 20t9.5 23q-6 6 -24.5 7.5t-45.5 1.5q-21 0 -41.5 -0.5
t-33.5 -0.5q-11 0 -22.5 2.5t-11.5 4.5q-1 0 -5.5 -3.5t-8.5 -3.5q-11 0 -18.5 -1.5t-17.5 -1.5q-5 0 -10 2t-5 8t8 29.5t17.5 49t17.5 46t9 20.5l203 1q10 0 25 -0.5t31 -1t30.5 -1t23.5 -0.5q24 0 64.5 1t89.5 1z" />
    <glyph glyph-name="Zcaron" unicode="&#x17d;" horiz-adv-x="702" 
d="M220 898q-2 4 -2 6q0 7 9 7h12t20 0.5t23 0.5h21q7 0 10.5 -2.5t10.5 -8.5l57 -57l55 57q11 11 19 11q20 0 38 -0.5t39 -0.5q9 0 9 -7q0 -4 -4 -10l-94 -132q-3 -5 -6.5 -10.5t-8.5 -5.5h-83q-6 0 -10.5 2t-11 8.5t-16 19t-23.5 32.5zM592 154q4 0 9.5 -1.5t5.5 -7.5
t-8.5 -30t-19 -50t-19 -46.5t-9.5 -20.5h-37l-252 2q-51 0 -99.5 -1t-97.5 -1q-2 2 -2 5l104 198l12 17l127 227q4 11 12 23t16.5 24.5t15 24t6.5 20.5t-2 11t-16 2q-60 0 -111 -0.5t-112 -0.5q-3 1 -3.5 4t-0.5 5v3.5t2 2.5l45 133l7 6q6 0 13.5 0.5t11.5 0.5q38 0 72.5 -1
t68.5 -2.5t68.5 -2.5t72.5 -1q39 0 78.5 2t79.5 2l3 -4q0 -1 -6 -12.5t-13 -25.5t-14 -26t-8 -14l-82 -147q-9 -12 -17 -26.5t-12 -29.5l-117 -213q-6 -6 -13.5 -18t-7.5 -20q0 -5 9 -7.5t22.5 -4t29 -2t29.5 -0.5q21 0 41.5 0.5t33.5 0.5q11 0 22.5 -3t11.5 -4q1 0 5.5 3.5
t8.5 3.5q11 0 18.5 1t17.5 1z" />
    <glyph glyph-name="zcaron" unicode="&#x17e;" horiz-adv-x="697" 
d="M220 898q-2 4 -2 6q0 7 9 7h12t20 0.5t23 0.5h21q7 0 10.5 -2.5t10.5 -8.5l57 -57l55 57q11 11 19 11q20 0 38 -0.5t39 -0.5q9 0 9 -7q0 -4 -4 -10l-94 -132q-3 -5 -6.5 -10.5t-8.5 -5.5h-83q-6 0 -10.5 2t-11 8.5t-16 19t-23.5 32.5zM603 149q3 -1 3.5 -4t0.5 -5v-3.5
t-1 -2.5l-45 -134l-7 -6q-6 0 -13.5 -0.5t-11.5 -0.5q-76 0 -152 1t-152 1h-158l-3 3q0 1 5 12.5t11.5 25t12.5 25t8 13.5l81 147q10 12 17.5 26.5t11.5 29.5l117 216q6 6 15.5 20t9.5 23q-6 6 -24.5 7.5t-45.5 1.5q-21 0 -41.5 -0.5t-33.5 -0.5q-11 0 -22.5 2.5t-11.5 4.5
q-1 0 -5.5 -3.5t-8.5 -3.5q-11 0 -18.5 -1.5t-17.5 -1.5q-5 0 -10 2t-5 8t8 29.5t17.5 49t17.5 46t9 20.5l203 1q10 0 25 -0.5t31 -1t30.5 -1t23.5 -0.5q24 0 64.5 1t89.5 1q2 -4 2 -6l-105 -197l-11 -18l-128 -227q-3 -11 -11 -22.5t-15.5 -23.5t-13.5 -23t-6 -20t2 -11
t16 -2q60 0 121.5 1.5t123.5 1.5z" />
    <glyph glyph-name="florin" unicode="&#x192;" horiz-adv-x="596" 
d="M515 480q0 -5 -2 -5.5t-4 -0.5q-10 0 -19 4t-16 6q-13 4 -27 5t-29 1q-33 0 -57 -19.5t-34 -57.5q-5 -18 -9.5 -44t-9.5 -46l80 -1q15 0 15 -6v-61q0 -3 -0.5 -5t-0.5 -5t0.5 -5t0.5 -5v-6q0 -6 -8 -6h-107q0 -2 1 -2.5t1 -2.5l-39 -221q-1 -5 -3 -9.5t-3 -9.5
q-1 -3 0 -6.5t0 -7.5l-26 -160l-6 -5l-130 3q-1 3 -1 11l54 285q0 2 2 3.5t2 3.5q1 6 0.5 11.5t0.5 11.5q5 26 9.5 50.5t8.5 44.5h-70q-2 0 -4.5 3.5t-4.5 7.5v80l5 7l87 1q7 39 13 66.5t11.5 47.5t10 34t9.5 26q7 18 21.5 39t36 39.5t51.5 30.5t69 12q52 0 82 -10t39 -18
v-11q0 -2 -0.5 -4t-0.5 -3q0 -3 2 -5z" />
    </font>
</defs>
</svg>
