<?xml version="1.0" standalone="no"?>
<!DOCTYPE svg PUBLIC "-//W3C//DTD SVG 1.1//EN" "http://www.w3.org/Graphics/SVG/1.1/DTD/svg11.dtd" >
<svg xmlns="http://www.w3.org/2000/svg">
<metadata></metadata>
<defs>
<font id="ExpresswayRgRegular" horiz-adv-x="1267" >
<font-face units-per-em="2048" ascent="1573" descent="-475" />
<missing-glyph horiz-adv-x="651" />
<glyph horiz-adv-x="0" />
<glyph horiz-adv-x="2048" />
<glyph horiz-adv-x="651" />
<glyph unicode=" "  horiz-adv-x="651" />
<glyph unicode="&#x09;" horiz-adv-x="651" />
<glyph unicode="&#xa0;" horiz-adv-x="651" />
<glyph unicode="!" horiz-adv-x="575" d="M172 80q0 48 32 81.5t81 33.5q47 0 81.5 -34t34.5 -81t-34 -79t-82 -32q-49 0 -81 31.5t-32 79.5zM184 1417h205l-37 -1050h-139z" />
<glyph unicode="&#x22;" horiz-adv-x="759" d="M154 1501h149l-29 -629h-98zM455 1501h149l-29 -629h-98z" />
<glyph unicode="#" horiz-adv-x="1224" d="M66 373v127h245l78 391h-244v129h269l75 397h134l-78 -397h278l78 397h133l-80 -397h203v-129h-227l-80 -391h227v-127h-252l-73 -373h-131l73 373h-278l-74 -373h-129l74 373h-221zM440 500h281l78 391h-281z" />
<glyph unicode="$" horiz-adv-x="1021" d="M63 303l113 133q63 -63 150.5 -95t177.5 -32q46 0 89 7.5t83 23.5t64 47.5t24 73.5q0 47 -21 82.5t-56.5 59t-81.5 41.5t-96.5 34t-101 32.5t-96.5 41t-81.5 55.5t-56.5 79.5t-21 110.5q0 115 79.5 187t202.5 90v143h168v-145q167 -30 270 -156l-129 -106 q-40 48 -102.5 74t-128.5 26q-80 0 -136.5 -27.5t-56.5 -83.5q0 -55 48 -88q38 -27 93 -51t106.5 -41t107.5 -37t101.5 -45.5t83 -59t58.5 -84.5t21 -116q0 -77 -28 -137.5t-76.5 -99t-106 -61.5t-125.5 -32v-147h-168v145q-216 23 -371 158z" />
<glyph unicode="%" horiz-adv-x="1490" d="M100 1124q0 127 88 216.5t215 89.5q126 0 216 -90t90 -216q0 -127 -90 -216t-216 -89q-127 0 -215 88.5t-88 216.5zM221 0l883 1415h156l-889 -1415h-150zM229 1122q0 -73 51 -123.5t123 -50.5q74 0 125.5 50.5t51.5 123.5q0 72 -52 124t-125 52t-123.5 -51.5 t-50.5 -124.5zM778 291q0 126 89 215.5t216 89.5q126 0 216 -89.5t90 -215.5q0 -127 -90 -216t-216 -89q-127 0 -216 89t-89 216zM909 289q0 -73 50.5 -123.5t123.5 -50.5t125 50.5t52 123.5t-52 123.5t-125 50.5t-123.5 -51t-50.5 -123z" />
<glyph unicode="&#x26;" horiz-adv-x="1368" d="M74 444q0 219 188 363q-90 125 -90 272t101.5 256t261.5 109q120 0 204.5 -38t143.5 -122l-138 -149q-83 102 -208 102q-70 0 -116 -39.5t-46 -114.5q0 -71 51.5 -160.5t139.5 -181.5t189 -177.5t216 -168.5q70 97 80 277h204q-4 -133 -31 -226t-81 -165l184 -123 l-104 -176l-209 141q-158 -152 -418 -152q-122 0 -222 38.5t-165 104t-100 151t-35 179.5zM274 446q0 -114 85 -193t221 -79q77 0 133 19.5t114 60.5q-283 209 -446 389q-107 -89 -107 -197z" />
<glyph unicode="'" horiz-adv-x="456" d="M154 1501h149l-29 -629h-98z" />
<glyph unicode="(" horiz-adv-x="743" d="M215 532q0 464 279 883h153q-301 -388 -301 -883q0 -439 303 -878h-155q-143 214 -211 428.5t-68 449.5z" />
<glyph unicode=")" horiz-adv-x="743" d="M94 -348q303 445 303 880q0 495 -301 883h154q278 -406 278 -883q0 -238 -67 -453.5t-211 -426.5h-156z" />
<glyph unicode="*" horiz-adv-x="942" d="M80 1073l51 158l256 -84v270h166v-270l256 84l51 -158l-258 -84l162 -217l-139 -104l-156 213l-154 -213l-139 104l162 217z" />
<glyph unicode="+" horiz-adv-x="1036" d="M154 633v125h315v299h125v-299h289v-125h-289v-305h-125v305h-315z" />
<glyph unicode="," horiz-adv-x="620" d="M154 -262l139 416l174 -70l-188 -403z" />
<glyph unicode="-" horiz-adv-x="768" d="M68 457v166h630v-166h-630z" />
<glyph unicode="." horiz-adv-x="522" d="M154 76q0 44 29 76t75 32q43 0 76 -32.5t33 -75.5q0 -42 -33 -73.5t-76 -31.5q-46 0 -75 30.5t-29 74.5z" />
<glyph unicode="/" horiz-adv-x="759" d="M23 -152l577 1567h137l-577 -1567h-137z" />
<glyph unicode="0" horiz-adv-x="1304" d="M121 707q0 354 145 546.5t385 192.5q116 0 213.5 -48t169 -139.5t111 -233t39.5 -318.5q0 -352 -147 -544t-386 -192q-240 0 -385 191.5t-145 544.5zM322 707q0 -264 86 -399.5t243 -135.5t244.5 136t87.5 399t-87.5 398.5t-244.5 135.5t-243 -135t-86 -399z" />
<glyph unicode="1" horiz-adv-x="598" d="M84 1102v178q153 21 174 137h180v-1417h-205v1102h-149z" />
<glyph unicode="2" horiz-adv-x="1173" d="M92 0q18 261 104.5 432.5t280.5 294.5q32 20 92.5 50.5t106.5 55.5t93 59t73 78.5t26 96.5q0 58 -39 99.5t-97.5 60t-127.5 18.5q-90 0 -178.5 -37.5t-146.5 -107.5l-146 145q83 95 211 148t254 53q73 0 142 -15t130.5 -46t107 -75.5t72.5 -108.5t27 -140 q0 -40 -7.5 -76.5t-19 -66.5t-32.5 -59.5t-40 -51.5t-49 -46t-53 -40.5t-58.5 -37.5t-58.5 -33.5t-60.5 -32.5t-57.5 -31q-115 -69 -194 -166t-109 -217h747v-203h-993z" />
<glyph unicode="3" horiz-adv-x="1138" d="M51 166l129 156q60 -64 159 -98t183 -34q156 0 247 68t91 178q0 104 -68 171t-192 67h-141v190h125q85 0 136.5 54t51.5 135q0 58 -36.5 99.5t-88.5 59t-112 17.5q-77 0 -153 -32t-116 -85l-131 148q58 83 165 126.5t235 43.5q85 0 161.5 -22t137 -63.5t96 -109.5 t35.5 -154q0 -109 -38 -179.5t-118 -113.5q110 -25 180 -123t70 -225q0 -203 -149.5 -328.5t-389.5 -125.5q-140 0 -266 47.5t-203 132.5z" />
<glyph unicode="4" horiz-adv-x="1198" d="M51 252v192l762 973h186v-966h144v-199h-144v-252h-204v252h-744zM283 444h512v652z" />
<glyph unicode="5" horiz-adv-x="1218" d="M59 162l131 160q162 -132 361 -132q170 0 267 86.5t97 229.5q0 139 -87 213t-214 74q-93 0 -161 -25t-144 -82l-170 70l66 661h790v-205h-622l-33 -307q138 80 297 80q137 0 244.5 -53t172 -163.5t64.5 -264.5q0 -109 -33 -197.5t-88 -147t-130.5 -98.5t-157.5 -57.5 t-172 -17.5q-272 0 -478 176z" />
<glyph unicode="6" horiz-adv-x="1269" d="M96 578q0 172 55 331t154 277q64 76 140.5 126t167 74t175 32.5t197.5 8.5q0 -132 -2 -200q-72 0 -129.5 -4t-121 -16.5t-113.5 -33.5t-99.5 -57t-86.5 -84.5t-67.5 -118.5t-48.5 -157q59 85 149 118t220 33q217 0 356.5 -123.5t139.5 -318.5q0 -132 -71 -241.5 t-194.5 -172.5t-271.5 -63q-114 0 -207.5 32.5t-156 88t-105 132t-61.5 160.5t-19 177zM305 467q13 -121 99 -201t239 -80q157 0 248.5 81.5t91.5 197.5q0 115 -93 188.5t-239 73.5q-143 0 -238 -70t-108 -190z" />
<glyph unicode="7" horiz-adv-x="1091" d="M47 1212v205h997v-168q-228 -265 -340 -560t-155 -689h-205q21 182 51 336t79 317t126 305.5t178 253.5h-731z" />
<glyph unicode="8" horiz-adv-x="1259" d="M92 430q0 133 68.5 231t179.5 127q-154 83 -154 287q0 87 37.5 156.5t100.5 111.5t141 64.5t164 22.5q116 0 214.5 -37t164 -118t65.5 -192q0 -213 -153 -295q109 -30 178 -128t69 -230q0 -197 -149.5 -320.5t-388.5 -123.5t-388 123.5t-149 320.5zM289 432 q0 -103 93 -174.5t247 -71.5q155 0 248.5 71.5t93.5 174.5q0 133 -83 192.5t-259 59.5q-179 0 -259.5 -68.5t-80.5 -183.5zM383 1063q0 -108 57 -159.5t189 -51.5q248 0 248 211q0 78 -74.5 123t-173.5 45q-63 0 -117.5 -18t-91.5 -57.5t-37 -92.5z" />
<glyph unicode="9" horiz-adv-x="1269" d="M88 952q0 129 71 239t194.5 174.5t271.5 64.5q142 0 250.5 -49.5t172 -134.5t95 -188t31.5 -220q0 -173 -55.5 -332.5t-153.5 -274.5q-66 -77 -142.5 -127t-166.5 -74t-173 -32t-198 -8q0 132 2 198q72 0 129 4t121 16t113.5 33t99 56.5t86.5 84.5t67.5 119t48.5 158 q-60 -83 -150.5 -117t-217.5 -34q-217 0 -356.5 124.5t-139.5 319.5zM287 950q0 -114 92.5 -187t238.5 -73q142 0 238 70t109 188q-13 121 -99 201t-239 80q-158 0 -249 -80.5t-91 -198.5z" />
<glyph unicode=":" horiz-adv-x="528" d="M154 76q0 44 29 76t75 32q43 0 76 -32.5t33 -75.5q0 -42 -33 -73.5t-76 -31.5q-46 0 -75 30.5t-29 74.5zM160 899q0 44 29 76.5t75 32.5q43 0 76 -33t33 -76q0 -42 -33 -73t-76 -31q-46 0 -75 30t-29 74z" />
<glyph unicode=";" horiz-adv-x="512" d="M68 -262l139 416l174 -70l-188 -403zM174 899q0 43 30.5 76t74.5 33t76 -33t32 -76t-32 -73.5t-76 -30.5t-74.5 30.5t-30.5 73.5z" />
<glyph unicode="&#x3c;" horiz-adv-x="1198" d="M154 633v123l890 321v-143l-704 -242l704 -241v-138z" />
<glyph unicode="=" horiz-adv-x="1036" d="M154 434v125h729v-125h-729zM154 831v127h729v-127h-729z" />
<glyph unicode="&#x3e;" horiz-adv-x="1198" d="M154 313v138l704 241l-704 242v143l890 -321v-123z" />
<glyph unicode="?" horiz-adv-x="962" d="M47 1280q177 150 412 150q123 0 218 -37.5t154.5 -120.5t59.5 -203q0 -62 -14 -116t-43 -100.5t-55 -78t-66 -72.5q-82 -85 -118 -147.5t-40 -153.5h-190q10 175 86 287q27 41 74.5 94.5t80.5 89.5t58.5 87t25.5 102q0 59 -32.5 98t-81.5 54.5t-113 15.5 q-161 0 -293 -115zM338 80q0 48 32 81.5t81 33.5q47 0 81.5 -34t34.5 -81t-34 -78t-82 -31q-49 0 -81 31t-32 78z" />
<glyph unicode="@" horiz-adv-x="1658" d="M143 608q0 209 93.5 374t255 255t360.5 90q108 0 205.5 -23.5t182.5 -73t147 -121t97.5 -174.5t35.5 -226q0 -189 -91 -303.5t-253 -114.5q-110 0 -166 86q-32 -26 -83 -43t-98 -17q-116 0 -185 79t-69 198q0 126 74 197t197 71q75 0 119 -33v39h120v-395q40 -63 113 -63 q59 0 104.5 45t67 106.5t21.5 124.5q0 125 -42 225.5t-114 163.5t-165.5 96t-199.5 33q-139 0 -254 -50t-189 -134.5t-114.5 -193t-40.5 -228.5q0 -234 129 -393q85 -105 190 -151t269 -68l-26 -127q-181 28 -308 86t-223 180q-160 202 -160 483zM696 594q0 -69 37 -115.5 t96 -46.5q76 0 134 37v250q-67 31 -117 31q-74 0 -112 -44t-38 -112z" />
<glyph unicode="A" d="M39 0l506 1417h176l508 -1417h-228l-94 274h-551l-92 -274h-225zM414 469h436l-219 647z" />
<glyph unicode="B" horiz-adv-x="1269" d="M154 0v1417h546q170 0 275.5 -102t105.5 -268q0 -111 -40.5 -179.5t-112.5 -115.5q45 -11 90 -40t84 -73t63.5 -108.5t24.5 -137.5q0 -193 -122.5 -293t-340.5 -100h-573zM354 197h396q111 0 178 55t67 156q0 99 -82.5 162t-185.5 63h-373v-436zM354 815h351 q71 0 127.5 64.5t56.5 140.5q0 87 -51.5 142t-132.5 55h-351v-402z" />
<glyph unicode="C" horiz-adv-x="1300" d="M113 707q0 177 46 318.5t128 233t193.5 139.5t244.5 48q311 0 477 -258l-149 -119q-138 172 -334 172q-189 0 -295.5 -135.5t-106.5 -398.5q0 -260 107.5 -397.5t294.5 -137.5q200 0 323 158l150 -117q-179 -242 -467 -242q-133 0 -244.5 47.5t-193.5 138.5t-128 232 t-46 318z" />
<glyph unicode="D" horiz-adv-x="1355" d="M154 0v1417h378q149 0 283 -54.5t231 -148.5t154 -225t57 -278q0 -146 -57 -278t-154 -227t-231 -150.5t-283 -55.5h-378zM358 201h177q217 0 365.5 144.5t148.5 363.5q0 223 -147.5 363t-366.5 140h-177v-1011z" />
<glyph unicode="E" horiz-adv-x="1038" d="M154 0v1417h780v-205h-578v-387h359v-202h-359v-424h594v-199h-796z" />
<glyph unicode="F" horiz-adv-x="980" d="M154 0v1417h780v-205h-578v-409h369v-203h-369v-600h-202z" />
<glyph unicode="G" horiz-adv-x="1374" d="M113 707q0 177 46.5 318.5t129 233t194 139.5t244.5 48q316 0 479 -266l-151 -113q-136 174 -332 174q-188 0 -298 -137.5t-110 -396.5t110 -397t298 -138q136 0 237 91t101 218v43h-297v191h506v-189q0 -114 -36.5 -214.5t-104 -176.5t-172.5 -120t-234 -44 q-132 0 -243 47.5t-193 138.5t-128 232t-46 318z" />
<glyph unicode="H" horiz-adv-x="1318" d="M154 0v1417h202v-592h605v592h204v-1417h-204v623h-605v-623h-202z" />
<glyph unicode="I" horiz-adv-x="526" d="M162 0v1417h203v-1417h-203z" />
<glyph unicode="J" horiz-adv-x="1093" d="M33 238l151 124q42 -81 114.5 -128.5t158.5 -47.5q121 0 209 97t88 229v905h204v-905q0 -148 -68 -269t-183.5 -189t-253.5 -68q-134 0 -250.5 67.5t-169.5 184.5z" />
<glyph unicode="K" horiz-adv-x="1212" d="M154 0v1417h202v-741l545 741h260l-444 -577l463 -840h-242l-346 678l-236 -305v-373h-202z" />
<glyph unicode="L" horiz-adv-x="1069" d="M154 0v1417h202v-1218h666v-199h-868z" />
<glyph unicode="M" horiz-adv-x="1638" d="M154 0v1417h227l436 -1024l436 1024h230v-1417h-205v965l-412 -965h-98l-412 965v-965h-202z" />
<glyph unicode="N" horiz-adv-x="1349" d="M154 0v1417h213l626 -1044v1044h203v-1417h-213l-627 1042v-1042h-202z" />
<glyph unicode="O" horiz-adv-x="1423" d="M113 707q0 353 164 546t434 193q133 0 242.5 -48t189.5 -139.5t124 -232.5t44 -319q0 -353 -164 -544.5t-436 -191.5q-270 0 -434 191.5t-164 544.5zM315 707q0 -263 104.5 -399t291.5 -136q186 0 291.5 137t105.5 398q0 264 -104.5 399t-292.5 135q-187 0 -291.5 -135.5 t-104.5 -398.5z" />
<glyph unicode="P" horiz-adv-x="1218" d="M154 0v1417h544q214 0 337.5 -110t123.5 -318t-123.5 -319t-337.5 -111h-342v-559h-202zM356 752h346q122 0 192.5 58t70.5 177q0 117 -70.5 173.5t-192.5 56.5h-346v-465z" />
<glyph unicode="Q" horiz-adv-x="1423" d="M113 707q0 353 164 546t434 193q133 0 242.5 -48t189.5 -139.5t124 -232.5t44 -319q0 -371 -187 -568l93 -116l-142 -115l-98 125q-118 -62 -266 -62q-270 0 -434 191.5t-164 544.5zM315 707q0 -263 104.5 -399t291.5 -136q88 0 135 31l-152 196l146 111l153 -201 q115 141 115 398q0 264 -104.5 399t-292.5 135q-187 0 -291.5 -135.5t-104.5 -398.5z" />
<glyph unicode="R" horiz-adv-x="1232" d="M154 0v1417h544q213 0 337 -109t124 -311q0 -170 -83 -273t-220 -136l328 -588h-242l-291 559h-295v-559h-202zM356 752h349q121 0 190.5 58t69.5 177q0 117 -70 173.5t-190 56.5h-349v-465z" />
<glyph unicode="S" horiz-adv-x="1214" d="M35 195l147 137q70 -74 177.5 -115t238.5 -41q154 0 246 57.5t92 155.5q0 56 -27 101t-75.5 75t-95.5 48.5t-107 33.5q-53 13 -96 25.5t-96.5 33t-94.5 43.5t-82.5 56t-68 71t-43.5 88.5t-17 108.5q0 160 126.5 259.5t338.5 99.5q152 0 272 -53t193 -140l-150 -137 q-124 133 -317 133q-109 0 -187.5 -45.5t-78.5 -116.5q0 -37 15.5 -66.5t41.5 -50t63.5 -37.5t80 -31t91.5 -29q17 -5 25 -7q64 -20 106 -34t98.5 -38t93 -47t76 -57.5t62 -73.5t37.5 -91.5t15 -113.5q0 -91 -32.5 -163.5t-85 -118.5t-123.5 -76t-142.5 -42.5t-147.5 -12.5 q-397 0 -569 211z" />
<glyph unicode="T" horiz-adv-x="1105" d="M47 1212v205h1012v-205h-402v-1212h-202v1212h-408z" />
<glyph unicode="U" horiz-adv-x="1284" d="M133 512v905h203v-905q0 -133 89 -229.5t216 -96.5q126 0 216.5 97t90.5 229v905h203v-905q0 -223 -149.5 -374.5t-360.5 -151.5q-102 0 -195.5 40.5t-162 109.5t-109.5 167.5t-41 208.5z" />
<glyph unicode="V" d="M39 1417h229l367 -1095l369 1095h225l-508 -1417h-176z" />
<glyph unicode="W" horiz-adv-x="1789" d="M41 1417h223l254 -1038l279 1038h198l279 -1038l254 1038h219l-373 -1417h-196l-285 1020l-285 -1020h-194z" />
<glyph unicode="X" horiz-adv-x="1212" d="M47 0l445 717l-445 700h242l325 -532l314 532h237l-448 -715l448 -702h-243l-324 530l-311 -530h-240z" />
<glyph unicode="Y" horiz-adv-x="1216" d="M31 1417h231l346 -741l346 741h230l-475 -981v-436h-203v438z" />
<glyph unicode="Z" horiz-adv-x="1081" d="M84 0v158l657 1065h-626v194h882v-162l-657 -1067h657v-188h-913z" />
<glyph unicode="[" horiz-adv-x="651" d="M215 -348v1763h328v-127h-199v-1511h215v-125h-344z" />
<glyph unicode="\" horiz-adv-x="759" d="M23 1415h137l577 -1567h-137z" />
<glyph unicode="]" horiz-adv-x="655" d="M92 -223h217v1511h-198v127h327v-1763h-346v125z" />
<glyph unicode="^" horiz-adv-x="778" d="M80 727l248 688h123l245 -688h-139l-170 502l-174 -502h-133z" />
<glyph unicode="_" horiz-adv-x="1124" d="M0 2h1124v-164h-1124v164z" />
<glyph unicode="`" horiz-adv-x="720" d="M154 1454l92 119l321 -299l-63 -86z" />
<glyph unicode="a" horiz-adv-x="1073" d="M80 344q0 116 57 197t151 118t216 37q150 0 246 -84q0 162 -50 237t-184 75q-75 0 -143.5 -24.5t-112.5 -57.5l-88 166q51 46 146 77t217 31q211 0 308 -117t97 -370v-629h-182v104q-104 -133 -295 -133q-72 0 -139 23t-122 67.5t-88.5 117.5t-33.5 165zM270 344 q0 -91 61 -140.5t167 -49.5q81 0 153 43.5t99 97.5v147q-36 42 -103 67.5t-145 25.5q-232 0 -232 -191z" />
<glyph unicode="b" horiz-adv-x="1163" d="M154 0v1423l202 70v-508q41 63 114 97t165 34q184 0 300 -149.5t116 -423.5q0 -269 -120 -420.5t-310 -151.5q-94 0 -173.5 38.5t-111.5 103.5v-113h-182zM344 373q84 -207 244 -207q122 0 193 97t71 282q0 186 -72 281.5t-200 95.5q-150 0 -236 -195v-354z" />
<glyph unicode="c" horiz-adv-x="1028" d="M109 543q0 276 132.5 424.5t352.5 148.5q124 0 220.5 -56.5t146.5 -156.5l-156 -141q-37 79 -90 116t-131 37q-127 0 -201 -95.5t-74 -276.5t74 -277t201 -96q60 0 117 34.5t100 94.5l147 -131q-61 -85 -156.5 -141t-220.5 -56q-203 0 -332.5 150t-129.5 422z" />
<glyph unicode="d" horiz-adv-x="1136" d="M113 543q0 276 111 424.5t296 148.5q182 0 260 -131v438l203 70v-1493h-182v113q-26 -61 -105.5 -101.5t-173.5 -40.5q-184 0 -296.5 150t-112.5 422zM305 545q0 -184 65 -281.5t185 -97.5q171 0 238 207v354q-66 195 -230 195q-126 0 -192 -94.5t-66 -282.5z" />
<glyph unicode="e" horiz-adv-x="1136" d="M113 543q0 277 123.5 425t334.5 148q205 0 331 -151t126 -412q0 -30 -10 -72h-707q10 -152 85 -235.5t198 -83.5q138 0 227 102l129 -114q-55 -80 -155 -129.5t-213 -49.5q-208 0 -338.5 149.5t-130.5 422.5zM317 641h506q-13 140 -79 213.5t-173 73.5q-109 0 -175 -73.5 t-79 -213.5z" />
<glyph unicode="f" horiz-adv-x="561" d="M55 915v172h103v134q0 264 233 264q64 0 131 -23v-176q-36 19 -84 19q-39 0 -57.5 -22t-18.5 -75v-121h160v-172h-160v-915h-204v915h-103z" />
<glyph unicode="g" horiz-adv-x="1148" d="M113 563q0 265 117.5 409t297.5 144q88 0 162.5 -34.5t116.5 -96.5v102h192v-864q0 -524 -493 -616l-37 176q154 43 248 141.5t94 231.5q-50 -68 -119.5 -103t-146.5 -35q-201 0 -316.5 138.5t-115.5 406.5zM305 569q0 -180 69.5 -269t196.5 -89q150 0 236 182v338 q-82 201 -242 201q-122 0 -191 -92t-69 -271z" />
<glyph unicode="h" horiz-adv-x="1142" d="M154 0v1423l202 70v-510q104 133 287 133q154 0 252 -109t98 -309v-698h-202v659q0 122 -48 185t-139 63q-85 0 -146 -42.5t-102 -139.5v-725h-202z" />
<glyph unicode="i" horiz-adv-x="528" d="M158 1356q0 45 30 77.5t74 32.5t76.5 -33t32.5 -77q0 -43 -32.5 -74t-76.5 -31t-74 31t-30 74zM162 0v1087h205v-1087h-205z" />
<glyph unicode="j" horiz-adv-x="538" d="M51 -152q60 0 92.5 38.5t32.5 107.5v1093h205v-1093q0 -99 -36.5 -178.5t-112.5 -128.5t-181 -49v210zM172 1356q0 45 30 77.5t74 32.5t76.5 -33t32.5 -77t-32 -74.5t-77 -30.5q-44 0 -74 30.5t-30 74.5z" />
<glyph unicode="k" horiz-adv-x="1030" d="M154 0v1423l202 70v-819l297 413h262l-286 -366l368 -721h-241l-254 559l-146 -186v-373h-202z" />
<glyph unicode="l" horiz-adv-x="509" d="M154 0v1423l202 70v-1493h-202z" />
<glyph unicode="m" horiz-adv-x="1703" d="M150 0v1087h192v-104q110 133 276 133q182 0 259 -170q45 75 121 122.5t173 47.5q180 0 280.5 -104t100.5 -305v-707h-202v659q0 138 -45 197t-144 59q-156 0 -209 -223v-692h-204v659q0 138 -44 197t-143 59q-70 0 -118.5 -45.5t-90.5 -144.5v-725h-202z" />
<glyph unicode="n" horiz-adv-x="1138" d="M150 0v1087h192v-104q116 133 297 133q154 0 252 -109t98 -309v-698h-203v659q0 256 -206 256q-146 0 -228 -190v-725h-202z" />
<glyph unicode="o" horiz-adv-x="1155" d="M113 543q0 275 128 424t337 149t336.5 -149t127.5 -424q0 -274 -127.5 -423t-336.5 -149t-337 149t-128 423zM313 543q0 -183 70 -278t195 -95t195.5 95t70.5 278t-70 277.5t-196 94.5q-125 0 -195 -94.5t-70 -277.5z" />
<glyph unicode="p" horiz-adv-x="1134" d="M150 -393v1480h182v-112q29 62 107 101.5t171 39.5q184 0 298 -150t114 -421q0 -276 -111.5 -425t-296.5 -149q-184 0 -262 131v-428zM340 360q28 -93 91 -143.5t138 -50.5q126 0 192 94.5t66 282.5q0 185 -65 282t-184 97q-88 0 -150.5 -58.5t-87.5 -148.5v-355z" />
<glyph unicode="q" horiz-adv-x="1159" d="M113 545q0 269 120 420t310 151q94 0 173 -38t111 -103v112h183v-1413l-203 -67v495q-41 -63 -114 -97t-165 -34q-184 0 -299.5 150t-115.5 424zM313 543q0 -186 71.5 -281.5t199.5 -95.5q76 0 138.5 49.5t96.5 144.5v355q-24 93 -88.5 150t-155.5 57q-122 0 -192 -97 t-70 -282z" />
<glyph unicode="r" horiz-adv-x="776" d="M150 0v1087h192v-104q32 62 98.5 97.5t143.5 35.5q100 0 153 -53l-73 -182q-59 41 -117 41q-130 0 -195 -197v-725h-202z" />
<glyph unicode="s" horiz-adv-x="1005" d="M63 109l84 165q61 -51 155.5 -80.5t193.5 -29.5q40 0 77 6.5t71 20t54.5 39.5t20.5 61q0 23 -8.5 42t-28.5 36.5t-35.5 28.5t-46.5 30q-34 18 -92.5 39.5t-107.5 37.5t-104 44.5t-93 61.5t-63 87t-25 123q0 67 24 120.5t62 86.5t89 55t102.5 30.5t105.5 8.5 q228 0 358 -121l-86 -163q-40 49 -125 73.5t-156 24.5q-78 0 -125 -28.5t-47 -80.5q0 -44 105 -100q38 -20 100.5 -43.5t112.5 -41t106 -47.5t93.5 -65t62.5 -92t25 -129q0 -75 -24.5 -134t-65 -96t-96 -61t-113 -33.5t-121.5 -9.5q-259 0 -439 134z" />
<glyph unicode="t" horiz-adv-x="688" d="M31 915v172h133v306l205 69v-375h219v-172h-219v-626q0 -41 30 -66.5t70 -25.5q41 0 84 19t74 54l-43 -219q-24 -24 -74 -38.5t-109 -14.5q-95 0 -166 67.5t-71 186.5v663h-133z" />
<glyph unicode="u" horiz-adv-x="1118" d="M150 389v698h202v-591q0 -169 45.5 -246.5t153.5 -77.5q71 0 122 46t93 144v725h203v-1087h-193v104q-104 -133 -274 -133q-155 0 -253.5 107.5t-98.5 310.5z" />
<glyph unicode="v" horiz-adv-x="1032" d="M39 1087h225l256 -765l254 765h219l-389 -1087h-172z" />
<glyph unicode="w" horiz-adv-x="1474" d="M43 1087h221l180 -720l203 720h187l200 -720l180 720h218l-308 -1087h-180l-209 698l-207 -698h-178z" />
<glyph unicode="x" horiz-adv-x="1028" d="M39 0l360 573l-333 514h247l211 -339l191 339h248l-338 -528l362 -559h-252l-231 381l-217 -381h-248z" />
<glyph unicode="y" horiz-adv-x="1036" d="M39 1087h225l256 -765l254 765h221l-532 -1480h-213l160 450z" />
<glyph unicode="z" horiz-adv-x="1032" d="M80 0v162l586 727h-541v198h819v-163l-586 -729h586v-195h-864z" />
<glyph unicode="{" horiz-adv-x="720" d="M76 483v109q119 42 174 133.5t55 255.5q0 64 1.5 99t7.5 95.5t22.5 95.5t42.5 73t71 55.5t105 17.5q49 0 74 -2v-121q-40 0 -70 -7.5t-51 -19.5t-35 -35t-21.5 -44.5t-11.5 -59.5t-5 -68t-1 -81q0 -310 -215 -444q117 -69 166 -176.5t49 -268.5q0 -51 1 -81t5 -68 t11.5 -59.5t21.5 -44.5t35 -35t51 -19.5t70 -7.5v-121q-50 -4 -74 -4q-41 0 -74.5 9.5t-58 23.5t-43.5 39.5t-31 47.5t-21 58.5t-13 61.5t-6 67.5t-2.5 65t-0.5 65.5q0 164 -55.5 258.5t-173.5 136.5z" />
<glyph unicode="|" horiz-adv-x="563" d="M215 -348v1763h129v-1763h-129z" />
<glyph unicode="}" horiz-adv-x="720" d="M92 -225q40 0 70 7.5t51 19.5t35 35t21.5 44.5t11.5 59.5t5 68t1 81q0 161 49 268.5t166 176.5q-215 134 -215 444q0 51 -1 81t-5 68t-11.5 59.5t-21.5 44.5t-35 35t-51 19.5t-70 7.5v121q25 2 74 2q60 0 105 -17.5t71 -55.5t42.5 -73t22.5 -95.5t7.5 -95.5t1.5 -99 q0 -164 55 -255.5t174 -133.5v-109q-118 -42 -173.5 -136.5t-55.5 -258.5q0 -43 -0.5 -65.5t-2.5 -65t-6 -67.5t-13 -61.5t-21 -58.5t-31 -47.5t-43.5 -39.5t-58 -23.5t-74.5 -9.5q-24 0 -74 4v121z" />
<glyph unicode="~" horiz-adv-x="1236" d="M154 686q46 78 115.5 119t148.5 41q54 0 103 -17t85 -41t68.5 -48t68 -41t70.5 -17q99 0 168 117l102 -76q-47 -79 -119 -123.5t-151 -44.5q-49 0 -95 17t-82 41t-70.5 48t-73.5 41t-76 17q-93 0 -160 -109z" />
<glyph unicode="&#xa1;" horiz-adv-x="575" d="M172 1307q0 44 35 76t82 32q49 0 80.5 -31.5t31.5 -76.5q0 -48 -31.5 -81.5t-80.5 -33.5q-47 0 -82 34t-35 81zM205 -31v1049h164l20 -1049h-184z" />
<glyph unicode="&#xa2;" horiz-adv-x="1060" d="M113 709q0 242 106 387.5t281 175.5v145h168v-147q91 -21 170 -81t125 -149l-129 -106q-98 178 -252 178q-140 0 -221.5 -102.5t-81.5 -300.5q0 -194 82.5 -299t220.5 -105q131 0 245 156l125 -113q-121 -161 -284 -196v-152h-168v147q-177 27 -282 172.5t-105 389.5z " />
<glyph unicode="&#xa3;" horiz-adv-x="1155" d="M86 0v160q89 34 142 128t53 177v215h-97v166h97v135q0 217 102.5 328.5t304.5 111.5q172 0 303 -94l-92 -147q-42 33 -106 54t-115 21q-229 0 -229 -274v-135h378v-166h-378v-227q0 -73 -26 -153t-77 -136h725v-164h-985z" />
<glyph unicode="&#xa4;" horiz-adv-x="1314" d="M86 236l207 208q-84 117 -84 265q0 140 82 256l-205 206l102 103l203 -207q122 88 264 88q145 0 263 -88l206 207l103 -103l-207 -206q82 -116 82 -256q0 -145 -86 -265l211 -208l-103 -103l-211 209q-113 -80 -258 -80q-142 0 -258 80l-209 -209zM360 709 q0 -123 86.5 -210t208.5 -87t209.5 87t87.5 210q0 120 -88 207.5t-209 87.5t-208 -87.5t-87 -207.5z" />
<glyph unicode="&#xa5;" horiz-adv-x="1210" d="M37 1417h211l358 -581l361 581h207l-443 -686h328v-145h-371v-191h371v-145h-371v-250h-168v250h-366v145h366v191h-366v145h323z" />
<glyph unicode="&#xa6;" horiz-adv-x="563" d="M215 272h129v-620h-129v620zM215 809v606h129v-606h-129z" />
<glyph unicode="&#xa7;" horiz-adv-x="1042" d="M57 4l113 133q58 -63 147.5 -95t180.5 -32q63 0 118.5 12.5t98.5 48.5t43 91q0 53 -29.5 85.5t-95.5 63.5q-33 18 -90.5 40.5t-107 40.5t-105 47.5t-94.5 62t-65 83.5t-26 113q0 80 47.5 140.5t124.5 87.5q-85 47 -128.5 104.5t-43.5 145.5q0 83 54 146t140 94.5 t187 31.5q130 0 238 -43t160 -123l-129 -106q-34 46 -116.5 74t-154.5 28q-80 0 -145.5 -31t-65.5 -84q0 -20 9 -35.5t32 -31.5t36 -23t48 -24q36 -18 99.5 -43.5t111.5 -44t104 -50.5t92.5 -66t61.5 -87t25 -117q0 -161 -135 -240q135 -72 135 -237q0 -68 -24.5 -123.5 t-65.5 -92t-96.5 -61t-114.5 -35t-123 -10.5q-129 0 -236.5 37t-214.5 125zM313 698q0 -36 23.5 -65t66.5 -50t83.5 -35.5t94.5 -31t81 -27.5q96 42 96 138q0 31 -8 56.5t-27.5 45.5t-35.5 33t-50 27t-51.5 20.5t-57.5 19.5q-81 -5 -148 -41t-67 -90z" />
<glyph unicode="&#xa8;" horiz-adv-x="868" d="M154 1380q0 43 27.5 70t70.5 27q42 0 70 -27.5t28 -69.5q0 -41 -28 -66.5t-70 -25.5q-43 0 -70.5 25.5t-27.5 66.5zM526 1380q0 43 25.5 70t66.5 27q44 0 70.5 -27t26.5 -70q0 -41 -26.5 -66.5t-70.5 -25.5q-41 0 -66.5 25.5t-25.5 66.5z" />
<glyph unicode="&#xa9;" horiz-adv-x="1701" d="M113 707q0 150 58 287t157 236t235.5 157.5t286.5 58.5t286.5 -58.5t235.5 -157.5t157 -236t58 -287q0 -199 -98.5 -368.5t-268.5 -269.5t-370 -100t-370 100t-268.5 269.5t-98.5 368.5zM244 707q0 -122 48 -234t129.5 -193.5t193.5 -129.5t235 -48t235 48t193.5 129.5 t129.5 193.5t48 234q0 123 -48 235t-129.5 193.5t-193.5 129.5t-235 48t-235 -48t-193.5 -129.5t-129.5 -193.5t-48 -235zM463 702q0 204 105.5 314t277.5 110q100 0 183.5 -44.5t129.5 -129.5l-100 -67q-83 129 -213 129q-121 0 -192.5 -79t-71.5 -233q0 -150 71.5 -229.5 t192.5 -79.5q118 0 209 113l92 -76q-56 -68 -136 -107.5t-165 -39.5q-172 0 -277.5 109t-105.5 310z" />
<glyph unicode="&#xaa;" horiz-adv-x="774" d="M123 991q0 107 64 161t173 54q83 0 142 -47q0 162 -115 162q-84 0 -156 -59l-59 114q31 31 88 51.5t127 20.5q113 0 174.5 -64t61.5 -196v-408h-121v45q-61 -61 -156 -61q-90 0 -156.5 58.5t-66.5 168.5zM252 991q0 -47 31 -72.5t86 -25.5q43 0 77.5 17t53.5 46v86 q-21 21 -56.5 34.5t-72.5 13.5q-119 0 -119 -99z" />
<glyph unicode="&#xab;" horiz-adv-x="770" d="M68 481v111l303 256v-154l-201 -157l201 -160v-152zM397 481v111l303 256v-154l-198 -157l198 -160v-152z" />
<glyph unicode="&#xac;" horiz-adv-x="1003" d="M129 616v181h743v-668h-167v487h-576z" />
<glyph unicode="&#xad;" horiz-adv-x="768" d="M68 457v166h630v-166h-630z" />
<glyph unicode="&#xae;" horiz-adv-x="1413" d="M113 850q0 161 79.5 298.5t216.5 217.5t298 80q162 0 298.5 -80t215.5 -217t79 -299t-79 -298.5t-215.5 -216t-298.5 -79.5q-161 0 -298 79.5t-216.5 216.5t-79.5 298zM242 850q0 -192 136 -327.5t329 -135.5q126 0 233.5 62t170.5 168.5t63 232.5q0 194 -137 330.5 t-330 136.5q-127 0 -234 -62t-169 -169.5t-62 -235.5zM520 557v610h207q82 0 134 -51t52 -141q0 -61 -29.5 -106t-80.5 -58l112 -254h-127l-88 227h-69v-227h-111zM631 901h100q31 0 50.5 19.5t19.5 54.5q0 37 -19 57.5t-51 20.5h-100v-152z" />
<glyph unicode="&#xaf;" horiz-adv-x="827" d="M154 1335v121h520v-121h-520z" />
<glyph unicode="&#xb0;" horiz-adv-x="915" d="M154 1124q0 127 88 216.5t215 89.5q126 0 215.5 -90t89.5 -216q0 -127 -89.5 -216t-215.5 -89q-127 0 -215 88.5t-88 216.5zM283 1122q0 -73 51 -123.5t123 -50.5q73 0 124.5 50.5t51.5 123.5q0 72 -52 124t-124 52q-73 0 -123.5 -51.5t-50.5 -124.5z" />
<glyph unicode="&#xb1;" horiz-adv-x="1036" d="M154 164v125h729v-125h-729zM154 633v125h315v299h125v-299h289v-125h-289v-283h-125v283h-315z" />
<glyph unicode="&#xb2;" horiz-adv-x="899" d="M154 571q6 119 38 206t97 155q22 23 64.5 49.5t84.5 49.5t82 49.5t65 58.5t25 67q0 48 -44.5 74.5t-108.5 26.5q-116 0 -187 -86l-92 84q45 63 122 96t157 33q120 0 202 -59.5t82 -172.5q0 -40 -13.5 -76t-33 -61.5t-51 -51t-58 -41.5t-63.5 -36q-94 -51 -145.5 -103.5 t-73.5 -134.5h442v-127h-591z" />
<glyph unicode="&#xb3;" horiz-adv-x="911" d="M154 674l79 98q39 -39 96 -59.5t109 -20.5q81 0 136 40.5t55 96.5q0 58 -39.5 101t-108.5 43h-86v117h86q38 0 65 35.5t27 80.5t-38 68.5t-93 23.5q-39 0 -80 -23.5t-63 -62.5l-92 91q36 58 99.5 89t135.5 31q107 0 182.5 -55.5t75.5 -155.5q0 -109 -86 -168 q142 -48 142 -219q0 -113 -95 -186.5t-225 -73.5q-73 0 -151 28t-131 81z" />
<glyph unicode="&#xb4;" horiz-adv-x="720" d="M154 1274l321 299l92 -119l-350 -266z" />
<glyph unicode="&#xb5;" horiz-adv-x="1189" d="M150 -328v1415h202v-735q74 -190 217 -190q101 0 150 61.5t49 194.5v669h203v-800q0 -76 65 -76q59 0 97 51v-203q-20 -30 -60.5 -47.5t-89.5 -17.5q-108 0 -149 90q-77 -115 -240 -115q-156 0 -242 117v-414h-202z" />
<glyph unicode="&#xb6;" horiz-adv-x="1198" d="M72 1006q0 200 119 304.5t325 104.5h528v-1415h-126v592h-156v-592h-129v592h-117q-205 0 -324.5 107.5t-119.5 306.5zM762 719h156v569h-156v-569z" />
<glyph unicode="&#xb7;" horiz-adv-x="522" d="M154 680q0 45 29 76.5t75 31.5q43 0 76 -32t33 -76q0 -42 -33 -73.5t-76 -31.5q-46 0 -75 30.5t-29 74.5z" />
<glyph unicode="&#xb8;" horiz-adv-x="583" d="M154 -350l114 309h162l-184 -352z" />
<glyph unicode="&#xb9;" horiz-adv-x="493" d="M125 1225v112q90 9 102 78h113v-844h-127v654h-88z" />
<glyph unicode="&#xba;" horiz-adv-x="843" d="M143 1104q0 167 76 254.5t203 87.5t201.5 -87.5t74.5 -254.5t-74.5 -253.5t-201.5 -86.5q-128 0 -203.5 86.5t-75.5 253.5zM270 1104q0 -105 39.5 -160t112.5 -55t112 55t39 160q0 215 -151 215q-152 0 -152 -215z" />
<glyph unicode="&#xbb;" horiz-adv-x="770" d="M68 225v152l198 160l-198 157v154l303 -256v-111zM397 225v152l201 160l-201 157v154l303 -256v-111z" />
<glyph unicode="&#xbc;" horiz-adv-x="1529" d="M100 1225v112q91 9 103 78h112v-844h-129v654h-86zM135 0l961 1415h157l-962 -1415h-156zM778 150v98l469 594h96v-570h84v-122h-84v-150h-124v150h-441zM958 272h261v326z" />
<glyph unicode="&#xbd;" horiz-adv-x="1619" d="M100 1225v112q91 9 103 78h112v-844h-129v654h-86zM135 0l961 1415h157l-962 -1415h-156zM922 -2q13 155 65.5 259t165.5 173q18 11 55.5 31t62 35t52 36.5t41.5 46t14 52.5q0 48 -43.5 74t-107.5 26q-119 0 -189 -86l-90 84q45 63 122 97t157 34q119 0 200.5 -60.5 t81.5 -172.5q0 -42 -14 -79t-32 -61.5t-52 -50t-57 -39t-64 -35.5q-90 -49 -142.5 -104.5t-74.5 -132.5h443v-127h-594z" />
<glyph unicode="&#xbe;" horiz-adv-x="1652" d="M100 674l80 98q39 -39 96 -59.5t109 -20.5q83 0 138 40t55 97q0 58 -39 101t-109 43h-88v117h88q38 0 65 35.5t27 80.5t-37.5 68.5t-95.5 23.5q-37 0 -78 -23.5t-65 -62.5l-92 91q36 58 99.5 89t135.5 31q108 0 183 -55t75 -156q0 -108 -84 -168q139 -48 139 -219 q0 -113 -93.5 -186.5t-225.5 -73.5q-72 0 -151.5 28.5t-131.5 80.5zM334 0l960 1415h158l-963 -1415h-155zM899 150v98l469 594h96v-570h86v-122h-86v-150h-125v150h-440zM1079 272h260v326z" />
<glyph unicode="&#xbf;" horiz-adv-x="958" d="M90 330q0 116 47.5 199.5t132.5 168.5q80 80 117 145t41 156h190q-10 -169 -86 -286q-28 -41 -75 -93.5t-80 -88t-58.5 -87t-25.5 -104.5q0 -59 32.5 -98t81.5 -54.5t113 -15.5q163 0 293 113l123 -164q-177 -150 -412 -150q-91 0 -168 21t-137.5 63.5t-94.5 112.5 t-34 162zM416 1321q0 47 34 78t82 31q49 0 81 -31t32 -78q0 -48 -32 -81.5t-81 -33.5q-47 0 -81.5 34t-34.5 81z" />
<glyph unicode="&#xc0;" d="M39 0l506 1417h176l508 -1417h-228l-94 274h-551l-92 -274h-225zM365 1784l92 119l321 -299l-63 -86zM414 469h436l-219 647z" />
<glyph unicode="&#xc1;" d="M39 0l506 1417h176l508 -1417h-228l-94 274h-551l-92 -274h-225zM414 469h436l-219 647zM487 1604l322 299l92 -119l-350 -266z" />
<glyph unicode="&#xc2;" d="M39 0l506 1417h176l508 -1417h-228l-94 274h-551l-92 -274h-225zM346 1589l287 293l287 -293l-64 -73l-223 186l-223 -186zM414 469h436l-219 647z" />
<glyph unicode="&#xc3;" d="M39 0l506 1417h176l508 -1417h-228l-94 274h-551l-92 -274h-225zM225 1671q25 91 93 147t139 56q49 0 92.5 -18t74.5 -43.5t59 -51t57 -43.5t57 -18q61 0 96 41.5t57 122.5l92 -82q-26 -97 -92.5 -153t-146.5 -56q-44 0 -85.5 17.5t-72.5 42.5t-60 50t-59.5 42.5 t-58.5 17.5q-99 0 -150 -154zM414 469h436l-219 647z" />
<glyph unicode="&#xc4;" d="M39 0l506 1417h176l508 -1417h-228l-94 274h-551l-92 -274h-225zM352 1710q0 42 28 69t71 27q42 0 70 -27t28 -69q0 -41 -28 -66.5t-70 -25.5q-43 0 -71 25.5t-28 66.5zM414 469h436l-219 647zM725 1710q0 43 25.5 69.5t66.5 26.5q44 0 70 -26.5t26 -69.5q0 -42 -26 -67 t-70 -25q-41 0 -66.5 25.5t-25.5 66.5z" />
<glyph unicode="&#xc5;" d="M39 0l506 1417h176l508 -1417h-228l-94 274h-551l-92 -274h-225zM414 469h436l-219 647zM455 1677q0 73 52 125.5t124 52.5q74 0 127 -52.5t53 -125.5q0 -72 -53.5 -125t-126.5 -53q-72 0 -124 53t-52 125zM549 1677q0 -37 23.5 -60.5t58.5 -23.5q36 0 60 24t24 60 q0 33 -24.5 57.5t-59.5 24.5t-58.5 -24.5t-23.5 -57.5z" />
<glyph unicode="&#xc6;" horiz-adv-x="1683" d="M39 0l754 1417h831v-205h-520v-387h303v-202h-303v-424h538v-199h-743v367h-434l-191 -367h-235zM557 569h342v635z" />
<glyph unicode="&#xc7;" horiz-adv-x="1300" d="M113 707q0 177 46 318.5t128 233t193.5 139.5t244.5 48q311 0 477 -258l-149 -119q-138 172 -334 172q-189 0 -295.5 -135.5t-106.5 -398.5q0 -260 107.5 -397.5t294.5 -137.5q200 0 323 158l150 -117q-179 -242 -467 -242q-133 0 -244.5 47.5t-193.5 138.5t-128 232 t-46 318zM512 -350l115 309h161l-184 -352z" />
<glyph unicode="&#xc8;" horiz-adv-x="1038" d="M154 0v1417h780v-205h-578v-387h359v-202h-359v-424h594v-199h-796zM250 1784l92 119l322 -299l-64 -86z" />
<glyph unicode="&#xc9;" horiz-adv-x="1038" d="M154 0v1417h780v-205h-578v-387h359v-202h-359v-424h594v-199h-796zM373 1604l321 299l92 -119l-350 -266z" />
<glyph unicode="&#xca;" horiz-adv-x="1038" d="M154 0v1417h780v-205h-578v-387h359v-202h-359v-424h594v-199h-796zM231 1589l287 293l287 -293l-64 -73l-223 186l-223 -186z" />
<glyph unicode="&#xcb;" horiz-adv-x="1038" d="M154 0v1417h780v-205h-578v-387h359v-202h-359v-424h594v-199h-796zM279 1710q0 43 27.5 69.5t70.5 26.5q42 0 70 -27t28 -69q0 -41 -28 -66.5t-70 -25.5q-43 0 -70.5 25.5t-27.5 66.5zM651 1710q0 43 25.5 69.5t66.5 26.5q44 0 70.5 -26.5t26.5 -69.5q0 -41 -26.5 -66.5 t-70.5 -25.5q-41 0 -66.5 25.5t-25.5 66.5z" />
<glyph unicode="&#xcc;" horiz-adv-x="526" d="M-4 1784l92 119l322 -299l-64 -86zM162 0v1417h203v-1417h-203z" />
<glyph unicode="&#xcd;" horiz-adv-x="526" d="M119 1604l321 299l92 -119l-350 -266zM162 0v1417h203v-1417h-203z" />
<glyph unicode="&#xce;" horiz-adv-x="526" d="M-23 1589l287 293l287 -293l-64 -73l-223 186l-223 -186zM162 0v1417h203v-1417h-203z" />
<glyph unicode="&#xcf;" horiz-adv-x="526" d="M-16 1710q0 43 27.5 69.5t70.5 26.5q42 0 70 -27t28 -69q0 -41 -28 -66.5t-70 -25.5q-43 0 -70.5 25.5t-27.5 66.5zM162 0v1417h203v-1417h-203zM356 1710q0 43 26 69.5t67 26.5q44 0 70 -26.5t26 -69.5q0 -42 -26 -67t-70 -25q-41 0 -67 25.5t-26 66.5z" />
<glyph unicode="&#xd0;" horiz-adv-x="1445" d="M154 608v162h75v647h381q149 0 282.5 -54.5t230.5 -148.5t153.5 -225t56.5 -278q0 -195 -96 -358.5t-262.5 -258t-364.5 -94.5h-381v608h-75zM436 201h176q141 0 258 65t185.5 181.5t68.5 261.5q0 223 -147 363t-365 140h-176v-442h291v-162h-291v-407z" />
<glyph unicode="&#xd1;" horiz-adv-x="1349" d="M154 0v1417h213l626 -1044v1044h203v-1417h-213l-627 1042v-1042h-202zM266 1671q25 91 93 147t139 56q49 0 92.5 -18t74.5 -43.5t59 -51t57 -43.5t57 -18q61 0 96 41.5t57 122.5l92 -82q-26 -97 -92.5 -153t-146.5 -56q-44 0 -85.5 17.5t-72.5 42.5t-60 50t-59.5 42.5 t-58.5 17.5q-99 0 -150 -154z" />
<glyph unicode="&#xd2;" horiz-adv-x="1423" d="M113 707q0 353 164 546t434 193q133 0 242.5 -48t189.5 -139.5t124 -232.5t44 -319q0 -353 -164 -544.5t-436 -191.5q-270 0 -434 191.5t-164 544.5zM315 707q0 -263 104.5 -399t291.5 -136q186 0 291.5 137t105.5 398q0 264 -104.5 399t-292.5 135q-187 0 -291.5 -135.5 t-104.5 -398.5zM442 1784l93 119l321 -299l-63 -86z" />
<glyph unicode="&#xd3;" horiz-adv-x="1423" d="M113 707q0 353 164 546t434 193q133 0 242.5 -48t189.5 -139.5t124 -232.5t44 -319q0 -353 -164 -544.5t-436 -191.5q-270 0 -434 191.5t-164 544.5zM315 707q0 -263 104.5 -399t291.5 -136q186 0 291.5 137t105.5 398q0 264 -104.5 399t-292.5 135q-187 0 -291.5 -135.5 t-104.5 -398.5zM565 1604l322 299l92 -119l-350 -266z" />
<glyph unicode="&#xd4;" horiz-adv-x="1423" d="M113 707q0 353 164 546t434 193q133 0 242.5 -48t189.5 -139.5t124 -232.5t44 -319q0 -353 -164 -544.5t-436 -191.5q-270 0 -434 191.5t-164 544.5zM315 707q0 -263 104.5 -399t291.5 -136q186 0 291.5 137t105.5 398q0 264 -104.5 399t-292.5 135q-187 0 -291.5 -135.5 t-104.5 -398.5zM424 1589l287 293l286 -293l-63 -73l-223 186l-224 -186z" />
<glyph unicode="&#xd5;" horiz-adv-x="1423" d="M113 707q0 353 164 546t434 193q133 0 242.5 -48t189.5 -139.5t124 -232.5t44 -319q0 -353 -164 -544.5t-436 -191.5q-270 0 -434 191.5t-164 544.5zM303 1671q25 91 93 147t139 56q49 0 92.5 -18t74.5 -43.5t58.5 -51t56.5 -43.5t57 -18q61 0 96.5 41.5t57.5 122.5 l92 -82q-26 -97 -92.5 -153t-146.5 -56q-44 0 -85.5 17.5t-72.5 42.5t-60 50t-59.5 42.5t-58.5 17.5q-99 0 -150 -154zM315 707q0 -263 104.5 -399t291.5 -136q186 0 291.5 137t105.5 398q0 264 -104.5 399t-292.5 135q-187 0 -291.5 -135.5t-104.5 -398.5z" />
<glyph unicode="&#xd6;" horiz-adv-x="1423" d="M113 707q0 353 164 546t434 193q133 0 242.5 -48t189.5 -139.5t124 -232.5t44 -319q0 -353 -164 -544.5t-436 -191.5q-270 0 -434 191.5t-164 544.5zM315 707q0 -263 104.5 -399t291.5 -136q186 0 291.5 137t105.5 398q0 264 -104.5 399t-292.5 135q-187 0 -291.5 -135.5 t-104.5 -398.5zM430 1710q0 43 27.5 69.5t70.5 26.5q42 0 70.5 -27t28.5 -69q0 -41 -28.5 -66.5t-70.5 -25.5q-43 0 -70.5 25.5t-27.5 66.5zM803 1710q0 43 25.5 69.5t66.5 26.5q44 0 70 -26.5t26 -69.5q0 -42 -26 -67t-70 -25q-41 0 -66.5 25.5t-25.5 66.5z" />
<glyph unicode="&#xd7;" horiz-adv-x="929" d="M154 918l90 92l221 -224l221 224l90 -92l-223 -222l219 -217l-88 -90l-219 219l-219 -219l-88 90l219 217z" />
<glyph unicode="&#xd8;" horiz-adv-x="1423" d="M113 707q0 353 164 546t434 193q106 0 196 -33l37 96h137l-57 -149q137 -89 212 -253t75 -400q0 -353 -164 -544.5t-436 -191.5q-93 0 -195 29l-37 -106h-137l59 159q-288 181 -288 654zM307 707q0 -329 166 -461l367 985q-59 20 -129 20q-191 0 -297.5 -137.5 t-106.5 -406.5zM584 182q53 -20 127 -20q190 0 297.5 139.5t107.5 405.5q0 326 -164 458z" />
<glyph unicode="&#xd9;" horiz-adv-x="1284" d="M133 512v905h203v-905q0 -133 89 -229.5t216 -96.5q126 0 216.5 97t90.5 229v905h203v-905q0 -223 -149.5 -374.5t-360.5 -151.5q-102 0 -195.5 40.5t-162 109.5t-109.5 167.5t-41 208.5zM373 1784l92 119l321 -299l-63 -86z" />
<glyph unicode="&#xda;" horiz-adv-x="1284" d="M133 512v905h203v-905q0 -133 89 -229.5t216 -96.5q126 0 216.5 97t90.5 229v905h203v-905q0 -223 -149.5 -374.5t-360.5 -151.5q-102 0 -195.5 40.5t-162 109.5t-109.5 167.5t-41 208.5zM496 1604l321 299l92 -119l-350 -266z" />
<glyph unicode="&#xdb;" horiz-adv-x="1284" d="M133 512v905h203v-905q0 -133 89 -229.5t216 -96.5q126 0 216.5 97t90.5 229v905h203v-905q0 -223 -149.5 -374.5t-360.5 -151.5q-102 0 -195.5 40.5t-162 109.5t-109.5 167.5t-41 208.5zM354 1589l287 293l287 -293l-64 -73l-223 186l-223 -186z" />
<glyph unicode="&#xdc;" horiz-adv-x="1284" d="M133 512v905h203v-905q0 -133 89 -229.5t216 -96.5q126 0 216.5 97t90.5 229v905h203v-905q0 -223 -149.5 -374.5t-360.5 -151.5q-102 0 -195.5 40.5t-162 109.5t-109.5 167.5t-41 208.5zM360 1710q0 42 28 69t71 27q42 0 70 -27t28 -69q0 -41 -28 -66.5t-70 -25.5 q-43 0 -71 25.5t-28 66.5zM733 1710q0 43 25.5 69.5t66.5 26.5q44 0 70.5 -26.5t26.5 -69.5q0 -41 -26.5 -66.5t-70.5 -25.5q-41 0 -66.5 25.5t-25.5 66.5z" />
<glyph unicode="&#xdd;" horiz-adv-x="1216" d="M31 1417h231l346 -741l346 741h230l-475 -981v-436h-203v438zM463 1604l321 299l93 -119l-351 -266z" />
<glyph unicode="&#xde;" horiz-adv-x="1200" d="M154 0v1417h202v-284h312q214 0 337 -110t123 -318q0 -210 -123 -320.5t-337 -110.5h-312v-274h-202zM356 475h312q116 0 186 58t70 172q0 112 -70 167.5t-186 55.5h-312v-453z" />
<glyph unicode="&#xdf;" horiz-adv-x="1138" d="M154 0v1063q0 208 106.5 319t280.5 111q71 0 137.5 -23.5t120.5 -67t86.5 -115t32.5 -159.5q0 -171 -146 -280q116 -41 185 -145t69 -234q0 -221 -128 -343t-347 -134v205q129 6 208 75t79 193q0 121 -74 192.5t-205 85.5v160q96 23 135 79t39 142q0 77 -54 123.5 t-134 46.5q-88 0 -138.5 -65.5t-50.5 -190.5v-1038h-202z" />
<glyph unicode="&#xe0;" horiz-adv-x="1073" d="M80 344q0 116 57 197t151 118t216 37q150 0 246 -84q0 162 -50 237t-184 75q-75 0 -143.5 -24.5t-112.5 -57.5l-88 166q51 46 146 77t217 31q211 0 308 -117t97 -370v-629h-182v104q-104 -133 -295 -133q-72 0 -139 23t-122 67.5t-88.5 117.5t-33.5 165zM268 1454l92 119 l322 -299l-64 -86zM270 344q0 -91 61 -140.5t167 -49.5q81 0 153 43.5t99 97.5v147q-36 42 -103 67.5t-145 25.5q-232 0 -232 -191z" />
<glyph unicode="&#xe1;" horiz-adv-x="1073" d="M80 344q0 116 57 197t151 118t216 37q150 0 246 -84q0 162 -50 237t-184 75q-75 0 -143.5 -24.5t-112.5 -57.5l-88 166q51 46 146 77t217 31q211 0 308 -117t97 -370v-629h-182v104q-104 -133 -295 -133q-72 0 -139 23t-122 67.5t-88.5 117.5t-33.5 165zM270 344 q0 -91 61 -140.5t167 -49.5q81 0 153 43.5t99 97.5v147q-36 42 -103 67.5t-145 25.5q-232 0 -232 -191zM391 1274l322 299l92 -119l-350 -266z" />
<glyph unicode="&#xe2;" horiz-adv-x="1073" d="M80 344q0 116 57 197t151 118t216 37q150 0 246 -84q0 162 -50 237t-184 75q-75 0 -143.5 -24.5t-112.5 -57.5l-88 166q51 46 146 77t217 31q211 0 308 -117t97 -370v-629h-182v104q-104 -133 -295 -133q-72 0 -139 23t-122 67.5t-88.5 117.5t-33.5 165zM250 1260 l287 292l286 -292l-63 -74l-223 186l-224 -186zM270 344q0 -91 61 -140.5t167 -49.5q81 0 153 43.5t99 97.5v147q-36 42 -103 67.5t-145 25.5q-232 0 -232 -191z" />
<glyph unicode="&#xe3;" horiz-adv-x="1073" d="M80 344q0 116 57 197t151 118t216 37q150 0 246 -84q0 162 -50 237t-184 75q-75 0 -143.5 -24.5t-112.5 -57.5l-88 166q51 46 146 77t217 31q211 0 308 -117t97 -370v-629h-182v104q-104 -133 -295 -133q-72 0 -139 23t-122 67.5t-88.5 117.5t-33.5 165zM129 1341 q25 91 92.5 147t138.5 56q49 0 92.5 -18t74.5 -43.5t59 -51t57 -43.5t57 -18q61 0 96.5 41.5t57.5 122.5l92 -82q-26 -97 -92.5 -153t-146.5 -56q-44 0 -85.5 17.5t-72.5 42.5t-60 50t-59.5 42.5t-58.5 17.5q-50 0 -88 -40.5t-62 -112.5zM270 344q0 -91 61 -140.5t167 -49.5 q81 0 153 43.5t99 97.5v147q-36 42 -103 67.5t-145 25.5q-232 0 -232 -191z" />
<glyph unicode="&#xe4;" horiz-adv-x="1073" d="M80 344q0 116 57 197t151 118t216 37q150 0 246 -84q0 162 -50 237t-184 75q-75 0 -143.5 -24.5t-112.5 -57.5l-88 166q51 46 146 77t217 31q211 0 308 -117t97 -370v-629h-182v104q-104 -133 -295 -133q-72 0 -139 23t-122 67.5t-88.5 117.5t-33.5 165zM256 1380 q0 43 27.5 70t70.5 27q42 0 70.5 -27.5t28.5 -69.5q0 -41 -28.5 -66.5t-70.5 -25.5q-43 0 -70.5 25.5t-27.5 66.5zM270 344q0 -91 61 -140.5t167 -49.5q81 0 153 43.5t99 97.5v147q-36 42 -103 67.5t-145 25.5q-232 0 -232 -191zM629 1380q0 43 25.5 70t66.5 27q44 0 70 -27 t26 -70q0 -42 -26 -67t-70 -25q-41 0 -66.5 25.5t-25.5 66.5z" />
<glyph unicode="&#xe5;" horiz-adv-x="1073" d="M80 344q0 116 57 197t151 118t216 37q150 0 246 -84q0 162 -50 237t-184 75q-75 0 -143.5 -24.5t-112.5 -57.5l-88 166q51 46 146 77t217 31q211 0 308 -117t97 -370v-629h-182v104q-104 -133 -295 -133q-72 0 -139 23t-122 67.5t-88.5 117.5t-33.5 165zM270 344 q0 -91 61 -140.5t167 -49.5q81 0 153 43.5t99 97.5v147q-36 42 -103 67.5t-145 25.5q-232 0 -232 -191zM358 1348q0 73 52.5 125.5t124.5 52.5q74 0 127 -52.5t53 -125.5q0 -72 -53.5 -125.5t-126.5 -53.5q-72 0 -124.5 53.5t-52.5 125.5zM453 1348q0 -37 23.5 -60.5 t58.5 -23.5t59 24t24 60q0 33 -24 57.5t-59 24.5t-58.5 -24.5t-23.5 -57.5z" />
<glyph unicode="&#xe6;" horiz-adv-x="1761" d="M80 344q0 116 57 197t151 118t216 37q141 0 239 -75v108q0 93 -55 146t-153 53q-160 0 -275 -86l-88 166q51 46 147 77t218 31q235 0 325 -164q116 162 332 162q206 0 332.5 -151t126.5 -412q0 -26 -11 -72h-706q10 -153 84.5 -236t198.5 -83q136 0 225 102l129 -115 q-55 -80 -154.5 -129t-212.5 -49q-265 0 -387 217q-64 -117 -151.5 -166t-204.5 -49q-72 0 -139 23t-122 67.5t-88.5 117.5t-33.5 165zM272 344q0 -91 60 -140.5t166 -49.5q83 0 154 49.5t98 111.5v127q-36 42 -102 67.5t-146 25.5q-230 0 -230 -191zM942 639h504 q-27 287 -252 287t-252 -287z" />
<glyph unicode="&#xe7;" horiz-adv-x="1028" d="M109 543q0 276 132.5 424.5t352.5 148.5q124 0 220.5 -56.5t146.5 -156.5l-156 -141q-37 79 -90 116t-131 37q-127 0 -201 -95.5t-74 -276.5t74 -277t201 -96q60 0 117 34.5t100 94.5l147 -131q-61 -85 -156.5 -141t-220.5 -56q-203 0 -332.5 150t-129.5 422zM375 -350 l114 309h162l-184 -352z" />
<glyph unicode="&#xe8;" horiz-adv-x="1136" d="M113 543q0 277 123.5 425t334.5 148q205 0 331 -151t126 -412q0 -30 -10 -72h-707q10 -152 85 -235.5t198 -83.5q138 0 227 102l129 -114q-55 -80 -155 -129.5t-213 -49.5q-208 0 -338.5 149.5t-130.5 422.5zM299 1454l92 119l322 -299l-64 -86zM317 641h506 q-13 140 -79 213.5t-173 73.5q-109 0 -175 -73.5t-79 -213.5z" />
<glyph unicode="&#xe9;" horiz-adv-x="1136" d="M113 543q0 277 123.5 425t334.5 148q205 0 331 -151t126 -412q0 -30 -10 -72h-707q10 -152 85 -235.5t198 -83.5q138 0 227 102l129 -114q-55 -80 -155 -129.5t-213 -49.5q-208 0 -338.5 149.5t-130.5 422.5zM317 641h506q-13 140 -79 213.5t-173 73.5q-109 0 -175 -73.5 t-79 -213.5zM422 1274l321 299l93 -119l-351 -266z" />
<glyph unicode="&#xea;" horiz-adv-x="1136" d="M113 543q0 277 123.5 425t334.5 148q205 0 331 -151t126 -412q0 -30 -10 -72h-707q10 -152 85 -235.5t198 -83.5q138 0 227 102l129 -114q-55 -80 -155 -129.5t-213 -49.5q-208 0 -338.5 149.5t-130.5 422.5zM281 1260l286 292l287 -292l-63 -74l-224 186l-223 -186z M317 641h506q-13 140 -79 213.5t-173 73.5q-109 0 -175 -73.5t-79 -213.5z" />
<glyph unicode="&#xeb;" horiz-adv-x="1136" d="M113 543q0 277 123.5 425t334.5 148q205 0 331 -151t126 -412q0 -30 -10 -72h-707q10 -152 85 -235.5t198 -83.5q138 0 227 102l129 -114q-55 -80 -155 -129.5t-213 -49.5q-208 0 -338.5 149.5t-130.5 422.5zM287 1380q0 43 27.5 70t70.5 27q42 0 70 -27.5t28 -69.5 q0 -41 -28 -66.5t-70 -25.5q-43 0 -70.5 25.5t-27.5 66.5zM317 641h506q-13 140 -79 213.5t-173 73.5q-109 0 -175 -73.5t-79 -213.5zM659 1380q0 43 26 70t67 27q44 0 70 -27t26 -70q0 -42 -26 -67t-70 -25q-41 0 -67 25.5t-26 66.5z" />
<glyph unicode="&#xec;" horiz-adv-x="518" d="M-8 1454l92 119l322 -299l-64 -86zM158 0v1087h202v-1087h-202z" />
<glyph unicode="&#xed;" horiz-adv-x="518" d="M115 1274l321 299l92 -119l-350 -266zM158 0v1087h202v-1087h-202z" />
<glyph unicode="&#xee;" horiz-adv-x="518" d="M-27 1260l287 292l287 -292l-64 -74l-223 186l-223 -186zM158 0v1087h202v-1087h-202z" />
<glyph unicode="&#xef;" horiz-adv-x="518" d="M-20 1380q0 43 27.5 70t70.5 27q42 0 70 -27.5t28 -69.5q0 -41 -28 -66.5t-70 -25.5q-43 0 -70.5 25.5t-27.5 66.5zM158 0v1087h202v-1087h-202zM352 1380q0 43 25.5 70t66.5 27q44 0 70.5 -27t26.5 -70q0 -41 -26.5 -66.5t-70.5 -25.5q-41 0 -66.5 25.5t-25.5 66.5z" />
<glyph unicode="&#xf0;" horiz-adv-x="1277" d="M113 535q0 125 40.5 226.5t111 166.5t163.5 100t199 35q143 0 250 -66q-59 109 -214 192.5t-296 102.5l34 183q358 -49 561 -285t203 -586q0 -96 -18.5 -185.5t-59.5 -171.5t-100.5 -143t-149 -97t-198.5 -36q-123 0 -224 46t-166 124t-100.5 179.5t-35.5 214.5zM309 553 q0 -92 38.5 -177t116 -142.5t175.5 -57.5q85 0 149.5 35.5t101.5 95.5t55 130.5t18 148.5q0 99 -23 178q-60 57 -130 87t-171 30q-61 0 -119 -21t-105.5 -60.5t-76.5 -103.5t-29 -143z" />
<glyph unicode="&#xf1;" horiz-adv-x="1138" d="M150 0v1087h192v-104q116 133 297 133q154 0 252 -109t98 -309v-698h-203v659q0 256 -206 256q-146 0 -228 -190v-725h-202zM160 1341q25 91 92.5 147t138.5 56q49 0 92.5 -18t74.5 -43.5t59 -51t57 -43.5t57 -18q61 0 96.5 41.5t57.5 122.5l92 -82q-26 -97 -92.5 -153 t-147.5 -56q-44 0 -85.5 17.5t-72.5 42.5t-60 50t-59.5 42.5t-58.5 17.5q-99 0 -149 -153z" />
<glyph unicode="&#xf2;" horiz-adv-x="1155" d="M113 543q0 275 128 424t337 149t336.5 -149t127.5 -424q0 -274 -127.5 -423t-336.5 -149t-337 149t-128 423zM309 1454l92 119l322 -299l-64 -86zM313 543q0 -183 70 -278t195 -95t195.5 95t70.5 278t-70 277.5t-196 94.5q-125 0 -195 -94.5t-70 -277.5z" />
<glyph unicode="&#xf3;" horiz-adv-x="1155" d="M113 543q0 275 128 424t337 149t336.5 -149t127.5 -424q0 -274 -127.5 -423t-336.5 -149t-337 149t-128 423zM313 543q0 -183 70 -278t195 -95t195.5 95t70.5 278t-70 277.5t-196 94.5q-125 0 -195 -94.5t-70 -277.5zM432 1274l322 299l92 -119l-350 -266z" />
<glyph unicode="&#xf4;" horiz-adv-x="1155" d="M113 543q0 275 128 424t337 149t336.5 -149t127.5 -424q0 -274 -127.5 -423t-336.5 -149t-337 149t-128 423zM291 1260l287 292l286 -292l-63 -74l-223 186l-224 -186zM313 543q0 -183 70 -278t195 -95t195.5 95t70.5 278t-70 277.5t-196 94.5q-125 0 -195 -94.5 t-70 -277.5z" />
<glyph unicode="&#xf5;" horiz-adv-x="1155" d="M113 543q0 275 128 424t337 149t336.5 -149t127.5 -424q0 -274 -127.5 -423t-336.5 -149t-337 149t-128 423zM168 1341q25 91 92.5 147t138.5 56q49 0 92.5 -18t74.5 -43.5t59 -51t57 -43.5t57 -18q61 0 96.5 41.5t57.5 122.5l92 -82q-26 -97 -92.5 -153t-147.5 -56 q-44 0 -85.5 17.5t-72.5 42.5t-59.5 50t-59 42.5t-58.5 17.5q-50 0 -88 -40.5t-62 -112.5zM313 543q0 -183 70 -278t195 -95t195.5 95t70.5 278t-70 277.5t-196 94.5q-125 0 -195 -94.5t-70 -277.5z" />
<glyph unicode="&#xf6;" horiz-adv-x="1155" d="M113 543q0 275 128 424t337 149t336.5 -149t127.5 -424q0 -274 -127.5 -423t-336.5 -149t-337 149t-128 423zM297 1380q0 43 27.5 70t70.5 27q42 0 70.5 -27.5t28.5 -69.5q0 -41 -28.5 -66.5t-70.5 -25.5q-43 0 -70.5 25.5t-27.5 66.5zM313 543q0 -183 70 -278t195 -95 t195.5 95t70.5 278t-70 277.5t-196 94.5q-125 0 -195 -94.5t-70 -277.5zM670 1380q0 43 25.5 70t66.5 27q44 0 70 -27t26 -70q0 -42 -26 -67t-70 -25q-41 0 -66.5 25.5t-25.5 66.5z" />
<glyph unicode="&#xf7;" horiz-adv-x="911" d="M154 471v127h604v-127h-604zM379 274q0 36 24 62t60 26q35 0 61.5 -26.5t26.5 -61.5t-26.5 -60.5t-61.5 -25.5q-36 0 -60 25t-24 61zM379 793q0 37 24 63.5t60 26.5q35 0 61.5 -26.5t26.5 -63.5q0 -35 -26 -59.5t-62 -24.5t-60 24t-24 60z" />
<glyph unicode="&#xf8;" horiz-adv-x="1155" d="M113 543q0 275 128 424t337 149q70 0 135 -18l39 106h135l-58 -160q213 -143 213 -501q0 -274 -127.5 -423t-336.5 -149q-67 0 -132 19l-38 -107h-136l58 156q-217 137 -217 504zM309 551q0 -211 94 -305l242 667q-46 11 -67 11q-126 0 -197.5 -95.5t-71.5 -277.5z M510 170q31 -8 68 -8q121 0 194.5 87.5t73.5 250.5q0 126 -20.5 206.5t-69.5 133.5z" />
<glyph unicode="&#xf9;" horiz-adv-x="1118" d="M150 389v698h202v-591q0 -169 45.5 -246.5t153.5 -77.5q71 0 122 46t93 144v725h203v-1087h-193v104q-104 -133 -274 -133q-155 0 -253.5 107.5t-98.5 310.5zM291 1454l92 119l322 -299l-64 -86z" />
<glyph unicode="&#xfa;" horiz-adv-x="1118" d="M150 389v698h202v-591q0 -169 45.5 -246.5t153.5 -77.5q71 0 122 46t93 144v725h203v-1087h-193v104q-104 -133 -274 -133q-155 0 -253.5 107.5t-98.5 310.5zM414 1274l321 299l92 -119l-350 -266z" />
<glyph unicode="&#xfb;" horiz-adv-x="1118" d="M150 389v698h202v-591q0 -169 45.5 -246.5t153.5 -77.5q71 0 122 46t93 144v725h203v-1087h-193v104q-104 -133 -274 -133q-155 0 -253.5 107.5t-98.5 310.5zM272 1260l287 292l287 -292l-64 -74l-223 186l-223 -186z" />
<glyph unicode="&#xfc;" horiz-adv-x="1118" d="M150 389v698h202v-591q0 -169 45.5 -246.5t153.5 -77.5q71 0 122 46t93 144v725h203v-1087h-193v104q-104 -133 -274 -133q-155 0 -253.5 107.5t-98.5 310.5zM279 1380q0 43 27.5 70t70.5 27q42 0 70 -27.5t28 -69.5q0 -41 -28 -66.5t-70 -25.5q-43 0 -70.5 25.5 t-27.5 66.5zM651 1380q0 43 25.5 70t66.5 27q44 0 70.5 -27t26.5 -70q0 -41 -26.5 -66.5t-70.5 -25.5q-41 0 -66.5 25.5t-25.5 66.5z" />
<glyph unicode="&#xfd;" horiz-adv-x="1036" d="M39 1087h225l256 -765l254 765h221l-532 -1480h-213l160 450zM373 1274l321 299l92 -119l-350 -266z" />
<glyph unicode="&#xfe;" horiz-adv-x="1136" d="M154 -393v1816l202 70v-518q29 62 107.5 101.5t171.5 39.5q183 0 286 -147t103 -424q0 -276 -111.5 -425t-296.5 -149q-183 0 -260 129v-426zM344 360q86 -194 229 -194q126 0 192 94.5t66 282.5q0 185 -65 282t-184 97q-154 0 -238 -207v-355z" />
<glyph unicode="&#xff;" horiz-adv-x="1036" d="M39 1087h225l256 -765l254 765h221l-532 -1480h-213l160 450zM238 1380q0 43 27.5 70t70.5 27q42 0 70 -27.5t28 -69.5q0 -41 -28 -66.5t-70 -25.5q-43 0 -70.5 25.5t-27.5 66.5zM610 1380q0 43 25.5 70t66.5 27q44 0 70.5 -27t26.5 -70q0 -41 -26.5 -66.5t-70.5 -25.5 q-41 0 -66.5 25.5t-25.5 66.5z" />
<glyph unicode="&#x152;" horiz-adv-x="1978" d="M113 707q0 177 44 318.5t121 232.5t180 139.5t224 48.5q292 0 436 -211v182h752v-205h-557v-387h356v-202h-356v-424h575v-199h-770v178q-143 -207 -436 -207q-121 0 -224 48t-180 138.5t-121 231.5t-44 318zM315 707q0 -263 104.5 -399t291.5 -136q186 0 291.5 137 t105.5 398q0 264 -104.5 399t-292.5 135q-187 0 -291.5 -135.5t-104.5 -398.5z" />
<glyph unicode="&#x153;" horiz-adv-x="1867" d="M113 543q0 275 128 424t337 149q244 0 364 -205q111 205 361 205q204 0 330 -151t126 -412q0 -30 -10 -72h-707q10 -152 85 -235.5t198 -83.5q138 0 227 102l129 -114q-55 -80 -155 -129.5t-213 -49.5q-121 0 -216.5 52t-154.5 155q-56 -103 -150 -155t-214 -52 q-209 0 -337 149t-128 423zM313 543q0 -183 70 -278t195 -95t195.5 95t70.5 278t-70 277.5t-196 94.5q-125 0 -195 -94.5t-70 -277.5zM1049 641h505q-13 140 -78.5 213.5t-172.5 73.5q-109 0 -175 -73.5t-79 -213.5z" />
<glyph unicode="&#x178;" horiz-adv-x="1216" d="M31 1417h231l346 -741l346 741h230l-475 -981v-436h-203v438zM328 1710q0 43 27.5 69.5t70.5 26.5q42 0 70 -27t28 -69q0 -41 -28 -66.5t-70 -25.5q-43 0 -70.5 25.5t-27.5 66.5zM700 1710q0 43 26 69.5t67 26.5q44 0 70 -26.5t26 -69.5q0 -42 -26 -67t-70 -25 q-41 0 -67 25.5t-26 66.5z" />
<glyph unicode="&#x2c6;" horiz-adv-x="882" d="M154 1260l286 292l287 -292l-63 -74l-224 186l-223 -186z" />
<glyph unicode="&#x2dc;" horiz-adv-x="1124" d="M154 1341q25 91 92.5 147t138.5 56q49 0 92.5 -18t74.5 -43.5t59 -51t57 -43.5t57 -18q61 0 96.5 41.5t57.5 122.5l92 -82q-26 -97 -92.5 -153t-147.5 -56q-44 0 -85.5 17.5t-72.5 42.5t-60 50t-59.5 42.5t-58.5 17.5q-99 0 -149 -153z" />
<glyph unicode="&#x2000;" horiz-adv-x="951" />
<glyph unicode="&#x2001;" horiz-adv-x="1903" />
<glyph unicode="&#x2002;" horiz-adv-x="951" />
<glyph unicode="&#x2003;" horiz-adv-x="1903" />
<glyph unicode="&#x2004;" horiz-adv-x="634" />
<glyph unicode="&#x2005;" horiz-adv-x="475" />
<glyph unicode="&#x2006;" horiz-adv-x="317" />
<glyph unicode="&#x2007;" horiz-adv-x="317" />
<glyph unicode="&#x2008;" horiz-adv-x="237" />
<glyph unicode="&#x2009;" horiz-adv-x="380" />
<glyph unicode="&#x200a;" horiz-adv-x="105" />
<glyph unicode="&#x2010;" horiz-adv-x="768" d="M68 457v166h630v-166h-630z" />
<glyph unicode="&#x2011;" horiz-adv-x="768" d="M68 457v166h630v-166h-630z" />
<glyph unicode="&#x2012;" horiz-adv-x="768" d="M68 457v166h630v-166h-630z" />
<glyph unicode="&#x2013;" horiz-adv-x="1060" d="M68 457v166h923v-166h-923z" />
<glyph unicode="&#x2014;" horiz-adv-x="1560" d="M68 457v166h1421v-166h-1421z" />
<glyph unicode="&#x2018;" horiz-adv-x="622" d="M154 1393l174 69l139 -415l-125 -58z" />
<glyph unicode="&#x2019;" horiz-adv-x="620" d="M154 1047l139 415l174 -69l-188 -404z" />
<glyph unicode="&#x201a;" horiz-adv-x="620" d="M154 -262l139 416l174 -70l-188 -403z" />
<glyph unicode="&#x201c;" horiz-adv-x="913" d="M154 1391l174 69l139 -416l-125 -57zM446 1391l175 69l139 -416l-125 -57z" />
<glyph unicode="&#x201d;" horiz-adv-x="915" d="M154 1047l139 415l176 -69l-190 -404zM449 1047l137 415l176 -69l-191 -404z" />
<glyph unicode="&#x201e;" horiz-adv-x="913" d="M154 -260l139 414l174 -68l-188 -405zM446 -260l140 414l174 -68l-189 -405z" />
<glyph unicode="&#x2022;" horiz-adv-x="827" d="M113 723q0 120 88 204.5t213 84.5t213 -84.5t88 -204.5t-88 -204.5t-213 -84.5t-213 84.5t-88 204.5z" />
<glyph unicode="&#x2026;" horiz-adv-x="2191" d="M174 76q0 44 29.5 76t75.5 32q43 0 75.5 -32.5t32.5 -75.5q0 -42 -32.5 -73.5t-75.5 -31.5q-46 0 -75.5 30.5t-29.5 74.5zM987 76q0 43 30.5 75.5t74.5 32.5t76 -32.5t32 -75.5t-32 -74t-76 -31t-74.5 31t-30.5 74zM1800 76q0 44 29.5 76t75.5 32q43 0 75.5 -32.5 t32.5 -75.5q0 -42 -32.5 -73.5t-75.5 -31.5q-46 0 -75.5 30.5t-29.5 74.5z" />
<glyph unicode="&#x202f;" horiz-adv-x="380" />
<glyph unicode="&#x2039;" horiz-adv-x="442" d="M68 481v111l303 256v-154l-201 -157l201 -160v-152z" />
<glyph unicode="&#x203a;" horiz-adv-x="442" d="M68 225v152l198 160l-198 157v154l303 -256v-111z" />
<glyph unicode="&#x205f;" horiz-adv-x="475" />
<glyph unicode="&#x20ac;" horiz-adv-x="1310" d="M39 420l117 166h80q-5 132 -5 170q0 29 5 49h-197l117 168h104q56 231 204.5 352t362.5 121q237 0 418 -178l-96 -144q-142 154 -322 154q-298 0 -393 -305h610l-108 -168h-535q-4 -18 -4 -60q0 -125 6 -159h390l-107 -166h-244q100 -285 385 -285q186 0 308 137l139 -86 q-180 -215 -447 -215q-206 0 -354 115t-207 334h-227z" />
<glyph unicode="&#x2122;" horiz-adv-x="1771" d="M59 1288v127h648v-127h-248v-708h-127v708h-273zM842 578v837h170l231 -569l234 569h170v-837h-127v610l-250 -610h-49l-250 610v-610h-129z" />
<glyph unicode="&#xe000;" horiz-adv-x="1085" d="M0 0v1085h1085v-1085h-1085z" />
<glyph unicode="&#xfb01;" horiz-adv-x="1089" d="M55 915v172h103v134q0 264 233 264q64 0 131 -23v-176q-36 19 -84 19q-39 0 -57.5 -22t-18.5 -75v-121h160v-172h-160v-915h-204v915h-103zM719 1356q0 45 30 77.5t74 32.5t76.5 -33t32.5 -77q0 -43 -32.5 -74t-76.5 -31t-74 31t-30 74zM723 0v1087h205v-1087h-205z" />
<glyph unicode="&#xfb02;" horiz-adv-x="1071" d="M55 915v172h103v134q0 264 233 264q64 0 131 -23v-176q-36 19 -84 19q-39 0 -57.5 -22t-18.5 -75v-121h160v-172h-160v-915h-204v915h-103zM715 0v1423l203 70v-1493h-203z" />
</font>
</defs>
</svg>
